<?xml version="1.0" encoding="UTF-8"?>
<svg id="Layer_2" data-name="Layer 2" xmlns="http://www.w3.org/2000/svg" xmlns:xlink="http://www.w3.org/1999/xlink" viewBox="0 0 266.2 195.34">
  <defs>
    <style>
      .cls-1 {
        fill: url(#linear-gradient);
      }

      .cls-2 {
        fill: #e4d63e;
      }

      .cls-3, .cls-4 {
        fill: #fff;
      }

      .cls-5 {
        fill: #9787bc;
      }

      .cls-6 {
        fill: #9988bf;
      }

      .cls-7 {
        fill: #9988be;
      }

      .cls-8 {
        fill: #9989bf;
      }

      .cls-9 {
        fill: #9887bc;
      }

      .cls-10 {
        fill: #9887bd;
      }

      .cls-11 {
        fill: #9888bd;
      }

      .cls-12 {
        fill: #9786bb;
      }

      .cls-13 {
        fill: #8b7dae;
      }

      .cls-14 {
        fill: #8b7dad;
      }

      .cls-15 {
        fill: #9282b5;
      }

      .cls-16 {
        fill: #9283b6;
      }

      .cls-17 {
        fill: #8478a7;
      }

      .cls-18 {
        fill: #8478a6;
      }

      .cls-19 {
        fill: #8579a8;
      }

      .cls-20 {
        fill: #8578a8;
      }

      .cls-21 {
        fill: #877aaa;
      }

      .cls-22 {
        fill: #877aa9;
      }

      .cls-23 {
        fill: #8a7cad;
      }

      .cls-24 {
        fill: #9081b3;
      }

      .cls-25 {
        fill: #9383b6;
      }

      .cls-26 {
        fill: #9182b5;
      }

      .cls-27 {
        fill: #9383b7;
      }

      .cls-28 {
        fill: #9181b4;
      }

      .cls-29 {
        fill: #8c7daf;
      }

      .cls-30 {
        fill: #8e7fb1;
      }

      .cls-31 {
        fill: #8d7eb0;
      }

      .cls-32 {
        fill: #8f80b3;
      }

      .cls-33 {
        fill: #8f80b2;
      }

      .cls-34 {
        fill: #8d7fb0;
      }

      .cls-35 {
        fill: #8c7eaf;
      }

      .cls-36 {
        fill: #8578a7;
      }

      .cls-37, .cls-38 {
        fill: #231f20;
      }

      .cls-39 {
        fill: #413955;
      }

      .cls-40 {
        fill: #9484b8;
      }

      .cls-41 {
        fill: #9484b7;
      }

      .cls-42 {
        fill: #9584b8;
      }

      .cls-43 {
        fill: #9585b9;
      }

      .cls-44 {
        fill: #9685ba;
      }

      .cls-45 {
        fill: #9686ba;
      }

      .cls-46 {
        fill: #544c6b;
      }

      .cls-47 {
        fill: #8679a9;
      }

      .cls-48 {
        fill: #8679a8;
      }

      .cls-49 {
        fill: #9a89c1;
      }

      .cls-50 {
        fill: #9a89c0;
      }

      .cls-51 {
        fill: #887aaa;
      }

      .cls-52 {
        fill: #897cac;
      }

      .cls-53 {
        fill: #897bab;
      }

      .cls-54 {
        fill: #887bab;
      }

      .cls-55 {
        fill: #867aa9;
      }

      .cls-56 {
        fill: #8377a6;
      }

      .cls-4, .cls-57 {
        stroke: #413955;
      }

      .cls-4, .cls-57, .cls-38 {
        stroke-miterlimit: 10;
      }

      .cls-57 {
        fill: #73649e;
      }

      .cls-58 {
        fill: url(#linear-gradient-8);
      }

      .cls-59 {
        fill: url(#linear-gradient-9);
      }

      .cls-60 {
        fill: url(#linear-gradient-3);
      }

      .cls-61 {
        fill: url(#linear-gradient-4);
      }

      .cls-62 {
        fill: url(#linear-gradient-2);
      }

      .cls-63 {
        fill: url(#linear-gradient-6);
      }

      .cls-64 {
        fill: url(#linear-gradient-7);
      }

      .cls-65 {
        fill: url(#linear-gradient-5);
      }

      .cls-38 {
        font-family: Arial-ItalicMT, Arial;
        font-size: 12px;
        stroke: #231f20;
        stroke-width: .5px;
      }

      .cls-66 {
        fill: url(#linear-gradient-14);
      }

      .cls-67 {
        fill: url(#linear-gradient-18);
      }

      .cls-68 {
        fill: url(#linear-gradient-22);
      }

      .cls-69 {
        fill: url(#linear-gradient-20);
      }

      .cls-70 {
        fill: url(#linear-gradient-21);
      }

      .cls-71 {
        fill: url(#linear-gradient-23);
      }

      .cls-72 {
        fill: url(#linear-gradient-15);
      }

      .cls-73 {
        fill: url(#linear-gradient-19);
      }

      .cls-74 {
        fill: url(#linear-gradient-16);
      }

      .cls-75 {
        fill: url(#linear-gradient-17);
      }

      .cls-76 {
        fill: url(#linear-gradient-13);
      }

      .cls-77 {
        fill: url(#linear-gradient-12);
      }

      .cls-78 {
        fill: url(#linear-gradient-10);
      }

      .cls-79 {
        fill: url(#linear-gradient-11);
      }

      .cls-80 {
        fill: url(#linear-gradient-27);
      }

      .cls-81 {
        fill: url(#linear-gradient-24);
      }

      .cls-82 {
        fill: url(#linear-gradient-26);
      }

      .cls-83 {
        fill: url(#linear-gradient-25);
      }

      .cls-84 {
        fill: url(#linear-gradient-28);
      }

      .cls-85 {
        fill: url(#linear-gradient-29);
      }

      .cls-86 {
        fill: url(#linear-gradient-30);
      }

      .cls-87 {
        fill: url(#linear-gradient-32);
      }

      .cls-88 {
        fill: url(#linear-gradient-31);
      }
    </style>
    <linearGradient id="linear-gradient" x1="136.07" y1="66.35" x2="147.24" y2="66.35" gradientTransform="translate(-55.27 -43.58) rotate(12.63)" gradientUnits="userSpaceOnUse">
      <stop offset="0" stop-color="#e4d63e"/>
      <stop offset=".99" stop-color="#a99b3d"/>
    </linearGradient>
    <linearGradient id="linear-gradient-2" x1="77.62" y1="55.38" x2="85.43" y2="55.38" gradientTransform="translate(-8.08 14.35) rotate(-9.59)" xlink:href="#linear-gradient"/>
    <linearGradient id="linear-gradient-3" x1="90.08" y1="55.73" x2="101.17" y2="55.73" gradientTransform="translate(-13.83 39.33) rotate(-21.71)" xlink:href="#linear-gradient"/>
    <linearGradient id="linear-gradient-4" x1="102.92" y1="64.46" x2="109.48" y2="64.46" gradientTransform="matrix(1, 0, 0, 1, 0, 0)" xlink:href="#linear-gradient"/>
    <linearGradient id="linear-gradient-5" x1="113.64" y1="70.25" x2="124.05" y2="70.25" gradientTransform="translate(-16.01 99.82) rotate(-42.96)" xlink:href="#linear-gradient"/>
    <linearGradient id="linear-gradient-6" x1="123.4" y1="78.26" x2="136.01" y2="78.26" gradientTransform="translate(-14.92 123.33) rotate(-48.41)" xlink:href="#linear-gradient"/>
    <linearGradient id="linear-gradient-7" x1="129.4" y1="92.82" x2="136.12" y2="92.82" gradientTransform="matrix(1, 0, 0, 1, 0, 0)" xlink:href="#linear-gradient"/>
    <linearGradient id="linear-gradient-8" x1="136.04" y1="106.42" x2="143.99" y2="106.42" gradientTransform="translate(8.35 223.01) rotate(-78.76)" xlink:href="#linear-gradient"/>
    <linearGradient id="linear-gradient-9" x1="135.97" y1="124.71" x2="139.92" y2="124.71" gradientTransform="translate(17.11 266.06) rotate(-91.59)" xlink:href="#linear-gradient"/>
    <linearGradient id="linear-gradient-10" x1="136.53" y1="138.32" x2="144.63" y2="138.32" gradientTransform="translate(37.32 306.35) rotate(-102.96)" xlink:href="#linear-gradient"/>
    <linearGradient id="linear-gradient-11" x1="129.66" y1="151.3" x2="135.46" y2="151.3" gradientTransform="translate(45.93 332.85) rotate(-113.27)" xlink:href="#linear-gradient"/>
    <linearGradient id="linear-gradient-12" x1="121.88" y1="165.97" x2="132.01" y2="165.97" gradientTransform="translate(87.27 371.11) rotate(-131.64)" xlink:href="#linear-gradient"/>
    <linearGradient id="linear-gradient-13" x1="110.19" y1="175.81" x2="117.59" y2="175.81" gradientTransform="matrix(1, 0, 0, 1, 0, 0)" xlink:href="#linear-gradient"/>
    <linearGradient id="linear-gradient-14" x1="96.19" y1="185.61" x2="107.32" y2="185.61" gradientTransform="translate(135.07 394.64) rotate(-160.32)" xlink:href="#linear-gradient"/>
    <linearGradient id="linear-gradient-15" x1="79.08" y1="191.38" x2="90.25" y2="191.38" gradientTransform="translate(131.65 395.31) rotate(-169.11)" xlink:href="#linear-gradient"/>
    <linearGradient id="linear-gradient-16" x1="66.64" y1="188.46" x2="73.48" y2="188.46" gradientTransform="translate(136.01 378.41) rotate(-178.75)" xlink:href="#linear-gradient"/>
    <linearGradient id="linear-gradient-17" x1="45.85" y1="189.31" x2="56.94" y2="189.31" gradientTransform="translate(169.87 345.65) rotate(158.03)" xlink:href="#linear-gradient"/>
    <linearGradient id="linear-gradient-18" x1="33.83" y1="181.07" x2="42.28" y2="181.07" gradientTransform="translate(172.56 308.12) rotate(145.24)" xlink:href="#linear-gradient"/>
    <linearGradient id="linear-gradient-19" x1="18.16" y1="173.09" x2="28.55" y2="173.09" gradientTransform="translate(159.3 282.76) rotate(136.58)" xlink:href="#linear-gradient"/>
    <linearGradient id="linear-gradient-20" x1="14.21" y1="160.23" x2="20.33" y2="160.23" gradientTransform="matrix(1, 0, 0, 1, 0, 0)" xlink:href="#linear-gradient"/>
    <linearGradient id="linear-gradient-21" x1=".55" y1="151.12" x2="11.33" y2="151.12" gradientTransform="translate(146.45 207.06) rotate(113.96)" xlink:href="#linear-gradient"/>
    <linearGradient id="linear-gradient-22" x1=".62" y1="137.41" x2="8.34" y2="137.41" gradientTransform="translate(141.01 153.52) rotate(98.6)" xlink:href="#linear-gradient"/>
    <linearGradient id="linear-gradient-23" x1="2.75" y1="123.23" x2="7.98" y2="123.23" gradientTransform="matrix(1, 0, 0, 1, 0, 0)" xlink:href="#linear-gradient"/>
    <linearGradient id="linear-gradient-24" x1="0" y1="108.49" x2="7.97" y2="108.49" gradientTransform="translate(109.51 82.99) rotate(78.52)" xlink:href="#linear-gradient"/>
    <linearGradient id="linear-gradient-25" x1="7.18" y1="94.92" x2="13.51" y2="94.92" gradientTransform="matrix(1, 0, 0, 1, 0, 0)" xlink:href="#linear-gradient"/>
    <linearGradient id="linear-gradient-26" x1="9.85" y1="82" x2="19.54" y2="82" gradientTransform="translate(74.19 23.68) rotate(55.73)" xlink:href="#linear-gradient"/>
    <linearGradient id="linear-gradient-27" x1="18.73" y1="70.76" x2="29.28" y2="70.76" gradientTransform="translate(51.18 1.16) rotate(40.07)" xlink:href="#linear-gradient"/>
    <linearGradient id="linear-gradient-28" x1="31.54" y1="66.15" x2="38.72" y2="66.15" gradientTransform="translate(38.57 -8.67) rotate(30.61)" xlink:href="#linear-gradient"/>
    <linearGradient id="linear-gradient-29" x1="40.12" y1="56.82" x2="51.13" y2="56.82" gradientTransform="translate(29.45 -14.23) rotate(25.94)" xlink:href="#linear-gradient"/>
    <linearGradient id="linear-gradient-30" x1="53.25" y1="55.89" x2="61.06" y2="55.89" gradientTransform="translate(13.6 -11.14) rotate(12.63)" xlink:href="#linear-gradient"/>
    <linearGradient id="linear-gradient-31" x1="24.3" y1="151.26" x2="33.08" y2="143.69" gradientTransform="translate(3.45 -.6) rotate(.09) skewX(.19)" gradientUnits="userSpaceOnUse">
      <stop offset=".39" stop-color="#9a89c1"/>
      <stop offset=".67" stop-color="#504b63"/>
    </linearGradient>
    <linearGradient id="linear-gradient-32" x1="35.06" y1="144.07" x2="38.53" y2="141.48" gradientUnits="userSpaceOnUse">
      <stop offset=".4" stop-color="#9a89c1"/>
      <stop offset=".68" stop-color="#454156"/>
    </linearGradient>
  </defs>
  <g id="Layer_6" data-name="Layer 6">
    <g>
      <g>
        <path class="cls-37" d="M162.56,2h89.14C252.99,2,252.99,0,251.7,0h-89.14c-1.29,0-1.29,2,0,2h0Z"/>
        <path class="cls-37" d="M264.2,15.63V58.59c0,1.29,2,1.29,2,0V15.63c0-1.29-2-1.29-2,0h0Z"/>
        <g>
          <path class="cls-3" d="M251.51,1c3.77,.03,7.96,2.12,10.3,5.09,2.39,3.03,3.33,5.89,3.38,9.55"/>
          <path class="cls-37" d="M251.51,2c3.37,.06,6.75,1.67,9.03,4.14,2.42,2.62,3.58,5.97,3.65,9.5,.03,1.29,2.03,1.29,2,0-.08-4.07-1.45-7.9-4.24-10.91C259.33,1.88,255.39,.07,251.51,0c-1.29-.02-1.29,1.98,0,2h0Z"/>
        </g>
        <g>
          <path class="cls-3" d="M249.24,70.73c-30.53,0-61.06,0-91.59,0"/>
          <path class="cls-37" d="M249.24,69.73c-23.81,0-47.62,0-71.43,0-6.72,0-13.44,0-20.16,0-1.29,0-1.29,2,0,2,23.81,0,47.62,0,71.43,0,6.72,0,13.44,0,20.16,0,1.29,0,1.29-2,0-2h0Z"/>
        </g>
        <g>
          <path class="cls-3" d="M148.16,57.64V14.68"/>
          <path class="cls-37" d="M149.16,57.64c0-14.32,0-28.64,0-42.95,0-1.29-2-1.29-2,0,0,14.32,0,28.64,0,42.95,0,1.29,2,1.29,2,0h0Z"/>
        </g>
        <g>
          <path class="cls-3" d="M148.16,14.68c.03-3.77,2.12-7.96,5.09-10.3,3.03-2.39,5.89-3.33,9.55-3.38"/>
          <path class="cls-37" d="M149.16,14.68c.06-3.37,1.67-6.75,4.14-9.03,2.62-2.42,5.97-3.58,9.5-3.65,1.29-.03,1.29-2.03,0-2-4.07,.08-7.9,1.45-10.91,4.24-2.85,2.63-4.66,6.57-4.72,10.45-.02,1.29,1.98,1.29,2,0h0Z"/>
        </g>
        <g>
          <path class="cls-3" d="M265.2,57.84c-.03,3.77-1.54,7.01-4.77,9.35-3.31,2.39-7.2,3.48-11.18,3.54"/>
          <path class="cls-37" d="M264.2,57.84c-.05,3.36-1.46,6.38-4.18,8.41-3.11,2.33-6.93,3.4-10.78,3.48-1.29,.03-1.29,2.03,0,2,4.37-.09,8.72-1.35,12.19-4.06,3.09-2.41,4.7-5.95,4.76-9.83,.02-1.29-1.98-1.29-2,0h0Z"/>
        </g>
        <g>
          <path class="cls-3" d="M148.13,57.56c0,8.38,0,16.76,0,25.14"/>
          <path class="cls-37" d="M147.13,57.56c0,8.38,0,16.76,0,25.14,0,1.29,2,1.29,2,0,0-8.38,0-16.76,0-25.14,0-1.29-2-1.29-2,0h0Z"/>
        </g>
        <g>
          <path class="cls-3" d="M159.14,71c-3.65,3.99-7.3,7.98-10.96,11.97"/>
          <path class="cls-37" d="M158.43,70.3c-3.65,3.99-7.3,7.98-10.96,11.97-.87,.95,.54,2.37,1.41,1.41,3.65-3.99,7.3-7.98,10.96-11.97,.87-.95-.54-2.37-1.41-1.41h0Z"/>
        </g>
      </g>
      <text class="cls-38" transform="translate(186.37 40.27)"><tspan x="0" y="0">Oh no!</tspan></text>
    </g>
    <g>
      <path class="cls-3" d="M46.24,113.28s1.36,.6,1.74,.4,1.21-2.4-1.36-2.21-.37,1.81-.37,1.81Z"/>
      <g>
        <polygon class="cls-2" points="67.36 55.29 67.55 64.08 70.05 63.83 69.95 55.04 67.36 55.29"/>
        <rect class="cls-1" x="62.92" y="48.66" width="11.06" height="6.95" rx="2.92" ry="2.92" transform="translate(-3.97 5.66) rotate(-4.61)"/>
        <polygon class="cls-2" points="80 57.48 78.45 65.51 80.8 65.78 82.43 57.76 80 57.48"/>
        <rect class="cls-62" x="77.66" y="52.95" width="7.73" height="4.86" rx="2.04" ry="2.04" transform="translate(10.36 -12.8) rotate(9.59)"/>
        <polygon class="cls-2" points="92.31 57.89 88.75 66.78 91.9 67.96 95.57 59.12 92.31 57.89"/>
        <rect class="cls-60" x="90.1" y="52.26" width="11.06" height="6.95" rx="2.92" ry="2.92" transform="translate(27.4 -31.42) rotate(21.71)"/>
        <polygon class="cls-2" points="104.8 64.64 100.65 71.79 102.59 72.58 106.82 65.46 104.8 64.64"/>
        <path class="cls-61" d="M106.28,66.89l-2.24-1.19c-1.04-.55-1.43-1.83-.86-2.84h0c.57-1.01,1.89-1.38,2.93-.83l2.24,1.19c1.04,.55,1.43,1.83,.86,2.84h0c-.57,1.01-1.89,1.38-2.93,.83Z"/>
        <polygon class="cls-2" points="115.71 71.15 110.67 77.58 113.26 79.7 118.4 73.35 115.71 71.15"/>
        <rect class="cls-65" x="113.31" y="66.77" width="11.06" height="6.95" rx="2.92" ry="2.92" transform="translate(79.73 -62.15) rotate(42.96)"/>
        <polygon class="cls-2" points="125.56 78.54 117.61 85.77 120.39 88.88 128.45 81.76 125.56 78.54"/>
        <rect class="cls-63" x="122.82" y="73.93" width="13.78" height="8.66" rx="3.64" ry="3.64" transform="translate(102.15 -70.7) rotate(48.41)"/>
        <polygon class="cls-2" points="130.33 92.46 125.64 95.55 126.87 97.8 131.61 94.8 130.33 92.46"/>
        <path class="cls-64" d="M131.29,95.56l-1.55-2.75c-.72-1.28-.3-2.94,.93-3.69h0c1.23-.75,2.82-.31,3.54,.97l1.55,2.75c.72,1.28,.3,2.94-.93,3.69h0c-1.23,.75-2.82,.31-3.54-.97Z"/>
        <polygon class="cls-2" points="137.09 104.92 129.83 106.61 130.44 109.9 137.72 108.33 137.09 104.92"/>
        <rect class="cls-58" x="134.48" y="102.94" width="11.06" height="6.95" rx="2.92" ry="2.92" transform="translate(217.11 -51.65) rotate(78.76)"/>
        <polygon class="cls-2" points="136.54 123.53 132.4 123.56 132.32 125.42 136.47 125.46 136.54 123.53"/>
        <rect class="cls-59" x="134.87" y="122.77" width="6.15" height="3.87" rx="1.63" ry="1.63" transform="translate(266.43 -9.72) rotate(91.59)"/>
        <polygon class="cls-2" points="138.53 135.76 131.22 134.33 130.42 137.58 137.71 139.13 138.53 135.76"/>
        <rect class="cls-78" x="135.05" y="134.84" width="11.06" height="6.95" rx="2.92" ry="2.92" transform="translate(306.91 32.35) rotate(102.96)"/>
        <polygon class="cls-2" points="131.54 149.42 127.04 147.66 126.15 149.65 130.63 151.48 131.54 149.42"/>
        <rect class="cls-79" x="128.97" y="149.04" width="7.19" height="4.52" rx="1.9" ry="1.9" transform="translate(323.92 89.3) rotate(113.27)"/>
        <polygon class="cls-2" points="126.37 162.73 120.64 157.97 118.39 160.44 124.03 165.3 126.37 162.73"/>
        <rect class="cls-77" x="121.41" y="162.49" width="11.06" height="6.95" rx="2.92" ry="2.92" transform="translate(335.32 181.39) rotate(131.64)"/>
        <polygon class="cls-2" points="114.01 173.29 110.77 168.73 108.79 170.19 111.97 174.8 114.01 173.29"/>
        <path class="cls-76" d="M111.24,174.54l2.41-1.83c1.12-.85,2.69-.57,3.48,.63h0c.8,1.2,.53,2.87-.59,3.73l-2.41,1.83c-1.12,.85-2.69,.57-3.48-.63h0c-.8-1.2-.53-2.87,.59-3.73Z"/>
        <polygon class="cls-2" points="102.81 182.5 100.07 175.57 96.9 176.65 99.53 183.63 102.81 182.5"/>
        <rect class="cls-66" x="96.22" y="182.13" width="11.06" height="6.95" rx="2.92" ry="2.92" transform="translate(260.07 326.11) rotate(160.32)"/>
        <polygon class="cls-2" points="86.18 188.47 84.53 181.2 81.23 181.79 82.76 189.08 86.18 188.47"/>
        <rect class="cls-72" x="79.13" y="187.9" width="11.06" height="6.95" rx="2.92" ry="2.92" transform="translate(203.96 363.32) rotate(169.11)"/>
        <polygon class="cls-2" points="71.28 186.85 71.03 182.25 68.97 182.27 69.14 186.87 71.28 186.85"/>
        <rect class="cls-74" x="66.65" y="186.32" width="6.83" height="4.29" rx="1.8" ry="1.8" transform="translate(144.2 375.36) rotate(178.75)"/>
        <polygon class="cls-2" points="54.25 187.68 56.8 180.68 53.72 179.39 51.05 186.34 54.25 187.68"/>
        <rect class="cls-75" x="45.87" y="185.83" width="11.06" height="6.95" rx="2.92" ry="2.92" transform="translate(28.25 384.09) rotate(-158.03)"/>
        <polygon class="cls-2" points="40.52 180.32 43.7 175.4 41.56 173.88 38.3 178.74 40.52 180.32"/>
        <rect class="cls-67" x="33.71" y="178.34" width="8.69" height="5.46" rx="2.3" ry="2.3" transform="translate(-33.93 351.52) rotate(-145.24)"/>
        <polygon class="cls-2" points="26.61 172.62 31.55 167.05 29.15 164.71 24.12 170.21 26.61 172.62"/>
        <rect class="cls-73" x="17.83" y="169.62" width="11.06" height="6.95" rx="2.92" ry="2.92" transform="translate(-78.65 314.87) rotate(-136.58)"/>
        <polygon class="cls-2" points="19.44 160.44 23.48 157.32 22.28 155.27 18.2 158.32 19.44 160.44"/>
        <path class="cls-69" d="M18.45,157.6l1.5,2.49c.7,1.16,.4,2.73-.66,3.49h0c-1.06,.76-2.5,.44-3.2-.72l-1.5-2.49c-.7-1.16-.4-2.73,.66-3.49h0c1.06-.76,2.5-.44,3.2,.72Z"/>
        <polygon class="cls-2" points="9.89 152.06 20.57 147.35 18.86 143.7 8.11 148.27 9.89 152.06"/>
        <rect class="cls-70" x="-.7" y="146.94" width="13.29" height="8.35" rx="3.51" ry="3.51" transform="translate(-129.75 217.91) rotate(-113.96)"/>
        <polygon class="cls-2" points="7.42 139.03 16.43 137.63 15.89 134.32 6.86 135.6 7.42 139.03"/>
        <rect class="cls-68" x="-1.05" y="133.93" width="11.06" height="6.95" rx="2.92" ry="2.92" transform="translate(-130.71 162.38) rotate(-98.6)"/>
        <polygon class="cls-2" points="7.54 125.21 16.37 125.08 16.12 121.72 7.27 121.72 7.54 125.21"/>
        <path class="cls-71" d="M7.9,121.08l.08,4.11c.04,1.91-1.09,3.52-2.5,3.57h0c-1.42,.05-2.6-1.47-2.64-3.38l-.08-4.11c-.04-1.91,1.09-3.52,2.5-3.57h0c1.42-.05,2.6,1.47,2.64,3.38Z"/>
        <polygon class="cls-2" points="6.23 111.04 15.93 113.07 16.52 109.76 6.83 107.61 6.23 111.04"/>
        <rect class="cls-81" x="-1.55" y="105.02" width="11.06" height="6.95" rx="2.92" ry="2.92" transform="translate(-103.13 90.8) rotate(-78.52)"/>
        <polygon class="cls-2" points="11.59 97.21 18.6 100.49 19.51 98.09 12.53 94.73 11.59 97.21"/>
        <path class="cls-83" d="M13.3,94.55l-1.22,2.88c-.57,1.34-2.09,1.95-3.37,1.36h0c-1.29-.59-1.88-2.17-1.31-3.51l1.22-2.88c.57-1.34,2.09-1.95,3.37-1.36h0c1.29,.59,1.88,2.17,1.31,3.51Z"/>
        <polygon class="cls-2" points="15.73 85.18 23.08 90.1 24.95 87.31 17.67 82.29 15.73 85.18"/>
        <rect class="cls-82" x="9.17" y="78.52" width="11.06" height="6.95" rx="2.92" ry="2.92" transform="translate(-61.34 47.97) rotate(-55.73)"/>
        <polygon class="cls-2" points="24.14 74.09 29.73 80.57 32.29 78.4 26.78 71.84 24.14 74.09"/>
        <rect class="cls-80" x="18.47" y="67.28" width="11.06" height="6.95" rx="2.92" ry="2.92" transform="translate(-39.91 32.06) rotate(-40.07)"/>
        <polygon class="cls-2" points="35.25 68.53 38.21 73.4 40.1 72.26 37.21 67.35 35.25 68.53"/>
        <rect class="cls-84" x="31.48" y="63.86" width="7.29" height="4.58" rx="1.93" ry="1.93" transform="translate(-28.78 27.1) rotate(-30.61)"/>
        <polygon class="cls-2" points="45.35 60.48 49.01 67.59 52.03 66.14 48.48 58.97 45.35 60.48"/>
        <rect class="cls-85" x="40.09" y="53.34" width="11.06" height="6.95" rx="2.92" ry="2.92" transform="translate(-20.26 25.68) rotate(-25.94)"/>
        <polygon class="cls-2" points="56.53 58.31 57.95 64.54 60.23 64 58.89 57.75 56.53 58.31"/>
        <rect class="cls-86" x="53.29" y="53.46" width="7.73" height="4.86" rx="2.04" ry="2.04" transform="translate(-10.84 13.85) rotate(-12.63)"/>
        <g>
          <ellipse class="cls-56" cx="73.08" cy="123.92" rx="59.79" ry="60.76"/>
          <ellipse class="cls-18" cx="73.03" cy="123.85" rx="59.73" ry="60.7"/>
          <ellipse class="cls-17" cx="72.98" cy="123.78" rx="59.67" ry="60.64"/>
          <ellipse class="cls-36" cx="72.93" cy="123.71" rx="59.61" ry="60.58"/>
          <ellipse class="cls-20" cx="72.88" cy="123.64" rx="59.55" ry="60.53"/>
          <ellipse class="cls-19" cx="72.83" cy="123.57" rx="59.5" ry="60.47"/>
          <ellipse class="cls-48" cx="72.78" cy="123.5" rx="59.44" ry="60.41"/>
          <ellipse class="cls-47" cx="72.73" cy="123.43" rx="59.38" ry="60.35"/>
          <ellipse class="cls-55" cx="72.68" cy="123.36" rx="59.32" ry="60.29"/>
          <ellipse class="cls-22" cx="72.63" cy="123.3" rx="59.26" ry="60.23"/>
          <ellipse class="cls-21" cx="72.58" cy="123.23" rx="59.21" ry="60.17"/>
          <ellipse class="cls-51" cx="72.53" cy="123.16" rx="59.15" ry="60.11"/>
          <ellipse class="cls-54" cx="72.48" cy="123.09" rx="59.09" ry="60.05"/>
          <ellipse class="cls-54" cx="72.43" cy="123.02" rx="59.03" ry="59.99"/>
          <ellipse class="cls-53" cx="72.38" cy="122.95" rx="58.97" ry="59.93"/>
          <ellipse class="cls-52" cx="72.33" cy="122.88" rx="58.91" ry="59.87"/>
          <ellipse class="cls-52" cx="72.28" cy="122.81" rx="58.86" ry="59.82"/>
          <ellipse class="cls-23" cx="72.23" cy="122.74" rx="58.8" ry="59.76"/>
          <ellipse class="cls-23" cx="72.18" cy="122.68" rx="58.74" ry="59.7"/>
          <ellipse class="cls-14" cx="72.13" cy="122.61" rx="58.68" ry="59.64"/>
          <ellipse class="cls-13" cx="72.08" cy="122.54" rx="58.62" ry="59.58"/>
          <ellipse class="cls-13" cx="72.03" cy="122.47" rx="58.56" ry="59.52"/>
          <ellipse class="cls-29" cx="71.98" cy="122.4" rx="58.51" ry="59.46"/>
          <ellipse class="cls-35" cx="71.93" cy="122.33" rx="58.45" ry="59.4"/>
          <ellipse class="cls-35" cx="71.88" cy="122.26" rx="58.39" ry="59.34"/>
          <ellipse class="cls-31" cx="71.83" cy="122.19" rx="58.33" ry="59.28"/>
          <ellipse class="cls-34" cx="71.78" cy="122.12" rx="58.27" ry="59.22"/>
          <ellipse class="cls-30" cx="71.73" cy="122.05" rx="58.22" ry="59.16"/>
          <ellipse class="cls-30" cx="71.68" cy="121.99" rx="58.16" ry="59.1"/>
          <ellipse class="cls-30" cx="71.63" cy="121.92" rx="58.1" ry="59.05"/>
          <ellipse class="cls-33" cx="71.58" cy="121.85" rx="58.04" ry="58.99"/>
          <ellipse class="cls-33" cx="71.53" cy="121.78" rx="57.98" ry="58.93"/>
          <ellipse class="cls-32" cx="71.48" cy="121.71" rx="57.92" ry="58.87"/>
          <ellipse class="cls-24" cx="71.43" cy="121.64" rx="57.87" ry="58.81"/>
          <ellipse class="cls-24" cx="71.38" cy="121.57" rx="57.81" ry="58.75"/>
          <ellipse class="cls-28" cx="71.33" cy="121.5" rx="57.75" ry="58.69"/>
          <ellipse class="cls-28" cx="71.28" cy="121.43" rx="57.69" ry="58.63"/>
          <ellipse class="cls-26" cx="71.23" cy="121.37" rx="57.63" ry="58.57"/>
          <ellipse class="cls-15" cx="71.18" cy="121.3" rx="57.57" ry="58.51"/>
          <ellipse class="cls-15" cx="71.13" cy="121.23" rx="57.52" ry="58.45"/>
          <ellipse class="cls-16" cx="71.08" cy="121.16" rx="57.46" ry="58.39"/>
          <ellipse class="cls-25" cx="71.03" cy="121.09" rx="57.4" ry="58.34"/>
          <ellipse class="cls-27" cx="70.98" cy="121.02" rx="57.34" ry="58.28"/>
          <ellipse class="cls-41" cx="70.92" cy="120.95" rx="57.28" ry="58.22"/>
          <ellipse class="cls-40" cx="70.87" cy="120.88" rx="57.23" ry="58.16"/>
          <ellipse class="cls-40" cx="70.82" cy="120.81" rx="57.17" ry="58.1"/>
          <ellipse class="cls-42" cx="70.77" cy="120.74" rx="57.11" ry="58.04"/>
          <ellipse class="cls-43" cx="70.72" cy="120.68" rx="57.05" ry="57.98"/>
          <ellipse class="cls-43" cx="70.67" cy="120.61" rx="56.99" ry="57.92"/>
          <ellipse class="cls-44" cx="70.62" cy="120.54" rx="56.93" ry="57.86"/>
          <ellipse class="cls-45" cx="70.57" cy="120.47" rx="56.88" ry="57.8"/>
          <ellipse class="cls-12" cx="70.52" cy="120.4" rx="56.82" ry="57.74"/>
          <ellipse class="cls-12" cx="70.47" cy="120.33" rx="56.76" ry="57.68"/>
          <ellipse class="cls-5" cx="70.42" cy="120.26" rx="56.7" ry="57.63"/>
          <ellipse class="cls-9" cx="70.37" cy="120.19" rx="56.64" ry="57.57"/>
          <ellipse class="cls-10" cx="70.32" cy="120.12" rx="56.58" ry="57.51"/>
          <ellipse class="cls-11" cx="70.27" cy="120.05" rx="56.53" ry="57.45"/>
          <ellipse class="cls-7" cx="70.22" cy="119.99" rx="56.47" ry="57.39"/>
          <ellipse class="cls-6" cx="70.17" cy="119.92" rx="56.41" ry="57.33"/>
          <ellipse class="cls-8" cx="70.12" cy="119.85" rx="56.35" ry="57.27"/>
          <ellipse class="cls-50" cx="70.07" cy="119.78" rx="56.29" ry="57.21"/>
          <ellipse class="cls-49" cx="70.02" cy="119.71" rx="56.23" ry="57.15"/>
        </g>
        <g>
          <path d="M27.19,101.8s46.24,5.07,34.48-6.07"/>
          <path class="cls-37" d="M27.19,102.12c5.11,.56,10.25,.9,15.39,1.07,3.97,.13,7.96,.16,11.91-.18,2.61-.22,5.81-.44,8.06-1.95,.79-.53,1.4-1.3,1.34-2.29-.08-1.3-1.12-2.41-2-3.26-.3-.28-.75,.17-.45,.45,1.28,1.22,2.77,3.17,.84,4.52-.92,.65-2.07,.97-3.15,1.22-1.53,.36-3.09,.55-4.65,.68-7.26,.62-14.65,.18-21.9-.39-1.8-.14-3.6-.3-5.4-.49-.41-.04-.4,.59,0,.64h0Z"/>
        </g>
        <g>
          <path d="M113.66,102.36s-46.4,3.3-34.22-7.39"/>
          <path class="cls-37" d="M113.66,102.04c-4.81,.34-9.65,.48-14.47,.48-3.83,0-7.68-.1-11.5-.48-2.77-.28-5.96-.58-8.44-1.96-.73-.41-1.53-1.02-1.53-1.94,0-1.19,1.13-2.23,1.94-2.95,.31-.27-.14-.72-.45-.45-1.42,1.26-3.09,3.35-1.38,5.08,.76,.77,1.84,1.21,2.85,1.54,1.43,.48,2.92,.76,4.41,.98,7.49,1.11,15.21,.93,22.75,.63,1.94-.08,3.89-.17,5.83-.3,.41-.03,.41-.66,0-.64h0Z"/>
        </g>
        <path class="cls-37" d="M56.64,151.3c7.16,1.77,7-.1,17.33-.56,7.93-.35,7.22,2.62,14.5,.47,.56-.17,6.65-2.25,7.1-3.82,1.15-4.05-4.02-10.77-8.79-13.53-5.23-3.03-10.05-3.12-15.44-3.11-5.69,.01-10.82,3.33-12.52,4.38-10.72,6.61-8.77,14.55-2.18,16.18Z"/>
        <path class="cls-3" d="M57.1,136.25s1.62,5.14,2.92,6.5l1.31,1.36s-1.09-10.55,.26-10.72c0,0-1.55,.98-1.64,.98s-1.59,.97-1.59,.97l-.85,.61-.41,.29Z"/>
        <path class="cls-3" d="M89.72,136.24s-1.93,4.79-3.39,6.29l-1.47,1.5s1.26-11.13-.24-11.32c0,0,2.15,1.15,2.24,1.15s1.91,1.42,1.91,1.42l.94,.96h0Z"/>
      </g>
      <path class="cls-88" d="M25.62,141.73s9.97,1.24,11.76,6.83-.98,4.55-.98,4.55l-10.78-11.38Z"/>
      <path class="cls-49" d="M41.72,137.87c3.22,0,3.22-5,0-5s-3.22,5,0,5h0Z"/>
      <g>
        <path class="cls-87" d="M33.2,139.31c3.4,.79,6.23,3.67,6.96,7.09"/>
        <path class="cls-49" d="M32.53,141.73c.5,.12,.98,.28,1.45,.47l-.6-.25c.72,.31,1.39,.71,2.01,1.18l-.51-.39c.67,.52,1.27,1.12,1.79,1.79l-.39-.51c.49,.65,.9,1.35,1.22,2.1l-.25-.6c.21,.5,.37,1.02,.49,1.55,.28,1.28,1.84,2.15,3.08,1.75,1.34-.44,2.05-1.7,1.75-3.08-.93-4.24-4.49-7.83-8.7-8.84-1.27-.3-2.77,.4-3.08,1.75s.39,2.75,1.75,3.08h0Z"/>
      </g>
      <path class="cls-46" d="M31.07,140.72c3.56,2.04,7.79,4.63,8.2,9.16,.01,.16,.26,.16,.25,0-.43-4.63-4.67-7.28-8.33-9.38-.14-.08-.27,.14-.13,.22h0Z"/>
      <g>
        <path class="cls-4" d="M59.16,109.79c1.26,1.33,1.91,2.97,1.76,4.82-.12,1.43-.66,2.8-1.37,4.05-1.87,3.29-4.96,5.87-8.54,7.1-2.15,.74-4.51,1.01-6.73,.47-2.22-.54-4.27-1.93-5.34-3.94-1.15-2.14-1.1-4.77-.35-7.07,2.19-6.67,9.27-9.65,15.86-8.25,1.56,.33,3.42,1.46,4.7,2.81Z"/>
        <path class="cls-57" d="M53.14,113.39c.94,1.62,.95,7.14-2.08,9.65-3.03,2.5-7.59,2.69-8.75-.06-.87-2.07-1.89-4.8-1.92-6.77-.02-1.64,.26-4.12,8.63-5.46,2.79-.45,2.67,.15,4.11,2.64Z"/>
        <g>
          <path class="cls-39" d="M48.62,116.23c.38,.65,.38,2.88-.84,3.89s-3.06,1.08-3.53-.02c-.35-.83-.76-1.93-.77-2.73,0-.66,.1-1.66,3.48-2.2,1.12-.18,1.08,.06,1.66,1.07Z"/>
          <path class="cls-3" d="M42.88,116.49s1.36,.6,1.74,.4,1.21-2.4-1.36-2.21c-2.57,.19-.37,1.81-.37,1.81Z"/>
        </g>
      </g>
      <g>
        <path class="cls-4" d="M99.76,108.82c1.26,1.33,1.91,2.97,1.76,4.82-.12,1.43-.66,2.8-1.37,4.05-1.87,3.29-4.96,5.87-8.54,7.1-2.15,.74-4.51,1.01-6.73,.47s-4.27-1.93-5.34-3.94c-1.15-2.14-1.1-4.77-.35-7.07,2.19-6.67,9.27-9.65,15.86-8.25,1.56,.33,3.42,1.46,4.7,2.81Z"/>
        <path class="cls-57" d="M93.51,112.16c.94,1.62,.95,7.14-2.08,9.65s-7.59,2.69-8.75-.06c-.87-2.07-1.89-4.8-1.92-6.77-.02-1.64,.26-4.12,8.63-5.46,2.79-.45,2.67,.15,4.11,2.64Z"/>
        <g>
          <path class="cls-39" d="M88.56,115.53c.38,.65,.38,2.88-.84,3.89s-3.06,1.08-3.53-.02c-.35-.83-.76-1.93-.77-2.73,0-.66,.1-1.66,3.48-2.2,1.12-.18,1.08,.06,1.66,1.07Z"/>
          <path class="cls-3" d="M88.31,115.3s1.36,.6,1.74,.4,1.21-2.4-1.36-2.21c-2.57,.19-.37,1.81-.37,1.81Z"/>
        </g>
      </g>
    </g>
  </g>
</svg>