<?xml version="1.0" encoding="UTF-8"?>
<svg id="Layer_2" data-name="Layer 2" xmlns="http://www.w3.org/2000/svg" xmlns:xlink="http://www.w3.org/1999/xlink" viewBox="0 0 351.21 251.65">
  <defs>
    <style>
      .cls-1 {
        fill: url(#linear-gradient);
      }

      .cls-2 {
        fill: #e4d63e;
      }

      .cls-3 {
        fill: #fff;
      }

      .cls-4 {
        fill: #9787bc;
      }

      .cls-5 {
        fill: #9988bf;
      }

      .cls-6 {
        fill: #9988be;
      }

      .cls-7 {
        fill: #9989bf;
      }

      .cls-8 {
        fill: #9887bc;
      }

      .cls-9 {
        fill: #9887bd;
      }

      .cls-10 {
        fill: #9888bd;
      }

      .cls-11 {
        fill: #9786bb;
      }

      .cls-12 {
        fill: #8b7dae;
      }

      .cls-13 {
        fill: #8b7dad;
      }

      .cls-14 {
        fill: #9282b5;
      }

      .cls-15 {
        fill: #9283b6;
      }

      .cls-16 {
        fill: #8478a7;
      }

      .cls-17 {
        fill: #8478a6;
      }

      .cls-18 {
        fill: #8579a8;
      }

      .cls-19 {
        fill: #8578a8;
      }

      .cls-20 {
        fill: #877aaa;
      }

      .cls-21 {
        fill: #877aa9;
      }

      .cls-22 {
        fill: #8a7cad;
      }

      .cls-23 {
        fill: #9081b3;
      }

      .cls-24 {
        fill: #9383b6;
      }

      .cls-25 {
        fill: #9182b5;
      }

      .cls-26 {
        fill: #9383b7;
      }

      .cls-27 {
        fill: #9181b4;
      }

      .cls-28 {
        fill: #73649e;
      }

      .cls-29 {
        fill: #8c7daf;
      }

      .cls-30 {
        fill: #8e7fb1;
      }

      .cls-31 {
        fill: #8d7eb0;
      }

      .cls-32 {
        fill: #8f80b3;
      }

      .cls-33 {
        fill: #8f80b2;
      }

      .cls-34 {
        fill: #8d7fb0;
      }

      .cls-35 {
        fill: #8c7eaf;
      }

      .cls-36 {
        fill: #8578a7;
      }

      .cls-37, .cls-38, .cls-39 {
        fill: #231f20;
      }

      .cls-40 {
        fill: #413955;
      }

      .cls-41 {
        fill: #45395f;
      }

      .cls-42 {
        fill: #9484b8;
      }

      .cls-43 {
        fill: #9484b7;
      }

      .cls-44 {
        fill: #9584b8;
      }

      .cls-45 {
        fill: #9585b9;
      }

      .cls-46 {
        fill: #9685ba;
      }

      .cls-47 {
        fill: #9686ba;
      }

      .cls-48 {
        fill: #8679a9;
      }

      .cls-49 {
        fill: #8679a8;
      }

      .cls-50 {
        fill: #9a89c1;
      }

      .cls-51 {
        fill: #9a89c0;
      }

      .cls-52 {
        fill: #887aaa;
      }

      .cls-53 {
        fill: #897cac;
      }

      .cls-54 {
        fill: #897bab;
      }

      .cls-55 {
        fill: #887bab;
      }

      .cls-56 {
        fill: #867aa9;
      }

      .cls-57 {
        fill: #8377a6;
      }

      .cls-58 {
        fill: url(#linear-gradient-8);
      }

      .cls-59 {
        fill: url(#linear-gradient-9);
      }

      .cls-60 {
        fill: url(#linear-gradient-3);
      }

      .cls-61 {
        fill: url(#linear-gradient-4);
      }

      .cls-62 {
        fill: url(#linear-gradient-2);
      }

      .cls-63 {
        fill: url(#linear-gradient-6);
      }

      .cls-64 {
        fill: url(#linear-gradient-7);
      }

      .cls-65 {
        fill: url(#linear-gradient-5);
      }

      .cls-38 {
        font-family: Arial-ItalicMT, Arial;
        font-size: 25px;
        stroke: #231f20;
        stroke-miterlimit: 10;
        stroke-width: .5px;
      }

      .cls-66 {
        fill: url(#linear-gradient-14);
      }

      .cls-67 {
        fill: url(#linear-gradient-18);
      }

      .cls-68 {
        fill: url(#linear-gradient-22);
      }

      .cls-69 {
        fill: url(#linear-gradient-20);
      }

      .cls-70 {
        fill: url(#linear-gradient-21);
      }

      .cls-71 {
        fill: url(#linear-gradient-23);
      }

      .cls-72 {
        fill: url(#linear-gradient-15);
      }

      .cls-73 {
        fill: url(#linear-gradient-19);
      }

      .cls-74 {
        fill: url(#linear-gradient-16);
      }

      .cls-75 {
        fill: url(#linear-gradient-17);
      }

      .cls-76 {
        fill: url(#linear-gradient-13);
      }

      .cls-77 {
        fill: url(#linear-gradient-12);
      }

      .cls-78 {
        fill: url(#linear-gradient-10);
      }

      .cls-79 {
        fill: url(#linear-gradient-11);
      }

      .cls-80 {
        fill: url(#linear-gradient-27);
      }

      .cls-81 {
        fill: url(#linear-gradient-24);
      }

      .cls-82 {
        fill: url(#linear-gradient-26);
      }

      .cls-83 {
        fill: url(#linear-gradient-25);
      }

      .cls-84 {
        fill: url(#linear-gradient-28);
      }

      .cls-85 {
        fill: url(#linear-gradient-29);
      }

      .cls-86 {
        fill: url(#linear-gradient-30);
      }

      .cls-39 {
        opacity: .42;
      }
    </style>
    <linearGradient id="linear-gradient" x1="203.16" y1="118.66" x2="214.02" y2="118.66" gradientTransform="translate(-109.86 -51.57) rotate(12.63)" gradientUnits="userSpaceOnUse">
      <stop offset="0" stop-color="#e4d63e"/>
      <stop offset=".99" stop-color="#a99b3d"/>
    </linearGradient>
    <linearGradient id="linear-gradient-2" x1="76.89" y1="113.04" x2="84.51" y2="113.04" gradientTransform="translate(-17.7 15.02) rotate(-9.59)" xlink:href="#linear-gradient"/>
    <linearGradient id="linear-gradient-3" x1="89.33" y1="113.38" x2="100.01" y2="113.38" gradientTransform="translate(-35.23 43.06) rotate(-21.71)" xlink:href="#linear-gradient"/>
    <linearGradient id="linear-gradient-4" x1="101.9" y1="122.04" x2="108.4" y2="122.04" gradientTransform="matrix(1, 0, 0, 1, 0, 0)" xlink:href="#linear-gradient"/>
    <linearGradient id="linear-gradient-5" x1="112.75" y1="127.77" x2="122.61" y2="127.77" gradientTransform="translate(-55.51 114.44) rotate(-42.96)" xlink:href="#linear-gradient"/>
    <linearGradient id="linear-gradient-6" x1="122.47" y1="135.71" x2="134.41" y2="135.71" gradientTransform="translate(-58.32 141.71) rotate(-48.41)" xlink:href="#linear-gradient"/>
    <linearGradient id="linear-gradient-7" x1="128.14" y1="150.14" x2="134.8" y2="150.14" gradientTransform="matrix(1, 0, 0, 1, 0, 0)" xlink:href="#linear-gradient"/>
    <linearGradient id="linear-gradient-8" x1="134.82" y1="163.61" x2="142.5" y2="163.61" gradientTransform="translate(-48.84 267.73) rotate(-78.76)" xlink:href="#linear-gradient"/>
    <linearGradient id="linear-gradient-9" x1="134.66" y1="181.74" x2="138.56" y2="181.74" gradientTransform="translate(-41.27 323.34) rotate(-91.59)" xlink:href="#linear-gradient"/>
    <linearGradient id="linear-gradient-10" x1="135.32" y1="195.23" x2="143.12" y2="195.23" gradientTransform="translate(-19.8 374.7) rotate(-102.96)" xlink:href="#linear-gradient"/>
    <linearGradient id="linear-gradient-11" x1="128.51" y1="208.1" x2="134.03" y2="208.1" gradientTransform="translate(-8.04 410.9) rotate(-113.27)" xlink:href="#linear-gradient"/>
    <linearGradient id="linear-gradient-12" x1="120.91" y1="222.63" x2="130.5" y2="222.63" gradientTransform="translate(42.86 464.5) rotate(-131.64)" xlink:href="#linear-gradient"/>
    <linearGradient id="linear-gradient-13" x1="109.11" y1="232.38" x2="116.44" y2="232.38" gradientTransform="matrix(1, 0, 0, 1, 0, 0)" xlink:href="#linear-gradient"/>
    <linearGradient id="linear-gradient-14" x1="95.38" y1="242.09" x2="106.11" y2="242.09" gradientTransform="translate(114.09 503.98) rotate(-160.32)" xlink:href="#linear-gradient"/>
    <linearGradient id="linear-gradient-15" x1="78.36" y1="247.82" x2="89.25" y2="247.82" gradientTransform="translate(119.29 507) rotate(-169.11)" xlink:href="#linear-gradient"/>
    <linearGradient id="linear-gradient-16" x1="65.95" y1="244.92" x2="72.72" y2="244.92" gradientTransform="translate(133.33 491.3) rotate(-178.75)" xlink:href="#linear-gradient"/>
    <linearGradient id="linear-gradient-17" x1="45.5" y1="245.76" x2="56.17" y2="245.76" gradientTransform="translate(189.91 454.66) rotate(158.03)" xlink:href="#linear-gradient"/>
    <linearGradient id="linear-gradient-18" x1="33.6" y1="237.6" x2="41.63" y2="237.6" gradientTransform="translate(203.99 411.34) rotate(145.24)" xlink:href="#linear-gradient"/>
    <linearGradient id="linear-gradient-19" x1="18.13" y1="229.69" x2="27.97" y2="229.69" gradientTransform="translate(197.67 380.68) rotate(136.58)" xlink:href="#linear-gradient"/>
    <linearGradient id="linear-gradient-20" x1="13.98" y1="216.95" x2="20.05" y2="216.95" gradientTransform="matrix(1, 0, 0, 1, 0, 0)" xlink:href="#linear-gradient"/>
    <linearGradient id="linear-gradient-21" x1=".66" y1="207.92" x2="10.92" y2="207.92" gradientTransform="translate(198.14 287.06) rotate(113.96)" xlink:href="#linear-gradient"/>
    <linearGradient id="linear-gradient-22" x1=".59" y1="194.33" x2="8.09" y2="194.33" gradientTransform="translate(197.13 219.08) rotate(98.6)" xlink:href="#linear-gradient"/>
    <linearGradient id="linear-gradient-23" x1="2.63" y1="180.27" x2="7.81" y2="180.27" gradientTransform="matrix(1, 0, 0, 1, 0, 0)" xlink:href="#linear-gradient"/>
    <linearGradient id="linear-gradient-24" x1="0" y1="165.67" x2="7.7" y2="165.67" gradientTransform="translate(165.44 128.92) rotate(78.52)" xlink:href="#linear-gradient"/>
    <linearGradient id="linear-gradient-25" x1="7.02" y1="152.22" x2="13.29" y2="152.22" gradientTransform="matrix(1, 0, 0, 1, 0, 0)" xlink:href="#linear-gradient"/>
    <linearGradient id="linear-gradient-26" x1="9.88" y1="139.42" x2="19.06" y2="139.42" gradientTransform="translate(121.53 48.96) rotate(55.73)" xlink:href="#linear-gradient"/>
    <linearGradient id="linear-gradient-27" x1="18.69" y1="128.27" x2="28.69" y2="128.27" gradientTransform="translate(88.13 14.86) rotate(40.07)" xlink:href="#linear-gradient"/>
    <linearGradient id="linear-gradient-28" x1="31.29" y1="123.7" x2="38.14" y2="123.7" gradientTransform="translate(67.82 -.44) rotate(30.61)" xlink:href="#linear-gradient"/>
    <linearGradient id="linear-gradient-29" x1="39.84" y1="114.46" x2="50.39" y2="114.46" gradientTransform="translate(54.62 -8.2) rotate(25.94)" xlink:href="#linear-gradient"/>
    <linearGradient id="linear-gradient-30" x1="52.75" y1="113.54" x2="60.34" y2="113.54" gradientTransform="translate(26.19 -9.62) rotate(12.63)" xlink:href="#linear-gradient"/>
  </defs>
  <g id="Layer_3" data-name="Layer 3">
    <g>
      <polygon class="cls-2" points="66.65 112.95 66.85 121.65 69.33 121.41 69.23 112.69 66.65 112.95"/>
      <rect class="cls-1" x="62.26" y="106.38" width="10.96" height="6.89" rx="3.45" ry="3.45" transform="translate(-8.6 5.79) rotate(-4.61)"/>
      <polygon class="cls-2" points="79.19 115.11 77.65 123.07 79.97 123.35 81.59 115.39 79.19 115.11"/>
      <rect class="cls-62" x="76.87" y="110.63" width="7.66" height="4.82" rx="2.41" ry="2.41" transform="translate(19.95 -11.86) rotate(9.59)"/>
      <polygon class="cls-2" points="91.38 115.52 87.86 124.33 90.98 125.5 94.61 116.74 91.38 115.52"/>
      <rect class="cls-60" x="89.19" y="109.94" width="10.96" height="6.89" rx="3.45" ry="3.45" transform="translate(48.66 -26.98) rotate(21.71)"/>
      <polygon class="cls-2" points="103.76 122.21 99.64 129.29 101.57 130.08 105.77 123.03 103.76 122.21"/>
      <path class="cls-61" d="M105.23,124.45l-2.22-1.18c-1.03-.55-1.42-1.82-.85-2.82h0c.57-1,1.87-1.37,2.91-.82l2.22,1.18c1.03,.55,1.42,1.82,.85,2.82h0c-.57,1-1.87,1.37-2.91,.82Z"/>
      <polygon class="cls-2" points="114.57 128.66 109.58 135.04 112.15 137.14 117.24 130.84 114.57 128.66"/>
      <rect class="cls-65" x="112.2" y="124.32" width="10.96" height="6.89" rx="3.45" ry="3.45" transform="translate(118.62 -45.93) rotate(42.96)"/>
      <polygon class="cls-2" points="124.33 135.99 116.45 143.15 119.21 146.23 127.2 139.18 124.33 135.99"/>
      <rect class="cls-63" x="121.62" y="131.42" width="13.65" height="8.58" rx="4.29" ry="4.29" transform="translate(144.7 -50.44) rotate(48.41)"/>
      <polygon class="cls-2" points="129.07 149.79 124.41 152.84 125.63 155.08 130.34 152.1 129.07 149.79"/>
      <path class="cls-64" d="M130.02,152.85l-1.53-2.73c-.71-1.27-.3-2.92,.92-3.66h0c1.22-.74,2.8-.31,3.51,.96l1.53,2.73c.71,1.27,.3,2.92-.92,3.66h0c-1.22,.74-2.8,.31-3.51-.96Z"/>
      <polygon class="cls-2" points="135.76 162.13 128.57 163.81 129.18 167.07 136.39 165.51 135.76 162.13"/>
      <rect class="cls-58" x="133.18" y="160.17" width="10.96" height="6.89" rx="3.45" ry="3.45" transform="translate(272.12 -4.27) rotate(78.76)"/>
      <polygon class="cls-2" points="135.22 180.58 131.11 180.6 131.04 182.44 135.14 182.49 135.22 180.58"/>
      <rect class="cls-59" x="133.56" y="179.82" width="6.1" height="3.83" rx="1.92" ry="1.92" transform="translate(322.07 50.23) rotate(91.59)"/>
      <polygon class="cls-2" points="137.19 192.69 129.94 191.28 129.16 194.5 136.38 196.03 137.19 192.69"/>
      <rect class="cls-78" x="133.74" y="191.79" width="10.96" height="6.89" rx="3.45" ry="3.45" transform="translate(360.71 103.36) rotate(102.96)"/>
      <polygon class="cls-2" points="130.27 206.24 125.8 204.49 124.92 206.46 129.36 208.28 130.27 206.24"/>
      <rect class="cls-79" x="127.71" y="205.86" width="7.12" height="4.48" rx="2.24" ry="2.24" transform="translate(374.3 169.71) rotate(113.27)"/>
      <polygon class="cls-2" points="125.14 219.42 119.46 214.7 117.23 217.15 122.82 221.97 125.14 219.42"/>
      <rect class="cls-77" x="120.22" y="219.18" width="10.96" height="6.89" rx="3.45" ry="3.45" transform="translate(375.6 276.63) rotate(131.64)"/>
      <polygon class="cls-2" points="112.89 229.88 109.68 225.37 107.72 226.82 110.86 231.39 112.89 229.88"/>
      <path class="cls-76" d="M110.15,231.13l2.38-1.81c1.11-.84,2.66-.56,3.45,.63h0c.79,1.19,.52,2.85-.59,3.69l-2.38,1.81c-1.11,.84-2.66,.56-3.45-.63h0c-.79-1.19-.52-2.85,.59-3.69Z"/>
      <polygon class="cls-2" points="101.79 239.01 99.07 232.15 95.93 233.22 98.53 240.13 101.79 239.01"/>
      <rect class="cls-66" x="95.26" y="238.65" width="10.96" height="6.89" rx="3.45" ry="3.45" transform="translate(277.13 436.13) rotate(160.32)"/>
      <polygon class="cls-2" points="85.31 244.93 83.67 237.73 80.41 238.31 81.92 245.54 85.31 244.93"/>
      <rect class="cls-72" x="78.33" y="244.37" width="10.96" height="6.89" rx="3.45" ry="3.45" transform="translate(212.92 475.34) rotate(169.11)"/>
      <polygon class="cls-2" points="70.55 243.32 70.3 238.77 68.25 238.79 68.42 243.34 70.55 243.32"/>
      <rect class="cls-74" x="65.95" y="242.8" width="6.77" height="4.25" rx="2.13" ry="2.13" transform="translate(143.98 488.28) rotate(178.75)"/>
      <polygon class="cls-2" points="53.66 244.15 56.2 237.21 53.14 235.93 50.49 242.82 53.66 244.15"/>
      <rect class="cls-75" x="45.36" y="242.31" width="10.96" height="6.89" rx="3.45" ry="3.45" transform="translate(6.06 492.7) rotate(-158.03)"/>
      <polygon class="cls-2" points="40.06 236.85 43.21 231.98 41.09 230.47 37.86 235.29 40.06 236.85"/>
      <rect class="cls-67" x="33.31" y="234.89" width="8.61" height="5.41" rx="2.71" ry="2.71" transform="translate(-66.97 454.23) rotate(-145.24)"/>
      <polygon class="cls-2" points="26.27 229.23 31.17 223.7 28.79 221.39 23.8 226.83 26.27 229.23"/>
      <rect class="cls-73" x="17.57" y="226.25" width="10.96" height="6.89" rx="3.45" ry="3.45" transform="translate(-118.09 412.37) rotate(-136.58)"/>
      <polygon class="cls-2" points="19.17 217.15 23.17 214.06 21.99 212.03 17.93 215.05 19.17 217.15"/>
      <path class="cls-69" d="M18.18,214.34l1.49,2.47c.69,1.15,.4,2.71-.65,3.46h0c-1.05,.76-2.48,.44-3.17-.71l-1.49-2.47c-.69-1.15-.4-2.71,.65-3.46h0c1.05-.76,2.48-.44,3.17,.71Z"/>
      <polygon class="cls-2" points="9.71 208.84 20.29 204.18 18.59 200.56 7.94 205.09 9.71 208.84"/>
      <rect class="cls-70" x="-.8" y="203.78" width="13.17" height="8.28" rx="4.14" ry="4.14" transform="translate(-181.86 297.64) rotate(-113.96)"/>
      <polygon class="cls-2" points="7.26 195.94 16.19 194.54 15.65 191.26 6.7 192.54 7.26 195.94"/>
      <rect class="cls-68" x="-1.14" y="190.88" width="10.96" height="6.89" rx="3.45" ry="3.45" transform="translate(-187.15 227.67) rotate(-98.6)"/>
      <polygon class="cls-2" points="7.37 182.24 16.12 182.11 15.88 178.78 7.11 178.78 7.37 182.24"/>
      <path class="cls-71" d="M7.73,178.15l.08,4.07c.04,1.89-1.08,3.49-2.48,3.54h0c-1.4,.05-2.58-1.46-2.62-3.35l-.08-4.07c-.04-1.89,1.08-3.49,2.48-3.54h0c1.4-.05,2.58,1.46,2.62,3.35Z"/>
      <polygon class="cls-2" points="6.07 168.2 15.69 170.21 16.27 166.93 6.68 164.8 6.07 168.2"/>
      <rect class="cls-81" x="-1.63" y="162.23" width="10.96" height="6.89" rx="3.45" ry="3.45" transform="translate(-159.27 136.46) rotate(-78.52)"/>
      <polygon class="cls-2" points="11.39 154.49 18.33 157.74 19.24 155.36 12.32 152.03 11.39 154.49"/>
      <path class="cls-83" d="M13.08,151.86l-1.21,2.85c-.56,1.33-2.07,1.94-3.34,1.35h0c-1.28-.59-1.86-2.15-1.3-3.48l1.21-2.85c.56-1.33,2.07-1.94,3.34-1.35h0c1.28,.59,1.86,2.15,1.3,3.48Z"/>
      <polygon class="cls-2" points="15.5 142.57 22.78 147.44 24.63 144.68 17.41 139.7 15.5 142.57"/>
      <rect class="cls-82" x="8.99" y="135.97" width="10.96" height="6.89" rx="3.45" ry="3.45" transform="translate(-108.89 72.87) rotate(-55.73)"/>
      <polygon class="cls-2" points="23.82 131.57 29.37 138 31.9 135.85 26.45 129.34 23.82 131.57"/>
      <rect class="cls-80" x="18.21" y="124.83" width="10.96" height="6.89" rx="3.45" ry="3.45" transform="translate(-77.01 45.36) rotate(-40.07)"/>
      <polygon class="cls-2" points="34.83 126.06 37.76 130.89 39.64 129.77 36.78 124.89 34.83 126.06"/>
      <rect class="cls-84" x="31.1" y="121.43" width="7.22" height="4.54" rx="2.27" ry="2.27" transform="translate(-58.15 34.91) rotate(-30.61)"/>
      <polygon class="cls-2" points="44.85 118.09 48.47 125.13 51.46 123.7 47.95 116.59 44.85 118.09"/>
      <rect class="cls-85" x="39.64" y="111.02" width="10.96" height="6.89" rx="3.45" ry="3.45" transform="translate(-45.53 31.27) rotate(-25.94)"/>
      <polygon class="cls-2" points="55.92 115.94 57.33 122.11 59.6 121.58 58.27 115.38 55.92 115.94"/>
      <rect class="cls-86" x="52.71" y="111.13" width="7.66" height="4.82" rx="2.41" ry="2.41" transform="translate(-23.46 15.11) rotate(-12.63)"/>
      <g>
        <ellipse class="cls-57" cx="72.33" cy="180.96" rx="59.25" ry="60.22"/>
        <ellipse class="cls-17" cx="72.28" cy="180.89" rx="59.19" ry="60.16"/>
        <ellipse class="cls-16" cx="72.22" cy="180.83" rx="59.14" ry="60.1"/>
        <ellipse class="cls-36" cx="72.17" cy="180.77" rx="59.08" ry="60.04"/>
        <ellipse class="cls-19" cx="72.12" cy="180.71" rx="59.02" ry="59.98"/>
        <ellipse class="cls-18" cx="72.07" cy="180.64" rx="58.96" ry="59.92"/>
        <ellipse class="cls-49" cx="72.02" cy="180.58" rx="58.91" ry="59.87"/>
        <ellipse class="cls-48" cx="71.97" cy="180.52" rx="58.85" ry="59.81"/>
        <ellipse class="cls-56" cx="71.92" cy="180.46" rx="58.79" ry="59.75"/>
        <ellipse class="cls-21" cx="71.86" cy="180.39" rx="58.73" ry="59.69"/>
        <ellipse class="cls-20" cx="71.81" cy="180.33" rx="58.67" ry="59.63"/>
        <ellipse class="cls-52" cx="71.76" cy="180.27" rx="58.62" ry="59.57"/>
        <ellipse class="cls-55" cx="71.71" cy="180.21" rx="58.56" ry="59.51"/>
        <ellipse class="cls-55" cx="71.66" cy="180.14" rx="58.5" ry="59.45"/>
        <ellipse class="cls-54" cx="71.61" cy="180.08" rx="58.44" ry="59.4"/>
        <ellipse class="cls-53" cx="71.56" cy="180.02" rx="58.39" ry="59.34"/>
        <ellipse class="cls-53" cx="71.5" cy="179.96" rx="58.33" ry="59.28"/>
        <ellipse class="cls-22" cx="71.45" cy="179.9" rx="58.27" ry="59.22"/>
        <ellipse class="cls-22" cx="71.4" cy="179.83" rx="58.21" ry="59.16"/>
        <ellipse class="cls-13" cx="71.35" cy="179.77" rx="58.15" ry="59.1"/>
        <ellipse class="cls-12" cx="71.3" cy="179.71" rx="58.1" ry="59.04"/>
        <ellipse class="cls-12" cx="71.25" cy="179.65" rx="58.04" ry="58.99"/>
        <ellipse class="cls-29" cx="71.2" cy="179.58" rx="57.98" ry="58.93"/>
        <ellipse class="cls-35" cx="71.14" cy="179.52" rx="57.92" ry="58.87"/>
        <ellipse class="cls-35" cx="71.09" cy="179.46" rx="57.87" ry="58.81"/>
        <ellipse class="cls-31" cx="71.04" cy="179.4" rx="57.81" ry="58.75"/>
        <ellipse class="cls-34" cx="70.99" cy="179.33" rx="57.75" ry="58.69"/>
        <ellipse class="cls-30" cx="70.94" cy="179.27" rx="57.69" ry="58.63"/>
        <ellipse class="cls-30" cx="70.89" cy="179.21" rx="57.64" ry="58.57"/>
        <ellipse class="cls-30" cx="70.84" cy="179.15" rx="57.58" ry="58.52"/>
        <ellipse class="cls-33" cx="70.78" cy="179.08" rx="57.52" ry="58.46"/>
        <ellipse class="cls-33" cx="70.73" cy="179.02" rx="57.46" ry="58.4"/>
        <ellipse class="cls-32" cx="70.68" cy="178.96" rx="57.4" ry="58.34"/>
        <ellipse class="cls-23" cx="70.63" cy="178.9" rx="57.35" ry="58.28"/>
        <ellipse class="cls-23" cx="70.58" cy="178.83" rx="57.29" ry="58.22"/>
        <ellipse class="cls-27" cx="70.53" cy="178.77" rx="57.23" ry="58.16"/>
        <ellipse class="cls-27" cx="70.48" cy="178.71" rx="57.17" ry="58.11"/>
        <ellipse class="cls-25" cx="70.42" cy="178.65" rx="57.12" ry="58.05"/>
        <ellipse class="cls-14" cx="70.37" cy="178.58" rx="57.06" ry="57.99"/>
        <ellipse class="cls-14" cx="70.32" cy="178.52" rx="57" ry="57.93"/>
        <ellipse class="cls-15" cx="70.27" cy="178.46" rx="56.94" ry="57.87"/>
        <ellipse class="cls-24" cx="70.22" cy="178.4" rx="56.89" ry="57.81"/>
        <ellipse class="cls-26" cx="70.17" cy="178.33" rx="56.83" ry="57.75"/>
        <ellipse class="cls-43" cx="70.11" cy="178.27" rx="56.77" ry="57.7"/>
        <ellipse class="cls-42" cx="70.06" cy="178.21" rx="56.71" ry="57.64"/>
        <ellipse class="cls-42" cx="70.01" cy="178.15" rx="56.65" ry="57.58"/>
        <ellipse class="cls-44" cx="69.96" cy="178.08" rx="56.6" ry="57.52"/>
        <ellipse class="cls-45" cx="69.91" cy="178.02" rx="56.54" ry="57.46"/>
        <ellipse class="cls-45" cx="69.86" cy="177.96" rx="56.48" ry="57.4"/>
        <ellipse class="cls-46" cx="69.81" cy="177.9" rx="56.42" ry="57.34"/>
        <ellipse class="cls-47" cx="69.75" cy="177.83" rx="56.37" ry="57.28"/>
        <ellipse class="cls-11" cx="69.7" cy="177.77" rx="56.31" ry="57.23"/>
        <ellipse class="cls-11" cx="69.65" cy="177.71" rx="56.25" ry="57.17"/>
        <ellipse class="cls-4" cx="69.6" cy="177.65" rx="56.19" ry="57.11"/>
        <ellipse class="cls-8" cx="69.55" cy="177.58" rx="56.13" ry="57.05"/>
        <ellipse class="cls-9" cx="69.5" cy="177.52" rx="56.08" ry="56.99"/>
        <ellipse class="cls-10" cx="69.45" cy="177.46" rx="56.02" ry="56.93"/>
        <ellipse class="cls-6" cx="69.39" cy="177.4" rx="55.96" ry="56.87"/>
        <ellipse class="cls-5" cx="69.34" cy="177.33" rx="55.9" ry="56.82"/>
        <ellipse class="cls-7" cx="69.29" cy="177.27" rx="55.85" ry="56.76"/>
        <ellipse class="cls-51" cx="69.24" cy="177.21" rx="55.79" ry="56.7"/>
        <ellipse class="cls-50" cx="69.19" cy="177.15" rx="55.73" ry="56.64"/>
      </g>
      <g>
        <path class="cls-3" d="M61.74,173.59c2.43,4.53-5.26,9.31-11.76,9.31s-11.76-4.17-11.76-9.31c0-3.86,2.96-7.16,7.18-8.58,1.41-.47,13.43,5.02,14.56,6.18,.98,1.01-.75-2.29,1.77,2.39Z"/>
        <path class="cls-40" d="M49.99,183.23c-6.66,0-12.08-4.32-12.08-9.64,0-3.89,2.91-7.38,7.4-8.89,1.56-.53,12.8,4.65,14.71,6.1,.03-.05,.09-.09,.17-.12q.32-.11,1.85,2.75c.73,1.35,.66,2.82-.2,4.25-1.83,3.06-7.14,5.54-11.85,5.54Zm-4.37-17.91s-.08,0-.1,.01c-4.23,1.42-6.96,4.66-6.96,8.27,0,4.95,5.13,8.98,11.43,8.98,4.5,0,9.56-2.34,11.29-5.22,.74-1.24,.8-2.45,.18-3.6-.47-.87-.85-1.58-1.1-2.03-.26,.07-.5-.17-.61-.29-1.52-1.55-12.68-6.11-14.12-6.11Z"/>
      </g>
      <g>
        <path class="cls-28" d="M57,174.8c1.8,.84-3.05,3.26-6.68,3.15s-6.53-1.71-6.47-3.56c.04-1.39,1.74-2.53,4.11-2.96,.79-.15,8.4,2.78,9.04,3.37,.65,.6-2.93-1.36,0,0Z"/>
        <path class="cls-40" d="M50.55,178.28c-.08,0-.16,0-.24,0-1.81-.06-3.5-.47-4.77-1.17-1.34-.73-2.05-1.7-2.02-2.73,.05-1.51,1.77-2.8,4.38-3.28,.95-.15,8.35,2.71,9.28,3.42,.59,.3,.56,.74,.52,.92-.31,1.3-4.23,2.83-7.14,2.83Zm-2.5-6.53s-.03,0-.04,0c-2.26,.41-3.8,1.48-3.84,2.65-.02,.77,.57,1.52,1.68,2.13,1.18,.65,2.77,1.03,4.47,1.09,2.98,.09,6.54-1.56,6.72-2.33,0-.01,0-.03,0-.06-.41,0-1.03-.39-1.34-.59-.12-.08-.18-.17-.2-.25-2.28-1.02-6.75-2.64-7.46-2.64Z"/>
      </g>
      <g>
        <path d="M31.4,156.77s36.44,28.23,32.28,12.72"/>
        <path class="cls-37" d="M31.25,156.92c1.22,.94,2.45,1.86,3.69,2.76,2.84,2.08,5.73,4.11,8.67,6.05,3.25,2.15,6.57,4.22,10.05,5.98,1.44,.73,2.92,1.42,4.46,1.94,1.1,.38,2.29,.72,3.47,.69,.82-.02,1.66-.26,2.16-.95,.59-.83,.52-1.96,.36-2.91-.06-.35-.14-.7-.23-1.05-.07-.26-.47-.15-.4,.11,.27,1.01,.55,2.26,.12,3.27-.31,.72-1.01,1.04-1.75,1.1-1.1,.09-2.22-.21-3.25-.54-1.48-.47-2.9-1.12-4.28-1.8-3.38-1.68-6.6-3.67-9.76-5.73-2.94-1.92-5.83-3.93-8.67-6-1.44-1.05-2.85-2.16-4.3-3.2-.06-.05-.03-.02-.03-.02-.21-.16-.51,.13-.3,.3h0Z"/>
      </g>
      <g>
        <path class="cls-41" d="M53.91,174.18c.97,.45-1.64,1.75-3.59,1.69s-3.51-.92-3.48-1.91c.02-.75,.93-1.36,2.21-1.59,.43-.08,4.52,1.49,4.86,1.81,.35,.32-1.57-.73,0,0Z"/>
        <path class="cls-40" d="M50.44,176.2s-.08,0-.13,0c-2.17-.07-3.83-1.06-3.8-2.25,.03-.9,.98-1.63,2.48-1.91,.58-.1,4.47,1.45,5.08,1.85,.43,.21,.38,.56,.36,.67-.2,.82-2.46,1.64-4,1.64Zm-1.35-3.51h0c-1.1,.2-1.9,.73-1.92,1.28-.02,.7,1.27,1.52,3.16,1.57,1.4,.04,2.98-.64,3.38-1.02-.14-.05-.33-.14-.57-.31l-.25-.17v-.02c-1.23-.53-3.44-1.33-3.79-1.33Z"/>
      </g>
      <path class="cls-3" d="M46.86,172.69s.95,.89,1.35,.96,2-.63-.31-1.68-1.05,.72-1.05,.72Z"/>
      <g>
        <path class="cls-3" d="M80.59,172.66c-2.43,4.53,5.26,9.31,11.76,9.31,6.49,0,11.76-4.17,11.76-9.31,0-3.86-2.96-7.16-7.18-8.58-1.41-.47-13.43,5.02-14.56,6.18-.98,1.01,.75-2.29-1.77,2.39Z"/>
        <path class="cls-40" d="M92.35,182.3c-4.71,0-10.02-2.49-11.85-5.54-.85-1.43-.92-2.9-.2-4.25h0q1.53-2.86,1.85-2.75c.08,.03,.13,.07,.17,.12,1.91-1.45,13.15-6.64,14.71-6.1,4.5,1.51,7.4,4.99,7.4,8.89,0,5.31-5.42,9.64-12.08,9.64Zm-10.37-11.51c-.25,.45-.63,1.16-1.1,2.03h0c-.62,1.15-.56,2.36,.18,3.6,1.72,2.88,6.78,5.22,11.29,5.22,6.3,0,11.43-4.03,11.43-8.98,0-3.61-2.73-6.85-6.96-8.27-.87-.29-12.66,4.5-14.22,6.1-.12,.12-.36,.36-.62,.29Z"/>
      </g>
      <g>
        <path class="cls-28" d="M85.34,173.87c-1.8,.84,3.05,3.26,6.68,3.15s6.53-1.71,6.47-3.56c-.04-1.39-1.74-2.53-4.11-2.96-.79-.15-8.4,2.78-9.04,3.37-.65,.6,2.93-1.36,0,0Z"/>
        <path class="cls-40" d="M91.78,177.35c-2.91,0-6.83-1.54-7.14-2.83-.04-.18-.08-.63,.52-.92,.92-.71,8.34-3.57,9.27-3.42,2.61,.48,4.33,1.77,4.38,3.28,.06,2.06-2.92,3.77-6.79,3.89-.08,0-.16,0-.24,0Zm-6.49-3.05s-.01,.05,0,.06c.18,.77,3.74,2.42,6.72,2.33,3.39-.11,6.2-1.58,6.15-3.22-.04-1.17-1.58-2.24-3.84-2.65-.57-.08-5.18,1.61-7.49,2.63-.02,.08-.07,.17-.2,.26-.3,.2-.93,.59-1.34,.59Z"/>
      </g>
      <g>
        <path d="M111.2,156.1s-36.44,28.23-32.28,12.72"/>
        <path class="cls-37" d="M111.05,155.96s.04-.03-.03,.02-.13,.1-.19,.15c-.24,.18-.48,.36-.72,.55-.85,.64-1.71,1.28-2.57,1.91-2.73,2-5.5,3.95-8.32,5.83-3.18,2.11-6.42,4.15-9.8,5.92-1.44,.75-2.91,1.46-4.43,2.04-1.14,.43-2.34,.82-3.56,.89-.76,.04-1.64-.04-2.16-.66-.6-.71-.53-1.81-.38-2.67,.06-.35,.14-.7,.23-1.05,.07-.26-.33-.37-.4-.11-.47,1.77-.72,4.42,1.62,4.85,1.05,.19,2.17-.04,3.19-.33,1.47-.41,2.88-1.02,4.26-1.68,3.47-1.65,6.76-3.67,9.98-5.75s6.08-4.08,9.03-6.23c1.01-.73,2.02-1.48,3.02-2.23,.47-.36,1-.69,1.44-1.09,.03-.03,.07-.05,.1-.08,.21-.16-.09-.46-.3-.3h0Z"/>
      </g>
      <g>
        <path class="cls-41" d="M88.42,173.25c-.97,.45,1.64,1.75,3.59,1.69s3.51-.92,3.48-1.91c-.02-.75-.93-1.36-2.21-1.59-.43-.08-4.52,1.49-4.86,1.81-.35,.32,1.57-.73,0,0Z"/>
        <path class="cls-40" d="M91.9,175.27c-1.53,0-3.8-.82-4-1.64-.02-.1-.07-.46,.36-.67,.62-.4,4.5-1.94,5.08-1.85,1.5,.28,2.45,1.01,2.48,1.91,.02,.61-.4,1.18-1.17,1.6-.7,.39-1.64,.62-2.63,.65-.04,0-.08,0-.13,0Zm-3.27-1.68c.39,.38,1.98,1.07,3.38,1.02,.89-.03,1.72-.23,2.34-.57,.54-.29,.84-.66,.83-1.01-.02-.55-.82-1.07-1.94-1.28-.33,0-2.5,.79-3.74,1.32h0s-.29,.21-.29,.21c-.24,.16-.43,.26-.58,.31Z"/>
      </g>
      <path class="cls-3" d="M95.47,171.76s-.95,.89-1.35,.96-2-.63,.31-1.68,1.05,.72,1.05,.72Z"/>
      <path class="cls-39" d="M64.73,166.82c.52,.49,1.08,1,1.34,1.69,.22,.59,.17,1.32-.31,1.77-.1,.09,.05,.24,.15,.15,.51-.47,.6-1.23,.4-1.87-.24-.77-.85-1.34-1.42-1.88-.1-.09-.25,.06-.15,.15h0Z"/>
      <path class="cls-39" d="M77.21,166.54c-.57,.53-1.18,1.11-1.42,1.88-.2,.64-.11,1.41,.4,1.87,.1,.09,.25-.06,.15-.15-.49-.44-.53-1.18-.31-1.77,.25-.68,.82-1.2,1.34-1.69,.1-.09-.05-.24-.15-.15h0Z"/>
      <path class="cls-37" d="M93.79,188.01c-7.39,3.19-15.51,4.49-23.55,5.01-7.24,.47-14.55,0-21.66-1.44-.57-.11-1.04,.44-.83,.98,1.49,3.89,6.83,12.4,11.77,14.73,5.42,2.55,10.19,2.24,15.51,1.78,5.62-.49,10.4-4.19,12-5.37,10.03-7.42,12.95-18.35,6.77-15.68Z"/>
      <path class="cls-3" d="M56.27,192.82s1.68,6.19,2.96,7.55l1.29,1.36s-.74-8.5,.6-8.66c0,0-2.21-.11-2.29-.11s-1.81-.16-1.81-.16l-.76-.09,.02,.1Z"/>
      <path class="cls-3" d="M85.73,190.75s-.84,7.08-2.03,8.79l-1.19,1.7s-.57-9.47-2.06-9.42c0,0,2.41-.48,2.5-.5s1.95-.38,1.95-.38l.84-.19h0Z"/>
    </g>
  </g>
  <g id="Layer_6" data-name="Layer 6">
    <g>
      <g>
        <path d="M184.83,2h143.62c1.29,0,1.29-2,0-2H184.83c-1.29,0-1.29,2,0,2h0Z"/>
        <path d="M349.19,24.58V93.79c0,1.29,2,1.29,2,0V24.58c0-1.29-2-1.29-2,0h0Z"/>
        <g>
          <path class="cls-3" d="M324.48,113.35c-49.19,0-98.38,0-147.58,0"/>
          <path d="M324.48,112.35c-19.19,0-38.39,0-57.58,0s-38.39,0-57.58,0c-10.8,0-21.6,0-32.41,0-1.29,0-1.29,2,0,2,19.19,0,38.39,0,57.58,0s38.39,0,57.58,0c10.8,0,21.6,0,32.41,0,1.29,0,1.29-2,0-2h0Z"/>
        </g>
        <g>
          <path class="cls-3" d="M161.62,92.26c0-23.07,0-46.14,0-69.21"/>
          <path d="M162.62,92.26c0-17.92,0-35.85,0-53.77v-15.43c0-1.29-2-1.29-2,0,0,17.92,0,35.85,0,53.77v15.43c0,1.29,2,1.29,2,0h0Z"/>
        </g>
        <g>
          <path class="cls-3" d="M161.58,92.13c0,13.5,0,27,0,40.5"/>
          <path d="M160.58,92.13c0,13.5,0,27,0,40.5,0,1.29,2,1.29,2,0,0-13.5,0-27,0-40.5,0-1.29-2-1.29-2,0h0Z"/>
        </g>
        <g>
          <path class="cls-3" d="M179.31,113.79l-17.65,19.29-.04-110.04c.04-6.08,3.42-12.83,8.19-16.59,4.89-3.86,9.5-5.36,15.39-5.45h142.95c6.08,.04,12.83,3.42,16.59,8.19,3.86,4.89,5.36,9.5,5.45,15.39V92.59c-.05,6.08-2.49,11.3-7.69,15.06-5.33,3.86-11.6,5.61-18.02,5.7"/>
          <path d="M178.6,113.09l-17.65,19.29,1.71,.71v-7.72c0-6.47,0-12.94-.01-19.42,0-8.5,0-17.01,0-25.51s0-17.26-.01-25.9v-20.94c0-3.42-.03-6.84-.01-10.27,.02-4.53,1.71-8.98,4.42-12.59,4.25-5.67,11.18-8.67,18.16-8.74,2.06-.02,4.11,0,6.17,0,5.36,0,10.71,0,16.07,0h75.18c7.63,0,15.27,0,22.9,0,5.43,0,10.85,0,16.28,0,2.11,0,4.22-.03,6.33,0,6.75,.08,13.21,3.89,16.99,9.39,2.79,4.06,4.05,8.64,4.07,13.55s0,9.8,0,14.7v47.57c0,1.67,0,3.33,0,5-.01,4.54-1.4,8.89-4.55,12.24-5.1,5.41-12.91,7.75-20.16,7.89-1.29,.03-1.29,2.03,0,2,7.42-.15,15.12-2.45,20.65-7.57,4.01-3.71,6.02-8.86,6.06-14.28,.04-4.51,0-9.02,0-13.53V30.53c0-1.83,0-3.65,0-5.48,0-4.49-.93-8.88-3.17-12.81C343.68,4.64,335.8,0,327.05,0h-10.85c-6.6,0-13.2,0-19.8,0-8.36,0-16.72,0-25.08,0h-84.53c-.67,0-1.34,0-2.01,0-6.87,.18-13.65,2.95-18.24,8.18-3.57,4.08-5.88,9.48-5.93,14.94,0,.97,0,1.93,0,2.9v15.78c0,8.12,.01,16.24,.02,24.35v26.84c.01,7.86,.02,15.72,.02,23.58v14.52c0,.66,0,1.31,0,1.97,0,.84,1.11,1.36,1.71,.71l17.65-19.29c.87-.95-.54-2.37-1.41-1.41h0Z"/>
        </g>
      </g>
      <text class="cls-38" transform="translate(191.18 52.75)"><tspan x="0" y="0">Catch me if </tspan><tspan x="0" y="30">you can!</tspan></text>
    </g>
  </g>
</svg>