<?xml version="1.0" encoding="UTF-8"?>
<svg id="Layer_2" data-name="Layer 2" xmlns="http://www.w3.org/2000/svg" xmlns:xlink="http://www.w3.org/1999/xlink" viewBox="0 0 143.12 145.43">
  <defs>
    <style>
      .cls-1 {
        fill: url(#linear-gradient);
      }

      .cls-2 {
        fill: #68bfdd;
      }

      .cls-3 {
        fill: #e4d63e;
      }

      .cls-4 {
        fill: #fff;
      }

      .cls-5 {
        fill: #95d8ed;
      }

      .cls-6 {
        fill: #9787bc;
      }

      .cls-7 {
        fill: #9988bf;
      }

      .cls-8 {
        fill: #9988be;
      }

      .cls-9 {
        fill: #9989bf;
      }

      .cls-10 {
        fill: #9887bc;
      }

      .cls-11 {
        fill: #9887bd;
      }

      .cls-12 {
        fill: #9888bd;
      }

      .cls-13 {
        fill: #9786bb;
      }

      .cls-14 {
        fill: #8b7dae;
      }

      .cls-15 {
        fill: #8b7dad;
      }

      .cls-16 {
        fill: #9282b5;
      }

      .cls-17 {
        fill: #9283b6;
      }

      .cls-18 {
        fill: #8478a7;
      }

      .cls-19 {
        fill: #8478a6;
      }

      .cls-20 {
        fill: #8579a8;
      }

      .cls-21 {
        fill: #8578a8;
      }

      .cls-22 {
        fill: #877aaa;
      }

      .cls-23 {
        fill: #877aa9;
      }

      .cls-24 {
        fill: #8a7cad;
      }

      .cls-25 {
        fill: #9081b3;
      }

      .cls-26 {
        fill: #9383b6;
      }

      .cls-27 {
        fill: #9182b5;
      }

      .cls-28 {
        fill: #9383b7;
      }

      .cls-29 {
        fill: #9181b4;
      }

      .cls-30 {
        fill: #8c7daf;
      }

      .cls-31 {
        fill: #8e7fb1;
      }

      .cls-32 {
        fill: #8d7eb0;
      }

      .cls-33 {
        fill: #8f80b3;
      }

      .cls-34 {
        fill: #8f80b2;
      }

      .cls-35 {
        fill: #8d7fb0;
      }

      .cls-36 {
        fill: #8c7eaf;
      }

      .cls-37 {
        fill: #8578a7;
      }

      .cls-38, .cls-39 {
        fill: #231f20;
      }

      .cls-40 {
        fill: #413955;
      }

      .cls-41 {
        fill: #9484b8;
      }

      .cls-42 {
        fill: #9484b7;
      }

      .cls-43 {
        fill: #9584b8;
      }

      .cls-44 {
        fill: #9585b9;
      }

      .cls-45 {
        fill: #9685ba;
      }

      .cls-46 {
        fill: #9686ba;
      }

      .cls-47 {
        fill: #8679a9;
      }

      .cls-48 {
        fill: #8679a8;
      }

      .cls-49 {
        fill: #9a89c1;
      }

      .cls-50 {
        fill: #9a89c0;
      }

      .cls-51 {
        fill: #887aaa;
      }

      .cls-52 {
        fill: #897cac;
      }

      .cls-53 {
        fill: #897bab;
      }

      .cls-54 {
        fill: #887bab;
      }

      .cls-55 {
        fill: #867aa9;
      }

      .cls-56 {
        fill: #8377a6;
      }

      .cls-57 {
        fill: url(#linear-gradient-8);
      }

      .cls-58 {
        fill: url(#linear-gradient-9);
      }

      .cls-59 {
        fill: url(#linear-gradient-3);
      }

      .cls-60 {
        fill: url(#linear-gradient-4);
      }

      .cls-61 {
        fill: url(#linear-gradient-2);
      }

      .cls-62 {
        fill: url(#linear-gradient-6);
      }

      .cls-63 {
        fill: url(#linear-gradient-7);
      }

      .cls-64 {
        fill: url(#linear-gradient-5);
      }

      .cls-65 {
        fill: url(#linear-gradient-14);
      }

      .cls-66 {
        fill: url(#linear-gradient-18);
      }

      .cls-67 {
        fill: url(#linear-gradient-22);
      }

      .cls-68 {
        fill: url(#linear-gradient-20);
      }

      .cls-69 {
        fill: url(#linear-gradient-21);
      }

      .cls-70 {
        fill: url(#linear-gradient-23);
      }

      .cls-71 {
        fill: url(#linear-gradient-15);
      }

      .cls-72 {
        fill: url(#linear-gradient-19);
      }

      .cls-73 {
        fill: url(#linear-gradient-16);
      }

      .cls-74 {
        fill: url(#linear-gradient-17);
      }

      .cls-75 {
        fill: url(#linear-gradient-13);
      }

      .cls-76 {
        fill: url(#linear-gradient-12);
      }

      .cls-77 {
        fill: url(#linear-gradient-10);
      }

      .cls-78 {
        fill: url(#linear-gradient-11);
      }

      .cls-79 {
        fill: url(#linear-gradient-27);
      }

      .cls-80 {
        fill: url(#linear-gradient-24);
      }

      .cls-81 {
        fill: url(#linear-gradient-26);
      }

      .cls-82 {
        fill: url(#linear-gradient-25);
      }

      .cls-83 {
        fill: url(#linear-gradient-28);
      }

      .cls-84 {
        fill: url(#linear-gradient-29);
      }

      .cls-85 {
        fill: url(#linear-gradient-30);
      }

      .cls-39 {
        opacity: .42;
      }
    </style>
    <linearGradient id="linear-gradient" x1="191.41" y1="13.19" x2="202.27" y2="13.19" gradientTransform="translate(-121.46 -52.3) rotate(12.63)" gradientUnits="userSpaceOnUse">
      <stop offset="0" stop-color="#e4d63e"/>
      <stop offset=".99" stop-color="#a99b3d"/>
    </linearGradient>
    <linearGradient id="linear-gradient-2" x1="76.89" y1="6.82" x2="84.51" y2="6.82" gradientTransform="translate(0 13.53) rotate(-9.59)" xlink:href="#linear-gradient"/>
    <linearGradient id="linear-gradient-3" x1="89.33" y1="7.17" x2="100.01" y2="7.17" gradientTransform="translate(4.06 35.53) rotate(-21.71)" xlink:href="#linear-gradient"/>
    <linearGradient id="linear-gradient-4" x1="101.9" y1="15.82" x2="108.4" y2="15.82" gradientTransform="matrix(1, 0, 0, 1, 0, 0)" xlink:href="#linear-gradient"/>
    <linearGradient id="linear-gradient-5" x1="112.75" y1="21.56" x2="122.61" y2="21.56" gradientTransform="translate(16.86 85.97) rotate(-42.96)" xlink:href="#linear-gradient"/>
    <linearGradient id="linear-gradient-6" x1="122.47" y1="29.5" x2="134.41" y2="29.5" gradientTransform="translate(21.12 105.99) rotate(-48.41)" xlink:href="#linear-gradient"/>
    <linearGradient id="linear-gradient-7" x1="128.14" y1="43.92" x2="134.8" y2="43.92" gradientTransform="matrix(1, 0, 0, 1, 0, 0)" xlink:href="#linear-gradient"/>
    <linearGradient id="linear-gradient-8" x1="134.82" y1="57.4" x2="142.5" y2="57.4" gradientTransform="translate(55.34 182.22) rotate(-78.76)" xlink:href="#linear-gradient"/>
    <linearGradient id="linear-gradient-9" x1="134.66" y1="75.53" x2="138.56" y2="75.53" gradientTransform="translate(64.9 214.18) rotate(-91.59)" xlink:href="#linear-gradient"/>
    <linearGradient id="linear-gradient-10" x1="135.32" y1="89.02" x2="143.12" y2="89.02" gradientTransform="translate(83.7 244.66) rotate(-102.96)" xlink:href="#linear-gradient"/>
    <linearGradient id="linear-gradient-11" x1="128.51" y1="101.88" x2="134.03" y2="101.88" gradientTransform="translate(89.53 262.73) rotate(-113.27)" xlink:href="#linear-gradient"/>
    <linearGradient id="linear-gradient-12" x1="120.91" y1="116.42" x2="130.5" y2="116.42" gradientTransform="translate(122.24 287.71) rotate(-131.64)" xlink:href="#linear-gradient"/>
    <linearGradient id="linear-gradient-13" x1="109.11" y1="126.17" x2="116.44" y2="126.17" gradientTransform="matrix(1, 0, 0, 1, 0, 0)" xlink:href="#linear-gradient"/>
    <linearGradient id="linear-gradient-14" x1="95.38" y1="135.88" x2="106.11" y2="135.88" gradientTransform="translate(149.85 297.75) rotate(-160.32)" xlink:href="#linear-gradient"/>
    <linearGradient id="linear-gradient-15" x1="78.36" y1="141.6" x2="89.25" y2="141.6" gradientTransform="translate(139.36 296.49) rotate(-169.11)" xlink:href="#linear-gradient"/>
    <linearGradient id="linear-gradient-16" x1="65.95" y1="138.71" x2="72.72" y2="138.71" gradientTransform="translate(135.64 278.9) rotate(-178.75)" xlink:href="#linear-gradient"/>
    <linearGradient id="linear-gradient-17" x1="45.5" y1="139.55" x2="56.17" y2="139.55" gradientTransform="translate(150.18 249.95) rotate(158.03)" xlink:href="#linear-gradient"/>
    <linearGradient id="linear-gradient-18" x1="33.6" y1="131.39" x2="41.63" y2="131.39" gradientTransform="translate(143.43 217.87) rotate(145.24)" xlink:href="#linear-gradient"/>
    <linearGradient id="linear-gradient-19" x1="18.13" y1="123.48" x2="27.97" y2="123.48" gradientTransform="translate(124.67 197.32) rotate(136.58)" xlink:href="#linear-gradient"/>
    <linearGradient id="linear-gradient-20" x1="13.98" y1="110.73" x2="20.05" y2="110.73" gradientTransform="matrix(1, 0, 0, 1, 0, 0)" xlink:href="#linear-gradient"/>
    <linearGradient id="linear-gradient-21" x1=".66" y1="101.7" x2="10.92" y2="101.7" gradientTransform="translate(101.08 137.71) rotate(113.96)" xlink:href="#linear-gradient"/>
    <linearGradient id="linear-gradient-22" x1=".59" y1="88.11" x2="8.09" y2="88.11" gradientTransform="translate(92.11 96.99) rotate(98.6)" xlink:href="#linear-gradient"/>
    <linearGradient id="linear-gradient-23" x1="2.63" y1="74.06" x2="7.81" y2="74.06" gradientTransform="matrix(1, 0, 0, 1, 0, 0)" xlink:href="#linear-gradient"/>
    <linearGradient id="linear-gradient-24" x1="0" y1="59.46" x2="7.7" y2="59.46" gradientTransform="translate(61.35 43.85) rotate(78.52)" xlink:href="#linear-gradient"/>
    <linearGradient id="linear-gradient-25" x1="7.02" y1="46.01" x2="13.29" y2="46.01" gradientTransform="matrix(1, 0, 0, 1, 0, 0)" xlink:href="#linear-gradient"/>
    <linearGradient id="linear-gradient-26" x1="9.88" y1="33.2" x2="19.06" y2="33.2" gradientTransform="translate(33.76 2.55) rotate(55.73)" xlink:href="#linear-gradient"/>
    <linearGradient id="linear-gradient-27" x1="18.69" y1="22.06" x2="28.69" y2="22.06" gradientTransform="translate(19.76 -10.07) rotate(40.07)" xlink:href="#linear-gradient"/>
    <linearGradient id="linear-gradient-28" x1="31.29" y1="17.49" x2="38.14" y2="17.49" gradientTransform="translate(13.74 -15.24) rotate(30.61)" xlink:href="#linear-gradient"/>
    <linearGradient id="linear-gradient-29" x1="39.84" y1="8.25" x2="50.39" y2="8.25" gradientTransform="translate(8.15 -18.9) rotate(25.94)" xlink:href="#linear-gradient"/>
    <linearGradient id="linear-gradient-30" x1="52.75" y1="7.32" x2="60.34" y2="7.32" gradientTransform="translate(2.97 -12.19) rotate(12.63)" xlink:href="#linear-gradient"/>
  </defs>
  <g id="Layer_6" data-name="Layer 6">
    <g>
      <g>
        <polygon class="cls-3" points="66.65 6.73 66.85 15.44 69.33 15.2 69.23 6.48 66.65 6.73"/>
        <rect class="cls-1" x="62.26" y=".16" width="10.96" height="6.89" rx="3.45" ry="3.45" transform="translate(-.07 5.45) rotate(-4.61)"/>
        <polygon class="cls-3" points="79.19 8.9 77.65 16.86 79.97 17.13 81.59 9.18 79.19 8.9"/>
        <rect class="cls-61" x="76.87" y="4.41" width="7.66" height="4.82" rx="2.41" ry="2.41" transform="translate(2.26 -13.34) rotate(9.59)"/>
        <polygon class="cls-3" points="91.38 9.31 87.86 18.12 90.98 19.29 94.61 10.52 91.38 9.31"/>
        <rect class="cls-59" x="89.19" y="3.72" width="10.96" height="6.89" rx="3.45" ry="3.45" transform="translate(9.37 -34.51) rotate(21.71)"/>
        <polygon class="cls-3" points="103.76 16 99.64 23.08 101.57 23.87 105.77 16.81 103.76 16"/>
        <path class="cls-60" d="M105.23,18.23l-2.22-1.18c-1.03-.55-1.42-1.82-.85-2.82h0c.57-1,1.87-1.37,2.91-.82l2.22,1.18c1.03,.55,1.42,1.82,.85,2.82h0c-.57,1-1.87,1.37-2.91,.82Z"/>
        <polygon class="cls-3" points="114.57 22.45 109.58 28.82 112.15 30.92 117.24 24.63 114.57 22.45"/>
        <rect class="cls-64" x="112.2" y="18.11" width="10.96" height="6.89" rx="3.45" ry="3.45" transform="translate(46.24 -74.41) rotate(42.96)"/>
        <polygon class="cls-3" points="124.33 29.78 116.45 36.94 119.21 40.02 127.2 32.97 124.33 29.78"/>
        <rect class="cls-62" x="121.62" y="25.21" width="13.65" height="8.58" rx="4.29" ry="4.29" transform="translate(65.26 -86.15) rotate(48.41)"/>
        <polygon class="cls-3" points="129.07 43.57 124.41 46.63 125.63 48.87 130.34 45.89 129.07 43.57"/>
        <path class="cls-63" d="M130.02,46.64l-1.53-2.73c-.71-1.27-.3-2.92,.92-3.66h0c1.22-.74,2.8-.31,3.51,.96l1.53,2.73c.71,1.27,.3,2.92-.92,3.66h0c-1.22,.74-2.8,.31-3.51-.96Z"/>
        <polygon class="cls-3" points="135.76 55.92 128.57 57.6 129.18 60.86 136.39 59.3 135.76 55.92"/>
        <rect class="cls-57" x="133.18" y="53.96" width="10.96" height="6.89" rx="3.45" ry="3.45" transform="translate(167.94 -89.79) rotate(78.76)"/>
        <polygon class="cls-3" points="135.22 74.37 131.11 74.39 131.04 76.23 135.14 76.28 135.22 74.37"/>
        <rect class="cls-58" x="133.56" y="73.61" width="6.1" height="3.83" rx="1.92" ry="1.92" transform="translate(215.9 -58.93) rotate(91.59)"/>
        <polygon class="cls-3" points="137.19 86.48 129.94 85.06 129.16 88.28 136.38 89.82 137.19 86.48"/>
        <rect class="cls-77" x="133.74" y="85.57" width="10.96" height="6.89" rx="3.45" ry="3.45" transform="translate(257.21 -26.68) rotate(102.96)"/>
        <polygon class="cls-3" points="130.27 100.02 125.8 98.28 124.92 100.24 129.36 102.06 130.27 100.02"/>
        <rect class="cls-78" x="127.71" y="99.64" width="7.12" height="4.48" rx="2.24" ry="2.24" transform="translate(276.73 21.54) rotate(113.27)"/>
        <polygon class="cls-3" points="125.14 113.21 119.46 108.49 117.23 110.94 122.82 115.75 125.14 113.21"/>
        <rect class="cls-76" x="120.22" y="112.97" width="10.96" height="6.89" rx="3.45" ry="3.45" transform="translate(296.23 99.84) rotate(131.64)"/>
        <polygon class="cls-3" points="112.89 123.67 109.68 119.15 107.72 120.6 110.86 125.17 112.89 123.67"/>
        <path class="cls-75" d="M110.15,124.91l2.38-1.81c1.11-.84,2.66-.56,3.45,.63h0c.79,1.19,.52,2.85-.59,3.69l-2.38,1.81c-1.11,.84-2.66,.56-3.45-.63h0c-.79-1.19-.52-2.85,.59-3.69Z"/>
        <polygon class="cls-3" points="101.79 132.8 99.07 125.93 95.93 127.01 98.53 133.92 101.79 132.8"/>
        <rect class="cls-65" x="95.26" y="132.44" width="10.96" height="6.89" rx="3.45" ry="3.45" transform="translate(241.36 229.9) rotate(160.32)"/>
        <polygon class="cls-3" points="85.31 138.71 83.67 131.51 80.41 132.1 81.92 139.32 85.31 138.71"/>
        <rect class="cls-71" x="78.33" y="138.16" width="10.96" height="6.89" rx="3.45" ry="3.45" transform="translate(192.85 264.82) rotate(169.11)"/>
        <polygon class="cls-3" points="70.55 137.11 70.3 132.56 68.25 132.58 68.42 137.13 70.55 137.11"/>
        <rect class="cls-73" x="65.95" y="136.58" width="6.77" height="4.25" rx="2.13" ry="2.13" transform="translate(141.67 275.88) rotate(178.75)"/>
        <polygon class="cls-3" points="53.66 137.93 56.2 131 53.14 129.72 50.49 136.61 53.66 137.93"/>
        <rect class="cls-74" x="45.36" y="136.1" width="10.96" height="6.89" rx="3.45" ry="3.45" transform="translate(45.79 287.98) rotate(-158.03)"/>
        <polygon class="cls-3" points="40.06 130.64 43.21 125.77 41.09 124.26 37.86 129.08 40.06 130.64"/>
        <rect class="cls-66" x="33.31" y="128.68" width="8.61" height="5.41" rx="2.71" ry="2.71" transform="translate(-6.4 260.77) rotate(-145.24)"/>
        <polygon class="cls-3" points="26.27 123.01 31.17 117.49 28.79 115.18 23.8 120.62 26.27 123.01"/>
        <rect class="cls-72" x="17.57" y="120.04" width="10.96" height="6.89" rx="3.45" ry="3.45" transform="translate(-45.08 229.01) rotate(-136.58)"/>
        <polygon class="cls-3" points="19.17 110.94 23.17 107.85 21.99 105.82 17.93 108.84 19.17 110.94"/>
        <path class="cls-68" d="M18.18,108.13l1.49,2.47c.69,1.15,.4,2.71-.65,3.46h0c-1.05,.76-2.48,.44-3.17-.71l-1.49-2.47c-.69-1.15-.4-2.71,.65-3.46h0c1.05-.76,2.48-.44,3.17,.71Z"/>
        <polygon class="cls-3" points="9.71 102.63 20.29 97.97 18.59 94.35 7.94 98.88 9.71 102.63"/>
        <rect class="cls-69" x="-.8" y="97.56" width="13.17" height="8.28" rx="4.14" ry="4.14" transform="translate(-84.8 148.29) rotate(-113.96)"/>
        <polygon class="cls-3" points="7.26 89.72 16.19 88.33 15.65 85.05 6.7 86.32 7.26 89.72"/>
        <rect class="cls-67" x="-1.14" y="84.67" width="10.96" height="6.89" rx="3.45" ry="3.45" transform="translate(-82.13 105.58) rotate(-98.6)"/>
        <polygon class="cls-3" points="7.37 76.03 16.12 75.9 15.88 72.57 7.11 72.57 7.37 76.03"/>
        <path class="cls-70" d="M7.73,71.93l.08,4.07c.04,1.89-1.08,3.49-2.48,3.54h0c-1.4,.05-2.58-1.46-2.62-3.35l-.08-4.07c-.04-1.89,1.08-3.49,2.48-3.54h0c1.4-.05,2.58,1.46,2.62,3.35Z"/>
        <polygon class="cls-3" points="6.07 61.98 15.69 63.99 16.27 60.71 6.68 58.58 6.07 61.98"/>
        <rect class="cls-80" x="-1.63" y="56.01" width="10.96" height="6.89" rx="3.45" ry="3.45" transform="translate(-55.18 51.39) rotate(-78.52)"/>
        <polygon class="cls-3" points="11.39 48.28 18.33 51.52 19.24 49.15 12.32 45.81 11.39 48.28"/>
        <path class="cls-82" d="M13.08,45.65l-1.21,2.85c-.56,1.33-2.07,1.94-3.34,1.35h0c-1.28-.59-1.86-2.15-1.3-3.48l1.21-2.85c.56-1.33,2.07-1.94,3.34-1.35h0c1.28,.59,1.86,2.15,1.3,3.48Z"/>
        <polygon class="cls-3" points="15.5 36.36 22.78 41.23 24.63 38.47 17.41 33.49 15.5 36.36"/>
        <rect class="cls-81" x="8.99" y="29.76" width="10.96" height="6.89" rx="3.45" ry="3.45" transform="translate(-21.12 26.46) rotate(-55.73)"/>
        <polygon class="cls-3" points="23.82 25.36 29.37 31.79 31.9 29.64 26.45 23.13 23.82 25.36"/>
        <rect class="cls-79" x="18.21" y="18.61" width="10.96" height="6.89" rx="3.45" ry="3.45" transform="translate(-8.64 20.43) rotate(-40.07)"/>
        <polygon class="cls-3" points="34.83 19.85 37.76 24.68 39.64 23.55 36.78 18.68 34.83 19.85"/>
        <rect class="cls-83" x="31.1" y="15.22" width="7.22" height="4.54" rx="2.27" ry="2.27" transform="translate(-4.07 20.11) rotate(-30.61)"/>
        <polygon class="cls-3" points="44.85 11.87 48.47 18.92 51.46 17.48 47.95 10.38 44.85 11.87"/>
        <rect class="cls-84" x="39.64" y="4.8" width="10.96" height="6.89" rx="3.45" ry="3.45" transform="translate(.94 20.57) rotate(-25.94)"/>
        <polygon class="cls-3" points="55.92 9.73 57.33 15.9 59.6 15.36 58.27 9.17 55.92 9.73"/>
        <rect class="cls-85" x="52.71" y="4.92" width="7.66" height="4.82" rx="2.41" ry="2.41" transform="translate(-.23 12.54) rotate(-12.63)"/>
        <g>
          <ellipse class="cls-56" cx="72.33" cy="74.74" rx="59.25" ry="60.22"/>
          <ellipse class="cls-19" cx="72.28" cy="74.68" rx="59.19" ry="60.16"/>
          <ellipse class="cls-18" cx="72.22" cy="74.62" rx="59.14" ry="60.1"/>
          <ellipse class="cls-37" cx="72.17" cy="74.56" rx="59.08" ry="60.04"/>
          <ellipse class="cls-21" cx="72.12" cy="74.49" rx="59.02" ry="59.98"/>
          <ellipse class="cls-20" cx="72.07" cy="74.43" rx="58.96" ry="59.92"/>
          <ellipse class="cls-48" cx="72.02" cy="74.37" rx="58.91" ry="59.87"/>
          <ellipse class="cls-47" cx="71.97" cy="74.31" rx="58.85" ry="59.81"/>
          <ellipse class="cls-55" cx="71.92" cy="74.24" rx="58.79" ry="59.75"/>
          <ellipse class="cls-23" cx="71.86" cy="74.18" rx="58.73" ry="59.69"/>
          <ellipse class="cls-22" cx="71.81" cy="74.12" rx="58.67" ry="59.63"/>
          <ellipse class="cls-51" cx="71.76" cy="74.06" rx="58.62" ry="59.57"/>
          <ellipse class="cls-54" cx="71.71" cy="73.99" rx="58.56" ry="59.51"/>
          <ellipse class="cls-54" cx="71.66" cy="73.93" rx="58.5" ry="59.45"/>
          <ellipse class="cls-53" cx="71.61" cy="73.87" rx="58.44" ry="59.4"/>
          <ellipse class="cls-52" cx="71.56" cy="73.81" rx="58.39" ry="59.34"/>
          <ellipse class="cls-52" cx="71.5" cy="73.74" rx="58.33" ry="59.28"/>
          <ellipse class="cls-24" cx="71.45" cy="73.68" rx="58.27" ry="59.22"/>
          <ellipse class="cls-24" cx="71.4" cy="73.62" rx="58.21" ry="59.16"/>
          <ellipse class="cls-15" cx="71.35" cy="73.56" rx="58.15" ry="59.1"/>
          <ellipse class="cls-14" cx="71.3" cy="73.49" rx="58.1" ry="59.04"/>
          <ellipse class="cls-14" cx="71.25" cy="73.43" rx="58.04" ry="58.99"/>
          <ellipse class="cls-30" cx="71.2" cy="73.37" rx="57.98" ry="58.93"/>
          <ellipse class="cls-36" cx="71.14" cy="73.31" rx="57.92" ry="58.87"/>
          <ellipse class="cls-36" cx="71.09" cy="73.24" rx="57.87" ry="58.81"/>
          <ellipse class="cls-32" cx="71.04" cy="73.18" rx="57.81" ry="58.75"/>
          <ellipse class="cls-35" cx="70.99" cy="73.12" rx="57.75" ry="58.69"/>
          <ellipse class="cls-31" cx="70.94" cy="73.06" rx="57.69" ry="58.63"/>
          <ellipse class="cls-31" cx="70.89" cy="72.99" rx="57.64" ry="58.57"/>
          <ellipse class="cls-31" cx="70.84" cy="72.93" rx="57.58" ry="58.52"/>
          <ellipse class="cls-34" cx="70.78" cy="72.87" rx="57.52" ry="58.46"/>
          <ellipse class="cls-34" cx="70.73" cy="72.81" rx="57.46" ry="58.4"/>
          <ellipse class="cls-33" cx="70.68" cy="72.75" rx="57.4" ry="58.34"/>
          <ellipse class="cls-25" cx="70.63" cy="72.68" rx="57.35" ry="58.28"/>
          <ellipse class="cls-25" cx="70.58" cy="72.62" rx="57.29" ry="58.22"/>
          <ellipse class="cls-29" cx="70.53" cy="72.56" rx="57.23" ry="58.16"/>
          <ellipse class="cls-29" cx="70.48" cy="72.5" rx="57.17" ry="58.11"/>
          <ellipse class="cls-27" cx="70.42" cy="72.43" rx="57.12" ry="58.05"/>
          <ellipse class="cls-16" cx="70.37" cy="72.37" rx="57.06" ry="57.99"/>
          <ellipse class="cls-16" cx="70.32" cy="72.31" rx="57" ry="57.93"/>
          <ellipse class="cls-17" cx="70.27" cy="72.25" rx="56.94" ry="57.87"/>
          <ellipse class="cls-26" cx="70.22" cy="72.18" rx="56.89" ry="57.81"/>
          <ellipse class="cls-28" cx="70.17" cy="72.12" rx="56.83" ry="57.75"/>
          <ellipse class="cls-42" cx="70.11" cy="72.06" rx="56.77" ry="57.7"/>
          <ellipse class="cls-41" cx="70.06" cy="72" rx="56.71" ry="57.64"/>
          <ellipse class="cls-41" cx="70.01" cy="71.93" rx="56.65" ry="57.58"/>
          <ellipse class="cls-43" cx="69.96" cy="71.87" rx="56.6" ry="57.52"/>
          <ellipse class="cls-44" cx="69.91" cy="71.81" rx="56.54" ry="57.46"/>
          <ellipse class="cls-44" cx="69.86" cy="71.75" rx="56.48" ry="57.4"/>
          <ellipse class="cls-45" cx="69.81" cy="71.68" rx="56.42" ry="57.34"/>
          <ellipse class="cls-46" cx="69.75" cy="71.62" rx="56.37" ry="57.28"/>
          <ellipse class="cls-13" cx="69.7" cy="71.56" rx="56.31" ry="57.23"/>
          <ellipse class="cls-13" cx="69.65" cy="71.5" rx="56.25" ry="57.17"/>
          <ellipse class="cls-6" cx="69.6" cy="71.43" rx="56.19" ry="57.11"/>
          <ellipse class="cls-10" cx="69.55" cy="71.37" rx="56.13" ry="57.05"/>
          <ellipse class="cls-11" cx="69.5" cy="71.31" rx="56.08" ry="56.99"/>
          <ellipse class="cls-12" cx="69.45" cy="71.25" rx="56.02" ry="56.93"/>
          <ellipse class="cls-8" cx="69.39" cy="71.18" rx="55.96" ry="56.87"/>
          <ellipse class="cls-7" cx="69.34" cy="71.12" rx="55.9" ry="56.82"/>
          <ellipse class="cls-9" cx="69.29" cy="71.06" rx="55.85" ry="56.76"/>
          <ellipse class="cls-50" cx="69.24" cy="71" rx="55.79" ry="56.7"/>
          <ellipse class="cls-49" cx="69.19" cy="70.93" rx="55.73" ry="56.64"/>
        </g>
        <g>
          <path d="M30.8,66.71s44.7-11.27,29.93-17.55"/>
          <path class="cls-38" d="M30.83,66.92c1.49-.38,2.97-.78,4.45-1.2,3.39-.95,6.77-1.97,10.11-3.09,3.7-1.23,7.38-2.57,10.91-4.22,1.47-.68,2.92-1.43,4.28-2.31,.98-.64,1.98-1.36,2.69-2.31,.49-.65,.83-1.47,.58-2.29-.29-.98-1.22-1.62-2.07-2.08-.31-.17-.64-.32-.97-.46-.25-.11-.41,.28-.16,.39,.96,.41,2.12,.96,2.65,1.93,.38,.69,.2,1.43-.22,2.06-.61,.92-1.53,1.61-2.43,2.22-1.28,.87-2.67,1.59-4.06,2.26-3.4,1.63-6.96,2.94-10.53,4.15-3.33,1.13-6.69,2.16-10.08,3.12-1.72,.49-3.46,.9-5.17,1.41-.08,.02-.03,0-.03,0-.26,.06-.21,.48,.05,.41h0Z"/>
        </g>
        <g>
          <path d="M112.23,65s-45.3-8.52-30.94-15.7"/>
          <path class="cls-38" d="M112.24,64.79s.05,0-.04,0-.16-.03-.24-.05c-.29-.06-.59-.12-.88-.17-1.05-.21-2.09-.43-3.13-.65-3.31-.71-6.61-1.49-9.88-2.36-3.69-.98-7.37-2.05-10.94-3.4-1.52-.58-3.02-1.2-4.46-1.96-1.07-.57-2.17-1.2-3.03-2.07-.53-.54-1.06-1.25-.94-2.06,.13-.92,1.01-1.6,1.74-2.06,.3-.19,.62-.36,.94-.52,.24-.12,.06-.5-.18-.37-1.64,.82-3.78,2.39-2.55,4.43,.55,.92,1.47,1.6,2.36,2.17,1.28,.82,2.68,1.48,4.08,2.07,3.53,1.5,7.23,2.62,10.92,3.64,3.52,.98,7.08,1.84,10.65,2.63,1.22,.27,2.44,.53,3.67,.78,.58,.12,1.18,.29,1.77,.35,.04,0,.08,.02,.12,.02,.26,.05,.29-.37,.02-.42h0Z"/>
        </g>
        <path class="cls-39" d="M63.88,46.77c.52,.49,1.08,1,1.34,1.69,.22,.59,.17,1.32-.31,1.77-.1,.09,.05,.24,.15,.15,.51-.47,.6-1.23,.4-1.87-.24-.77-.85-1.34-1.42-1.88-.1-.09-.25,.06-.15,.15h0Z"/>
        <path class="cls-39" d="M77.21,46.63c-.57,.53-1.18,1.11-1.42,1.88-.2,.64-.11,1.41,.4,1.87,.1,.09,.25-.06,.15-.15-.49-.44-.53-1.18-.31-1.77,.25-.68,.82-1.2,1.34-1.69,.1-.09-.05-.24-.15-.15h0Z"/>
        <path class="cls-38" d="M50.65,102.14c7.47-2.98,15.63-4.06,23.68-4.35,7.25-.26,14.54,.41,21.61,2.05,.57,.13,1.05-.41,.86-.95-1.38-3.93-6.49-12.58-11.36-15.05-5.35-2.7-10.12-2.52-15.45-2.21-5.63,.33-10.52,3.9-12.14,5.03-10.24,7.14-13.45,17.98-7.2,15.48Z"/>
        <path class="cls-4" d="M88.28,98.37s-1.5-6.24-2.75-7.63l-1.25-1.39s.5,8.52-.84,8.64c0,0,2.2,.18,2.29,.18s1.81,.21,1.81,.21l.76,.11-.02-.1Z"/>
        <path class="cls-4" d="M58.78,99.63s1.04-7.06,2.28-8.73l1.24-1.67s.31,9.48,1.8,9.48c0,0-2.42,.42-2.51,.43s-1.96,.32-1.96,.32l-.84,.17h0Z"/>
      </g>
      <path class="cls-40" d="M58.09,64.03c-1.7,2.53-4.11,4.65-7.06,5.54s-6,.49-8.8-.64c-.59-.24-1.69,.61-.84,.95,3.21,1.3,6.79,1.65,10.12,.58,3.35-1.08,6.02-3.38,7.97-6.27,.21-.31-.18-.54-.43-.58-.37-.06-.74,.14-.95,.44h0Z"/>
      <g>
        <path class="cls-2" d="M41,71.34c-.61,2.14-.46,4.42-.16,6.63s.73,4.41,.67,6.64c-.06,2.48-.75,4.96-2.13,7.02s-3.47,3.67-5.86,4.32-5.08,.28-7.11-1.13"/>
        <path class="cls-2" d="M40.96,71.31c-1.6,1.55-3.67,2.51-5.76,3.3s-4.23,1.46-6.16,2.57c-2.15,1.23-4.01,3.02-5.16,5.21s-1.58,4.79-1.01,7.21,2.17,4.6,4.38,5.72"/>
      </g>
      <path class="cls-5" d="M39.69,85.23c-.84,1.06-1.73,1.91-2.79,2.94-1.23,1.2-.83,.77-3.72,2.86-1.2,.87-2.58,1.54-1.98,2.94,.05,.12,.11,.24,.21,.31,.11,.09,.26,.11,.4,.12,1.82,.16,3.69-.61,4.95-2.05,1.4-1.6,2.24-5.07,2.93-7.13Z"/>
      <path class="cls-40" d="M79.87,63.86c4.37,5.19,11.2,7.22,17.71,5.37,.88-.25,.64-1.2-.25-.95-5.98,1.7-12.14-.32-16.13-5.05-.41-.48-1.79,.08-1.33,.63h0Z"/>
      <g>
        <path class="cls-2" d="M98.45,70.06c.61,2.14,.46,4.42,.16,6.63s-.73,4.41-.67,6.64c.06,2.48,.75,4.96,2.13,7.02s3.47,3.67,5.86,4.32,5.08,.28,7.11-1.13"/>
        <path class="cls-2" d="M98.49,70.04c1.6,1.55,3.67,2.51,5.76,3.3s4.23,1.46,6.16,2.57c2.15,1.23,4.01,3.02,5.16,5.21s1.58,4.79,1.01,7.21-2.17,4.6-4.38,5.72"/>
      </g>
      <path class="cls-5" d="M99.75,83.95c.84,1.06,1.73,1.91,2.79,2.94,1.23,1.2,.83,.77,3.72,2.86,1.2,.87,2.58,1.54,1.98,2.94-.05,.12-.11,.24-.21,.31-.11,.09-.26,.11-.4,.12-1.82,.16-3.69-.61-4.95-2.05-1.4-1.6-2.24-5.07-2.93-7.13Z"/>
    </g>
  </g>
</svg>