<?xml version="1.0" encoding="UTF-8"?>
<svg id="Layer_2" data-name="Layer 2" xmlns="http://www.w3.org/2000/svg" xmlns:xlink="http://www.w3.org/1999/xlink" viewBox="0 0 411.22 211.51">
  <defs>
    <style>
      .cls-1 {
        fill: url(#linear-gradient);
      }

      .cls-2 {
        fill: #e4d63e;
      }

      .cls-3 {
        fill: #fff;
      }

      .cls-4 {
        fill: #9787bc;
      }

      .cls-5 {
        fill: #9988bf;
      }

      .cls-6 {
        fill: #9988be;
      }

      .cls-7 {
        fill: #9989bf;
      }

      .cls-8 {
        fill: #9887bc;
      }

      .cls-9 {
        fill: #9887bd;
      }

      .cls-10 {
        fill: #9888bd;
      }

      .cls-11 {
        fill: #9786bb;
      }

      .cls-12 {
        fill: #8b7dae;
      }

      .cls-13 {
        fill: #8b7dad;
      }

      .cls-14 {
        fill: #9282b5;
      }

      .cls-15 {
        fill: #9283b6;
      }

      .cls-16 {
        fill: #8478a7;
      }

      .cls-17 {
        fill: #8478a6;
      }

      .cls-18 {
        fill: #8579a8;
      }

      .cls-19 {
        fill: #8578a8;
      }

      .cls-20 {
        fill: #877aaa;
      }

      .cls-21 {
        fill: #877aa9;
      }

      .cls-22 {
        fill: #8a7cad;
      }

      .cls-23 {
        fill: #9081b3;
      }

      .cls-24 {
        fill: #9383b6;
      }

      .cls-25 {
        fill: #9182b5;
      }

      .cls-26 {
        fill: #9383b7;
      }

      .cls-27 {
        fill: #9181b4;
      }

      .cls-28 {
        fill: #8c7daf;
      }

      .cls-29 {
        fill: #8e7fb1;
      }

      .cls-30 {
        fill: #8d7eb0;
      }

      .cls-31 {
        fill: #8f80b3;
      }

      .cls-32 {
        fill: #8f80b2;
      }

      .cls-33 {
        fill: #8d7fb0;
      }

      .cls-34 {
        fill: #8c7eaf;
      }

      .cls-35 {
        fill: #8578a7;
      }

      .cls-36, .cls-37 {
        fill: #231f20;
      }

      .cls-38 {
        fill: #413955;
      }

      .cls-39 {
        fill: #9484b8;
      }

      .cls-40 {
        fill: #9484b7;
      }

      .cls-41 {
        fill: #9584b8;
      }

      .cls-42 {
        fill: #9585b9;
      }

      .cls-43 {
        fill: #9685ba;
      }

      .cls-44 {
        fill: #9686ba;
      }

      .cls-45 {
        fill: #8679a9;
      }

      .cls-46 {
        fill: #8679a8;
      }

      .cls-47 {
        fill: #9a89c1;
      }

      .cls-48 {
        fill: #9a89c0;
      }

      .cls-49 {
        fill: #887aaa;
      }

      .cls-50 {
        fill: #897cac;
      }

      .cls-51 {
        fill: #897bab;
      }

      .cls-52 {
        fill: #887bab;
      }

      .cls-53 {
        fill: #867aa9;
      }

      .cls-54 {
        fill: #8377a6;
      }

      .cls-55 {
        fill: url(#linear-gradient-8);
      }

      .cls-56 {
        fill: url(#linear-gradient-9);
      }

      .cls-57 {
        fill: url(#linear-gradient-3);
      }

      .cls-58 {
        fill: url(#linear-gradient-4);
      }

      .cls-59 {
        fill: url(#linear-gradient-2);
      }

      .cls-60 {
        fill: url(#linear-gradient-6);
      }

      .cls-61 {
        fill: url(#linear-gradient-7);
      }

      .cls-62 {
        fill: url(#linear-gradient-5);
      }

      .cls-63 {
        fill: url(#linear-gradient-14);
      }

      .cls-64 {
        fill: url(#linear-gradient-18);
      }

      .cls-65 {
        fill: url(#linear-gradient-22);
      }

      .cls-66 {
        fill: url(#linear-gradient-20);
      }

      .cls-67 {
        fill: url(#linear-gradient-21);
      }

      .cls-68 {
        fill: url(#linear-gradient-23);
      }

      .cls-69 {
        fill: url(#linear-gradient-15);
      }

      .cls-70 {
        fill: url(#linear-gradient-19);
      }

      .cls-71 {
        fill: url(#linear-gradient-16);
      }

      .cls-72 {
        fill: url(#linear-gradient-17);
      }

      .cls-73 {
        fill: url(#linear-gradient-13);
      }

      .cls-74 {
        fill: url(#linear-gradient-12);
      }

      .cls-75 {
        fill: url(#linear-gradient-10);
      }

      .cls-76 {
        fill: url(#linear-gradient-11);
      }

      .cls-77 {
        fill: url(#linear-gradient-27);
      }

      .cls-78 {
        fill: url(#linear-gradient-24);
      }

      .cls-79 {
        fill: url(#linear-gradient-26);
      }

      .cls-80 {
        fill: url(#linear-gradient-25);
      }

      .cls-81 {
        fill: url(#linear-gradient-28);
      }

      .cls-82 {
        fill: url(#linear-gradient-29);
      }

      .cls-83 {
        fill: url(#linear-gradient-30);
      }

      .cls-37 {
        font-family: Arial-ItalicMT, Arial;
        font-size: 20px;
        stroke: #231f20;
        stroke-miterlimit: 10;
        stroke-width: .5px;
      }
    </style>
    <linearGradient id="linear-gradient" x1="197.06" y1="22.65" x2="207.93" y2="22.65" gradientTransform="translate(-124.91 3.31) rotate(12.63)" gradientUnits="userSpaceOnUse">
      <stop offset="0" stop-color="#e4d63e"/>
      <stop offset=".99" stop-color="#a99b3d"/>
    </linearGradient>
    <linearGradient id="linear-gradient-2" x1="76.89" y1="72.9" x2="84.51" y2="72.9" gradientTransform="translate(-11.01 14.46) rotate(-9.59)" xlink:href="#linear-gradient"/>
    <linearGradient id="linear-gradient-3" x1="89.33" y1="73.25" x2="100.01" y2="73.25" gradientTransform="translate(-20.38 40.22) rotate(-21.71)" xlink:href="#linear-gradient"/>
    <linearGradient id="linear-gradient-4" x1="101.9" y1="81.9" x2="108.4" y2="81.9" gradientTransform="matrix(1, 0, 0, 1, 0, 0)" xlink:href="#linear-gradient"/>
    <linearGradient id="linear-gradient-5" x1="112.75" y1="87.63" x2="122.61" y2="87.63" gradientTransform="translate(-28.16 103.68) rotate(-42.96)" xlink:href="#linear-gradient"/>
    <linearGradient id="linear-gradient-6" x1="122.47" y1="95.58" x2="134.41" y2="95.58" gradientTransform="translate(-28.3 128.21) rotate(-48.41)" xlink:href="#linear-gradient"/>
    <linearGradient id="linear-gradient-7" x1="128.14" y1="110" x2="134.8" y2="110" gradientTransform="matrix(1, 0, 0, 1, 0, 0)" xlink:href="#linear-gradient"/>
    <linearGradient id="linear-gradient-8" x1="134.82" y1="123.48" x2="142.5" y2="123.48" gradientTransform="translate(-9.47 235.42) rotate(-78.76)" xlink:href="#linear-gradient"/>
    <linearGradient id="linear-gradient-9" x1="134.66" y1="141.6" x2="138.56" y2="141.6" gradientTransform="translate(-1.15 282.09) rotate(-91.59)" xlink:href="#linear-gradient"/>
    <linearGradient id="linear-gradient-10" x1="135.32" y1="155.1" x2="143.12" y2="155.1" gradientTransform="translate(19.31 325.56) rotate(-102.96)" xlink:href="#linear-gradient"/>
    <linearGradient id="linear-gradient-11" x1="128.51" y1="167.96" x2="134.03" y2="167.96" gradientTransform="translate(28.83 354.91) rotate(-113.27)" xlink:href="#linear-gradient"/>
    <linearGradient id="linear-gradient-12" x1="120.91" y1="182.49" x2="130.5" y2="182.49" gradientTransform="translate(72.86 397.7) rotate(-131.64)" xlink:href="#linear-gradient"/>
    <linearGradient id="linear-gradient-13" x1="109.11" y1="192.25" x2="116.44" y2="192.25" gradientTransform="matrix(1, 0, 0, 1, 0, 0)" xlink:href="#linear-gradient"/>
    <linearGradient id="linear-gradient-14" x1="95.38" y1="201.96" x2="106.11" y2="201.96" gradientTransform="translate(127.6 426.05) rotate(-160.32)" xlink:href="#linear-gradient"/>
    <linearGradient id="linear-gradient-15" x1="78.36" y1="207.68" x2="89.25" y2="207.68" gradientTransform="translate(126.87 427.45) rotate(-169.11)" xlink:href="#linear-gradient"/>
    <linearGradient id="linear-gradient-16" x1="65.95" y1="204.79" x2="72.72" y2="204.79" gradientTransform="translate(134.2 411.04) rotate(-178.75)" xlink:href="#linear-gradient"/>
    <linearGradient id="linear-gradient-17" x1="45.5" y1="205.62" x2="56.17" y2="205.62" gradientTransform="translate(174.9 377.31) rotate(158.03)" xlink:href="#linear-gradient"/>
    <linearGradient id="linear-gradient-18" x1="33.6" y1="197.46" x2="41.63" y2="197.46" gradientTransform="translate(181.1 338.23) rotate(145.24)" xlink:href="#linear-gradient"/>
    <linearGradient id="linear-gradient-19" x1="18.13" y1="189.56" x2="27.97" y2="189.56" gradientTransform="translate(170.09 311.39) rotate(136.58)" xlink:href="#linear-gradient"/>
    <linearGradient id="linear-gradient-20" x1="13.98" y1="176.81" x2="20.05" y2="176.81" gradientTransform="matrix(1, 0, 0, 1, 0, 0)" xlink:href="#linear-gradient"/>
    <linearGradient id="linear-gradient-21" x1=".66" y1="167.78" x2="10.92" y2="167.78" gradientTransform="translate(161.46 230.63) rotate(113.96)" xlink:href="#linear-gradient"/>
    <linearGradient id="linear-gradient-22" x1=".59" y1="154.19" x2="8.09" y2="154.19" gradientTransform="translate(157.45 172.95) rotate(98.6)" xlink:href="#linear-gradient"/>
    <linearGradient id="linear-gradient-23" x1="2.63" y1="140.14" x2="7.81" y2="140.14" gradientTransform="matrix(1, 0, 0, 1, 0, 0)" xlink:href="#linear-gradient"/>
    <linearGradient id="linear-gradient-24" x1="0" y1="125.54" x2="7.7" y2="125.54" gradientTransform="translate(126.11 96.77) rotate(78.52)" xlink:href="#linear-gradient"/>
    <linearGradient id="linear-gradient-25" x1="7.02" y1="112.08" x2="13.29" y2="112.08" gradientTransform="matrix(1, 0, 0, 1, 0, 0)" xlink:href="#linear-gradient"/>
    <linearGradient id="linear-gradient-26" x1="9.88" y1="99.28" x2="19.06" y2="99.28" gradientTransform="translate(88.37 31.42) rotate(55.73)" xlink:href="#linear-gradient"/>
    <linearGradient id="linear-gradient-27" x1="18.69" y1="88.14" x2="28.69" y2="88.14" gradientTransform="translate(62.3 5.44) rotate(40.07)" xlink:href="#linear-gradient"/>
    <linearGradient id="linear-gradient-28" x1="31.29" y1="83.57" x2="38.14" y2="83.57" gradientTransform="translate(47.38 -6.03) rotate(30.61)" xlink:href="#linear-gradient"/>
    <linearGradient id="linear-gradient-29" x1="39.84" y1="74.33" x2="50.39" y2="74.33" gradientTransform="translate(37.06 -12.25) rotate(25.94)" xlink:href="#linear-gradient"/>
    <linearGradient id="linear-gradient-30" x1="52.75" y1="73.4" x2="60.34" y2="73.4" gradientTransform="translate(17.42 -10.59) rotate(12.63)" xlink:href="#linear-gradient"/>
  </defs>
  <g id="Layer_6" data-name="Layer 6">
    <g>
      <g>
        <polygon class="cls-2" points="66.65 72.81 66.85 81.52 69.33 81.28 69.23 72.56 66.65 72.81"/>
        <rect class="cls-1" x="62.26" y="66.24" width="10.96" height="6.89" rx="3.45" ry="3.45" transform="translate(-5.38 5.66) rotate(-4.61)"/>
        <polygon class="cls-2" points="79.19 74.98 77.65 82.94 79.97 83.21 81.59 75.26 79.19 74.98"/>
        <rect class="cls-59" x="76.87" y="70.49" width="7.66" height="4.82" rx="2.41" ry="2.41" transform="translate(13.27 -12.42) rotate(9.59)"/>
        <polygon class="cls-2" points="91.38 75.39 87.86 84.19 90.98 85.37 94.61 76.6 91.38 75.39"/>
        <rect class="cls-57" x="89.19" y="69.8" width="10.96" height="6.89" rx="3.45" ry="3.45" transform="translate(33.81 -29.82) rotate(21.71)"/>
        <polygon class="cls-2" points="103.76 82.08 99.64 89.16 101.57 89.94 105.77 82.89 103.76 82.08"/>
        <path class="cls-58" d="M105.23,84.31l-2.22-1.18c-1.03-.55-1.42-1.82-.85-2.82h0c.57-1,1.87-1.37,2.91-.82l2.22,1.18c1.03,.55,1.42,1.82,.85,2.82h0c-.57,1-1.87,1.37-2.91,.82Z"/>
        <polygon class="cls-2" points="114.57 88.53 109.58 94.9 112.15 97 117.24 90.7 114.57 88.53"/>
        <rect class="cls-62" x="112.2" y="84.19" width="10.96" height="6.89" rx="3.45" ry="3.45" transform="translate(91.27 -56.69) rotate(42.96)"/>
        <polygon class="cls-2" points="124.33 95.85 116.45 103.02 119.21 106.1 127.2 99.05 124.33 95.85"/>
        <rect class="cls-60" x="121.62" y="91.29" width="13.65" height="8.58" rx="4.29" ry="4.29" transform="translate(114.68 -63.93) rotate(48.41)"/>
        <polygon class="cls-2" points="129.07 109.65 124.41 112.71 125.63 114.94 130.34 111.97 129.07 109.65"/>
        <path class="cls-61" d="M130.02,112.71l-1.53-2.73c-.71-1.27-.3-2.92,.92-3.66h0c1.22-.74,2.8-.31,3.51,.96l1.53,2.73c.71,1.27,.3,2.92-.92,3.66h0c-1.22,.74-2.8,.31-3.51-.96Z"/>
        <polygon class="cls-2" points="135.76 122 128.57 123.67 129.18 126.93 136.39 125.38 135.76 122"/>
        <rect class="cls-55" x="133.18" y="120.03" width="10.96" height="6.89" rx="3.45" ry="3.45" transform="translate(232.75 -36.58) rotate(78.76)"/>
        <polygon class="cls-2" points="135.22 140.44 131.11 140.47 131.04 142.31 135.14 142.35 135.22 140.44"/>
        <rect class="cls-56" x="133.56" y="139.69" width="6.1" height="3.83" rx="1.92" ry="1.92" transform="translate(281.95 8.98) rotate(91.59)"/>
        <polygon class="cls-2" points="137.19 152.56 129.94 151.14 129.16 154.36 136.38 155.9 137.19 152.56"/>
        <rect class="cls-75" x="133.74" y="151.65" width="10.96" height="6.89" rx="3.45" ry="3.45" transform="translate(321.6 54.22) rotate(102.96)"/>
        <polygon class="cls-2" points="130.27 166.1 125.8 164.35 124.92 166.32 129.36 168.14 130.27 166.1"/>
        <rect class="cls-76" x="127.71" y="165.72" width="7.12" height="4.48" rx="2.24" ry="2.24" transform="translate(337.43 113.72) rotate(113.27)"/>
        <polygon class="cls-2" points="125.14 179.29 119.46 174.57 117.23 177.02 122.82 181.83 125.14 179.29"/>
        <rect class="cls-74" x="120.22" y="179.05" width="10.96" height="6.89" rx="3.45" ry="3.45" transform="translate(345.61 209.82) rotate(131.64)"/>
        <polygon class="cls-2" points="112.89 189.75 109.68 185.23 107.72 186.68 110.86 191.25 112.89 189.75"/>
        <path class="cls-73" d="M110.15,190.99l2.38-1.81c1.11-.84,2.66-.56,3.45,.63h0c.79,1.19,.52,2.85-.59,3.69l-2.38,1.81c-1.11,.84-2.66,.56-3.45-.63h0c-.79-1.19-.52-2.85,.59-3.69Z"/>
        <polygon class="cls-2" points="101.79 198.88 99.07 192.01 95.93 193.09 98.53 199.99 101.79 198.88"/>
        <rect class="cls-63" x="95.26" y="198.51" width="10.96" height="6.89" rx="3.45" ry="3.45" transform="translate(263.61 358.2) rotate(160.32)"/>
        <polygon class="cls-2" points="85.31 204.79 83.67 197.59 80.41 198.18 81.92 205.4 85.31 204.79"/>
        <rect class="cls-69" x="78.33" y="204.23" width="10.96" height="6.89" rx="3.45" ry="3.45" transform="translate(205.34 395.79) rotate(169.11)"/>
        <polygon class="cls-2" points="70.55 203.19 70.3 198.64 68.25 198.65 68.42 203.21 70.55 203.19"/>
        <rect class="cls-71" x="65.95" y="202.66" width="6.77" height="4.25" rx="2.13" ry="2.13" transform="translate(143.1 408.02) rotate(178.75)"/>
        <polygon class="cls-2" points="53.66 204.01 56.2 197.08 53.14 195.8 50.49 202.69 53.66 204.01"/>
        <rect class="cls-72" x="45.36" y="202.18" width="10.96" height="6.89" rx="3.45" ry="3.45" transform="translate(21.07 415.34) rotate(-158.03)"/>
        <polygon class="cls-2" points="40.06 196.72 43.21 191.85 41.09 190.34 37.86 195.15 40.06 196.72"/>
        <rect class="cls-64" x="33.31" y="194.76" width="8.61" height="5.41" rx="2.71" ry="2.71" transform="translate(-44.08 381.13) rotate(-145.24)"/>
        <polygon class="cls-2" points="26.27 189.09 31.17 183.56 28.79 181.25 23.8 186.7 26.27 189.09"/>
        <rect class="cls-70" x="17.57" y="186.11" width="10.96" height="6.89" rx="3.45" ry="3.45" transform="translate(-90.5 343.08) rotate(-136.58)"/>
        <polygon class="cls-2" points="19.17 177.02 23.17 173.92 21.99 171.9 17.93 174.92 19.17 177.02"/>
        <path class="cls-66" d="M18.18,174.2l1.49,2.47c.69,1.15,.4,2.71-.65,3.46h0c-1.05,.76-2.48,.44-3.17-.71l-1.49-2.47c-.69-1.15-.4-2.71,.65-3.46h0c1.05-.76,2.48-.44,3.17,.71Z"/>
        <polygon class="cls-2" points="9.71 168.71 20.29 164.05 18.59 160.43 7.94 164.96 9.71 168.71"/>
        <rect class="cls-67" x="-.8" y="163.64" width="13.17" height="8.28" rx="4.14" ry="4.14" transform="translate(-145.19 241.2) rotate(-113.96)"/>
        <polygon class="cls-2" points="7.26 155.8 16.19 154.41 15.65 151.13 6.7 152.4 7.26 155.8"/>
        <rect class="cls-65" x="-1.14" y="150.74" width="10.96" height="6.89" rx="3.45" ry="3.45" transform="translate(-147.47 181.54) rotate(-98.6)"/>
        <polygon class="cls-2" points="7.37 142.11 16.12 141.98 15.88 138.64 7.11 138.65 7.37 142.11"/>
        <path class="cls-68" d="M7.73,138.01l.08,4.07c.04,1.89-1.08,3.49-2.48,3.54h0c-1.4,.05-2.58-1.46-2.62-3.35l-.08-4.07c-.04-1.89,1.08-3.49,2.48-3.54h0c1.4-.05,2.58,1.46,2.62,3.35Z"/>
        <polygon class="cls-2" points="6.07 128.06 15.69 130.07 16.27 126.79 6.68 124.66 6.07 128.06"/>
        <rect class="cls-78" x="-1.63" y="122.09" width="10.96" height="6.89" rx="3.45" ry="3.45" transform="translate(-119.94 104.32) rotate(-78.52)"/>
        <polygon class="cls-2" points="11.39 114.36 18.33 117.6 19.24 115.22 12.32 111.89 11.39 114.36"/>
        <path class="cls-80" d="M13.08,111.72l-1.21,2.85c-.56,1.33-2.07,1.94-3.34,1.35h0c-1.28-.59-1.86-2.15-1.3-3.48l1.21-2.85c.56-1.33,2.07-1.94,3.34-1.35h0c1.28,.59,1.86,2.15,1.3,3.48Z"/>
        <polygon class="cls-2" points="15.5 102.43 22.78 107.31 24.63 104.54 17.41 99.57 15.5 102.43"/>
        <rect class="cls-79" x="8.99" y="95.84" width="10.96" height="6.89" rx="3.45" ry="3.45" transform="translate(-75.72 55.33) rotate(-55.73)"/>
        <polygon class="cls-2" points="23.82 91.44 29.37 97.86 31.9 95.72 26.45 89.21 23.82 91.44"/>
        <rect class="cls-77" x="18.21" y="84.69" width="10.96" height="6.89" rx="3.45" ry="3.45" transform="translate(-51.17 35.94) rotate(-40.07)"/>
        <polygon class="cls-2" points="34.83 85.93 37.76 90.75 39.64 89.63 36.78 84.76 34.83 85.93"/>
        <rect class="cls-81" x="31.1" y="81.3" width="7.22" height="4.54" rx="2.27" ry="2.27" transform="translate(-37.71 29.32) rotate(-30.61)"/>
        <polygon class="cls-2" points="44.85 77.95 48.47 85 51.46 83.56 47.95 76.46 44.85 77.95"/>
        <rect class="cls-82" x="39.64" y="70.88" width="10.96" height="6.89" rx="3.45" ry="3.45" transform="translate(-27.97 27.23) rotate(-25.94)"/>
        <polygon class="cls-2" points="55.92 75.81 57.33 81.98 59.6 81.44 58.27 75.25 55.92 75.81"/>
        <rect class="cls-83" x="52.71" y="70.99" width="7.66" height="4.82" rx="2.41" ry="2.41" transform="translate(-14.68 14.14) rotate(-12.63)"/>
        <g>
          <ellipse class="cls-54" cx="72.33" cy="140.82" rx="59.25" ry="60.22"/>
          <ellipse class="cls-17" cx="72.28" cy="140.76" rx="59.19" ry="60.16"/>
          <ellipse class="cls-16" cx="72.22" cy="140.7" rx="59.14" ry="60.1"/>
          <ellipse class="cls-35" cx="72.17" cy="140.63" rx="59.08" ry="60.04"/>
          <ellipse class="cls-19" cx="72.12" cy="140.57" rx="59.02" ry="59.98"/>
          <ellipse class="cls-18" cx="72.07" cy="140.51" rx="58.96" ry="59.92"/>
          <ellipse class="cls-46" cx="72.02" cy="140.45" rx="58.91" ry="59.87"/>
          <ellipse class="cls-45" cx="71.97" cy="140.38" rx="58.85" ry="59.81"/>
          <ellipse class="cls-53" cx="71.92" cy="140.32" rx="58.79" ry="59.75"/>
          <ellipse class="cls-21" cx="71.86" cy="140.26" rx="58.73" ry="59.69"/>
          <ellipse class="cls-20" cx="71.81" cy="140.2" rx="58.67" ry="59.63"/>
          <ellipse class="cls-49" cx="71.76" cy="140.13" rx="58.62" ry="59.57"/>
          <ellipse class="cls-52" cx="71.71" cy="140.07" rx="58.56" ry="59.51"/>
          <ellipse class="cls-52" cx="71.66" cy="140.01" rx="58.5" ry="59.45"/>
          <ellipse class="cls-51" cx="71.61" cy="139.95" rx="58.44" ry="59.4"/>
          <ellipse class="cls-50" cx="71.56" cy="139.88" rx="58.39" ry="59.34"/>
          <ellipse class="cls-50" cx="71.5" cy="139.82" rx="58.33" ry="59.28"/>
          <ellipse class="cls-22" cx="71.45" cy="139.76" rx="58.27" ry="59.22"/>
          <ellipse class="cls-22" cx="71.4" cy="139.7" rx="58.21" ry="59.16"/>
          <ellipse class="cls-13" cx="71.35" cy="139.63" rx="58.15" ry="59.1"/>
          <ellipse class="cls-12" cx="71.3" cy="139.57" rx="58.1" ry="59.04"/>
          <ellipse class="cls-12" cx="71.25" cy="139.51" rx="58.04" ry="58.99"/>
          <ellipse class="cls-28" cx="71.2" cy="139.45" rx="57.98" ry="58.93"/>
          <ellipse class="cls-34" cx="71.14" cy="139.38" rx="57.92" ry="58.87"/>
          <ellipse class="cls-34" cx="71.09" cy="139.32" rx="57.87" ry="58.81"/>
          <ellipse class="cls-30" cx="71.04" cy="139.26" rx="57.81" ry="58.75"/>
          <ellipse class="cls-33" cx="70.99" cy="139.2" rx="57.75" ry="58.69"/>
          <ellipse class="cls-29" cx="70.94" cy="139.14" rx="57.69" ry="58.63"/>
          <ellipse class="cls-29" cx="70.89" cy="139.07" rx="57.64" ry="58.57"/>
          <ellipse class="cls-29" cx="70.84" cy="139.01" rx="57.58" ry="58.52"/>
          <ellipse class="cls-32" cx="70.78" cy="138.95" rx="57.52" ry="58.46"/>
          <ellipse class="cls-32" cx="70.73" cy="138.89" rx="57.46" ry="58.4"/>
          <ellipse class="cls-31" cx="70.68" cy="138.82" rx="57.4" ry="58.34"/>
          <ellipse class="cls-23" cx="70.63" cy="138.76" rx="57.35" ry="58.28"/>
          <ellipse class="cls-23" cx="70.58" cy="138.7" rx="57.29" ry="58.22"/>
          <ellipse class="cls-27" cx="70.53" cy="138.64" rx="57.23" ry="58.16"/>
          <ellipse class="cls-27" cx="70.48" cy="138.57" rx="57.17" ry="58.11"/>
          <ellipse class="cls-25" cx="70.42" cy="138.51" rx="57.12" ry="58.05"/>
          <ellipse class="cls-14" cx="70.37" cy="138.45" rx="57.06" ry="57.99"/>
          <ellipse class="cls-14" cx="70.32" cy="138.39" rx="57" ry="57.93"/>
          <ellipse class="cls-15" cx="70.27" cy="138.32" rx="56.94" ry="57.87"/>
          <ellipse class="cls-24" cx="70.22" cy="138.26" rx="56.89" ry="57.81"/>
          <ellipse class="cls-26" cx="70.17" cy="138.2" rx="56.83" ry="57.75"/>
          <ellipse class="cls-40" cx="70.11" cy="138.14" rx="56.77" ry="57.7"/>
          <ellipse class="cls-39" cx="70.06" cy="138.07" rx="56.71" ry="57.64"/>
          <ellipse class="cls-39" cx="70.01" cy="138.01" rx="56.65" ry="57.58"/>
          <ellipse class="cls-41" cx="69.96" cy="137.95" rx="56.6" ry="57.52"/>
          <ellipse class="cls-42" cx="69.91" cy="137.89" rx="56.54" ry="57.46"/>
          <ellipse class="cls-42" cx="69.86" cy="137.82" rx="56.48" ry="57.4"/>
          <ellipse class="cls-43" cx="69.81" cy="137.76" rx="56.42" ry="57.34"/>
          <ellipse class="cls-44" cx="69.75" cy="137.7" rx="56.37" ry="57.28"/>
          <ellipse class="cls-11" cx="69.7" cy="137.64" rx="56.31" ry="57.23"/>
          <ellipse class="cls-11" cx="69.65" cy="137.57" rx="56.25" ry="57.17"/>
          <ellipse class="cls-4" cx="69.6" cy="137.51" rx="56.19" ry="57.11"/>
          <ellipse class="cls-8" cx="69.55" cy="137.45" rx="56.13" ry="57.05"/>
          <ellipse class="cls-9" cx="69.5" cy="137.39" rx="56.08" ry="56.99"/>
          <ellipse class="cls-10" cx="69.45" cy="137.32" rx="56.02" ry="56.93"/>
          <ellipse class="cls-6" cx="69.39" cy="137.26" rx="55.96" ry="56.87"/>
          <ellipse class="cls-5" cx="69.34" cy="137.2" rx="55.9" ry="56.82"/>
          <ellipse class="cls-7" cx="69.29" cy="137.14" rx="55.85" ry="56.76"/>
          <ellipse class="cls-48" cx="69.24" cy="137.07" rx="55.79" ry="56.7"/>
          <ellipse class="cls-47" cx="69.19" cy="137.01" rx="55.73" ry="56.64"/>
        </g>
        <g>
          <path d="M29.64,121.67s42.98,16.66,34.56,2.99"/>
          <path class="cls-36" d="M29.49,121.88c1.43,.55,2.88,1.07,4.33,1.59,3.32,1.18,6.67,2.29,10.05,3.3,3.73,1.12,7.51,2.15,11.35,2.84,1.59,.29,3.21,.52,4.83,.58,1.17,.04,2.4,.03,3.52-.34,.78-.25,1.52-.72,1.79-1.53,.33-.96-.07-2.03-.49-2.9-.16-.32-.34-.63-.52-.94-.14-.23-.49,0-.35,.22,.55,.89,1.18,2.01,1.06,3.1-.09,.78-.67,1.28-1.36,1.56-1.02,.4-2.18,.44-3.27,.42-1.55-.03-3.1-.23-4.62-.49-3.72-.63-7.38-1.61-10.99-2.67-3.37-.99-6.72-2.09-10.04-3.25-1.69-.59-3.35-1.25-5.04-1.83-.07-.03-.03-.01-.03-.01-.25-.1-.45,.27-.2,.37h0Z"/>
        </g>
        <g>
          <path d="M112.84,120.16s-42.19,18.56-34.4,4.53"/>
          <path class="cls-36" d="M112.73,119.98s.04-.02-.03,.01-.15,.06-.22,.1c-.28,.12-.55,.24-.83,.36-.98,.42-1.97,.83-2.95,1.23-3.13,1.28-6.29,2.5-9.48,3.64-3.6,1.28-7.23,2.47-10.95,3.37-1.58,.38-3.18,.72-4.79,.9-1.21,.14-2.47,.23-3.67,0-.74-.14-1.58-.44-1.94-1.16-.41-.84-.07-1.89,.28-2.68,.14-.33,.31-.65,.48-.96,.13-.24-.23-.44-.36-.21-.89,1.6-1.77,4.11,.4,5.1,.98,.44,2.12,.49,3.17,.45,1.52-.05,3.04-.29,4.54-.6,3.76-.76,7.44-1.92,11.07-3.16,3.46-1.19,6.88-2.48,10.27-3.85,1.16-.47,2.31-.94,3.46-1.43,.55-.23,1.14-.43,1.66-.71,.04-.02,.08-.03,.11-.05,.25-.11,.03-.46-.21-.36h0Z"/>
        </g>
        <path class="cls-36" d="M93.79,147.87c-7.39,3.19-15.51,4.49-23.55,5.01-7.24,.47-14.55,0-21.66-1.44-.57-.11-1.04,.44-.83,.98,1.49,3.89,6.83,12.4,11.77,14.73,5.42,2.55,10.19,2.24,15.51,1.78,5.62-.49,10.4-4.19,12-5.37,10.03-7.42,12.95-18.35,6.77-15.68Z"/>
        <path class="cls-3" d="M56.27,152.68s1.68,6.19,2.96,7.55l1.29,1.36s-.74-8.5,.6-8.66c0,0-2.21-.11-2.29-.11s-1.81-.16-1.81-.16l-.76-.09,.02,.1Z"/>
        <path class="cls-3" d="M85.73,150.61s-.84,7.08-2.03,8.79l-1.19,1.7s-.57-9.47-2.06-9.42c0,0,2.41-.48,2.5-.5s1.95-.38,1.95-.38l.84-.19h0Z"/>
      </g>
      <path class="cls-38" d="M42.14,136.51c2.6-1.6,5.62-2.47,8.68-2.06s5.73,2.06,7.83,4.26c.43,.46,1.81-.12,1.33-.63-2.38-2.5-5.43-4.28-8.9-4.68s-6.93,.66-9.89,2.48c-.28,.17-.34,.51-.09,.72,.28,.24,.77,.07,1.04-.1h0Z"/>
      <path class="cls-38" d="M99.56,135.26c-6.14-2.86-13.3-1.87-18.44,2.55-.74,.64,.42,1.08,.95,.62,4.72-4.06,11.01-4.85,16.64-2.23,.58,.27,1.67-.56,.84-.95h0Z"/>
    </g>
    <g>
      <g>
        <path d="M194.41,2h187.41c1.29,0,1.29-2,0-2H194.41c-1.29,0-1.29,2,0,2h0Z"/>
        <path d="M409.2,24.58V93.79c0,1.29,2,1.29,2,0V24.58c0-1.29-2-1.29-2,0h0Z"/>
        <g>
          <path class="cls-3" d="M376.65,113.35c-64.19,0-128.38,0-192.57,0"/>
          <path d="M376.65,112.35c-25.11,0-50.22,0-75.33,0-24.94,0-49.89,0-74.83,0-14.14,0-28.27,0-42.41,0-1.29,0-1.29,2,0,2,25.11,0,50.22,0,75.33,0,24.94,0,49.89,0,74.83,0,14.14,0,28.27,0,42.41,0,1.29,0,1.29-2,0-2h0Z"/>
        </g>
        <g>
          <path class="cls-3" d="M164.12,92.26c0-23.07,0-46.14,0-69.21"/>
          <path d="M165.12,92.26c0-17.92,0-35.85,0-53.77,0-5.14,0-10.29,0-15.43,0-1.29-2-1.29-2,0,0,17.92,0,35.85,0,53.77,0,5.14,0,10.29,0,15.43,0,1.29,2,1.29,2,0h0Z"/>
        </g>
        <g>
          <path class="cls-3" d="M164.07,92.14c0,13.5,0,27,0,40.5"/>
          <path d="M163.07,92.14c0,13.5,0,27,0,40.5,0,1.29,2,1.29,2,0,0-13.5,0-27,0-40.5,0-1.29-2-1.29-2,0h0Z"/>
        </g>
        <g>
          <path class="cls-3" d="M187.21,113.79c-7.68,6.43-15.36,12.86-23.03,19.29l-.06-110.04c.05-6.08,4.46-12.83,10.69-16.59,6.38-3.86,12.39-5.36,20.08-5.45h186.53c7.93,.04,16.74,3.42,21.65,8.19,5.03,4.89,7,9.5,7.12,15.39V92.59c-.06,6.08-3.25,11.3-10.04,15.06-6.96,3.86-15.14,5.61-23.51,5.7"/>
          <path d="M186.51,113.09c-7.68,6.43-15.36,12.86-23.03,19.29l1.71,.71c0-3.29,0-6.57,0-9.86v-24.05c-.02-9.98-.02-19.96-.03-29.94,0-9.17,0-18.35-.01-27.52,0-5.6,0-11.2,0-16.8,0-1.78,0-3.47,.48-5.23,2.13-7.92,9.36-13.18,16.79-15.72,5.21-1.78,10.57-1.96,15.99-1.96h150.65c6.72,0,13.44,0,20.16,0,3.68,0,7.35,0,11.03,0,9.54,0,19.47,3.5,25.28,11.41,2.63,3.59,3.7,7.68,3.7,12.08v7.35c0,9.12,0,18.24,0,27.36v26.21c0,1.97,0,3.94,0,5.9-.03,5.69-3.09,10.33-7.78,13.41-7.24,4.75-16.23,6.51-24.77,6.63-1.29,.02-1.29,2.02,0,2,13.2-.19,34.37-5.21,34.55-21.83,.06-5.43,0-10.86,0-16.29,0-9.96,0-19.91,0-29.87V25.7c0-4.01-.7-7.91-2.75-11.42-4.04-6.93-11.21-11.25-18.84-13.19C385.4,.02,381.29,0,377.02,0h-38.86c-9.56,0-19.13,0-28.69,0-10.22,0-20.45,0-30.67,0h-55.7c-6.32,0-12.64,0-18.96,0C201.17,0,198.2,0,195.22,0c-12.2,.03-26.18,5.09-30.95,17.33-1.63,4.17-1.15,8.91-1.15,13.3v23.11c.02,10.02,.02,20.04,.03,30.06s0,19.03,.01,28.55c0,6.06,0,12.12,0,18.18,0,.85,0,1.7,0,2.56,0,.92,1.07,1.24,1.71,.71,7.68-6.43,15.36-12.86,23.03-19.29,.99-.83-.43-2.24-1.41-1.41h0Z"/>
        </g>
      </g>
      <text class="cls-37" transform="translate(203.35 39)"><tspan x="0" y="0" xml:space="preserve">Hey there!  I&apos;ll wait </tspan><tspan x="0" y="24">here while you figure </tspan><tspan x="0" y="48">out the controls! </tspan></text>
    </g>
  </g>
</svg>