<?xml version="1.0" encoding="UTF-8"?>
<svg id="Layer_2" data-name="Layer 2" xmlns="http://www.w3.org/2000/svg" xmlns:xlink="http://www.w3.org/1999/xlink" viewBox="0 0 369.02 211.51">
  <defs>
    <style>
      .cls-1 {
        fill: url(#linear-gradient);
      }

      .cls-2 {
        fill: #e4d63e;
      }

      .cls-3 {
        fill: #fff;
      }

      .cls-4 {
        fill: #9787bc;
      }

      .cls-5 {
        fill: #9988bf;
      }

      .cls-6 {
        fill: #9988be;
      }

      .cls-7 {
        fill: #9989bf;
      }

      .cls-8 {
        fill: #9887bc;
      }

      .cls-9 {
        fill: #9887bd;
      }

      .cls-10 {
        fill: #9888bd;
      }

      .cls-11 {
        fill: #9786bb;
      }

      .cls-12 {
        fill: #8b7dae;
      }

      .cls-13 {
        fill: #8b7dad;
      }

      .cls-14 {
        fill: #9282b5;
      }

      .cls-15 {
        fill: #9283b6;
      }

      .cls-16 {
        fill: #8478a7;
      }

      .cls-17 {
        fill: #8478a6;
      }

      .cls-18 {
        fill: #8579a8;
      }

      .cls-19 {
        fill: #8578a8;
      }

      .cls-20 {
        fill: #877aaa;
      }

      .cls-21 {
        fill: #877aa9;
      }

      .cls-22 {
        fill: #8a7cad;
      }

      .cls-23 {
        fill: #9081b3;
      }

      .cls-24 {
        fill: #9383b6;
      }

      .cls-25 {
        fill: #9182b5;
      }

      .cls-26 {
        fill: #9383b7;
      }

      .cls-27 {
        fill: #9181b4;
      }

      .cls-28 {
        fill: #8c7daf;
      }

      .cls-29 {
        fill: #8e7fb1;
      }

      .cls-30 {
        fill: #8d7eb0;
      }

      .cls-31 {
        fill: #8f80b3;
      }

      .cls-32 {
        fill: #8f80b2;
      }

      .cls-33 {
        fill: #8d7fb0;
      }

      .cls-34 {
        fill: #8c7eaf;
      }

      .cls-35 {
        fill: #8578a7;
      }

      .cls-36, .cls-37, .cls-38 {
        fill: #231f20;
      }

      .cls-39 {
        fill: #413955;
      }

      .cls-40 {
        fill: #9484b8;
      }

      .cls-41 {
        fill: #9484b7;
      }

      .cls-42 {
        fill: #9584b8;
      }

      .cls-43 {
        fill: #9585b9;
      }

      .cls-44 {
        fill: #9685ba;
      }

      .cls-45 {
        fill: #9686ba;
      }

      .cls-46 {
        fill: #8679a9;
      }

      .cls-47 {
        fill: #8679a8;
      }

      .cls-48 {
        fill: #9a89c1;
      }

      .cls-49 {
        fill: #9a89c0;
      }

      .cls-50 {
        fill: #887aaa;
      }

      .cls-51 {
        fill: #897cac;
      }

      .cls-52 {
        fill: #897bab;
      }

      .cls-53 {
        fill: #887bab;
      }

      .cls-54 {
        fill: #867aa9;
      }

      .cls-55 {
        fill: #8377a6;
      }

      .cls-56 {
        fill: url(#linear-gradient-8);
      }

      .cls-57 {
        fill: url(#linear-gradient-9);
      }

      .cls-58 {
        fill: url(#linear-gradient-3);
      }

      .cls-59 {
        fill: url(#linear-gradient-4);
      }

      .cls-60 {
        fill: url(#linear-gradient-2);
      }

      .cls-61 {
        fill: url(#linear-gradient-6);
      }

      .cls-62 {
        fill: url(#linear-gradient-7);
      }

      .cls-63 {
        fill: url(#linear-gradient-5);
      }

      .cls-37 {
        font-family: Arial-ItalicMT, Arial;
        font-size: 25px;
        stroke: #231f20;
        stroke-miterlimit: 10;
        stroke-width: .5px;
      }

      .cls-64 {
        fill: url(#linear-gradient-14);
      }

      .cls-65 {
        fill: url(#linear-gradient-18);
      }

      .cls-66 {
        fill: url(#linear-gradient-22);
      }

      .cls-67 {
        fill: url(#linear-gradient-20);
      }

      .cls-68 {
        fill: url(#linear-gradient-21);
      }

      .cls-69 {
        fill: url(#linear-gradient-23);
      }

      .cls-70 {
        fill: url(#linear-gradient-15);
      }

      .cls-71 {
        fill: url(#linear-gradient-19);
      }

      .cls-72 {
        fill: url(#linear-gradient-16);
      }

      .cls-73 {
        fill: url(#linear-gradient-17);
      }

      .cls-74 {
        fill: url(#linear-gradient-13);
      }

      .cls-75 {
        fill: url(#linear-gradient-12);
      }

      .cls-76 {
        fill: url(#linear-gradient-10);
      }

      .cls-77 {
        fill: url(#linear-gradient-11);
      }

      .cls-78 {
        fill: url(#linear-gradient-27);
      }

      .cls-79 {
        fill: url(#linear-gradient-24);
      }

      .cls-80 {
        fill: url(#linear-gradient-26);
      }

      .cls-81 {
        fill: url(#linear-gradient-25);
      }

      .cls-82 {
        fill: url(#linear-gradient-28);
      }

      .cls-83 {
        fill: url(#linear-gradient-29);
      }

      .cls-84 {
        fill: url(#linear-gradient-30);
      }

      .cls-38 {
        opacity: .42;
      }
    </style>
    <linearGradient id="linear-gradient" x1="163.19" y1="81.79" x2="174.05" y2="81.79" gradientTransform="translate(-78.92 -46.99) rotate(12.63)" gradientUnits="userSpaceOnUse">
      <stop offset="0" stop-color="#e4d63e"/>
      <stop offset=".99" stop-color="#a99b3d"/>
    </linearGradient>
    <linearGradient id="linear-gradient-2" x1="76.89" y1="72.9" x2="84.51" y2="72.9" gradientTransform="translate(-11.01 14.46) rotate(-9.59)" xlink:href="#linear-gradient"/>
    <linearGradient id="linear-gradient-3" x1="89.33" y1="73.25" x2="100.01" y2="73.25" gradientTransform="translate(-20.38 40.22) rotate(-21.71)" xlink:href="#linear-gradient"/>
    <linearGradient id="linear-gradient-4" x1="101.9" y1="81.9" x2="108.4" y2="81.9" gradientTransform="matrix(1, 0, 0, 1, 0, 0)" xlink:href="#linear-gradient"/>
    <linearGradient id="linear-gradient-5" x1="112.75" y1="87.63" x2="122.61" y2="87.63" gradientTransform="translate(-28.16 103.68) rotate(-42.96)" xlink:href="#linear-gradient"/>
    <linearGradient id="linear-gradient-6" x1="122.47" y1="95.58" x2="134.41" y2="95.58" gradientTransform="translate(-28.3 128.21) rotate(-48.41)" xlink:href="#linear-gradient"/>
    <linearGradient id="linear-gradient-7" x1="128.14" y1="110" x2="134.8" y2="110" gradientTransform="matrix(1, 0, 0, 1, 0, 0)" xlink:href="#linear-gradient"/>
    <linearGradient id="linear-gradient-8" x1="134.82" y1="123.48" x2="142.5" y2="123.48" gradientTransform="translate(-9.47 235.42) rotate(-78.76)" xlink:href="#linear-gradient"/>
    <linearGradient id="linear-gradient-9" x1="134.66" y1="141.6" x2="138.56" y2="141.6" gradientTransform="translate(-1.15 282.09) rotate(-91.59)" xlink:href="#linear-gradient"/>
    <linearGradient id="linear-gradient-10" x1="135.32" y1="155.1" x2="143.12" y2="155.1" gradientTransform="translate(19.31 325.56) rotate(-102.96)" xlink:href="#linear-gradient"/>
    <linearGradient id="linear-gradient-11" x1="128.51" y1="167.96" x2="134.03" y2="167.96" gradientTransform="translate(28.83 354.91) rotate(-113.27)" xlink:href="#linear-gradient"/>
    <linearGradient id="linear-gradient-12" x1="120.91" y1="182.49" x2="130.5" y2="182.49" gradientTransform="translate(72.86 397.7) rotate(-131.64)" xlink:href="#linear-gradient"/>
    <linearGradient id="linear-gradient-13" x1="109.11" y1="192.24" x2="116.44" y2="192.24" gradientTransform="matrix(1, 0, 0, 1, 0, 0)" xlink:href="#linear-gradient"/>
    <linearGradient id="linear-gradient-14" x1="95.38" y1="201.96" x2="106.11" y2="201.96" gradientTransform="translate(127.6 426.04) rotate(-160.32)" xlink:href="#linear-gradient"/>
    <linearGradient id="linear-gradient-15" x1="78.36" y1="207.68" x2="89.25" y2="207.68" gradientTransform="translate(126.87 427.45) rotate(-169.11)" xlink:href="#linear-gradient"/>
    <linearGradient id="linear-gradient-16" x1="65.95" y1="204.79" x2="72.72" y2="204.79" gradientTransform="translate(134.2 411.03) rotate(-178.75)" xlink:href="#linear-gradient"/>
    <linearGradient id="linear-gradient-17" x1="45.5" y1="205.62" x2="56.17" y2="205.62" gradientTransform="translate(174.9 377.3) rotate(158.03)" xlink:href="#linear-gradient"/>
    <linearGradient id="linear-gradient-18" x1="33.6" y1="197.46" x2="41.63" y2="197.46" gradientTransform="translate(181.1 338.23) rotate(145.24)" xlink:href="#linear-gradient"/>
    <linearGradient id="linear-gradient-19" x1="18.13" y1="189.56" x2="27.97" y2="189.56" gradientTransform="translate(170.09 311.39) rotate(136.58)" xlink:href="#linear-gradient"/>
    <linearGradient id="linear-gradient-20" x1="13.98" y1="176.81" x2="20.05" y2="176.81" gradientTransform="matrix(1, 0, 0, 1, 0, 0)" xlink:href="#linear-gradient"/>
    <linearGradient id="linear-gradient-21" x1=".66" y1="167.78" x2="10.92" y2="167.78" gradientTransform="translate(161.46 230.62) rotate(113.96)" xlink:href="#linear-gradient"/>
    <linearGradient id="linear-gradient-22" x1=".59" y1="154.19" x2="8.09" y2="154.19" gradientTransform="translate(157.45 172.95) rotate(98.6)" xlink:href="#linear-gradient"/>
    <linearGradient id="linear-gradient-23" x1="2.63" y1="140.13" x2="7.81" y2="140.13" gradientTransform="matrix(1, 0, 0, 1, 0, 0)" xlink:href="#linear-gradient"/>
    <linearGradient id="linear-gradient-24" x1="0" y1="125.53" x2="7.7" y2="125.53" gradientTransform="translate(126.11 96.77) rotate(78.52)" xlink:href="#linear-gradient"/>
    <linearGradient id="linear-gradient-25" x1="7.02" y1="112.08" x2="13.29" y2="112.08" gradientTransform="matrix(1, 0, 0, 1, 0, 0)" xlink:href="#linear-gradient"/>
    <linearGradient id="linear-gradient-26" x1="9.88" y1="99.28" x2="19.06" y2="99.28" gradientTransform="translate(88.37 31.42) rotate(55.73)" xlink:href="#linear-gradient"/>
    <linearGradient id="linear-gradient-27" x1="18.69" y1="88.14" x2="28.69" y2="88.14" gradientTransform="translate(62.3 5.44) rotate(40.07)" xlink:href="#linear-gradient"/>
    <linearGradient id="linear-gradient-28" x1="31.29" y1="83.57" x2="38.14" y2="83.57" gradientTransform="translate(47.38 -6.03) rotate(30.61)" xlink:href="#linear-gradient"/>
    <linearGradient id="linear-gradient-29" x1="39.84" y1="74.33" x2="50.39" y2="74.33" gradientTransform="translate(37.06 -12.25) rotate(25.94)" xlink:href="#linear-gradient"/>
    <linearGradient id="linear-gradient-30" x1="52.75" y1="73.4" x2="60.34" y2="73.4" gradientTransform="translate(17.42 -10.59) rotate(12.63)" xlink:href="#linear-gradient"/>
  </defs>
  <g id="Layer_6" data-name="Layer 6">
    <g>
      <g>
        <polygon class="cls-2" points="66.65 72.81 66.85 81.52 69.33 81.28 69.23 72.56 66.65 72.81"/>
        <rect class="cls-1" x="62.26" y="66.24" width="10.96" height="6.89" rx="3.45" ry="3.45" transform="translate(-5.38 5.66) rotate(-4.61)"/>
        <polygon class="cls-2" points="79.19 74.98 77.65 82.93 79.97 83.21 81.59 75.26 79.19 74.98"/>
        <rect class="cls-60" x="76.87" y="70.49" width="7.66" height="4.82" rx="2.41" ry="2.41" transform="translate(13.27 -12.42) rotate(9.59)"/>
        <polygon class="cls-2" points="91.38 75.39 87.86 84.19 90.98 85.37 94.61 76.6 91.38 75.39"/>
        <rect class="cls-58" x="89.19" y="69.8" width="10.96" height="6.89" rx="3.45" ry="3.45" transform="translate(33.81 -29.82) rotate(21.71)"/>
        <polygon class="cls-2" points="103.76 82.08 99.64 89.16 101.57 89.94 105.77 82.89 103.76 82.08"/>
        <path class="cls-59" d="M105.23,84.31l-2.22-1.18c-1.03-.55-1.42-1.82-.85-2.82h0c.57-1,1.87-1.37,2.91-.82l2.22,1.18c1.03,.55,1.42,1.82,.85,2.82h0c-.57,1-1.87,1.37-2.91,.82Z"/>
        <polygon class="cls-2" points="114.57 88.53 109.58 94.9 112.15 97 117.24 90.7 114.57 88.53"/>
        <rect class="cls-63" x="112.2" y="84.19" width="10.96" height="6.89" rx="3.45" ry="3.45" transform="translate(91.26 -56.69) rotate(42.96)"/>
        <polygon class="cls-2" points="124.33 95.85 116.45 103.01 119.21 106.1 127.2 99.04 124.33 95.85"/>
        <rect class="cls-61" x="121.62" y="91.29" width="13.65" height="8.58" rx="4.29" ry="4.29" transform="translate(114.68 -63.93) rotate(48.41)"/>
        <polygon class="cls-2" points="129.07 109.65 124.41 112.7 125.63 114.94 130.34 111.97 129.07 109.65"/>
        <path class="cls-62" d="M130.02,112.71l-1.53-2.73c-.71-1.27-.3-2.92,.92-3.66h0c1.22-.74,2.8-.31,3.51,.96l1.53,2.73c.71,1.27,.3,2.92-.92,3.66h0c-1.22,.74-2.8,.31-3.51-.96Z"/>
        <polygon class="cls-2" points="135.76 121.99 128.57 123.67 129.18 126.93 136.39 125.37 135.76 121.99"/>
        <rect class="cls-56" x="133.18" y="120.03" width="10.96" height="6.89" rx="3.45" ry="3.45" transform="translate(232.75 -36.59) rotate(78.76)"/>
        <polygon class="cls-2" points="135.22 140.44 131.11 140.46 131.04 142.31 135.14 142.35 135.22 140.44"/>
        <rect class="cls-57" x="133.56" y="139.69" width="6.1" height="3.83" rx="1.92" ry="1.92" transform="translate(281.95 8.98) rotate(91.59)"/>
        <polygon class="cls-2" points="137.19 152.56 129.94 151.14 129.16 154.36 136.38 155.9 137.19 152.56"/>
        <rect class="cls-76" x="133.74" y="151.65" width="10.96" height="6.89" rx="3.45" ry="3.45" transform="translate(321.6 54.21) rotate(102.96)"/>
        <polygon class="cls-2" points="130.27 166.1 125.8 164.35 124.92 166.32 129.36 168.14 130.27 166.1"/>
        <rect class="cls-77" x="127.71" y="165.72" width="7.12" height="4.48" rx="2.24" ry="2.24" transform="translate(337.43 113.72) rotate(113.27)"/>
        <polygon class="cls-2" points="125.14 179.29 119.46 174.57 117.23 177.02 122.82 181.83 125.14 179.29"/>
        <rect class="cls-75" x="120.22" y="179.05" width="10.96" height="6.89" rx="3.45" ry="3.45" transform="translate(345.61 209.82) rotate(131.64)"/>
        <polygon class="cls-2" points="112.89 189.75 109.68 185.23 107.72 186.68 110.86 191.25 112.89 189.75"/>
        <path class="cls-74" d="M110.15,190.99l2.38-1.81c1.11-.84,2.66-.56,3.45,.63h0c.79,1.19,.52,2.85-.59,3.69l-2.38,1.81c-1.11,.84-2.66,.56-3.45-.63h0c-.79-1.19-.52-2.85,.59-3.69Z"/>
        <polygon class="cls-2" points="101.79 198.87 99.07 192.01 95.93 193.08 98.53 199.99 101.79 198.87"/>
        <rect class="cls-64" x="95.26" y="198.51" width="10.96" height="6.89" rx="3.45" ry="3.45" transform="translate(263.61 358.2) rotate(160.32)"/>
        <polygon class="cls-2" points="85.31 204.79 83.67 197.59 80.41 198.17 81.92 205.4 85.31 204.79"/>
        <rect class="cls-70" x="78.33" y="204.23" width="10.96" height="6.89" rx="3.45" ry="3.45" transform="translate(205.34 395.79) rotate(169.11)"/>
        <polygon class="cls-2" points="70.55 203.18 70.3 198.63 68.25 198.65 68.42 203.21 70.55 203.18"/>
        <rect class="cls-72" x="65.95" y="202.66" width="6.77" height="4.25" rx="2.13" ry="2.13" transform="translate(143.1 408.02) rotate(178.75)"/>
        <polygon class="cls-2" points="53.66 204.01 56.2 197.07 53.14 195.8 50.49 202.69 53.66 204.01"/>
        <rect class="cls-73" x="45.36" y="202.18" width="10.96" height="6.89" rx="3.45" ry="3.45" transform="translate(21.07 415.33) rotate(-158.03)"/>
        <polygon class="cls-2" points="40.06 196.72 43.21 191.85 41.09 190.33 37.86 195.15 40.06 196.72"/>
        <rect class="cls-65" x="33.31" y="194.75" width="8.61" height="5.41" rx="2.71" ry="2.71" transform="translate(-44.08 381.12) rotate(-145.24)"/>
        <polygon class="cls-2" points="26.27 189.09 31.17 183.56 28.79 181.25 23.8 186.7 26.27 189.09"/>
        <rect class="cls-71" x="17.57" y="186.11" width="10.96" height="6.89" rx="3.45" ry="3.45" transform="translate(-90.5 343.08) rotate(-136.58)"/>
        <polygon class="cls-2" points="19.17 177.01 23.17 173.92 21.99 171.9 17.93 174.92 19.17 177.01"/>
        <path class="cls-67" d="M18.18,174.2l1.49,2.47c.69,1.15,.4,2.71-.65,3.46h0c-1.05,.76-2.48,.44-3.17-.71l-1.49-2.47c-.69-1.15-.4-2.71,.65-3.46h0c1.05-.76,2.48-.44,3.17,.71Z"/>
        <polygon class="cls-2" points="9.71 168.71 20.29 164.05 18.59 160.42 7.94 164.96 9.71 168.71"/>
        <rect class="cls-68" x="-.8" y="163.64" width="13.17" height="8.28" rx="4.14" ry="4.14" transform="translate(-145.19 241.2) rotate(-113.96)"/>
        <polygon class="cls-2" points="7.26 155.8 16.19 154.41 15.65 151.13 6.7 152.4 7.26 155.8"/>
        <rect class="cls-66" x="-1.14" y="150.74" width="10.96" height="6.89" rx="3.45" ry="3.45" transform="translate(-147.46 181.53) rotate(-98.6)"/>
        <polygon class="cls-2" points="7.37 142.11 16.12 141.98 15.88 138.64 7.11 138.65 7.37 142.11"/>
        <path class="cls-69" d="M7.73,138.01l.08,4.07c.04,1.89-1.08,3.49-2.48,3.54h0c-1.4,.05-2.58-1.46-2.62-3.35l-.08-4.07c-.04-1.89,1.08-3.49,2.48-3.54h0c1.4-.05,2.58,1.46,2.62,3.35Z"/>
        <polygon class="cls-2" points="6.07 128.06 15.69 130.07 16.27 126.79 6.68 124.66 6.07 128.06"/>
        <rect class="cls-79" x="-1.63" y="122.09" width="10.96" height="6.89" rx="3.45" ry="3.45" transform="translate(-119.94 104.32) rotate(-78.52)"/>
        <polygon class="cls-2" points="11.39 114.36 18.33 117.6 19.24 115.22 12.32 111.89 11.39 114.36"/>
        <path class="cls-81" d="M13.08,111.72l-1.21,2.85c-.56,1.33-2.07,1.94-3.34,1.35h0c-1.28-.59-1.86-2.15-1.3-3.48l1.21-2.85c.56-1.33,2.07-1.94,3.34-1.35h0c1.28,.59,1.86,2.15,1.3,3.48Z"/>
        <polygon class="cls-2" points="15.5 102.43 22.78 107.3 24.63 104.54 17.41 99.57 15.5 102.43"/>
        <rect class="cls-80" x="8.99" y="95.83" width="10.96" height="6.89" rx="3.45" ry="3.45" transform="translate(-75.72 55.33) rotate(-55.73)"/>
        <polygon class="cls-2" points="23.82 91.44 29.37 97.86 31.9 95.71 26.45 89.21 23.82 91.44"/>
        <rect class="cls-78" x="18.21" y="84.69" width="10.96" height="6.89" rx="3.45" ry="3.45" transform="translate(-51.17 35.94) rotate(-40.07)"/>
        <polygon class="cls-2" points="34.83 85.93 37.76 90.75 39.64 89.63 36.78 84.76 34.83 85.93"/>
        <rect class="cls-82" x="31.1" y="81.3" width="7.22" height="4.54" rx="2.27" ry="2.27" transform="translate(-37.71 29.32) rotate(-30.61)"/>
        <polygon class="cls-2" points="44.85 77.95 48.47 85 51.46 83.56 47.95 76.46 44.85 77.95"/>
        <rect class="cls-83" x="39.64" y="70.88" width="10.96" height="6.89" rx="3.45" ry="3.45" transform="translate(-27.97 27.23) rotate(-25.94)"/>
        <polygon class="cls-2" points="55.92 75.8 57.33 81.98 59.6 81.44 58.27 75.25 55.92 75.8"/>
        <rect class="cls-84" x="52.71" y="70.99" width="7.66" height="4.82" rx="2.41" ry="2.41" transform="translate(-14.68 14.14) rotate(-12.63)"/>
        <g>
          <ellipse class="cls-55" cx="72.33" cy="140.82" rx="59.25" ry="60.22"/>
          <ellipse class="cls-17" cx="72.28" cy="140.76" rx="59.19" ry="60.16"/>
          <ellipse class="cls-16" cx="72.22" cy="140.69" rx="59.14" ry="60.1"/>
          <ellipse class="cls-35" cx="72.17" cy="140.63" rx="59.08" ry="60.04"/>
          <ellipse class="cls-19" cx="72.12" cy="140.57" rx="59.02" ry="59.98"/>
          <ellipse class="cls-18" cx="72.07" cy="140.51" rx="58.96" ry="59.92"/>
          <ellipse class="cls-47" cx="72.02" cy="140.44" rx="58.91" ry="59.87"/>
          <ellipse class="cls-46" cx="71.97" cy="140.38" rx="58.85" ry="59.81"/>
          <ellipse class="cls-54" cx="71.92" cy="140.32" rx="58.79" ry="59.75"/>
          <ellipse class="cls-21" cx="71.86" cy="140.26" rx="58.73" ry="59.69"/>
          <ellipse class="cls-20" cx="71.81" cy="140.2" rx="58.67" ry="59.63"/>
          <ellipse class="cls-50" cx="71.76" cy="140.13" rx="58.62" ry="59.57"/>
          <ellipse class="cls-53" cx="71.71" cy="140.07" rx="58.56" ry="59.51"/>
          <ellipse class="cls-53" cx="71.66" cy="140.01" rx="58.5" ry="59.45"/>
          <ellipse class="cls-52" cx="71.61" cy="139.95" rx="58.44" ry="59.4"/>
          <ellipse class="cls-51" cx="71.56" cy="139.88" rx="58.39" ry="59.34"/>
          <ellipse class="cls-51" cx="71.5" cy="139.82" rx="58.33" ry="59.28"/>
          <ellipse class="cls-22" cx="71.45" cy="139.76" rx="58.27" ry="59.22"/>
          <ellipse class="cls-22" cx="71.4" cy="139.7" rx="58.21" ry="59.16"/>
          <ellipse class="cls-13" cx="71.35" cy="139.63" rx="58.15" ry="59.1"/>
          <ellipse class="cls-12" cx="71.3" cy="139.57" rx="58.1" ry="59.04"/>
          <ellipse class="cls-12" cx="71.25" cy="139.51" rx="58.04" ry="58.99"/>
          <ellipse class="cls-28" cx="71.2" cy="139.45" rx="57.98" ry="58.93"/>
          <ellipse class="cls-34" cx="71.14" cy="139.38" rx="57.92" ry="58.87"/>
          <ellipse class="cls-34" cx="71.09" cy="139.32" rx="57.87" ry="58.81"/>
          <ellipse class="cls-30" cx="71.04" cy="139.26" rx="57.81" ry="58.75"/>
          <ellipse class="cls-33" cx="70.99" cy="139.2" rx="57.75" ry="58.69"/>
          <ellipse class="cls-29" cx="70.94" cy="139.13" rx="57.69" ry="58.63"/>
          <ellipse class="cls-29" cx="70.89" cy="139.07" rx="57.64" ry="58.57"/>
          <ellipse class="cls-29" cx="70.84" cy="139.01" rx="57.58" ry="58.52"/>
          <ellipse class="cls-32" cx="70.78" cy="138.95" rx="57.52" ry="58.46"/>
          <ellipse class="cls-32" cx="70.73" cy="138.88" rx="57.46" ry="58.4"/>
          <ellipse class="cls-31" cx="70.68" cy="138.82" rx="57.4" ry="58.34"/>
          <ellipse class="cls-23" cx="70.63" cy="138.76" rx="57.35" ry="58.28"/>
          <ellipse class="cls-23" cx="70.58" cy="138.7" rx="57.29" ry="58.22"/>
          <ellipse class="cls-27" cx="70.53" cy="138.63" rx="57.23" ry="58.16"/>
          <ellipse class="cls-27" cx="70.48" cy="138.57" rx="57.17" ry="58.11"/>
          <ellipse class="cls-25" cx="70.42" cy="138.51" rx="57.12" ry="58.05"/>
          <ellipse class="cls-14" cx="70.37" cy="138.45" rx="57.06" ry="57.99"/>
          <ellipse class="cls-14" cx="70.32" cy="138.38" rx="57" ry="57.93"/>
          <ellipse class="cls-15" cx="70.27" cy="138.32" rx="56.94" ry="57.87"/>
          <ellipse class="cls-24" cx="70.22" cy="138.26" rx="56.89" ry="57.81"/>
          <ellipse class="cls-26" cx="70.17" cy="138.2" rx="56.83" ry="57.75"/>
          <ellipse class="cls-41" cx="70.11" cy="138.13" rx="56.77" ry="57.7"/>
          <ellipse class="cls-40" cx="70.06" cy="138.07" rx="56.71" ry="57.64"/>
          <ellipse class="cls-40" cx="70.01" cy="138.01" rx="56.65" ry="57.58"/>
          <ellipse class="cls-42" cx="69.96" cy="137.95" rx="56.6" ry="57.52"/>
          <ellipse class="cls-43" cx="69.91" cy="137.88" rx="56.54" ry="57.46"/>
          <ellipse class="cls-43" cx="69.86" cy="137.82" rx="56.48" ry="57.4"/>
          <ellipse class="cls-44" cx="69.81" cy="137.76" rx="56.42" ry="57.34"/>
          <ellipse class="cls-45" cx="69.75" cy="137.7" rx="56.37" ry="57.28"/>
          <ellipse class="cls-11" cx="69.7" cy="137.63" rx="56.31" ry="57.23"/>
          <ellipse class="cls-11" cx="69.65" cy="137.57" rx="56.25" ry="57.17"/>
          <ellipse class="cls-4" cx="69.6" cy="137.51" rx="56.19" ry="57.11"/>
          <ellipse class="cls-8" cx="69.55" cy="137.45" rx="56.13" ry="57.05"/>
          <ellipse class="cls-9" cx="69.5" cy="137.39" rx="56.08" ry="56.99"/>
          <ellipse class="cls-10" cx="69.45" cy="137.32" rx="56.02" ry="56.93"/>
          <ellipse class="cls-6" cx="69.39" cy="137.26" rx="55.96" ry="56.87"/>
          <ellipse class="cls-5" cx="69.34" cy="137.2" rx="55.9" ry="56.82"/>
          <ellipse class="cls-7" cx="69.29" cy="137.14" rx="55.85" ry="56.76"/>
          <ellipse class="cls-49" cx="69.24" cy="137.07" rx="55.79" ry="56.7"/>
          <ellipse class="cls-48" cx="69.19" cy="137.01" rx="55.73" ry="56.64"/>
        </g>
        <g>
          <path d="M31.4,116.63s36.44,28.23,32.28,12.72"/>
          <path class="cls-36" d="M31.25,116.78c1.22,.94,2.45,1.86,3.69,2.76,2.84,2.08,5.73,4.11,8.67,6.05,3.25,2.15,6.57,4.22,10.05,5.98,1.44,.73,2.92,1.42,4.46,1.94,1.1,.38,2.29,.72,3.47,.69,.82-.02,1.66-.26,2.16-.95,.59-.83,.52-1.96,.36-2.91-.06-.35-.14-.7-.23-1.05-.07-.26-.47-.15-.4,.11,.27,1.01,.55,2.26,.12,3.27-.31,.72-1.01,1.04-1.75,1.1-1.1,.09-2.22-.21-3.25-.54-1.48-.47-2.9-1.12-4.28-1.8-3.38-1.68-6.6-3.67-9.76-5.73-2.94-1.92-5.83-3.93-8.67-6-1.44-1.05-2.85-2.16-4.3-3.2-.06-.05-.03-.02-.03-.02-.21-.16-.51,.13-.3,.3h0Z"/>
        </g>
        <g>
          <path d="M111.2,115.97s-36.44,28.23-32.28,12.72"/>
          <path class="cls-36" d="M111.05,115.82s.04-.03-.03,.02-.13,.1-.19,.15c-.24,.18-.48,.36-.72,.55-.85,.64-1.71,1.28-2.57,1.91-2.73,2-5.5,3.95-8.32,5.83-3.18,2.11-6.42,4.15-9.8,5.92-1.44,.75-2.91,1.46-4.43,2.04-1.14,.43-2.34,.82-3.56,.89-.76,.04-1.64-.04-2.16-.66-.6-.71-.53-1.81-.38-2.67,.06-.35,.14-.7,.23-1.05,.07-.26-.33-.37-.4-.11-.47,1.77-.72,4.42,1.62,4.85,1.05,.19,2.17-.04,3.19-.33,1.47-.41,2.88-1.02,4.26-1.68,3.47-1.65,6.76-3.67,9.98-5.75,3.07-1.99,6.08-4.08,9.03-6.23,1.01-.73,2.02-1.48,3.02-2.23,.47-.36,1-.69,1.44-1.09,.03-.03,.07-.05,.1-.08,.21-.16-.09-.46-.3-.3h0Z"/>
        </g>
        <path class="cls-38" d="M64.73,126.69c.52,.49,1.08,1,1.34,1.69,.22,.59,.17,1.32-.31,1.77-.1,.09,.05,.24,.15,.15,.51-.47,.6-1.23,.4-1.87-.24-.77-.85-1.34-1.42-1.88-.1-.09-.25,.06-.15,.15h0Z"/>
        <path class="cls-38" d="M77.21,126.4c-.57,.53-1.18,1.11-1.42,1.88-.2,.64-.11,1.41,.4,1.87,.1,.09,.25-.06,.15-.15-.49-.44-.53-1.18-.31-1.77,.25-.68,.82-1.2,1.34-1.69,.1-.09-.05-.24-.15-.15h0Z"/>
        <path class="cls-36" d="M93.79,147.87c-7.39,3.19-15.51,4.49-23.55,5.01-7.24,.47-14.55,0-21.66-1.44-.57-.11-1.04,.44-.83,.98,1.49,3.89,6.83,12.4,11.77,14.73,5.42,2.55,10.19,2.24,15.51,1.78,5.62-.49,10.4-4.19,12-5.37,10.03-7.42,12.95-18.35,6.77-15.68Z"/>
        <path class="cls-3" d="M56.27,152.68s1.68,6.19,2.96,7.55l1.29,1.36s-.74-8.5,.6-8.66c0,0-2.21-.11-2.29-.11s-1.81-.16-1.81-.16l-.76-.09,.02,.1Z"/>
        <path class="cls-3" d="M85.73,150.61s-.84,7.08-2.03,8.79l-1.19,1.7s-.57-9.47-2.06-9.42c0,0,2.41-.48,2.5-.5s1.95-.38,1.95-.38l.84-.19h0Z"/>
      </g>
      <path class="cls-39" d="M42.14,136.51c2.6-1.6,5.62-2.47,8.68-2.06s5.73,2.06,7.83,4.26c.43,.46,1.81-.12,1.33-.63-2.38-2.5-5.43-4.28-8.9-4.68s-6.93,.66-9.89,2.48c-.28,.17-.34,.51-.09,.72,.28,.24,.77,.07,1.04-.1h0Z"/>
      <path class="cls-39" d="M99.56,135.26c-6.14-2.86-13.3-1.87-18.44,2.55-.74,.64,.42,1.08,.95,.62,4.72-4.06,11.01-4.85,16.64-2.23,.58,.27,1.67-.56,.84-.95h0Z"/>
    </g>
    <g>
      <g>
        <path d="M187.32,2h143.62c1.29,0,1.29-2,0-2H187.32c-1.29,0-1.29,2,0,2h0Z"/>
        <path d="M351.68,24.58V93.79c0,1.29,2,1.29,2,0V24.58c0-1.29-2-1.29-2,0h0Z"/>
        <g>
          <path class="cls-3" d="M326.97,113.35c-49.19,0-98.38,0-147.58,0"/>
          <path d="M326.97,112.35c-19.19,0-38.39,0-57.58,0s-38.39,0-57.58,0h-32.41c-1.29,0-1.29,2,0,2,19.19,0,38.39,0,57.58,0s38.39,0,57.58,0c10.8,0,21.6,0,32.41,0,1.29,0,1.29-2,0-2h0Z"/>
        </g>
        <g>
          <path class="cls-3" d="M164.11,92.26c0-23.07,0-46.14,0-69.21"/>
          <path d="M165.11,92.26c0-17.92,0-35.85,0-53.77v-15.43c0-1.29-2-1.29-2,0,0,17.92,0,35.85,0,53.77v15.43c0,1.29,2,1.29,2,0h0Z"/>
        </g>
        <g>
          <path class="cls-3" d="M164.07,92.13c0,13.5,0,27,0,40.5"/>
          <path d="M163.07,92.13c0,13.5,0,27,0,40.5,0,1.29,2,1.29,2,0,0-13.5,0-27,0-40.5,0-1.29-2-1.29-2,0h0Z"/>
        </g>
        <g>
          <path class="cls-3" d="M181.8,113.79l-17.65,19.29-.04-110.04c.04-6.08,3.42-12.83,8.19-16.59,4.89-3.86,9.5-5.36,15.39-5.45h142.95c6.08,.04,12.83,3.42,16.59,8.19,3.86,4.89,5.36,9.5,5.45,15.39V92.59c-.05,6.08-2.49,11.3-7.69,15.06-5.33,3.86-11.6,5.61-18.02,5.7"/>
          <path d="M181.1,113.09l-17.65,19.29,1.71,.71v-7.72c0-6.47,0-12.94-.01-19.42,0-8.5,0-17.01,0-25.51s0-17.26-.01-25.9v-20.94c0-3.42-.03-6.84-.01-10.27,.02-4.53,1.71-8.98,4.42-12.59,4.25-5.67,11.18-8.67,18.16-8.74,2.06-.02,4.11,0,6.17,0h16.07c7.6,0,15.21,0,22.81,0h91.56c2.11,0,4.22-.03,6.33,0,6.75,.08,13.21,3.89,16.99,9.39,2.79,4.06,4.05,8.64,4.07,13.55s0,9.8,0,14.7v47.57c0,1.67,0,3.33,0,5-.01,4.54-1.4,8.89-4.55,12.24-5.1,5.41-12.91,7.75-20.16,7.89-1.29,.03-1.29,2.03,0,2,7.42-.15,15.12-2.45,20.65-7.57,4.01-3.71,6.02-8.86,6.06-14.28,.04-4.51,0-9.02,0-13.53V30.53c0-1.83,0-3.65,0-5.48,0-4.49-.93-8.88-3.17-12.81C346.17,4.64,338.3,0,329.55,0h-10.85c-6.6,0-13.2,0-19.8,0-8.36,0-16.72,0-25.08,0h-84.53c-.67,0-1.34,0-2.01,0-6.87,.18-13.65,2.95-18.24,8.18-3.57,4.08-5.88,9.48-5.93,14.94,0,.97,0,1.93,0,2.9v15.78c0,8.12,.01,16.24,.02,24.35v26.84c.01,7.86,.02,15.72,.02,23.58v14.52c0,.66,0,1.31,0,1.97,0,.84,1.11,1.36,1.71,.71,5.88-6.43,11.77-12.86,17.65-19.29,.87-.95-.54-2.37-1.41-1.41h0Z"/>
        </g>
      </g>
      <text class="cls-37" transform="translate(204.16 69.09)"><tspan x="0" y="0">BYE BYE!</tspan></text>
    </g>
  </g>
</svg>