<?xml version="1.0" encoding="UTF-8"?>
<svg id="Layer_2" data-name="Layer 2" xmlns="http://www.w3.org/2000/svg" xmlns:xlink="http://www.w3.org/1999/xlink" viewBox="0 0 305.37 188.28">
  <defs>
    <style>
      .cls-1 {
        fill: url(#linear-gradient);
      }

      .cls-2 {
        fill: #e4d63e;
      }

      .cls-3 {
        fill: #fff;
      }

      .cls-4 {
        fill: #9787bc;
      }

      .cls-5 {
        fill: #9988bf;
      }

      .cls-6 {
        fill: #9988be;
      }

      .cls-7 {
        fill: #9989bf;
      }

      .cls-8 {
        fill: #9887bc;
      }

      .cls-9 {
        fill: #9887bd;
      }

      .cls-10 {
        fill: #9888bd;
      }

      .cls-11 {
        fill: #9786bb;
      }

      .cls-12 {
        fill: #8b7dae;
      }

      .cls-13 {
        fill: #8b7dad;
      }

      .cls-14 {
        fill: #9282b5;
      }

      .cls-15 {
        fill: #9283b6;
      }

      .cls-16 {
        fill: #8478a7;
      }

      .cls-17 {
        fill: #8478a6;
      }

      .cls-18 {
        fill: #8579a8;
      }

      .cls-19 {
        fill: #8578a8;
      }

      .cls-20 {
        fill: #877aaa;
      }

      .cls-21 {
        fill: #877aa9;
      }

      .cls-22 {
        fill: #8a7cad;
      }

      .cls-23 {
        fill: #9081b3;
      }

      .cls-24 {
        fill: #9383b6;
      }

      .cls-25 {
        fill: #9182b5;
      }

      .cls-26 {
        fill: #9383b7;
      }

      .cls-27 {
        fill: #9181b4;
      }

      .cls-28 {
        fill: #8c7daf;
      }

      .cls-29 {
        fill: #8e7fb1;
      }

      .cls-30 {
        fill: #8d7eb0;
      }

      .cls-31 {
        fill: #8f80b3;
      }

      .cls-32 {
        fill: #8f80b2;
      }

      .cls-33 {
        fill: #8d7fb0;
      }

      .cls-34 {
        fill: #8c7eaf;
      }

      .cls-35 {
        fill: #8578a7;
      }

      .cls-36, .cls-37, .cls-38 {
        fill: #231f20;
      }

      .cls-39 {
        fill: #413955;
      }

      .cls-40 {
        fill: #9484b8;
      }

      .cls-41 {
        fill: #9484b7;
      }

      .cls-42 {
        fill: #9584b8;
      }

      .cls-43 {
        fill: #9585b9;
      }

      .cls-44 {
        fill: #9685ba;
      }

      .cls-45 {
        fill: #9686ba;
      }

      .cls-46 {
        fill: #8679a9;
      }

      .cls-47 {
        fill: #8679a8;
      }

      .cls-48 {
        fill: #9a89c1;
      }

      .cls-49 {
        fill: #9a89c0;
      }

      .cls-50 {
        fill: #887aaa;
      }

      .cls-51 {
        fill: #897cac;
      }

      .cls-52 {
        fill: #897bab;
      }

      .cls-53 {
        fill: #887bab;
      }

      .cls-54 {
        fill: #867aa9;
      }

      .cls-55 {
        fill: #8377a6;
      }

      .cls-56 {
        fill: url(#linear-gradient-8);
      }

      .cls-57 {
        fill: url(#linear-gradient-9);
      }

      .cls-58 {
        fill: url(#linear-gradient-3);
      }

      .cls-59 {
        fill: url(#linear-gradient-4);
      }

      .cls-60 {
        fill: url(#linear-gradient-2);
      }

      .cls-61 {
        fill: url(#linear-gradient-6);
      }

      .cls-62 {
        fill: url(#linear-gradient-7);
      }

      .cls-63 {
        fill: url(#linear-gradient-5);
      }

      .cls-37 {
        font-family: Arial-ItalicMT, Arial;
        font-size: 12px;
        stroke: #231f20;
        stroke-miterlimit: 10;
        stroke-width: .5px;
      }

      .cls-64 {
        fill: url(#linear-gradient-14);
      }

      .cls-65 {
        fill: url(#linear-gradient-18);
      }

      .cls-66 {
        fill: url(#linear-gradient-22);
      }

      .cls-67 {
        fill: url(#linear-gradient-20);
      }

      .cls-68 {
        fill: url(#linear-gradient-21);
      }

      .cls-69 {
        fill: url(#linear-gradient-23);
      }

      .cls-70 {
        fill: url(#linear-gradient-15);
      }

      .cls-71 {
        fill: url(#linear-gradient-19);
      }

      .cls-72 {
        fill: url(#linear-gradient-16);
      }

      .cls-73 {
        fill: url(#linear-gradient-17);
      }

      .cls-74 {
        fill: url(#linear-gradient-13);
      }

      .cls-75 {
        fill: url(#linear-gradient-12);
      }

      .cls-76 {
        fill: url(#linear-gradient-10);
      }

      .cls-77 {
        fill: url(#linear-gradient-11);
      }

      .cls-78 {
        fill: url(#linear-gradient-27);
      }

      .cls-79 {
        fill: url(#linear-gradient-24);
      }

      .cls-80 {
        fill: url(#linear-gradient-26);
      }

      .cls-81 {
        fill: url(#linear-gradient-25);
      }

      .cls-82 {
        fill: url(#linear-gradient-28);
      }

      .cls-83 {
        fill: url(#linear-gradient-29);
      }

      .cls-84 {
        fill: url(#linear-gradient-30);
      }

      .cls-38 {
        opacity: .42;
      }
    </style>
    <linearGradient id="linear-gradient" x1="163.19" y1="58.55" x2="174.05" y2="58.55" gradientTransform="translate(-84 -47.55) rotate(12.63)" gradientUnits="userSpaceOnUse">
      <stop offset="0" stop-color="#e4d63e"/>
      <stop offset=".99" stop-color="#a99b3d"/>
    </linearGradient>
    <linearGradient id="linear-gradient-2" x1="76.89" y1="49.67" x2="84.51" y2="49.67" gradientTransform="translate(-7.14 14.13) rotate(-9.59)" xlink:href="#linear-gradient"/>
    <linearGradient id="linear-gradient-3" x1="89.33" y1="50.01" x2="100.01" y2="50.01" gradientTransform="translate(-11.79 38.57) rotate(-21.71)" xlink:href="#linear-gradient"/>
    <linearGradient id="linear-gradient-4" x1="101.9" y1="58.67" x2="108.4" y2="58.67" gradientTransform="matrix(1, 0, 0, 1, 0, 0)" xlink:href="#linear-gradient"/>
    <linearGradient id="linear-gradient-5" x1="112.75" y1="64.4" x2="122.61" y2="64.4" gradientTransform="translate(-12.33 97.45) rotate(-42.96)" xlink:href="#linear-gradient"/>
    <linearGradient id="linear-gradient-6" x1="122.47" y1="72.35" x2="134.41" y2="72.35" gradientTransform="translate(-10.92 120.4) rotate(-48.41)" xlink:href="#linear-gradient"/>
    <linearGradient id="linear-gradient-7" x1="128.14" y1="86.77" x2="134.8" y2="86.77" gradientTransform="matrix(1, 0, 0, 1, 0, 0)" xlink:href="#linear-gradient"/>
    <linearGradient id="linear-gradient-8" x1="134.82" y1="100.24" x2="142.5" y2="100.24" gradientTransform="translate(13.32 216.71) rotate(-78.76)" xlink:href="#linear-gradient"/>
    <linearGradient id="linear-gradient-9" x1="134.66" y1="118.37" x2="138.56" y2="118.37" gradientTransform="translate(22.07 258.21) rotate(-91.59)" xlink:href="#linear-gradient"/>
    <linearGradient id="linear-gradient-10" x1="135.32" y1="131.86" x2="143.12" y2="131.86" gradientTransform="translate(41.95 297.12) rotate(-102.96)" xlink:href="#linear-gradient"/>
    <linearGradient id="linear-gradient-11" x1="128.51" y1="144.73" x2="134.03" y2="144.73" gradientTransform="translate(50.17 322.5) rotate(-113.27)" xlink:href="#linear-gradient"/>
    <linearGradient id="linear-gradient-12" x1="120.91" y1="159.26" x2="130.5" y2="159.26" gradientTransform="translate(90.22 359.03) rotate(-131.64)" xlink:href="#linear-gradient"/>
    <linearGradient id="linear-gradient-13" x1="109.11" y1="169.01" x2="116.44" y2="169.01" gradientTransform="matrix(1, 0, 0, 1, 0, 0)" xlink:href="#linear-gradient"/>
    <linearGradient id="linear-gradient-14" x1="95.38" y1="178.73" x2="106.11" y2="178.73" gradientTransform="translate(135.42 380.94) rotate(-160.32)" xlink:href="#linear-gradient"/>
    <linearGradient id="linear-gradient-15" x1="78.36" y1="184.45" x2="89.25" y2="184.45" gradientTransform="translate(131.26 381.4) rotate(-169.11)" xlink:href="#linear-gradient"/>
    <linearGradient id="linear-gradient-16" x1="65.95" y1="181.56" x2="72.72" y2="181.56" gradientTransform="translate(134.71 364.58) rotate(-178.75)" xlink:href="#linear-gradient"/>
    <linearGradient id="linear-gradient-17" x1="45.5" y1="182.39" x2="56.17" y2="182.39" gradientTransform="translate(166.21 332.53) rotate(158.03)" xlink:href="#linear-gradient"/>
    <linearGradient id="linear-gradient-18" x1="33.6" y1="174.23" x2="41.63" y2="174.23" gradientTransform="translate(167.86 295.91) rotate(145.24)" xlink:href="#linear-gradient"/>
    <linearGradient id="linear-gradient-19" x1="18.13" y1="166.32" x2="27.97" y2="166.32" gradientTransform="translate(154.12 271.29) rotate(136.58)" xlink:href="#linear-gradient"/>
    <linearGradient id="linear-gradient-20" x1="13.98" y1="153.58" x2="20.05" y2="153.58" gradientTransform="matrix(1, 0, 0, 1, 0, 0)" xlink:href="#linear-gradient"/>
    <linearGradient id="linear-gradient-21" x1=".66" y1="144.55" x2="10.92" y2="144.55" gradientTransform="translate(140.23 197.96) rotate(113.96)" xlink:href="#linear-gradient"/>
    <linearGradient id="linear-gradient-22" x1=".59" y1="130.96" x2="8.09" y2="130.96" gradientTransform="translate(134.48 146.24) rotate(98.6)" xlink:href="#linear-gradient"/>
    <linearGradient id="linear-gradient-23" x1="2.63" y1="116.9" x2="7.81" y2="116.9" gradientTransform="matrix(1, 0, 0, 1, 0, 0)" xlink:href="#linear-gradient"/>
    <linearGradient id="linear-gradient-24" x1="0" y1="102.3" x2="7.7" y2="102.3" gradientTransform="translate(103.34 78.16) rotate(78.52)" xlink:href="#linear-gradient"/>
    <linearGradient id="linear-gradient-25" x1="7.02" y1="88.85" x2="13.29" y2="88.85" gradientTransform="matrix(1, 0, 0, 1, 0, 0)" xlink:href="#linear-gradient"/>
    <linearGradient id="linear-gradient-26" x1="9.88" y1="76.05" x2="19.06" y2="76.05" gradientTransform="translate(69.17 21.27) rotate(55.73)" xlink:href="#linear-gradient"/>
    <linearGradient id="linear-gradient-27" x1="18.69" y1="64.9" x2="28.69" y2="64.9" gradientTransform="translate(47.34 -.01) rotate(40.07)" xlink:href="#linear-gradient"/>
    <linearGradient id="linear-gradient-28" x1="31.29" y1="60.34" x2="38.14" y2="60.34" gradientTransform="translate(35.56 -9.27) rotate(30.61)" xlink:href="#linear-gradient"/>
    <linearGradient id="linear-gradient-29" x1="39.84" y1="51.09" x2="50.39" y2="51.09" gradientTransform="translate(26.9 -14.59) rotate(25.94)" xlink:href="#linear-gradient"/>
    <linearGradient id="linear-gradient-30" x1="52.75" y1="50.17" x2="60.34" y2="50.17" gradientTransform="translate(12.34 -11.15) rotate(12.63)" xlink:href="#linear-gradient"/>
  </defs>
  <g id="Layer_3" data-name="Layer 3">
    <g>
      <polygon class="cls-2" points="66.65 49.58 66.85 58.29 69.33 58.04 69.23 49.32 66.65 49.58"/>
      <rect class="cls-1" x="62.26" y="43.01" width="10.96" height="6.89" rx="3.45" ry="3.45" transform="translate(-3.51 5.59) rotate(-4.61)"/>
      <polygon class="cls-2" points="79.19 51.74 77.65 59.7 79.97 59.98 81.59 52.03 79.19 51.74"/>
      <rect class="cls-60" x="76.87" y="47.26" width="7.66" height="4.82" rx="2.41" ry="2.41" transform="translate(9.4 -12.75) rotate(9.59)"/>
      <polygon class="cls-2" points="91.38 52.15 87.86 60.96 90.98 62.13 94.61 53.37 91.38 52.15"/>
      <rect class="cls-58" x="89.19" y="46.57" width="10.96" height="6.89" rx="3.45" ry="3.45" transform="translate(25.22 -31.47) rotate(21.71)"/>
      <polygon class="cls-2" points="103.76 58.85 99.64 65.92 101.57 66.71 105.77 59.66 103.76 58.85"/>
      <path class="cls-59" d="M105.23,61.08l-2.22-1.18c-1.03-.55-1.42-1.82-.85-2.82h0c.57-1,1.87-1.37,2.91-.82l2.22,1.18c1.03,.55,1.42,1.82,.85,2.82h0c-.57,1-1.87,1.37-2.91,.82Z"/>
      <polygon class="cls-2" points="114.57 65.29 109.58 71.67 112.15 73.77 117.24 67.47 114.57 65.29"/>
      <rect class="cls-63" x="112.2" y="60.95" width="10.96" height="6.89" rx="3.45" ry="3.45" transform="translate(75.43 -62.92) rotate(42.96)"/>
      <polygon class="cls-2" points="124.33 72.62 116.45 79.78 119.21 82.86 127.2 75.81 124.33 72.62"/>
      <rect class="cls-61" x="121.62" y="68.05" width="13.65" height="8.58" rx="4.29" ry="4.29" transform="translate(97.3 -71.74) rotate(48.41)"/>
      <polygon class="cls-2" points="129.07 86.42 124.41 89.47 125.63 91.71 130.34 88.73 129.07 86.42"/>
      <path class="cls-62" d="M130.02,89.48l-1.53-2.73c-.71-1.27-.3-2.92,.92-3.66h0c1.22-.74,2.8-.31,3.51,.96l1.53,2.73c.71,1.27,.3,2.92-.92,3.66h0c-1.22,.74-2.8,.31-3.51-.96Z"/>
      <polygon class="cls-2" points="135.76 98.76 128.57 100.44 129.18 103.7 136.39 102.14 135.76 98.76"/>
      <rect class="cls-56" x="133.18" y="96.8" width="10.96" height="6.89" rx="3.45" ry="3.45" transform="translate(209.96 -55.29) rotate(78.76)"/>
      <polygon class="cls-2" points="135.22 117.21 131.11 117.23 131.04 119.07 135.14 119.12 135.22 117.21"/>
      <rect class="cls-57" x="133.56" y="116.45" width="6.1" height="3.83" rx="1.92" ry="1.92" transform="translate(258.72 -14.9) rotate(91.59)"/>
      <polygon class="cls-2" points="137.19 129.32 129.94 127.91 129.16 131.13 136.38 132.66 137.19 129.32"/>
      <rect class="cls-76" x="133.74" y="128.42" width="10.96" height="6.89" rx="3.45" ry="3.45" transform="translate(298.96 25.77) rotate(102.96)"/>
      <polygon class="cls-2" points="130.27 142.87 125.8 141.12 124.92 143.09 129.36 144.91 130.27 142.87"/>
      <rect class="cls-77" x="127.71" y="142.49" width="7.12" height="4.48" rx="2.24" ry="2.24" transform="translate(316.09 81.31) rotate(113.27)"/>
      <polygon class="cls-2" points="125.14 156.06 119.46 151.34 117.23 153.79 122.82 158.6 125.14 156.06"/>
      <rect class="cls-75" x="120.22" y="155.82" width="10.96" height="6.89" rx="3.45" ry="3.45" transform="translate(328.25 171.15) rotate(131.64)"/>
      <polygon class="cls-2" points="112.89 166.51 109.68 162 107.72 163.45 110.86 168.02 112.89 166.51"/>
      <path class="cls-74" d="M110.15,167.76l2.38-1.81c1.11-.84,2.66-.56,3.45,.63h0c.79,1.19,.52,2.85-.59,3.69l-2.38,1.81c-1.11,.84-2.66,.56-3.45-.63h0c-.79-1.19-.52-2.85,.59-3.69Z"/>
      <polygon class="cls-2" points="101.79 175.64 99.07 168.78 95.93 169.85 98.53 176.76 101.79 175.64"/>
      <rect class="cls-64" x="95.26" y="175.28" width="10.96" height="6.89" rx="3.45" ry="3.45" transform="translate(255.79 313.09) rotate(160.32)"/>
      <polygon class="cls-2" points="85.31 181.56 83.67 174.36 80.41 174.94 81.92 182.17 85.31 181.56"/>
      <rect class="cls-70" x="78.33" y="181" width="10.96" height="6.89" rx="3.45" ry="3.45" transform="translate(200.95 349.74) rotate(169.11)"/>
      <polygon class="cls-2" points="70.55 179.95 70.3 175.4 68.25 175.42 68.42 179.97 70.55 179.95"/>
      <rect class="cls-72" x="65.95" y="179.43" width="6.77" height="4.25" rx="2.13" ry="2.13" transform="translate(142.6 361.56) rotate(178.75)"/>
      <polygon class="cls-2" points="53.66 180.78 56.2 173.84 53.14 172.56 50.49 179.45 53.66 180.78"/>
      <rect class="cls-73" x="45.36" y="178.95" width="10.96" height="6.89" rx="3.45" ry="3.45" transform="translate(29.76 370.56) rotate(-158.03)"/>
      <polygon class="cls-2" points="40.06 173.49 43.21 168.61 41.09 167.1 37.86 171.92 40.06 173.49"/>
      <rect class="cls-65" x="33.31" y="171.52" width="8.61" height="5.41" rx="2.71" ry="2.71" transform="translate(-30.83 338.81) rotate(-145.24)"/>
      <polygon class="cls-2" points="26.27 165.86 31.17 160.33 28.79 158.02 23.8 163.47 26.27 165.86"/>
      <rect class="cls-71" x="17.57" y="162.88" width="10.96" height="6.89" rx="3.45" ry="3.45" transform="translate(-74.53 302.97) rotate(-136.58)"/>
      <polygon class="cls-2" points="19.17 153.78 23.17 150.69 21.99 148.66 17.93 151.68 19.17 153.78"/>
      <path class="cls-67" d="M18.18,150.97l1.49,2.47c.69,1.15,.4,2.71-.65,3.46h0c-1.05,.76-2.48,.44-3.17-.71l-1.49-2.47c-.69-1.15-.4-2.71,.65-3.46h0c1.05-.76,2.48-.44,3.17,.71Z"/>
      <polygon class="cls-2" points="9.71 145.48 20.29 140.81 18.59 137.19 7.94 141.72 9.71 145.48"/>
      <rect class="cls-68" x="-.8" y="140.41" width="13.17" height="8.28" rx="4.14" ry="4.14" transform="translate(-123.96 208.53) rotate(-113.96)"/>
      <polygon class="cls-2" points="7.26 132.57 16.19 131.18 15.65 127.89 6.7 129.17 7.26 132.57"/>
      <rect class="cls-66" x="-1.14" y="127.51" width="10.96" height="6.89" rx="3.45" ry="3.45" transform="translate(-124.49 154.83) rotate(-98.6)"/>
      <polygon class="cls-2" points="7.37 118.87 16.12 118.75 15.88 115.41 7.11 115.42 7.37 118.87"/>
      <path class="cls-69" d="M7.73,114.78l.08,4.07c.04,1.89-1.08,3.49-2.48,3.54h0c-1.4,.05-2.58-1.46-2.62-3.35l-.08-4.07c-.04-1.89,1.08-3.49,2.48-3.54h0c1.4-.05,2.58,1.46,2.62,3.35Z"/>
      <polygon class="cls-2" points="6.07 104.83 15.69 106.84 16.27 103.56 6.68 101.43 6.07 104.83"/>
      <rect class="cls-79" x="-1.63" y="98.86" width="10.96" height="6.89" rx="3.45" ry="3.45" transform="translate(-97.17 85.71) rotate(-78.52)"/>
      <polygon class="cls-2" points="11.39 91.12 18.33 94.37 19.24 91.99 12.32 88.66 11.39 91.12"/>
      <path class="cls-81" d="M13.08,88.49l-1.21,2.85c-.56,1.33-2.07,1.94-3.34,1.35h0c-1.28-.59-1.86-2.15-1.3-3.48l1.21-2.85c.56-1.33,2.07-1.94,3.34-1.35h0c1.28,.59,1.86,2.15,1.3,3.48Z"/>
      <polygon class="cls-2" points="15.5 79.2 22.78 84.07 24.63 81.31 17.41 76.34 15.5 79.2"/>
      <rect class="cls-80" x="8.99" y="72.6" width="10.96" height="6.89" rx="3.45" ry="3.45" transform="translate(-56.52 45.18) rotate(-55.73)"/>
      <polygon class="cls-2" points="23.82 68.21 29.37 74.63 31.9 72.48 26.45 65.97 23.82 68.21"/>
      <rect class="cls-78" x="18.21" y="61.46" width="10.96" height="6.89" rx="3.45" ry="3.45" transform="translate(-36.22 30.49) rotate(-40.07)"/>
      <polygon class="cls-2" points="34.83 62.69 37.76 67.52 39.64 66.4 36.78 61.53 34.83 62.69"/>
      <rect class="cls-82" x="31.1" y="58.06" width="7.22" height="4.54" rx="2.27" ry="2.27" transform="translate(-25.88 26.08) rotate(-30.61)"/>
      <polygon class="cls-2" points="44.85 54.72 48.47 61.76 51.46 60.33 47.95 53.22 44.85 54.72"/>
      <rect class="cls-83" x="39.64" y="47.65" width="10.96" height="6.89" rx="3.45" ry="3.45" transform="translate(-17.81 24.88) rotate(-25.94)"/>
      <polygon class="cls-2" points="55.92 52.57 57.33 58.75 59.6 58.21 58.27 52.01 55.92 52.57"/>
      <rect class="cls-84" x="52.71" y="47.76" width="7.66" height="4.82" rx="2.41" ry="2.41" transform="translate(-9.6 13.58) rotate(-12.63)"/>
      <g>
        <ellipse class="cls-55" cx="72.33" cy="117.59" rx="59.25" ry="60.22"/>
        <ellipse class="cls-17" cx="72.28" cy="117.53" rx="59.19" ry="60.16"/>
        <ellipse class="cls-16" cx="72.22" cy="117.46" rx="59.14" ry="60.1"/>
        <ellipse class="cls-35" cx="72.17" cy="117.4" rx="59.08" ry="60.04"/>
        <ellipse class="cls-19" cx="72.12" cy="117.34" rx="59.02" ry="59.98"/>
        <ellipse class="cls-18" cx="72.07" cy="117.28" rx="58.96" ry="59.92"/>
        <ellipse class="cls-47" cx="72.02" cy="117.21" rx="58.91" ry="59.87"/>
        <ellipse class="cls-46" cx="71.97" cy="117.15" rx="58.85" ry="59.81"/>
        <ellipse class="cls-54" cx="71.92" cy="117.09" rx="58.79" ry="59.75"/>
        <ellipse class="cls-21" cx="71.86" cy="117.03" rx="58.73" ry="59.69"/>
        <ellipse class="cls-20" cx="71.81" cy="116.96" rx="58.67" ry="59.63"/>
        <ellipse class="cls-50" cx="71.76" cy="116.9" rx="58.62" ry="59.57"/>
        <ellipse class="cls-53" cx="71.71" cy="116.84" rx="58.56" ry="59.51"/>
        <ellipse class="cls-53" cx="71.66" cy="116.78" rx="58.5" ry="59.45"/>
        <ellipse class="cls-52" cx="71.61" cy="116.71" rx="58.44" ry="59.4"/>
        <ellipse class="cls-51" cx="71.56" cy="116.65" rx="58.39" ry="59.34"/>
        <ellipse class="cls-51" cx="71.5" cy="116.59" rx="58.33" ry="59.28"/>
        <ellipse class="cls-22" cx="71.45" cy="116.53" rx="58.27" ry="59.22"/>
        <ellipse class="cls-22" cx="71.4" cy="116.46" rx="58.21" ry="59.16"/>
        <ellipse class="cls-13" cx="71.35" cy="116.4" rx="58.15" ry="59.1"/>
        <ellipse class="cls-12" cx="71.3" cy="116.34" rx="58.1" ry="59.04"/>
        <ellipse class="cls-12" cx="71.25" cy="116.28" rx="58.04" ry="58.99"/>
        <ellipse class="cls-28" cx="71.2" cy="116.21" rx="57.98" ry="58.93"/>
        <ellipse class="cls-34" cx="71.14" cy="116.15" rx="57.92" ry="58.87"/>
        <ellipse class="cls-34" cx="71.09" cy="116.09" rx="57.87" ry="58.81"/>
        <ellipse class="cls-30" cx="71.04" cy="116.03" rx="57.81" ry="58.75"/>
        <ellipse class="cls-33" cx="70.99" cy="115.96" rx="57.75" ry="58.69"/>
        <ellipse class="cls-29" cx="70.94" cy="115.9" rx="57.69" ry="58.63"/>
        <ellipse class="cls-29" cx="70.89" cy="115.84" rx="57.64" ry="58.57"/>
        <ellipse class="cls-29" cx="70.84" cy="115.78" rx="57.58" ry="58.52"/>
        <ellipse class="cls-32" cx="70.78" cy="115.71" rx="57.52" ry="58.46"/>
        <ellipse class="cls-32" cx="70.73" cy="115.65" rx="57.46" ry="58.4"/>
        <ellipse class="cls-31" cx="70.68" cy="115.59" rx="57.4" ry="58.34"/>
        <ellipse class="cls-23" cx="70.63" cy="115.53" rx="57.35" ry="58.28"/>
        <ellipse class="cls-23" cx="70.58" cy="115.46" rx="57.29" ry="58.22"/>
        <ellipse class="cls-27" cx="70.53" cy="115.4" rx="57.23" ry="58.16"/>
        <ellipse class="cls-27" cx="70.48" cy="115.34" rx="57.17" ry="58.11"/>
        <ellipse class="cls-25" cx="70.42" cy="115.28" rx="57.12" ry="58.05"/>
        <ellipse class="cls-14" cx="70.37" cy="115.21" rx="57.06" ry="57.99"/>
        <ellipse class="cls-14" cx="70.32" cy="115.15" rx="57" ry="57.93"/>
        <ellipse class="cls-15" cx="70.27" cy="115.09" rx="56.94" ry="57.87"/>
        <ellipse class="cls-24" cx="70.22" cy="115.03" rx="56.89" ry="57.81"/>
        <ellipse class="cls-26" cx="70.17" cy="114.96" rx="56.83" ry="57.75"/>
        <ellipse class="cls-41" cx="70.11" cy="114.9" rx="56.77" ry="57.7"/>
        <ellipse class="cls-40" cx="70.06" cy="114.84" rx="56.71" ry="57.64"/>
        <ellipse class="cls-40" cx="70.01" cy="114.78" rx="56.65" ry="57.58"/>
        <ellipse class="cls-42" cx="69.96" cy="114.72" rx="56.6" ry="57.52"/>
        <ellipse class="cls-43" cx="69.91" cy="114.65" rx="56.54" ry="57.46"/>
        <ellipse class="cls-43" cx="69.86" cy="114.59" rx="56.48" ry="57.4"/>
        <ellipse class="cls-44" cx="69.81" cy="114.53" rx="56.42" ry="57.34"/>
        <ellipse class="cls-45" cx="69.75" cy="114.47" rx="56.37" ry="57.28"/>
        <ellipse class="cls-11" cx="69.7" cy="114.4" rx="56.31" ry="57.23"/>
        <ellipse class="cls-11" cx="69.65" cy="114.34" rx="56.25" ry="57.17"/>
        <ellipse class="cls-4" cx="69.6" cy="114.28" rx="56.19" ry="57.11"/>
        <ellipse class="cls-8" cx="69.55" cy="114.22" rx="56.13" ry="57.05"/>
        <ellipse class="cls-9" cx="69.5" cy="114.15" rx="56.08" ry="56.99"/>
        <ellipse class="cls-10" cx="69.45" cy="114.09" rx="56.02" ry="56.93"/>
        <ellipse class="cls-6" cx="69.39" cy="114.03" rx="55.96" ry="56.87"/>
        <ellipse class="cls-5" cx="69.34" cy="113.97" rx="55.9" ry="56.82"/>
        <ellipse class="cls-7" cx="69.29" cy="113.9" rx="55.85" ry="56.76"/>
        <ellipse class="cls-49" cx="69.24" cy="113.84" rx="55.79" ry="56.7"/>
        <ellipse class="cls-48" cx="69.19" cy="113.78" rx="55.73" ry="56.64"/>
      </g>
      <g>
        <path d="M31.4,93.4s36.44,28.23,32.28,12.72"/>
        <path class="cls-36" d="M31.25,93.55c1.22,.94,2.45,1.86,3.69,2.76,2.84,2.08,5.73,4.11,8.67,6.05,3.25,2.15,6.57,4.22,10.05,5.98,1.44,.73,2.92,1.42,4.46,1.94,1.1,.38,2.29,.72,3.47,.69,.82-.02,1.66-.26,2.16-.95,.59-.83,.52-1.96,.36-2.91-.06-.35-.14-.7-.23-1.05-.07-.26-.47-.15-.4,.11,.27,1.01,.55,2.26,.12,3.27-.31,.72-1.01,1.04-1.75,1.1-1.1,.09-2.22-.21-3.25-.54-1.48-.47-2.9-1.12-4.28-1.8-3.38-1.68-6.6-3.67-9.76-5.73-2.94-1.92-5.83-3.93-8.67-6-1.44-1.05-2.85-2.16-4.3-3.2-.06-.05-.03-.02-.03-.02-.21-.16-.51,.13-.3,.3h0Z"/>
      </g>
      <g>
        <path d="M111.2,92.74s-36.44,28.23-32.28,12.72"/>
        <path class="cls-36" d="M111.05,92.59s.04-.03-.03,.02-.13,.1-.19,.15c-.24,.18-.48,.36-.72,.55-.85,.64-1.71,1.28-2.57,1.91-2.73,2-5.5,3.95-8.32,5.83-3.18,2.11-6.42,4.15-9.8,5.92-1.44,.75-2.91,1.46-4.43,2.04-1.14,.43-2.34,.82-3.56,.89-.76,.04-1.64-.04-2.16-.66-.6-.71-.53-1.81-.38-2.67,.06-.35,.14-.7,.23-1.05,.07-.26-.33-.37-.4-.11-.47,1.77-.72,4.42,1.62,4.85,1.05,.19,2.17-.04,3.19-.33,1.47-.41,2.88-1.02,4.26-1.68,3.47-1.65,6.76-3.67,9.98-5.75,3.07-1.99,6.08-4.08,9.03-6.23,1.01-.73,2.02-1.48,3.02-2.23,.47-.36,1-.69,1.44-1.09,.03-.03,.07-.05,.1-.08,.21-.16-.09-.46-.3-.3h0Z"/>
      </g>
      <path class="cls-38" d="M64.73,103.45c.52,.49,1.08,1,1.34,1.69,.22,.59,.17,1.32-.31,1.77-.1,.09,.05,.24,.15,.15,.51-.47,.6-1.23,.4-1.87-.24-.77-.85-1.34-1.42-1.88-.1-.09-.25,.06-.15,.15h0Z"/>
      <path class="cls-38" d="M77.21,103.17c-.57,.53-1.18,1.11-1.42,1.88-.2,.64-.11,1.41,.4,1.87,.1,.09,.25-.06,.15-.15-.49-.44-.53-1.18-.31-1.77,.25-.68,.82-1.2,1.34-1.69,.1-.09-.05-.24-.15-.15h0Z"/>
      <path class="cls-36" d="M93.79,124.64c-7.39,3.19-15.51,4.49-23.55,5.01-7.24,.47-14.55,0-21.66-1.44-.57-.11-1.04,.44-.83,.98,1.49,3.89,6.83,12.4,11.77,14.73,5.42,2.55,10.19,2.24,15.51,1.78,5.62-.49,10.4-4.19,12-5.37,10.03-7.42,12.95-18.35,6.77-15.68Z"/>
      <path class="cls-3" d="M56.27,129.45s1.68,6.19,2.96,7.55l1.29,1.36s-.74-8.5,.6-8.66c0,0-2.21-.11-2.29-.11s-1.81-.16-1.81-.16l-.76-.09,.02,.1Z"/>
      <path class="cls-3" d="M85.73,127.38s-.84,7.08-2.03,8.79l-1.19,1.7s-.57-9.47-2.06-9.42c0,0,2.41-.48,2.5-.5s1.95-.38,1.95-.38l.84-.19h0Z"/>
    </g>
  </g>
  <g id="Layer_6" data-name="Layer 6">
    <g>
      <g>
        <path class="cls-36" d="M170.16,2h89.14c1.29,0,1.29-2,0-2h-89.14c-1.29,0-1.29,2,0,2h0Z"/>
        <g>
          <path class="cls-3" d="M272.79,15.63c0,14.32,0,28.64,0,42.95"/>
          <path class="cls-36" d="M271.79,15.63c0,14.32,0,28.64,0,42.95,0,1.29,2,1.29,2,0,0-14.32,0-28.64,0-42.95,0-1.29-2-1.29-2,0h0Z"/>
        </g>
        <g>
          <path class="cls-3" d="M259.11,1c3.77,.03,7.96,2.12,10.3,5.09,2.39,3.03,3.33,5.89,3.38,9.55"/>
          <path class="cls-36" d="M259.11,2c3.37,.06,6.75,1.67,9.03,4.14,2.42,2.62,3.58,5.97,3.65,9.5,.03,1.29,2.03,1.29,2,0-.08-4.07-1.45-7.9-4.24-10.91C266.93,1.88,262.99,.07,259.11,0c-1.29-.02-1.29,1.98,0,2h0Z"/>
        </g>
        <g>
          <path class="cls-3" d="M256.84,70.73c-30.53,0-61.06,0-91.59,0"/>
          <path class="cls-36" d="M256.84,69.73c-23.81,0-47.62,0-71.43,0-6.72,0-13.44,0-20.16,0-1.29,0-1.29,2,0,2,23.81,0,47.62,0,71.43,0h20.16c1.29,0,1.29-2,0-2h0Z"/>
        </g>
        <g>
          <path class="cls-3" d="M155.75,57.64V14.68"/>
          <path class="cls-36" d="M156.75,57.64c0-14.32,0-28.64,0-42.95,0-1.29-2-1.29-2,0,0,14.32,0,28.64,0,42.95,0,1.29,2,1.29,2,0h0Z"/>
        </g>
        <g>
          <path class="cls-3" d="M155.75,14.68c.03-3.77,2.12-7.96,5.09-10.3,3.03-2.39,5.89-3.33,9.55-3.38"/>
          <path class="cls-36" d="M156.75,14.68c.06-3.37,1.67-6.75,4.14-9.03,2.62-2.42,5.97-3.58,9.5-3.65,1.29-.03,1.29-2.03,0-2-4.07,.08-7.9,1.45-10.91,4.24-2.85,2.63-4.66,6.57-4.72,10.45-.02,1.29,1.98,1.29,2,0h0Z"/>
        </g>
        <g>
          <path class="cls-3" d="M272.79,57.84c-.03,3.77-1.54,7.01-4.77,9.35-3.31,2.39-7.2,3.48-11.18,3.54"/>
          <path class="cls-36" d="M271.79,57.84c-.05,3.36-1.46,6.38-4.18,8.41-3.11,2.33-6.93,3.4-10.78,3.48-1.29,.03-1.29,2.03,0,2,4.37-.09,8.72-1.35,12.19-4.06,3.09-2.41,4.7-5.95,4.76-9.83,.02-1.29-1.98-1.29-2,0h0Z"/>
        </g>
        <g>
          <path class="cls-3" d="M155.73,57.56c0,8.38,0,16.76,0,25.14"/>
          <path class="cls-36" d="M154.73,57.56v25.14c0,1.29,2,1.29,2,0v-25.14c0-1.29-2-1.29-2,0h0Z"/>
        </g>
        <g>
          <path class="cls-3" d="M166.73,71c-3.65,3.99-7.3,7.98-10.96,11.97"/>
          <path class="cls-36" d="M166.03,70.3l-10.96,11.97c-.87,.95,.54,2.37,1.41,1.41l10.96-11.97c.87-.95-.54-2.37-1.41-1.41h0Z"/>
        </g>
      </g>
      <text class="cls-37" transform="translate(188.99 40.93)"><tspan x="0" y="0">Bye Bye!</tspan></text>
    </g>
    <path class="cls-39" d="M42.14,113.28c2.6-1.6,5.62-2.47,8.68-2.06s5.73,2.06,7.83,4.26c.43,.46,1.81-.12,1.33-.63-2.38-2.5-5.43-4.28-8.9-4.68s-6.93,.66-9.89,2.48c-.28,.17-.34,.51-.09,.72,.28,.24,.77,.07,1.04-.1h0Z"/>
    <path class="cls-39" d="M99.56,112.02c-6.14-2.86-13.3-1.87-18.44,2.55-.74,.64,.42,1.08,.95,.62,4.72-4.06,11.01-4.85,16.64-2.23,.58,.27,1.67-.56,.84-.95h0Z"/>
  </g>
</svg>