<?xml version="1.0" encoding="UTF-8"?>
<svg id="Layer_2" data-name="Layer 2" xmlns="http://www.w3.org/2000/svg" xmlns:xlink="http://www.w3.org/1999/xlink" viewBox="0 0 360 219.97">
  <defs>
    <style>
      .cls-1 {
        fill: url(#linear-gradient);
      }

      .cls-2 {
        fill: #e4d63e;
      }

      .cls-3, .cls-4 {
        fill: #fff;
      }

      .cls-5 {
        fill: #9787bc;
      }

      .cls-6 {
        fill: #9988bf;
      }

      .cls-7 {
        fill: #9988be;
      }

      .cls-8 {
        fill: #9989bf;
      }

      .cls-9 {
        fill: #9887bc;
      }

      .cls-10 {
        fill: #9887bd;
      }

      .cls-11 {
        fill: #9888bd;
      }

      .cls-12 {
        fill: #9786bb;
      }

      .cls-13 {
        fill: #8b7dae;
      }

      .cls-14 {
        fill: #8b7dad;
      }

      .cls-15 {
        fill: #9282b5;
      }

      .cls-16 {
        fill: #9283b6;
      }

      .cls-17 {
        fill: #8478a7;
      }

      .cls-18 {
        fill: #8478a6;
      }

      .cls-19 {
        fill: #8579a8;
      }

      .cls-20 {
        fill: #8578a8;
      }

      .cls-21 {
        fill: #877aaa;
      }

      .cls-22 {
        fill: #877aa9;
      }

      .cls-23 {
        fill: #8a7cad;
      }

      .cls-24 {
        fill: #9081b3;
      }

      .cls-25 {
        fill: #9383b6;
      }

      .cls-26 {
        fill: #9182b5;
      }

      .cls-27 {
        fill: #9383b7;
      }

      .cls-28 {
        fill: #9181b4;
      }

      .cls-29 {
        fill: #8c7daf;
      }

      .cls-30 {
        fill: #8e7fb1;
      }

      .cls-31 {
        fill: #8d7eb0;
      }

      .cls-32 {
        fill: #8f80b3;
      }

      .cls-33 {
        fill: #8f80b2;
      }

      .cls-34 {
        fill: #8d7fb0;
      }

      .cls-35 {
        fill: #8c7eaf;
      }

      .cls-36 {
        fill: #8578a7;
      }

      .cls-37, .cls-38 {
        fill: #231f20;
      }

      .cls-39 {
        fill: #413955;
      }

      .cls-40 {
        fill: #9484b8;
      }

      .cls-41 {
        fill: #9484b7;
      }

      .cls-42 {
        fill: #9584b8;
      }

      .cls-43 {
        fill: #9585b9;
      }

      .cls-44 {
        fill: #9685ba;
      }

      .cls-45 {
        fill: #9686ba;
      }

      .cls-46 {
        fill: #544c6b;
      }

      .cls-47 {
        fill: #8679a9;
      }

      .cls-48 {
        fill: #8679a8;
      }

      .cls-49 {
        fill: #9a89c1;
      }

      .cls-50 {
        fill: #9a89c0;
      }

      .cls-51 {
        fill: #887aaa;
      }

      .cls-52 {
        fill: #897cac;
      }

      .cls-53 {
        fill: #897bab;
      }

      .cls-54 {
        fill: #887bab;
      }

      .cls-55 {
        fill: #867aa9;
      }

      .cls-56 {
        fill: #8377a6;
      }

      .cls-4, .cls-57 {
        stroke: #413955;
      }

      .cls-4, .cls-57, .cls-38 {
        stroke-miterlimit: 10;
      }

      .cls-57 {
        fill: #73649e;
      }

      .cls-58 {
        fill: url(#linear-gradient-8);
      }

      .cls-59 {
        fill: url(#linear-gradient-9);
      }

      .cls-60 {
        fill: url(#linear-gradient-3);
      }

      .cls-61 {
        fill: url(#linear-gradient-4);
      }

      .cls-62 {
        fill: url(#linear-gradient-2);
      }

      .cls-63 {
        fill: url(#linear-gradient-6);
      }

      .cls-64 {
        fill: url(#linear-gradient-7);
      }

      .cls-65 {
        fill: url(#linear-gradient-5);
      }

      .cls-38 {
        font-family: Arial-ItalicMT, Arial;
        font-size: 25px;
        stroke: #231f20;
        stroke-width: .5px;
      }

      .cls-66 {
        fill: url(#linear-gradient-14);
      }

      .cls-67 {
        fill: url(#linear-gradient-18);
      }

      .cls-68 {
        fill: url(#linear-gradient-22);
      }

      .cls-69 {
        fill: url(#linear-gradient-20);
      }

      .cls-70 {
        fill: url(#linear-gradient-21);
      }

      .cls-71 {
        fill: url(#linear-gradient-23);
      }

      .cls-72 {
        fill: url(#linear-gradient-15);
      }

      .cls-73 {
        fill: url(#linear-gradient-19);
      }

      .cls-74 {
        fill: url(#linear-gradient-16);
      }

      .cls-75 {
        fill: url(#linear-gradient-17);
      }

      .cls-76 {
        fill: url(#linear-gradient-13);
      }

      .cls-77 {
        fill: url(#linear-gradient-12);
      }

      .cls-78 {
        fill: url(#linear-gradient-10);
      }

      .cls-79 {
        fill: url(#linear-gradient-11);
      }

      .cls-80 {
        fill: url(#linear-gradient-27);
      }

      .cls-81 {
        fill: url(#linear-gradient-24);
      }

      .cls-82 {
        fill: url(#linear-gradient-26);
      }

      .cls-83 {
        fill: url(#linear-gradient-25);
      }

      .cls-84 {
        fill: url(#linear-gradient-28);
      }

      .cls-85 {
        fill: url(#linear-gradient-29);
      }

      .cls-86 {
        fill: url(#linear-gradient-30);
      }

      .cls-87 {
        fill: url(#linear-gradient-32);
      }

      .cls-88 {
        fill: url(#linear-gradient-31);
      }
    </style>
    <linearGradient id="linear-gradient" x1="159.76" y1="33.68" x2="170.94" y2="33.68" gradientTransform="translate(-85.54 7.76) rotate(12.63)" gradientUnits="userSpaceOnUse">
      <stop offset="0" stop-color="#e4d63e"/>
      <stop offset=".99" stop-color="#a99b3d"/>
    </linearGradient>
    <linearGradient id="linear-gradient-2" x1="77.62" y1="80.01" x2="85.43" y2="80.01" gradientTransform="translate(-12.19 14.69) rotate(-9.59)" xlink:href="#linear-gradient"/>
    <linearGradient id="linear-gradient-3" x1="90.08" y1="80.36" x2="101.17" y2="80.36" gradientTransform="translate(-22.94 41.07) rotate(-21.71)" xlink:href="#linear-gradient"/>
    <linearGradient id="linear-gradient-4" x1="102.92" y1="89.09" x2="109.48" y2="89.09" gradientTransform="matrix(1, 0, 0, 1, 0, 0)" xlink:href="#linear-gradient"/>
    <linearGradient id="linear-gradient-5" x1="113.64" y1="94.88" x2="124.05" y2="94.88" gradientTransform="translate(-32.79 106.42) rotate(-42.96)" xlink:href="#linear-gradient"/>
    <linearGradient id="linear-gradient-6" x1="123.4" y1="102.9" x2="136.01" y2="102.9" gradientTransform="translate(-33.35 131.61) rotate(-48.41)" xlink:href="#linear-gradient"/>
    <linearGradient id="linear-gradient-7" x1="129.4" y1="117.45" x2="136.12" y2="117.45" gradientTransform="matrix(1, 0, 0, 1, 0, 0)" xlink:href="#linear-gradient"/>
    <linearGradient id="linear-gradient-8" x1="136.04" y1="131.05" x2="143.99" y2="131.05" gradientTransform="translate(-15.81 242.84) rotate(-78.76)" xlink:href="#linear-gradient"/>
    <linearGradient id="linear-gradient-9" x1="135.97" y1="149.34" x2="139.92" y2="149.34" gradientTransform="translate(-7.51 291.37) rotate(-91.59)" xlink:href="#linear-gradient"/>
    <linearGradient id="linear-gradient-10" x1="136.53" y1="162.95" x2="144.63" y2="162.95" gradientTransform="translate(13.32 336.51) rotate(-102.96)" xlink:href="#linear-gradient"/>
    <linearGradient id="linear-gradient-11" x1="129.66" y1="175.93" x2="135.46" y2="175.93" gradientTransform="translate(23.3 367.21) rotate(-113.27)" xlink:href="#linear-gradient"/>
    <linearGradient id="linear-gradient-12" x1="121.88" y1="190.6" x2="132.01" y2="190.6" gradientTransform="translate(68.86 412.11) rotate(-131.64)" xlink:href="#linear-gradient"/>
    <linearGradient id="linear-gradient-13" x1="110.19" y1="200.44" x2="117.59" y2="200.44" gradientTransform="matrix(1, 0, 0, 1, 0, 0)" xlink:href="#linear-gradient"/>
    <linearGradient id="linear-gradient-14" x1="96.19" y1="210.24" x2="107.32" y2="210.24" gradientTransform="translate(126.77 442.46) rotate(-160.32)" xlink:href="#linear-gradient"/>
    <linearGradient id="linear-gradient-15" x1="79.08" y1="216.01" x2="90.25" y2="216.01" gradientTransform="translate(127 444.13) rotate(-169.11)" xlink:href="#linear-gradient"/>
    <linearGradient id="linear-gradient-16" x1="66.64" y1="213.09" x2="73.48" y2="213.09" gradientTransform="translate(135.47 427.66) rotate(-178.75)" xlink:href="#linear-gradient"/>
    <linearGradient id="linear-gradient-17" x1="45.85" y1="213.94" x2="56.94" y2="213.94" gradientTransform="translate(179.08 393.12) rotate(158.03)" xlink:href="#linear-gradient"/>
    <linearGradient id="linear-gradient-18" x1="33.83" y1="205.7" x2="42.28" y2="205.7" gradientTransform="translate(186.6 352.99) rotate(145.24)" xlink:href="#linear-gradient"/>
    <linearGradient id="linear-gradient-19" x1="18.16" y1="197.73" x2="28.55" y2="197.73" gradientTransform="translate(176.23 325.28) rotate(136.58)" xlink:href="#linear-gradient"/>
    <linearGradient id="linear-gradient-20" x1="14.21" y1="184.86" x2="20.33" y2="184.86" gradientTransform="matrix(1, 0, 0, 1, 0, 0)" xlink:href="#linear-gradient"/>
    <linearGradient id="linear-gradient-21" x1=".55" y1="175.75" x2="11.33" y2="175.75" gradientTransform="translate(168.96 241.69) rotate(113.96)" xlink:href="#linear-gradient"/>
    <linearGradient id="linear-gradient-22" x1=".62" y1="162.04" x2="8.34" y2="162.04" gradientTransform="translate(165.37 181.83) rotate(98.6)" xlink:href="#linear-gradient"/>
    <linearGradient id="linear-gradient-23" x1="2.75" y1="147.86" x2="7.98" y2="147.86" gradientTransform="matrix(1, 0, 0, 1, 0, 0)" xlink:href="#linear-gradient"/>
    <linearGradient id="linear-gradient-24" x1="0" y1="133.12" x2="7.97" y2="133.12" gradientTransform="translate(133.65 102.72) rotate(78.52)" xlink:href="#linear-gradient"/>
    <linearGradient id="linear-gradient-25" x1="7.18" y1="119.55" x2="13.51" y2="119.55" gradientTransform="matrix(1, 0, 0, 1, 0, 0)" xlink:href="#linear-gradient"/>
    <linearGradient id="linear-gradient-26" x1="9.85" y1="106.63" x2="19.54" y2="106.63" gradientTransform="translate(94.54 34.44) rotate(55.73)" xlink:href="#linear-gradient"/>
    <linearGradient id="linear-gradient-27" x1="18.73" y1="95.39" x2="29.28" y2="95.39" gradientTransform="translate(67.04 6.94) rotate(40.07)" xlink:href="#linear-gradient"/>
    <linearGradient id="linear-gradient-28" x1="31.54" y1="90.78" x2="38.72" y2="90.78" gradientTransform="translate(51.11 -5.24) rotate(30.61)" xlink:href="#linear-gradient"/>
    <linearGradient id="linear-gradient-29" x1="40.12" y1="81.45" x2="51.13" y2="81.45" gradientTransform="translate(40.23 -11.75) rotate(25.94)" xlink:href="#linear-gradient"/>
    <linearGradient id="linear-gradient-30" x1="53.25" y1="80.52" x2="61.06" y2="80.52" gradientTransform="translate(18.99 -10.55) rotate(12.63)" xlink:href="#linear-gradient"/>
    <linearGradient id="linear-gradient-31" x1="27.69" y1="175.31" x2="36.47" y2="167.73" gradientTransform="translate(.05 0) rotate(.09) skewX(.19)" gradientUnits="userSpaceOnUse">
      <stop offset=".39" stop-color="#9a89c1"/>
      <stop offset=".67" stop-color="#504b63"/>
    </linearGradient>
    <linearGradient id="linear-gradient-32" x1="35.06" y1="168.7" x2="38.53" y2="166.11" gradientUnits="userSpaceOnUse">
      <stop offset=".4" stop-color="#9a89c1"/>
      <stop offset=".68" stop-color="#454156"/>
    </linearGradient>
  </defs>
  <g id="Layer_6" data-name="Layer 6">
    <g>
      <path class="cls-3" d="M46.24,137.91s1.36,.6,1.74,.4,1.21-2.4-1.36-2.21-.37,1.81-.37,1.81Z"/>
      <g>
        <polygon class="cls-2" points="67.36 79.92 67.55 88.71 70.05 88.47 69.95 79.67 67.36 79.92"/>
        <rect class="cls-1" x="62.92" y="73.29" width="11.06" height="6.95" rx="2.92" ry="2.92" transform="translate(-5.94 5.74) rotate(-4.61)"/>
        <polygon class="cls-2" points="80 82.11 78.45 90.14 80.8 90.42 82.43 82.39 80 82.11"/>
        <rect class="cls-62" x="77.66" y="77.58" width="7.73" height="4.86" rx="2.04" ry="2.04" transform="translate(14.46 -12.46) rotate(9.59)"/>
        <polygon class="cls-2" points="92.31 82.52 88.75 91.41 91.9 92.59 95.57 83.75 92.31 82.52"/>
        <rect class="cls-60" x="90.1" y="76.89" width="11.06" height="6.95" rx="2.92" ry="2.92" transform="translate(36.51 -29.67) rotate(21.71)"/>
        <polygon class="cls-2" points="104.8 89.27 100.65 96.42 102.59 97.21 106.82 90.09 104.8 89.27"/>
        <path class="cls-61" d="M106.28,91.53l-2.24-1.19c-1.04-.55-1.43-1.83-.86-2.84h0c.57-1.01,1.89-1.38,2.93-.83l2.24,1.19c1.04,.55,1.43,1.83,.86,2.84h0c-.57,1.01-1.89,1.38-2.93,.83Z"/>
        <polygon class="cls-2" points="115.71 95.78 110.67 102.21 113.26 104.33 118.4 97.98 115.71 95.78"/>
        <rect class="cls-65" x="113.31" y="91.4" width="11.06" height="6.95" rx="2.92" ry="2.92" transform="translate(96.52 -55.54) rotate(42.96)"/>
        <polygon class="cls-2" points="125.56 103.17 117.61 110.4 120.39 113.51 128.45 106.39 125.56 103.17"/>
        <rect class="cls-63" x="122.82" y="98.57" width="13.78" height="8.66" rx="3.64" ry="3.64" transform="translate(120.58 -62.41) rotate(48.41)"/>
        <polygon class="cls-2" points="130.33 117.09 125.64 120.18 126.87 122.44 131.61 119.43 130.33 117.09"/>
        <path class="cls-64" d="M131.29,120.19l-1.55-2.75c-.72-1.28-.3-2.94,.93-3.69h0c1.23-.75,2.82-.31,3.54,.97l1.55,2.75c.72,1.28,.3,2.94-.93,3.69h0c-1.23,.75-2.82,.31-3.54-.97Z"/>
        <polygon class="cls-2" points="137.09 129.55 129.83 131.25 130.44 134.54 137.72 132.96 137.09 129.55"/>
        <rect class="cls-58" x="134.48" y="127.57" width="11.06" height="6.95" rx="2.92" ry="2.92" transform="translate(241.27 -31.82) rotate(78.76)"/>
        <polygon class="cls-2" points="136.54 148.17 132.4 148.19 132.32 150.05 136.47 150.09 136.54 148.17"/>
        <rect class="cls-59" x="134.87" y="147.4" width="6.15" height="3.87" rx="1.63" ry="1.63" transform="translate(291.05 15.59) rotate(91.59)"/>
        <polygon class="cls-2" points="138.53 160.39 131.22 158.96 130.42 162.21 137.71 163.76 138.53 160.39"/>
        <rect class="cls-78" x="135.05" y="159.48" width="11.06" height="6.95" rx="2.92" ry="2.92" transform="translate(330.92 62.51) rotate(102.96)"/>
        <polygon class="cls-2" points="131.54 174.06 127.04 172.29 126.15 174.28 130.63 176.12 131.54 174.06"/>
        <rect class="cls-79" x="128.97" y="173.67" width="7.19" height="4.52" rx="1.9" ry="1.9" transform="translate(346.55 123.66) rotate(113.27)"/>
        <polygon class="cls-2" points="126.37 187.36 120.64 182.6 118.39 185.07 124.03 189.93 126.37 187.36"/>
        <rect class="cls-77" x="121.41" y="187.12" width="11.06" height="6.95" rx="2.92" ry="2.92" transform="translate(353.73 222.39) rotate(131.64)"/>
        <polygon class="cls-2" points="114.01 197.92 110.77 193.36 108.79 194.82 111.97 199.43 114.01 197.92"/>
        <path class="cls-76" d="M111.24,199.17l2.41-1.83c1.12-.85,2.69-.57,3.48,.63h0c.8,1.2,.53,2.87-.59,3.73l-2.41,1.83c-1.12,.85-2.69,.57-3.48-.63h0c-.8-1.2-.53-2.87,.59-3.73Z"/>
        <polygon class="cls-2" points="102.81 207.13 100.07 200.2 96.9 201.29 99.53 208.26 102.81 207.13"/>
        <rect class="cls-66" x="96.22" y="206.76" width="11.06" height="6.95" rx="2.92" ry="2.92" transform="translate(268.36 373.94) rotate(160.32)"/>
        <polygon class="cls-2" points="86.18 213.1 84.53 205.83 81.23 206.42 82.76 213.71 86.18 213.1"/>
        <rect class="cls-72" x="79.13" y="212.53" width="11.06" height="6.95" rx="2.92" ry="2.92" transform="translate(208.61 412.14) rotate(169.11)"/>
        <polygon class="cls-2" points="71.28 211.48 71.03 206.89 68.97 206.9 69.14 211.5 71.28 211.48"/>
        <rect class="cls-74" x="66.65" y="210.95" width="6.83" height="4.29" rx="1.8" ry="1.8" transform="translate(144.74 424.62) rotate(178.75)"/>
        <polygon class="cls-2" points="54.25 212.31 56.8 205.31 53.72 204.02 51.05 210.97 54.25 212.31"/>
        <rect class="cls-75" x="45.87" y="210.46" width="11.06" height="6.95" rx="2.92" ry="2.92" transform="translate(19.04 431.57) rotate(-158.03)"/>
        <polygon class="cls-2" points="40.52 204.95 43.7 200.04 41.56 198.51 38.3 203.37 40.52 204.95"/>
        <rect class="cls-67" x="33.71" y="202.97" width="8.69" height="5.46" rx="2.3" ry="2.3" transform="translate(-47.98 396.38) rotate(-145.24)"/>
        <polygon class="cls-2" points="26.61 197.25 31.55 191.68 29.15 189.35 24.12 194.84 26.61 197.25"/>
        <rect class="cls-73" x="17.83" y="194.25" width="11.06" height="6.95" rx="2.92" ry="2.92" transform="translate(-95.58 357.39) rotate(-136.58)"/>
        <polygon class="cls-2" points="19.44 185.07 23.48 181.95 22.28 179.91 18.2 182.95 19.44 185.07"/>
        <path class="cls-69" d="M18.45,182.23l1.5,2.49c.7,1.16,.4,2.73-.66,3.49h0c-1.06,.76-2.5,.44-3.2-.72l-1.5-2.49c-.7-1.16-.4-2.73,.66-3.49h0c1.06-.76,2.5-.44,3.2,.72Z"/>
        <polygon class="cls-2" points="9.89 176.69 20.57 171.98 18.86 168.33 8.11 172.9 9.89 176.69"/>
        <rect class="cls-70" x="-.7" y="171.57" width="13.29" height="8.35" rx="3.51" ry="3.51" transform="translate(-152.26 252.55) rotate(-113.96)"/>
        <polygon class="cls-2" points="7.42 163.66 16.43 162.26 15.89 158.95 6.86 160.23 7.42 163.66"/>
        <rect class="cls-68" x="-1.05" y="158.56" width="11.06" height="6.95" rx="2.92" ry="2.92" transform="translate(-155.07 190.69) rotate(-98.6)"/>
        <polygon class="cls-2" points="7.54 149.85 16.37 149.72 16.12 146.35 7.27 146.36 7.54 149.85"/>
        <path class="cls-71" d="M7.9,145.71l.08,4.11c.04,1.91-1.09,3.52-2.5,3.57h0c-1.42,.05-2.6-1.47-2.64-3.38l-.08-4.11c-.04-1.91,1.09-3.52,2.5-3.57h0c1.42-.05,2.6,1.47,2.64,3.38Z"/>
        <polygon class="cls-2" points="6.23 135.67 15.93 137.7 16.52 134.39 6.83 132.24 6.23 135.67"/>
        <rect class="cls-81" x="-1.55" y="129.65" width="11.06" height="6.95" rx="2.92" ry="2.92" transform="translate(-127.27 110.53) rotate(-78.52)"/>
        <polygon class="cls-2" points="11.59 121.84 18.6 125.12 19.51 122.72 12.53 119.36 11.59 121.84"/>
        <path class="cls-83" d="M13.3,119.19l-1.22,2.88c-.57,1.34-2.09,1.95-3.37,1.36h0c-1.29-.59-1.88-2.17-1.31-3.51l1.22-2.88c.57-1.34,2.09-1.95,3.37-1.36h0c1.29,.59,1.88,2.17,1.31,3.51Z"/>
        <polygon class="cls-2" points="15.73 109.81 23.08 114.73 24.95 111.94 17.67 106.92 15.73 109.81"/>
        <rect class="cls-82" x="9.17" y="103.16" width="11.06" height="6.95" rx="2.92" ry="2.92" transform="translate(-81.7 58.73) rotate(-55.73)"/>
        <polygon class="cls-2" points="24.14 98.72 29.73 105.2 32.29 103.03 26.78 96.47 24.14 98.72"/>
        <rect class="cls-80" x="18.47" y="91.91" width="11.06" height="6.95" rx="2.92" ry="2.92" transform="translate(-55.77 37.84) rotate(-40.07)"/>
        <polygon class="cls-2" points="35.25 93.16 38.21 98.03 40.1 96.89 37.21 91.98 35.25 93.16"/>
        <rect class="cls-84" x="31.48" y="88.49" width="7.29" height="4.58" rx="1.93" ry="1.93" transform="translate(-41.32 30.53) rotate(-30.61)"/>
        <polygon class="cls-2" points="45.35 85.11 49.01 92.22 52.03 90.77 48.48 83.6 45.35 85.11"/>
        <rect class="cls-85" x="40.09" y="77.98" width="11.06" height="6.95" rx="2.92" ry="2.92" transform="translate(-31.03 28.17) rotate(-25.94)"/>
        <polygon class="cls-2" points="56.53 82.94 57.95 89.17 60.23 88.63 58.89 82.38 56.53 82.94"/>
        <rect class="cls-86" x="53.29" y="78.09" width="7.73" height="4.86" rx="2.04" ry="2.04" transform="translate(-16.22 14.44) rotate(-12.63)"/>
        <g>
          <ellipse class="cls-56" cx="73.08" cy="148.55" rx="59.79" ry="60.76"/>
          <ellipse class="cls-18" cx="73.03" cy="148.48" rx="59.73" ry="60.7"/>
          <ellipse class="cls-17" cx="72.98" cy="148.41" rx="59.67" ry="60.64"/>
          <ellipse class="cls-36" cx="72.93" cy="148.34" rx="59.61" ry="60.58"/>
          <ellipse class="cls-20" cx="72.88" cy="148.27" rx="59.55" ry="60.53"/>
          <ellipse class="cls-19" cx="72.83" cy="148.2" rx="59.5" ry="60.47"/>
          <ellipse class="cls-48" cx="72.78" cy="148.13" rx="59.44" ry="60.41"/>
          <ellipse class="cls-47" cx="72.73" cy="148.07" rx="59.38" ry="60.35"/>
          <ellipse class="cls-55" cx="72.68" cy="148" rx="59.32" ry="60.29"/>
          <ellipse class="cls-22" cx="72.63" cy="147.93" rx="59.26" ry="60.23"/>
          <ellipse class="cls-21" cx="72.58" cy="147.86" rx="59.21" ry="60.17"/>
          <ellipse class="cls-51" cx="72.53" cy="147.79" rx="59.15" ry="60.11"/>
          <ellipse class="cls-54" cx="72.48" cy="147.72" rx="59.09" ry="60.05"/>
          <ellipse class="cls-54" cx="72.43" cy="147.65" rx="59.03" ry="59.99"/>
          <ellipse class="cls-53" cx="72.38" cy="147.58" rx="58.97" ry="59.93"/>
          <ellipse class="cls-52" cx="72.33" cy="147.51" rx="58.91" ry="59.87"/>
          <ellipse class="cls-52" cx="72.28" cy="147.44" rx="58.86" ry="59.82"/>
          <ellipse class="cls-23" cx="72.23" cy="147.38" rx="58.8" ry="59.76"/>
          <ellipse class="cls-23" cx="72.18" cy="147.31" rx="58.74" ry="59.7"/>
          <ellipse class="cls-14" cx="72.13" cy="147.24" rx="58.68" ry="59.64"/>
          <ellipse class="cls-13" cx="72.08" cy="147.17" rx="58.62" ry="59.58"/>
          <ellipse class="cls-13" cx="72.03" cy="147.1" rx="58.56" ry="59.52"/>
          <ellipse class="cls-29" cx="71.98" cy="147.03" rx="58.51" ry="59.46"/>
          <ellipse class="cls-35" cx="71.93" cy="146.96" rx="58.45" ry="59.4"/>
          <ellipse class="cls-35" cx="71.88" cy="146.89" rx="58.39" ry="59.34"/>
          <ellipse class="cls-31" cx="71.83" cy="146.82" rx="58.33" ry="59.28"/>
          <ellipse class="cls-34" cx="71.78" cy="146.75" rx="58.27" ry="59.22"/>
          <ellipse class="cls-30" cx="71.73" cy="146.69" rx="58.22" ry="59.16"/>
          <ellipse class="cls-30" cx="71.68" cy="146.62" rx="58.16" ry="59.1"/>
          <ellipse class="cls-30" cx="71.63" cy="146.55" rx="58.1" ry="59.05"/>
          <ellipse class="cls-33" cx="71.58" cy="146.48" rx="58.04" ry="58.99"/>
          <ellipse class="cls-33" cx="71.53" cy="146.41" rx="57.98" ry="58.93"/>
          <ellipse class="cls-32" cx="71.48" cy="146.34" rx="57.92" ry="58.87"/>
          <ellipse class="cls-24" cx="71.43" cy="146.27" rx="57.87" ry="58.81"/>
          <ellipse class="cls-24" cx="71.38" cy="146.2" rx="57.81" ry="58.75"/>
          <ellipse class="cls-28" cx="71.33" cy="146.13" rx="57.75" ry="58.69"/>
          <ellipse class="cls-28" cx="71.28" cy="146.07" rx="57.69" ry="58.63"/>
          <ellipse class="cls-26" cx="71.23" cy="146" rx="57.63" ry="58.57"/>
          <ellipse class="cls-15" cx="71.18" cy="145.93" rx="57.57" ry="58.51"/>
          <ellipse class="cls-15" cx="71.13" cy="145.86" rx="57.52" ry="58.45"/>
          <ellipse class="cls-16" cx="71.08" cy="145.79" rx="57.46" ry="58.39"/>
          <ellipse class="cls-25" cx="71.03" cy="145.72" rx="57.4" ry="58.34"/>
          <ellipse class="cls-27" cx="70.98" cy="145.65" rx="57.34" ry="58.28"/>
          <ellipse class="cls-41" cx="70.92" cy="145.58" rx="57.28" ry="58.22"/>
          <ellipse class="cls-40" cx="70.87" cy="145.51" rx="57.23" ry="58.16"/>
          <ellipse class="cls-40" cx="70.82" cy="145.44" rx="57.17" ry="58.1"/>
          <ellipse class="cls-42" cx="70.77" cy="145.38" rx="57.11" ry="58.04"/>
          <ellipse class="cls-43" cx="70.72" cy="145.31" rx="57.05" ry="57.98"/>
          <ellipse class="cls-43" cx="70.67" cy="145.24" rx="56.99" ry="57.92"/>
          <ellipse class="cls-44" cx="70.62" cy="145.17" rx="56.93" ry="57.86"/>
          <ellipse class="cls-45" cx="70.57" cy="145.1" rx="56.88" ry="57.8"/>
          <ellipse class="cls-12" cx="70.52" cy="145.03" rx="56.82" ry="57.74"/>
          <ellipse class="cls-12" cx="70.47" cy="144.96" rx="56.76" ry="57.68"/>
          <ellipse class="cls-5" cx="70.42" cy="144.89" rx="56.7" ry="57.63"/>
          <ellipse class="cls-9" cx="70.37" cy="144.82" rx="56.64" ry="57.57"/>
          <ellipse class="cls-10" cx="70.32" cy="144.76" rx="56.58" ry="57.51"/>
          <ellipse class="cls-11" cx="70.27" cy="144.69" rx="56.53" ry="57.45"/>
          <ellipse class="cls-7" cx="70.22" cy="144.62" rx="56.47" ry="57.39"/>
          <ellipse class="cls-6" cx="70.17" cy="144.55" rx="56.41" ry="57.33"/>
          <ellipse class="cls-8" cx="70.12" cy="144.48" rx="56.35" ry="57.27"/>
          <ellipse class="cls-50" cx="70.07" cy="144.41" rx="56.29" ry="57.21"/>
          <ellipse class="cls-49" cx="70.02" cy="144.34" rx="56.23" ry="57.15"/>
        </g>
        <g>
          <path d="M27.19,126.44s46.24,5.07,34.48-6.07"/>
          <path class="cls-37" d="M27.19,126.75c5.11,.56,10.25,.9,15.39,1.07,3.97,.13,7.96,.16,11.91-.18,2.61-.22,5.81-.44,8.06-1.95,.79-.53,1.4-1.3,1.34-2.29-.08-1.3-1.12-2.41-2-3.26-.3-.28-.75,.17-.45,.45,1.28,1.22,2.77,3.17,.84,4.52-.92,.65-2.07,.97-3.15,1.22-1.53,.36-3.09,.55-4.65,.68-7.26,.62-14.65,.18-21.9-.39-1.8-.14-3.6-.3-5.4-.49-.41-.04-.4,.59,0,.64h0Z"/>
        </g>
        <g>
          <path d="M113.66,126.99s-46.4,3.3-34.22-7.39"/>
          <path class="cls-37" d="M113.66,126.67c-4.81,.34-9.65,.48-14.47,.48-3.83,0-7.68-.1-11.5-.48-2.77-.28-5.96-.58-8.44-1.96-.73-.41-1.53-1.02-1.53-1.94,0-1.19,1.13-2.23,1.94-2.95,.31-.27-.14-.72-.45-.45-1.42,1.26-3.09,3.35-1.38,5.08,.76,.77,1.84,1.21,2.85,1.54,1.43,.48,2.92,.76,4.41,.98,7.49,1.11,15.21,.93,22.75,.63,1.94-.08,3.89-.17,5.83-.3,.41-.03,.41-.66,0-.64h0Z"/>
        </g>
        <path class="cls-37" d="M56.64,175.93c7.16,1.77,7-.1,17.33-.56,7.93-.35,7.22,2.62,14.5,.47,.56-.17,6.65-2.25,7.1-3.82,1.15-4.05-4.02-10.77-8.79-13.53-5.23-3.03-10.05-3.12-15.44-3.11-5.69,.01-10.82,3.33-12.52,4.38-10.72,6.61-8.77,14.55-2.18,16.18Z"/>
        <path class="cls-3" d="M57.1,160.88s1.62,5.14,2.92,6.5l1.31,1.36s-1.09-10.55,.26-10.72c0,0-1.55,.98-1.64,.98s-1.59,.97-1.59,.97l-.85,.61-.41,.29Z"/>
        <path class="cls-3" d="M89.72,160.87s-1.93,4.79-3.39,6.29l-1.47,1.5s1.26-11.13-.24-11.32c0,0,2.15,1.15,2.24,1.15s1.91,1.42,1.91,1.42l.94,.96h0Z"/>
      </g>
      <path class="cls-88" d="M25.62,166.37s9.97,1.24,11.76,6.83c1.79,5.59-.98,4.55-.98,4.55l-10.78-11.38Z"/>
      <path class="cls-49" d="M41.72,162.5c3.22,0,3.22-5,0-5s-3.22,5,0,5h0Z"/>
      <g>
        <path class="cls-87" d="M33.2,163.95c3.4,.79,6.23,3.67,6.96,7.09"/>
        <path class="cls-49" d="M32.53,166.36c.5,.12,.98,.28,1.45,.47l-.6-.25c.72,.31,1.39,.71,2.01,1.18l-.51-.39c.67,.52,1.27,1.12,1.79,1.79l-.39-.51c.49,.65,.9,1.35,1.22,2.1l-.25-.6c.21,.5,.37,1.02,.49,1.55,.28,1.28,1.84,2.15,3.08,1.75,1.34-.44,2.05-1.7,1.75-3.08-.93-4.24-4.49-7.83-8.7-8.84-1.27-.3-2.77,.4-3.08,1.75s.39,2.75,1.75,3.08h0Z"/>
      </g>
      <path class="cls-46" d="M31.07,165.35c3.56,2.04,7.79,4.63,8.2,9.16,.01,.16,.26,.16,.25,0-.43-4.63-4.67-7.28-8.33-9.38-.14-.08-.27,.14-.13,.22h0Z"/>
      <g>
        <path class="cls-4" d="M59.16,134.43c1.26,1.33,1.91,2.97,1.76,4.82-.12,1.43-.66,2.8-1.37,4.05-1.87,3.29-4.96,5.87-8.54,7.1-2.15,.74-4.51,1.01-6.73,.47-2.22-.54-4.27-1.93-5.34-3.94-1.15-2.14-1.1-4.77-.35-7.07,2.19-6.67,9.27-9.65,15.86-8.25,1.56,.33,3.42,1.46,4.7,2.81Z"/>
        <path class="cls-57" d="M53.14,138.02c.94,1.62,.95,7.14-2.08,9.65-3.03,2.5-7.59,2.69-8.75-.06-.87-2.07-1.89-4.8-1.92-6.77-.02-1.64,.26-4.12,8.63-5.46,2.79-.45,2.67,.15,4.11,2.64Z"/>
        <g>
          <path class="cls-39" d="M48.62,140.86c.38,.65,.38,2.88-.84,3.89s-3.06,1.08-3.53-.02c-.35-.83-.76-1.93-.77-2.73,0-.66,.1-1.66,3.48-2.2,1.12-.18,1.08,.06,1.66,1.07Z"/>
          <path class="cls-3" d="M42.88,141.12s1.36,.6,1.74,.4,1.21-2.4-1.36-2.21c-2.57,.19-.37,1.81-.37,1.81Z"/>
        </g>
      </g>
      <g>
        <path class="cls-4" d="M99.76,133.45c1.26,1.33,1.91,2.97,1.76,4.82-.12,1.43-.66,2.8-1.37,4.05-1.87,3.29-4.96,5.87-8.54,7.1-2.15,.74-4.51,1.01-6.73,.47s-4.27-1.93-5.34-3.94c-1.15-2.14-1.1-4.77-.35-7.07,2.19-6.67,9.27-9.65,15.86-8.25,1.56,.33,3.42,1.46,4.7,2.81Z"/>
        <path class="cls-57" d="M93.51,136.79c.94,1.62,.95,7.14-2.08,9.65s-7.59,2.69-8.75-.06c-.87-2.07-1.89-4.8-1.92-6.77-.02-1.64,.26-4.12,8.63-5.46,2.79-.45,2.67,.15,4.11,2.64Z"/>
        <g>
          <path class="cls-39" d="M88.56,140.16c.38,.65,.38,2.88-.84,3.89s-3.06,1.08-3.53-.02c-.35-.83-.76-1.93-.77-2.73,0-.66,.1-1.66,3.48-2.2,1.12-.18,1.08,.06,1.66,1.07Z"/>
          <path class="cls-3" d="M88.31,139.93s1.36,.6,1.74,.4,1.21-2.4-1.36-2.21c-2.57,.19-.37,1.81-.37,1.81Z"/>
        </g>
      </g>
    </g>
    <g>
      <g>
        <path d="M193.62,2h143.62c1.29,0,1.29-2,0-2H193.62c-1.29,0-1.29,2,0,2h0Z"/>
        <path d="M357.98,24.58V93.79c0,1.29,2,1.29,2,0V24.58c0-1.29-2-1.29-2,0h0Z"/>
        <g>
          <path class="cls-3" d="M333.27,113.35c-49.19,0-98.38,0-147.58,0"/>
          <path d="M333.27,112.35c-19.19,0-38.39,0-57.58,0s-38.39,0-57.58,0c-10.8,0-21.6,0-32.41,0-1.29,0-1.29,2,0,2,19.19,0,38.39,0,57.58,0s38.39,0,57.58,0c10.8,0,21.6,0,32.41,0,1.29,0,1.29-2,0-2h0Z"/>
        </g>
        <g>
          <path class="cls-3" d="M170.41,92.26c0-23.07,0-46.14,0-69.21"/>
          <path d="M171.41,92.26c0-17.92,0-35.85,0-53.77,0-5.14,0-10.29,0-15.43,0-1.29-2-1.29-2,0,0,17.92,0,35.85,0,53.77,0,5.14,0,10.29,0,15.43,0,1.29,2,1.29,2,0h0Z"/>
        </g>
        <g>
          <path class="cls-3" d="M170.37,92.13c0,13.5,0,27,0,40.5"/>
          <path d="M169.37,92.13c0,13.5,0,27,0,40.5,0,1.29,2,1.29,2,0,0-13.5,0-27,0-40.5,0-1.29-2-1.29-2,0h0Z"/>
        </g>
        <g>
          <path class="cls-3" d="M188.1,113.79l-17.65,19.29-.04-110.04c.04-6.08,3.42-12.83,8.19-16.59,4.89-3.86,9.5-5.36,15.39-5.45h142.95c6.08,.04,12.83,3.42,16.59,8.19,3.86,4.89,5.36,9.5,5.45,15.39V92.59c-.05,6.08-2.49,11.3-7.69,15.06-5.33,3.86-11.6,5.61-18.02,5.7"/>
          <path d="M187.39,113.09c-5.88,6.43-11.77,12.86-17.65,19.29l1.71,.71c0-2.57,0-5.14,0-7.72,0-6.47,0-12.94,0-19.42,0-8.5,0-17.01,0-25.51s0-17.26-.01-25.9c0-6.98,0-13.96,0-20.94,0-3.42-.02-6.84,0-10.27,.02-4.53,1.71-8.98,4.42-12.59,4.25-5.67,11.18-8.67,18.16-8.74,2.06-.02,4.11,0,6.17,0h16.07c7.6,0,15.21,0,22.81,0h52.37c7.63,0,15.27,0,22.9,0,5.43,0,10.85,0,16.28,0,2.11,0,4.22-.03,6.33,0,6.75,.08,13.21,3.89,16.99,9.39,2.79,4.06,4.05,8.64,4.07,13.55s0,9.8,0,14.7v47.57c0,1.67,0,3.33,0,5-.01,4.54-1.4,8.89-4.55,12.24-5.1,5.41-12.91,7.75-20.16,7.89-1.29,.03-1.29,2.03,0,2,7.42-.15,15.12-2.45,20.65-7.57,4.01-3.71,6.02-8.86,6.06-14.28,.04-4.51,0-9.02,0-13.53V30.53c0-1.83,0-3.65,0-5.48,0-4.49-.93-8.88-3.17-12.81C352.47,4.64,344.59,0,335.84,0h-10.85c-6.6,0-13.2,0-19.8,0-8.36,0-16.72,0-25.08,0-8.99,0-17.98,0-26.97,0h-57.56c-.67,0-1.34,0-2.01,0-6.87,.18-13.65,2.95-18.24,8.18-3.57,4.08-5.88,9.48-5.93,14.94,0,.97,0,1.93,0,2.9,0,5.26,0,10.52,0,15.78v24.35c.01,8.95,.02,17.89,.02,26.84,0,7.86,0,15.72,0,23.58,0,4.84,0,9.68,0,14.52,0,.66,0,1.31,0,1.97,0,.84,1.11,1.36,1.71,.71,5.88-6.43,11.77-12.86,17.65-19.29,.87-.95-.54-2.37-1.41-1.41h0Z"/>
        </g>
      </g>
      <text class="cls-38" transform="translate(225.09 67.44)"><tspan x="0" y="0">Oh no!</tspan></text>
    </g>
  </g>
</svg>