<?xml version="1.0" encoding="UTF-8"?>
<svg id="Layer_2" data-name="Layer 2" xmlns="http://www.w3.org/2000/svg" xmlns:xlink="http://www.w3.org/1999/xlink" viewBox="0 0 99.82 101.28">
  <defs>
    <style>
      .cls-1 {
        fill: url(#linear-gradient);
      }

      .cls-2 {
        fill: #e4d63e;
      }

      .cls-3 {
        fill: #fff;
      }

      .cls-4 {
        fill: #9787bc;
      }

      .cls-5 {
        fill: #9988bf;
      }

      .cls-6 {
        fill: #9988be;
      }

      .cls-7 {
        fill: #9989bf;
      }

      .cls-8 {
        fill: #9887bc;
      }

      .cls-9 {
        fill: #9887bd;
      }

      .cls-10 {
        fill: #9888bd;
      }

      .cls-11 {
        fill: #9786bb;
      }

      .cls-12 {
        fill: #8b7dae;
      }

      .cls-13 {
        fill: #8b7dad;
      }

      .cls-14 {
        fill: #9282b5;
      }

      .cls-15 {
        fill: #9283b6;
      }

      .cls-16 {
        fill: #8478a7;
      }

      .cls-17 {
        fill: #8478a6;
      }

      .cls-18 {
        fill: #8579a8;
      }

      .cls-19 {
        fill: #8578a8;
      }

      .cls-20 {
        fill: #877aaa;
      }

      .cls-21 {
        fill: #877aa9;
      }

      .cls-22 {
        fill: #8a7cad;
      }

      .cls-23 {
        fill: #9081b3;
      }

      .cls-24 {
        fill: #9383b6;
      }

      .cls-25 {
        fill: #9182b5;
      }

      .cls-26 {
        fill: #9383b7;
      }

      .cls-27 {
        fill: #9181b4;
      }

      .cls-28 {
        fill: #73649e;
      }

      .cls-29 {
        fill: #8c7daf;
      }

      .cls-30 {
        fill: #8e7fb1;
      }

      .cls-31 {
        fill: #8d7eb0;
      }

      .cls-32 {
        fill: #8f80b3;
      }

      .cls-33 {
        fill: #8f80b2;
      }

      .cls-34 {
        fill: #8d7fb0;
      }

      .cls-35 {
        fill: #8c7eaf;
      }

      .cls-36 {
        fill: #8578a7;
      }

      .cls-37, .cls-38 {
        fill: #231f20;
      }

      .cls-39 {
        fill: #413955;
      }

      .cls-40 {
        fill: #45395f;
      }

      .cls-41 {
        fill: #9484b8;
      }

      .cls-42 {
        fill: #9484b7;
      }

      .cls-43 {
        fill: #9584b8;
      }

      .cls-44 {
        fill: #9585b9;
      }

      .cls-45 {
        fill: #9685ba;
      }

      .cls-46 {
        fill: #9686ba;
      }

      .cls-47 {
        fill: #8679a9;
      }

      .cls-48 {
        fill: #8679a8;
      }

      .cls-49 {
        fill: #9a89c1;
      }

      .cls-50 {
        fill: #9a89c0;
      }

      .cls-51 {
        fill: #887aaa;
      }

      .cls-52 {
        fill: #897cac;
      }

      .cls-53 {
        fill: #897bab;
      }

      .cls-54 {
        fill: #887bab;
      }

      .cls-55 {
        fill: #867aa9;
      }

      .cls-56 {
        fill: #8377a6;
      }

      .cls-57 {
        fill: url(#linear-gradient-8);
      }

      .cls-58 {
        fill: url(#linear-gradient-9);
      }

      .cls-59 {
        fill: url(#linear-gradient-3);
      }

      .cls-60 {
        fill: url(#linear-gradient-4);
      }

      .cls-61 {
        fill: url(#linear-gradient-2);
      }

      .cls-62 {
        fill: url(#linear-gradient-6);
      }

      .cls-63 {
        fill: url(#linear-gradient-7);
      }

      .cls-64 {
        fill: url(#linear-gradient-5);
      }

      .cls-65 {
        fill: url(#linear-gradient-14);
      }

      .cls-66 {
        fill: url(#linear-gradient-18);
      }

      .cls-67 {
        fill: url(#linear-gradient-22);
      }

      .cls-68 {
        fill: url(#linear-gradient-20);
      }

      .cls-69 {
        fill: url(#linear-gradient-21);
      }

      .cls-70 {
        fill: url(#linear-gradient-23);
      }

      .cls-71 {
        fill: url(#linear-gradient-15);
      }

      .cls-72 {
        fill: url(#linear-gradient-19);
      }

      .cls-73 {
        fill: url(#linear-gradient-16);
      }

      .cls-74 {
        fill: url(#linear-gradient-17);
      }

      .cls-75 {
        fill: url(#linear-gradient-13);
      }

      .cls-76 {
        fill: url(#linear-gradient-12);
      }

      .cls-77 {
        fill: url(#linear-gradient-10);
      }

      .cls-78 {
        fill: url(#linear-gradient-11);
      }

      .cls-79 {
        fill: url(#linear-gradient-27);
      }

      .cls-80 {
        fill: url(#linear-gradient-24);
      }

      .cls-81 {
        fill: url(#linear-gradient-26);
      }

      .cls-82 {
        fill: url(#linear-gradient-25);
      }

      .cls-83 {
        fill: url(#linear-gradient-28);
      }

      .cls-84 {
        fill: url(#linear-gradient-29);
      }

      .cls-85 {
        fill: url(#linear-gradient-30);
      }

      .cls-38 {
        opacity: .42;
      }
    </style>
    <linearGradient id="linear-gradient" x1="309.56" y1="-746.24" x2="317.51" y2="-746.24" gradientTransform="translate(-421.87 662.22) rotate(12.63)" gradientUnits="userSpaceOnUse">
      <stop offset="0" stop-color="#e4d63e"/>
      <stop offset=".99" stop-color="#a99b3d"/>
    </linearGradient>
    <linearGradient id="linear-gradient-2" x1="53.48" y1="4.82" x2="59" y2="4.82" gradientTransform="translate(-.02 9.43) rotate(-9.59)" xlink:href="#linear-gradient"/>
    <linearGradient id="linear-gradient-3" x1="61.93" y1="5.06" x2="69.97" y2="5.06" gradientTransform="translate(2.81 24.75) rotate(-21.71)" xlink:href="#linear-gradient"/>
    <linearGradient id="linear-gradient-4" x1="70.97" y1="11.07" x2="75.49" y2="11.07" gradientTransform="matrix(1, 0, 0, 1, 0, 0)" xlink:href="#linear-gradient"/>
    <linearGradient id="linear-gradient-5" x1="78.07" y1="15.05" x2="85.79" y2="15.05" gradientTransform="translate(11.71 59.87) rotate(-42.96)" xlink:href="#linear-gradient"/>
    <linearGradient id="linear-gradient-6" x1="84.72" y1="20.57" x2="94.1" y2="20.57" gradientTransform="translate(14.68 73.79) rotate(-48.41)" xlink:href="#linear-gradient"/>
    <linearGradient id="linear-gradient-7" x1="89.2" y1="30.59" x2="93.83" y2="30.59" gradientTransform="matrix(1, 0, 0, 1, 0, 0)" xlink:href="#linear-gradient"/>
    <linearGradient id="linear-gradient-8" x1="93.65" y1="39.95" x2="99.36" y2="39.95" gradientTransform="translate(38.51 126.82) rotate(-78.76)" xlink:href="#linear-gradient"/>
    <linearGradient id="linear-gradient-9" x1="93.71" y1="52.54" x2="96.45" y2="52.54" gradientTransform="translate(45.19 149.05) rotate(-91.59)" xlink:href="#linear-gradient"/>
    <linearGradient id="linear-gradient-10" x1="93.98" y1="61.92" x2="99.82" y2="61.92" gradientTransform="translate(58.3 170.23) rotate(-102.96)" xlink:href="#linear-gradient"/>
    <linearGradient id="linear-gradient-11" x1="89.24" y1="70.85" x2="93.51" y2="70.85" gradientTransform="translate(62.38 182.78) rotate(-113.27)" xlink:href="#linear-gradient"/>
    <linearGradient id="linear-gradient-12" x1="83.74" y1="80.95" x2="91.27" y2="80.95" gradientTransform="translate(85.16 200.13) rotate(-131.64)" xlink:href="#linear-gradient"/>
    <linearGradient id="linear-gradient-13" x1="75.98" y1="87.72" x2="81.07" y2="87.72" gradientTransform="matrix(1, 0, 0, 1, 0, 0)" xlink:href="#linear-gradient"/>
    <linearGradient id="linear-gradient-14" x1="66.15" y1="94.47" x2="74.19" y2="94.47" gradientTransform="translate(104.43 207.05) rotate(-160.32)" xlink:href="#linear-gradient"/>
    <linearGradient id="linear-gradient-15" x1="54.44" y1="98.44" x2="62.36" y2="98.44" gradientTransform="translate(97.16 206.15) rotate(-169.11)" xlink:href="#linear-gradient"/>
    <linearGradient id="linear-gradient-16" x1="45.99" y1="96.43" x2="50.71" y2="96.43" gradientTransform="translate(94.59 193.9) rotate(-178.75)" xlink:href="#linear-gradient"/>
    <linearGradient id="linear-gradient-17" x1="31.48" y1="97.01" x2="39.52" y2="97.01" gradientTransform="translate(104.71 173.71) rotate(158.03)" xlink:href="#linear-gradient"/>
    <linearGradient id="linear-gradient-18" x1="23.2" y1="91.35" x2="29.43" y2="91.35" gradientTransform="translate(100.02 151.38) rotate(145.24)" xlink:href="#linear-gradient"/>
    <linearGradient id="linear-gradient-19" x1="12.35" y1="85.85" x2="20.05" y2="85.85" gradientTransform="translate(86.98 137.08) rotate(136.58)" xlink:href="#linear-gradient"/>
    <linearGradient id="linear-gradient-20" x1="9.9" y1="77" x2="14.11" y2="77" gradientTransform="matrix(1, 0, 0, 1, 0, 0)" xlink:href="#linear-gradient"/>
    <linearGradient id="linear-gradient-21" x1=".24" y1="70.73" x2="8.18" y2="70.73" gradientTransform="translate(70.55 95.6) rotate(113.96)" xlink:href="#linear-gradient"/>
    <linearGradient id="linear-gradient-22" x1=".45" y1="61.29" x2="5.96" y2="61.29" gradientTransform="translate(64.28 67.28) rotate(98.6)" xlink:href="#linear-gradient"/>
    <linearGradient id="linear-gradient-23" x1="2.01" y1="51.52" x2="5.61" y2="51.52" gradientTransform="matrix(1, 0, 0, 1, 0, 0)" xlink:href="#linear-gradient"/>
    <linearGradient id="linear-gradient-24" x1="0" y1="41.38" x2="5.73" y2="41.38" gradientTransform="translate(42.85 30.34) rotate(78.52)" xlink:href="#linear-gradient"/>
    <linearGradient id="linear-gradient-25" x1="5.06" y1="32.04" x2="9.42" y2="32.04" gradientTransform="matrix(1, 0, 0, 1, 0, 0)" xlink:href="#linear-gradient"/>
    <linearGradient id="linear-gradient-26" x1="6.64" y1="23.15" x2="13.84" y2="23.15" gradientTransform="translate(23.6 1.65) rotate(55.73)" xlink:href="#linear-gradient"/>
    <linearGradient id="linear-gradient-27" x1="12.74" y1="15.4" x2="20.55" y2="15.4" gradientTransform="translate(13.82 -7.1) rotate(40.07)" xlink:href="#linear-gradient"/>
    <linearGradient id="linear-gradient-28" x1="21.67" y1="12.23" x2="26.94" y2="12.23" gradientTransform="translate(9.61 -10.67) rotate(30.61)" xlink:href="#linear-gradient"/>
    <linearGradient id="linear-gradient-29" x1="27.51" y1="5.81" x2="35.55" y2="5.81" gradientTransform="translate(5.72 -13.21) rotate(25.94)" xlink:href="#linear-gradient"/>
    <linearGradient id="linear-gradient-30" x1="36.69" y1="5.17" x2="42.25" y2="5.17" gradientTransform="translate(2.09 -8.5) rotate(12.63)" xlink:href="#linear-gradient"/>
  </defs>
  <g id="Layer_1-2" data-name="Layer 1">
    <g>
      <polygon class="cls-2" points="46.49 4.76 46.62 10.81 48.35 10.64 48.27 4.58 46.49 4.76"/>
      <rect class="cls-1" x="43.43" y=".19" width="7.61" height="4.79" rx="1.34" ry="1.34" transform="translate(-.06 3.8) rotate(-4.61)"/>
      <polygon class="cls-2" points="55.19 6.26 54.13 11.79 55.74 11.98 56.87 6.46 55.19 6.26"/>
      <rect class="cls-61" x="53.58" y="3.15" width="5.32" height="3.35" rx=".94" ry=".94" transform="translate(1.59 -9.3) rotate(9.59)"/>
      <polygon class="cls-2" points="63.66 6.55 61.22 12.66 63.38 13.48 65.91 7.39 63.66 6.55"/>
      <rect class="cls-59" x="62.14" y="2.67" width="7.61" height="4.79" rx="1.34" ry="1.34" transform="translate(6.55 -24.04) rotate(21.71)"/>
      <polygon class="cls-2" points="72.27 11.2 69.4 16.11 70.74 16.66 73.66 11.76 72.27 11.2"/>
      <path class="cls-60" d="M73.28,12.75l-1.54-.82c-.72-.38-.98-1.26-.59-1.96h0c.39-.7,1.3-.95,2.02-.57l1.54,.82c.72,.38,.98,1.26,.59,1.96h0c-.39,.7-1.3,.95-2.02,.57Z"/>
      <polygon class="cls-2" points="79.77 15.68 76.31 20.1 78.09 21.56 81.62 17.19 79.77 15.68"/>
      <rect class="cls-64" x="78.12" y="12.66" width="7.61" height="4.79" rx="1.34" ry="1.34" transform="translate(32.22 -51.79) rotate(42.96)"/>
      <polygon class="cls-2" points="86.55 20.76 81.08 25.74 83 27.88 88.55 22.98 86.55 20.76"/>
      <rect class="cls-62" x="84.67" y="17.59" width="9.48" height="5.96" rx="1.67" ry="1.67" transform="translate(45.45 -59.96) rotate(48.41)"/>
      <polygon class="cls-2" points="89.84 30.35 86.61 32.47 87.46 34.02 90.72 31.96 89.84 30.35"/>
      <path class="cls-63" d="M90.5,32.48l-1.06-1.89c-.5-.88-.21-2.03,.64-2.54h0c.85-.52,1.94-.22,2.44,.67l1.06,1.89c.5,.88,.21,2.03-.64,2.54h0c-.85,.52-1.94,.22-2.44-.67Z"/>
      <polygon class="cls-2" points="94.49 38.92 89.5 40.09 89.92 42.35 94.93 41.27 94.49 38.92"/>
      <rect class="cls-57" x="92.7" y="37.56" width="7.61" height="4.79" rx="1.34" ry="1.34" transform="translate(116.89 -62.49) rotate(78.76)"/>
      <polygon class="cls-2" points="94.12 51.74 91.26 51.75 91.21 53.03 94.06 53.06 94.12 51.74"/>
      <rect class="cls-58" x="92.96" y="51.21" width="4.23" height="2.66" rx=".75" ry=".75" transform="translate(150.24 -41.04) rotate(91.59)"/>
      <polygon class="cls-2" points="95.48 60.15 90.45 59.17 89.9 61.41 94.92 62.47 95.48 60.15"/>
      <rect class="cls-77" x="93.09" y="59.52" width="7.61" height="4.79" rx="1.34" ry="1.34" transform="translate(178.97 -18.62) rotate(102.96)"/>
      <polygon class="cls-2" points="90.68 69.56 87.57 68.35 86.96 69.71 90.05 70.98 90.68 69.56"/>
      <rect class="cls-78" x="88.9" y="69.3" width="4.95" height="3.11" rx=".87" ry=".87" transform="translate(192.56 14.9) rotate(113.27)"/>
      <polygon class="cls-2" points="87.11 78.72 83.17 75.44 81.62 77.14 85.51 80.49 87.11 78.72"/>
      <rect class="cls-76" x="83.7" y="78.55" width="7.61" height="4.79" rx="1.34" ry="1.34" transform="translate(206.15 69.34) rotate(131.64)"/>
      <polygon class="cls-2" points="78.61 85.99 76.38 82.85 75.01 83.86 77.2 87.03 78.61 85.99"/>
      <path class="cls-75" d="M76.7,86.85l1.66-1.26c.77-.59,1.85-.39,2.4,.43h0c.55,.82,.36,1.98-.41,2.56l-1.66,1.26c-.77,.59-1.85,.39-2.4-.43h0c-.55-.82-.36-1.98,.41-2.56Z"/>
      <polygon class="cls-2" points="70.89 92.33 69.01 87.56 66.83 88.31 68.63 93.1 70.89 92.33"/>
      <rect class="cls-65" x="66.36" y="92.08" width="7.61" height="4.79" rx="1.34" ry="1.34" transform="translate(168.05 159.79) rotate(160.32)"/>
      <polygon class="cls-2" points="59.44 96.44 58.31 91.43 56.04 91.84 57.09 96.86 59.44 96.44"/>
      <rect class="cls-71" x="54.6" y="96.05" width="7.61" height="4.79" rx="1.34" ry="1.34" transform="translate(134.35 184.08) rotate(169.11)"/>
      <polygon class="cls-2" points="49.19 95.32 49.02 92.16 47.6 92.17 47.72 95.34 49.19 95.32"/>
      <rect class="cls-73" x="46" y="94.96" width="4.7" height="2.96" rx=".83" ry=".83" transform="translate(98.79 191.8) rotate(178.75)"/>
      <polygon class="cls-2" points="37.46 95.89 39.22 91.08 37.1 90.19 35.26 94.98 37.46 95.89"/>
      <rect class="cls-74" x="31.69" y="94.62" width="7.61" height="4.79" rx="1.34" ry="1.34" transform="translate(32.14 200.27) rotate(-158.03)"/>
      <polygon class="cls-2" points="28.01 90.83 30.2 87.44 28.73 86.39 26.49 89.74 28.01 90.83"/>
      <rect class="cls-66" x="23.32" y="89.47" width="5.98" height="3.76" rx="1.05" ry="1.05" transform="translate(-4.15 181.39) rotate(-145.24)"/>
      <polygon class="cls-2" points="18.44 85.53 21.84 81.69 20.18 80.09 16.72 83.87 18.44 85.53"/>
      <rect class="cls-72" x="12.39" y="83.46" width="7.61" height="4.79" rx="1.34" ry="1.34" transform="translate(-31.05 159.35) rotate(-136.58)"/>
      <polygon class="cls-2" points="13.5 77.14 16.29 74.99 15.46 73.59 12.65 75.68 13.5 77.14"/>
      <path class="cls-68" d="M12.82,75.19l1.03,1.71c.48,.8,.28,1.88-.45,2.4h0c-.73,.53-1.72,.3-2.2-.5l-1.03-1.71c-.48-.8-.28-1.88,.45-2.4h0c.73-.53,1.72-.3,2.2,.5Z"/>
      <polygon class="cls-2" points="6.93 71.37 14.28 68.13 13.1 65.62 5.7 68.77 6.93 71.37"/>
      <rect class="cls-69" x="-.37" y="67.85" width="9.15" height="5.75" rx="1.61" ry="1.61" transform="translate(-58.72 103.29) rotate(-113.96)"/>
      <polygon class="cls-2" points="5.23 62.41 11.43 61.44 11.06 59.16 4.84 60.04 5.23 62.41"/>
      <rect class="cls-67" x="-.6" y="58.89" width="7.61" height="4.79" rx="1.34" ry="1.34" transform="translate(-56.91 73.62) rotate(-98.6)"/>
      <polygon class="cls-2" points="5.31 52.89 11.39 52.8 11.22 50.49 5.13 50.49 5.31 52.89"/>
      <path class="cls-70" d="M5.56,50.05l.06,2.83c.03,1.32-.75,2.42-1.72,2.46h0c-.97,.04-1.79-1.01-1.82-2.33l-.06-2.83c-.03-1.32,.75-2.42,1.72-2.46h0c.97-.04,1.79,1.01,1.82,2.33Z"/>
      <polygon class="cls-2" points="4.41 43.14 11.09 44.53 11.49 42.25 4.82 40.78 4.41 43.14"/>
      <rect class="cls-80" x="-.94" y="38.99" width="7.61" height="4.79" rx="1.34" ry="1.34" transform="translate(-38.26 35.95) rotate(-78.52)"/>
      <polygon class="cls-2" points="8.1 33.62 12.92 35.87 13.55 34.22 8.75 31.9 8.1 33.62"/>
      <path class="cls-82" d="M9.27,31.79l-.84,1.98c-.39,.92-1.44,1.35-2.32,.94h0c-.89-.41-1.29-1.5-.9-2.42l.84-1.98c.39-.92,1.44-1.35,2.32-.94h0c.89,.41,1.29,1.5,.9,2.42Z"/>
      <polygon class="cls-2" points="10.95 25.34 16.01 28.72 17.3 26.8 12.28 23.35 10.95 25.34"/>
      <rect class="cls-81" x="6.43" y="20.75" width="7.61" height="4.79" rx="1.34" ry="1.34" transform="translate(-14.65 18.57) rotate(-55.73)"/>
      <polygon class="cls-2" points="16.74 17.7 20.59 22.16 22.35 20.67 18.56 16.15 16.74 17.7"/>
      <rect class="cls-79" x="12.84" y="13.01" width="7.61" height="4.79" rx="1.34" ry="1.34" transform="translate(-6.01 14.33) rotate(-40.07)"/>
      <polygon class="cls-2" points="24.38 13.87 26.42 17.22 27.73 16.44 25.74 13.06 24.38 13.87"/>
      <rect class="cls-83" x="21.79" y="10.65" width="5.02" height="3.15" rx=".88" ry=".88" transform="translate(-2.84 14.08) rotate(-30.61)"/>
      <polygon class="cls-2" points="31.34 8.33 33.86 13.22 35.94 12.23 33.49 7.29 31.34 8.33"/>
      <rect class="cls-84" x="27.72" y="3.42" width="7.61" height="4.79" rx="1.34" ry="1.34" transform="translate(.63 14.38) rotate(-25.94)"/>
      <polygon class="cls-2" points="39.03 6.84 40.01 11.13 41.59 10.75 40.66 6.45 39.03 6.84"/>
      <rect class="cls-85" x="36.8" y="3.5" width="5.32" height="3.35" rx=".94" ry=".94" transform="translate(-.18 8.75) rotate(-12.63)"/>
      <g>
        <ellipse class="cls-56" cx="50.43" cy="52" rx="41.16" ry="41.83"/>
        <ellipse class="cls-17" cx="50.39" cy="51.96" rx="41.12" ry="41.79"/>
        <ellipse class="cls-16" cx="50.36" cy="51.91" rx="41.08" ry="41.75"/>
        <ellipse class="cls-36" cx="50.32" cy="51.87" rx="41.04" ry="41.71"/>
        <ellipse class="cls-19" cx="50.29" cy="51.83" rx="41" ry="41.67"/>
        <ellipse class="cls-18" cx="50.25" cy="51.78" rx="40.96" ry="41.63"/>
        <ellipse class="cls-48" cx="50.21" cy="51.74" rx="40.92" ry="41.58"/>
        <ellipse class="cls-47" cx="50.18" cy="51.7" rx="40.88" ry="41.54"/>
        <ellipse class="cls-55" cx="50.14" cy="51.65" rx="40.84" ry="41.5"/>
        <ellipse class="cls-21" cx="50.11" cy="51.61" rx="40.8" ry="41.46"/>
        <ellipse class="cls-20" cx="50.07" cy="51.57" rx="40.76" ry="41.42"/>
        <ellipse class="cls-51" cx="50.04" cy="51.52" rx="40.72" ry="41.38"/>
        <ellipse class="cls-54" cx="50" cy="51.48" rx="40.68" ry="41.34"/>
        <ellipse class="cls-54" cx="49.96" cy="51.44" rx="40.64" ry="41.3"/>
        <ellipse class="cls-53" cx="49.93" cy="51.39" rx="40.6" ry="41.26"/>
        <ellipse class="cls-52" cx="49.89" cy="51.35" rx="40.56" ry="41.22"/>
        <ellipse class="cls-52" cx="49.86" cy="51.31" rx="40.52" ry="41.18"/>
        <ellipse class="cls-22" cx="49.82" cy="51.26" rx="40.48" ry="41.14"/>
        <ellipse class="cls-22" cx="49.79" cy="51.22" rx="40.44" ry="41.1"/>
        <ellipse class="cls-13" cx="49.75" cy="51.18" rx="40.4" ry="41.05"/>
        <ellipse class="cls-12" cx="49.71" cy="51.13" rx="40.36" ry="41.01"/>
        <ellipse class="cls-12" cx="49.68" cy="51.09" rx="40.32" ry="40.97"/>
        <ellipse class="cls-29" cx="49.64" cy="51.05" rx="40.28" ry="40.93"/>
        <ellipse class="cls-35" cx="49.61" cy="51" rx="40.24" ry="40.89"/>
        <ellipse class="cls-35" cx="49.57" cy="50.96" rx="40.2" ry="40.85"/>
        <ellipse class="cls-31" cx="49.54" cy="50.92" rx="40.16" ry="40.81"/>
        <ellipse class="cls-34" cx="49.5" cy="50.87" rx="40.12" ry="40.77"/>
        <ellipse class="cls-30" cx="49.46" cy="50.83" rx="40.08" ry="40.73"/>
        <ellipse class="cls-30" cx="49.43" cy="50.79" rx="40.04" ry="40.69"/>
        <ellipse class="cls-30" cx="49.39" cy="50.74" rx="40" ry="40.65"/>
        <ellipse class="cls-33" cx="49.36" cy="50.7" rx="39.96" ry="40.61"/>
        <ellipse class="cls-33" cx="49.32" cy="50.66" rx="39.92" ry="40.57"/>
        <ellipse class="cls-32" cx="49.29" cy="50.61" rx="39.88" ry="40.53"/>
        <ellipse class="cls-23" cx="49.25" cy="50.57" rx="39.83" ry="40.48"/>
        <ellipse class="cls-23" cx="49.21" cy="50.53" rx="39.79" ry="40.44"/>
        <ellipse class="cls-27" cx="49.18" cy="50.48" rx="39.75" ry="40.4"/>
        <ellipse class="cls-27" cx="49.14" cy="50.44" rx="39.71" ry="40.36"/>
        <ellipse class="cls-25" cx="49.11" cy="50.4" rx="39.67" ry="40.32"/>
        <ellipse class="cls-14" cx="49.07" cy="50.35" rx="39.63" ry="40.28"/>
        <ellipse class="cls-14" cx="49.04" cy="50.31" rx="39.59" ry="40.24"/>
        <ellipse class="cls-15" cx="49" cy="50.27" rx="39.55" ry="40.2"/>
        <ellipse class="cls-24" cx="48.96" cy="50.22" rx="39.51" ry="40.16"/>
        <ellipse class="cls-26" cx="48.93" cy="50.18" rx="39.47" ry="40.12"/>
        <ellipse class="cls-42" cx="48.89" cy="50.14" rx="39.43" ry="40.08"/>
        <ellipse class="cls-41" cx="48.86" cy="50.09" rx="39.39" ry="40.04"/>
        <ellipse class="cls-41" cx="48.82" cy="50.05" rx="39.35" ry="40"/>
        <ellipse class="cls-43" cx="48.79" cy="50" rx="39.31" ry="39.95"/>
        <ellipse class="cls-44" cx="48.75" cy="49.96" rx="39.27" ry="39.91"/>
        <ellipse class="cls-44" cx="48.71" cy="49.92" rx="39.23" ry="39.87"/>
        <ellipse class="cls-45" cx="48.68" cy="49.87" rx="39.19" ry="39.83"/>
        <ellipse class="cls-46" cx="48.64" cy="49.83" rx="39.15" ry="39.79"/>
        <ellipse class="cls-11" cx="48.61" cy="49.79" rx="39.11" ry="39.75"/>
        <ellipse class="cls-11" cx="48.57" cy="49.74" rx="39.07" ry="39.71"/>
        <ellipse class="cls-4" cx="48.53" cy="49.7" rx="39.03" ry="39.67"/>
        <ellipse class="cls-8" cx="48.5" cy="49.66" rx="38.99" ry="39.63"/>
        <ellipse class="cls-9" cx="48.46" cy="49.61" rx="38.95" ry="39.59"/>
        <ellipse class="cls-10" cx="48.43" cy="49.57" rx="38.91" ry="39.55"/>
        <ellipse class="cls-6" cx="48.39" cy="49.53" rx="38.87" ry="39.51"/>
        <ellipse class="cls-5" cx="48.36" cy="49.48" rx="38.83" ry="39.47"/>
        <ellipse class="cls-7" cx="48.32" cy="49.44" rx="38.79" ry="39.42"/>
        <ellipse class="cls-50" cx="48.28" cy="49.4" rx="38.75" ry="39.38"/>
        <ellipse class="cls-49" cx="48.25" cy="49.35" rx="38.71" ry="39.34"/>
      </g>
      <g>
        <path class="cls-3" d="M43.08,46.88c1.69,3.15-3.66,6.47-8.17,6.47s-8.17-2.89-8.17-6.47c0-2.68,2.06-4.98,4.99-5.96,.98-.33,9.33,3.49,10.12,4.3,.68,.7-.52-1.59,1.23,1.66Z"/>
        <path class="cls-39" d="M34.91,53.58c-4.63,0-8.39-3-8.39-6.69,0-2.7,2.02-5.13,5.14-6.17,1.09-.37,8.89,3.23,10.22,4.24,.02-.03,.06-.07,.12-.08q.22-.07,1.28,1.91c.5,.94,.46,1.96-.14,2.95-1.27,2.12-4.96,3.85-8.23,3.85Zm-3.03-12.44s-.05,0-.07,0c-2.94,.98-4.83,3.24-4.83,5.74,0,3.44,3.56,6.24,7.94,6.24,3.13,0,6.64-1.63,7.84-3.63,.51-.86,.56-1.7,.13-2.5-.32-.6-.59-1.1-.76-1.41-.18,.05-.34-.12-.43-.2-1.05-1.08-8.81-4.25-9.81-4.25Z"/>
      </g>
      <g>
        <path class="cls-28" d="M39.78,47.73c1.25,.58-2.12,2.26-4.64,2.19-2.52-.08-4.54-1.18-4.5-2.47,.03-.96,1.21-1.76,2.86-2.06,.55-.1,5.83,1.93,6.28,2.34,.45,.42-2.03-.95,0,0Z"/>
        <path class="cls-39" d="M35.3,50.14c-.06,0-.11,0-.17,0-1.26-.04-2.43-.33-3.31-.81-.93-.51-1.43-1.18-1.4-1.89,.03-1.05,1.23-1.94,3.04-2.28,.66-.1,5.8,1.88,6.44,2.37,.41,.21,.39,.52,.36,.64-.21,.9-2.94,1.97-4.96,1.97Zm-1.74-4.54s-.02,0-.02,0c-1.57,.29-2.64,1.03-2.67,1.84-.02,.53,.4,1.06,1.17,1.48,.82,.45,1.92,.72,3.11,.75,2.07,.06,4.54-1.08,4.67-1.62,0,0,0-.02,0-.04-.28,0-.72-.27-.93-.41-.09-.06-.12-.12-.14-.17-1.59-.71-4.69-1.83-5.18-1.83Z"/>
      </g>
      <g>
        <path d="M22,35.2s25.32,19.61,22.42,8.84"/>
        <path class="cls-37" d="M21.9,35.3c.84,.65,1.7,1.29,2.56,1.92,1.97,1.45,3.98,2.85,6.02,4.2,2.26,1.49,4.56,2.93,6.98,4.16,1,.51,2.03,.98,3.09,1.35,.77,.26,1.59,.5,2.41,.48,.57-.01,1.16-.18,1.5-.66,.41-.58,.36-1.36,.25-2.02-.04-.25-.1-.49-.16-.73-.05-.18-.33-.1-.28,.08,.19,.7,.38,1.57,.08,2.27-.21,.5-.7,.72-1.22,.76-.76,.06-1.54-.15-2.26-.38-1.03-.33-2.01-.78-2.98-1.25-2.35-1.16-4.59-2.55-6.78-3.98-2.05-1.34-4.05-2.73-6.03-4.17-1-.73-1.98-1.5-2.99-2.22-.04-.03-.02-.01-.02-.02-.15-.11-.35,.09-.21,.21h0Z"/>
      </g>
      <g>
        <path class="cls-40" d="M37.64,47.29c.67,.31-1.14,1.22-2.49,1.18s-2.44-.64-2.42-1.33c.02-.52,.65-.94,1.54-1.11,.3-.05,3.14,1.04,3.38,1.26,.24,.22-1.09-.51,0,0Z"/>
        <path class="cls-39" d="M35.22,48.7s-.06,0-.09,0c-1.5-.05-2.66-.73-2.64-1.56,.02-.63,.68-1.13,1.72-1.32,.4-.07,3.1,1,3.53,1.29,.3,.15,.27,.39,.25,.46-.14,.57-1.71,1.14-2.78,1.14Zm-.93-2.44h0c-.77,.14-1.32,.51-1.33,.89-.02,.48,.88,1.05,2.2,1.09,.97,.03,2.07-.44,2.35-.71-.1-.03-.23-.1-.4-.21l-.18-.12v-.02c-.85-.37-2.39-.93-2.63-.93Z"/>
      </g>
      <path class="cls-3" d="M32.74,46.26s.66,.62,.94,.66,1.39-.44-.22-1.16-.73,.5-.73,.5Z"/>
      <g>
        <path class="cls-3" d="M56.17,46.24c-1.69,3.15,3.66,6.47,8.17,6.47,4.51,0,8.17-2.89,8.17-6.47,0-2.68-2.06-4.98-4.99-5.96-.98-.33-9.33,3.49-10.12,4.3-.68,.7,.52-1.59-1.23,1.66Z"/>
        <path class="cls-39" d="M64.33,52.93c-3.27,0-6.96-1.73-8.23-3.85-.59-.99-.64-2.01-.14-2.95h0q1.07-1.98,1.28-1.91c.05,.02,.09,.05,.12,.08,1.33-1.01,9.14-4.61,10.22-4.24,3.12,1.05,5.14,3.47,5.14,6.17,0,3.69-3.77,6.69-8.39,6.69Zm-7.2-7.99c-.17,.31-.44,.81-.76,1.41h0c-.43,.8-.39,1.64,.13,2.5,1.2,2,4.71,3.63,7.84,3.63,4.38,0,7.94-2.8,7.94-6.24,0-2.5-1.9-4.76-4.83-5.74-.6-.2-8.8,3.13-9.88,4.24-.08,.08-.25,.25-.43,.2Z"/>
      </g>
      <g>
        <path class="cls-28" d="M59.47,47.08c-1.25,.58,2.12,2.26,4.64,2.19,2.52-.08,4.54-1.18,4.5-2.47-.03-.96-1.21-1.76-2.86-2.06-.55-.1-5.83,1.93-6.28,2.34-.45,.42,2.03-.95,0,0Z"/>
        <path class="cls-39" d="M63.94,49.5c-2.02,0-4.74-1.07-4.96-1.97-.03-.13-.05-.44,.36-.64,.64-.49,5.79-2.48,6.44-2.37,1.82,.33,3.01,1.23,3.04,2.28,.04,1.43-2.03,2.62-4.72,2.71-.06,0-.11,0-.17,0Zm-4.51-2.12s0,.04,0,.04c.13,.54,2.6,1.68,4.67,1.62,2.35-.07,4.31-1.1,4.27-2.23-.03-.81-1.1-1.55-2.67-1.84-.39-.05-3.6,1.12-5.2,1.83-.01,.06-.05,.12-.14,.18-.21,.14-.65,.41-.93,.41Z"/>
      </g>
      <g>
        <path d="M77.43,34.74s-25.32,19.61-22.42,8.84"/>
        <path class="cls-37" d="M77.33,34.63s.03-.02-.02,.02-.09,.07-.13,.1c-.17,.13-.33,.25-.5,.38-.59,.45-1.19,.89-1.78,1.33-1.9,1.39-3.82,2.75-5.78,4.05-2.21,1.47-4.46,2.88-6.81,4.12-1,.52-2.02,1.02-3.08,1.41-.79,.3-1.62,.57-2.47,.62-.53,.03-1.14-.03-1.5-.46-.42-.5-.36-1.26-.27-1.85,.04-.25,.1-.49,.16-.73,.05-.18-.23-.26-.28-.08-.33,1.23-.5,3.07,1.13,3.37,.73,.13,1.51-.03,2.21-.23,1.02-.29,2-.71,2.96-1.16,2.41-1.15,4.69-2.55,6.93-3.99s4.22-2.83,6.28-4.32c.7-.51,1.4-1.02,2.09-1.55,.33-.25,.69-.48,1-.76,.02-.02,.05-.03,.07-.05,.15-.11-.06-.32-.21-.21h0Z"/>
      </g>
      <g>
        <path class="cls-40" d="M61.61,46.65c-.67,.31,1.14,1.22,2.49,1.18,1.36-.04,2.44-.64,2.42-1.33-.02-.52-.65-.94-1.54-1.11-.3-.05-3.14,1.04-3.38,1.26-.24,.22,1.09-.51,0,0Z"/>
        <path class="cls-39" d="M64.02,48.05c-1.06,0-2.64-.57-2.78-1.14-.02-.07-.05-.32,.25-.46,.43-.28,3.13-1.35,3.53-1.29,1.04,.19,1.7,.7,1.72,1.32,.01,.42-.27,.82-.81,1.11-.49,.27-1.14,.43-1.83,.45-.03,0-.06,0-.09,0Zm-2.27-1.17c.27,.27,1.37,.74,2.35,.71,.62-.02,1.2-.16,1.62-.39,.37-.2,.58-.46,.57-.7-.01-.38-.57-.75-1.35-.89-.23,0-1.74,.55-2.6,.92h0s-.2,.15-.2,.15c-.17,.11-.3,.18-.4,.21Z"/>
      </g>
      <path class="cls-3" d="M66.51,45.61s-.66,.62-.94,.66-1.39-.44,.22-1.16,.73,.5,.73,.5Z"/>
      <path class="cls-38" d="M45.15,42.18c.36,.34,.75,.7,.93,1.17,.15,.41,.12,.92-.22,1.23-.07,.06,.03,.17,.1,.1,.36-.33,.42-.86,.28-1.3-.17-.53-.59-.93-.99-1.3-.07-.06-.17,.04-.1,.1h0Z"/>
      <path class="cls-38" d="M53.82,41.99c-.4,.37-.82,.77-.99,1.3-.14,.44-.08,.98,.28,1.3,.07,.06,.17-.04,.1-.1-.34-.31-.37-.82-.22-1.23,.18-.47,.57-.83,.93-1.17,.07-.06-.03-.17-.1-.1h0Z"/>
      <path class="cls-37" d="M65.34,56.9c-5.13,2.22-10.77,3.12-16.36,3.48-5.03,.32-10.11,0-15.05-1-.4-.08-.72,.3-.58,.68,1.04,2.7,4.75,8.61,8.17,10.23,3.76,1.77,7.08,1.56,10.77,1.24,3.9-.34,7.23-2.91,8.33-3.73,6.97-5.15,9-12.74,4.7-10.89Z"/>
      <path class="cls-3" d="M39.28,60.24s1.16,4.3,2.06,5.25l.89,.94s-.51-5.91,.42-6.01c0,0-1.53-.08-1.59-.08s-1.26-.11-1.26-.11l-.53-.06v.07Z"/>
      <path class="cls-3" d="M59.74,58.8s-.58,4.92-1.41,6.1l-.83,1.18s-.4-6.58-1.43-6.55c0,0,1.67-.34,1.74-.35s1.36-.26,1.36-.26l.58-.13h0Z"/>
    </g>
  </g>
</svg>