<?xml version="1.0" encoding="UTF-8"?>
<svg id="Layer_2" data-name="Layer 2" xmlns="http://www.w3.org/2000/svg" xmlns:xlink="http://www.w3.org/1999/xlink" viewBox="0 0 296.98 318.57">
  <defs>
    <style>
      .cls-1 {
        fill: url(#linear-gradient);
      }

      .cls-2 {
        fill: #e4d63e;
      }

      .cls-3, .cls-4 {
        fill: #fff;
      }

      .cls-5 {
        fill: #9787bc;
      }

      .cls-6 {
        fill: #9988bf;
      }

      .cls-7 {
        fill: #9988be;
      }

      .cls-8 {
        fill: #9989bf;
      }

      .cls-9 {
        fill: #9887bc;
      }

      .cls-10 {
        fill: #9887bd;
      }

      .cls-11 {
        fill: #9888bd;
      }

      .cls-12 {
        fill: #9786bb;
      }

      .cls-13 {
        fill: #8b7dae;
      }

      .cls-14 {
        fill: #8b7dad;
      }

      .cls-15 {
        fill: #9282b5;
      }

      .cls-16 {
        fill: #9283b6;
      }

      .cls-17 {
        fill: #8478a7;
      }

      .cls-18 {
        fill: #8478a6;
      }

      .cls-19 {
        fill: #8579a8;
      }

      .cls-20 {
        fill: #8578a8;
      }

      .cls-21 {
        fill: #877aaa;
      }

      .cls-22 {
        fill: #877aa9;
      }

      .cls-23 {
        fill: #8a7cad;
      }

      .cls-24 {
        fill: #9081b3;
      }

      .cls-25 {
        fill: #9383b6;
      }

      .cls-26 {
        fill: #9182b5;
      }

      .cls-27 {
        fill: #9383b7;
      }

      .cls-28 {
        fill: #9181b4;
      }

      .cls-29 {
        fill: #8c7daf;
      }

      .cls-30 {
        fill: #8e7fb1;
      }

      .cls-31 {
        fill: #8d7eb0;
      }

      .cls-32 {
        fill: #8f80b3;
      }

      .cls-33 {
        fill: #8f80b2;
      }

      .cls-34 {
        fill: #8d7fb0;
      }

      .cls-35 {
        fill: #8c7eaf;
      }

      .cls-36 {
        fill: #8578a7;
      }

      .cls-37 {
        fill: #231f20;
      }

      .cls-38 {
        fill: #9484b8;
      }

      .cls-39 {
        fill: #9484b7;
      }

      .cls-40 {
        fill: #9584b8;
      }

      .cls-41 {
        fill: #9585b9;
      }

      .cls-42 {
        fill: #9685ba;
      }

      .cls-43 {
        fill: #9686ba;
      }

      .cls-44 {
        fill: #8679a9;
      }

      .cls-45 {
        fill: #8679a8;
      }

      .cls-46 {
        fill: #9a89c1;
      }

      .cls-47 {
        fill: #9a89c0;
      }

      .cls-48 {
        fill: #887aaa;
      }

      .cls-49 {
        fill: #897cac;
      }

      .cls-50 {
        fill: #897bab;
      }

      .cls-51 {
        fill: #887bab;
      }

      .cls-52 {
        fill: #867aa9;
      }

      .cls-53 {
        fill: #8377a6;
      }

      .cls-4, .cls-54, .cls-55 {
        stroke: #413955;
        stroke-miterlimit: 10;
      }

      .cls-54 {
        fill: #73649e;
      }

      .cls-55 {
        fill: #45395f;
      }

      .cls-56 {
        fill: url(#linear-gradient-8);
      }

      .cls-57 {
        fill: url(#linear-gradient-9);
      }

      .cls-58 {
        fill: url(#linear-gradient-3);
      }

      .cls-59 {
        fill: url(#linear-gradient-4);
      }

      .cls-60 {
        fill: url(#linear-gradient-2);
      }

      .cls-61 {
        fill: url(#linear-gradient-6);
      }

      .cls-62 {
        fill: url(#linear-gradient-7);
      }

      .cls-63 {
        fill: url(#linear-gradient-5);
      }

      .cls-64 {
        opacity: .42;
      }

      .cls-65 {
        fill: url(#linear-gradient-14);
      }

      .cls-66 {
        fill: url(#linear-gradient-18);
      }

      .cls-67 {
        fill: url(#linear-gradient-22);
      }

      .cls-68 {
        fill: url(#linear-gradient-20);
      }

      .cls-69 {
        fill: url(#linear-gradient-21);
      }

      .cls-70 {
        fill: url(#linear-gradient-23);
      }

      .cls-71 {
        fill: url(#linear-gradient-15);
      }

      .cls-72 {
        fill: url(#linear-gradient-19);
      }

      .cls-73 {
        fill: url(#linear-gradient-16);
      }

      .cls-74 {
        fill: url(#linear-gradient-17);
      }

      .cls-75 {
        fill: url(#linear-gradient-13);
      }

      .cls-76 {
        fill: url(#linear-gradient-12);
      }

      .cls-77 {
        fill: url(#linear-gradient-10);
      }

      .cls-78 {
        fill: url(#linear-gradient-11);
      }

      .cls-79 {
        fill: url(#linear-gradient-27);
      }

      .cls-80 {
        fill: url(#linear-gradient-24);
      }

      .cls-81 {
        fill: url(#linear-gradient-26);
      }

      .cls-82 {
        fill: url(#linear-gradient-25);
      }

      .cls-83 {
        fill: url(#linear-gradient-28);
      }

      .cls-84 {
        fill: url(#linear-gradient-29);
      }

      .cls-85 {
        fill: url(#linear-gradient-30);
      }
    </style>
    <linearGradient id="linear-gradient" x1="128.74" y1="7.64" x2="152.34" y2="7.64" gradientTransform="translate(5.08 -30.49) rotate(12.63)" gradientUnits="userSpaceOnUse">
      <stop offset="0" stop-color="#e4d63e"/>
      <stop offset=".99" stop-color="#a99b3d"/>
    </linearGradient>
    <linearGradient id="linear-gradient-2" x1="159.17" y1="14.33" x2="175.53" y2="14.33" gradientTransform="translate(-.05 28.07) rotate(-9.59)" xlink:href="#linear-gradient"/>
    <linearGradient id="linear-gradient-3" x1="184.35" y1="15.05" x2="208.12" y2="15.05" gradientTransform="translate(8.35 73.66) rotate(-21.71)" xlink:href="#linear-gradient"/>
    <linearGradient id="linear-gradient-4" x1="211.18" y1="32.94" x2="224.62" y2="32.94" gradientTransform="matrix(1, 0, 0, 1, 0, 0)" xlink:href="#linear-gradient"/>
    <linearGradient id="linear-gradient-5" x1="232.43" y1="44.79" x2="255.18" y2="44.79" gradientTransform="translate(34.85 178.14) rotate(-42.96)" xlink:href="#linear-gradient"/>
    <linearGradient id="linear-gradient-6" x1="252.26" y1="61.22" x2="279.87" y2="61.22" gradientTransform="translate(43.68 219.59) rotate(-48.41)" xlink:href="#linear-gradient"/>
    <linearGradient id="linear-gradient-7" x1="265.43" y1="91.04" x2="279.21" y2="91.04" gradientTransform="matrix(1, 0, 0, 1, 0, 0)" xlink:href="#linear-gradient"/>
    <linearGradient id="linear-gradient-8" x1="278.74" y1="118.9" x2="295.63" y2="118.9" gradientTransform="translate(114.6 377.41) rotate(-78.76)" xlink:href="#linear-gradient"/>
    <linearGradient id="linear-gradient-9" x1="278.87" y1="156.38" x2="287.01" y2="156.38" gradientTransform="translate(134.48 443.55) rotate(-91.59)" xlink:href="#linear-gradient"/>
    <linearGradient id="linear-gradient-10" x1="279.71" y1="184.27" x2="296.98" y2="184.27" gradientTransform="translate(173.46 506.61) rotate(-102.96)" xlink:href="#linear-gradient"/>
    <linearGradient id="linear-gradient-11" x1="265.62" y1="210.87" x2="278.2" y2="210.87" gradientTransform="translate(185.61 543.96) rotate(-113.27)" xlink:href="#linear-gradient"/>
    <linearGradient id="linear-gradient-12" x1="249.31" y1="240.91" x2="271.49" y2="240.91" gradientTransform="translate(253.4 595.59) rotate(-131.64)" xlink:href="#linear-gradient"/>
    <linearGradient id="linear-gradient-13" x1="226.09" y1="261.07" x2="241.24" y2="261.07" gradientTransform="matrix(1, 0, 0, 1, 0, 0)" xlink:href="#linear-gradient"/>
    <linearGradient id="linear-gradient-14" x1="196.92" y1="281.16" x2="220.67" y2="281.16" gradientTransform="translate(310.73 616.2) rotate(-160.32)" xlink:href="#linear-gradient"/>
    <linearGradient id="linear-gradient-15" x1="162.03" y1="292.98" x2="185.52" y2="292.98" gradientTransform="translate(289.08 613.52) rotate(-169.11)" xlink:href="#linear-gradient"/>
    <linearGradient id="linear-gradient-16" x1="136.82" y1="287.01" x2="150.89" y2="287.01" gradientTransform="translate(281.44 577.07) rotate(-178.75)" xlink:href="#linear-gradient"/>
    <linearGradient id="linear-gradient-17" x1="94.29" y1="288.73" x2="116.93" y2="288.73" gradientTransform="translate(311.56 517) rotate(158.03)" xlink:href="#linear-gradient"/>
    <linearGradient id="linear-gradient-18" x1="69.09" y1="271.86" x2="87.46" y2="271.86" gradientTransform="translate(297.59 450.56) rotate(145.24)" xlink:href="#linear-gradient"/>
    <linearGradient id="linear-gradient-19" x1="36.81" y1="255.52" x2="59.52" y2="255.52" gradientTransform="translate(258.78 408) rotate(136.58)" xlink:href="#linear-gradient"/>
    <linearGradient id="linear-gradient-20" x1="29.42" y1="229.16" x2="41.95" y2="229.16" gradientTransform="matrix(1, 0, 0, 1, 0, 0)" xlink:href="#linear-gradient"/>
    <linearGradient id="linear-gradient-21" x1="1.52" y1="210.49" x2="23.43" y2="210.49" gradientTransform="translate(209.89 284.57) rotate(113.96)" xlink:href="#linear-gradient"/>
    <linearGradient id="linear-gradient-22" x1="1.34" y1="182.4" x2="17.64" y2="182.4" gradientTransform="translate(191.25 200.28) rotate(98.6)" xlink:href="#linear-gradient"/>
    <linearGradient id="linear-gradient-23" x1="5.94" y1="153.34" x2="16.66" y2="153.34" gradientTransform="matrix(1, 0, 0, 1, 0, 0)" xlink:href="#linear-gradient"/>
    <linearGradient id="linear-gradient-24" x1="0" y1="123.15" x2="16.94" y2="123.15" gradientTransform="translate(127.47 90.33) rotate(78.52)" xlink:href="#linear-gradient"/>
    <linearGradient id="linear-gradient-25" x1="15.02" y1="95.34" x2="28" y2="95.34" gradientTransform="matrix(1, 0, 0, 1, 0, 0)" xlink:href="#linear-gradient"/>
    <linearGradient id="linear-gradient-26" x1="19.82" y1="68.87" x2="41.02" y2="68.87" gradientTransform="translate(70.21 4.95) rotate(55.73)" xlink:href="#linear-gradient"/>
    <linearGradient id="linear-gradient-27" x1="37.99" y1="45.83" x2="61" y2="45.83" gradientTransform="translate(41.12 -21.1) rotate(40.07)" xlink:href="#linear-gradient"/>
    <linearGradient id="linear-gradient-28" x1="64.51" y1="36.39" x2="80.06" y2="36.39" gradientTransform="translate(28.6 -31.73) rotate(30.61)" xlink:href="#linear-gradient"/>
    <linearGradient id="linear-gradient-29" x1="81.92" y1="17.28" x2="105.65" y2="17.28" gradientTransform="translate(17.01 -39.29) rotate(25.94)" xlink:href="#linear-gradient"/>
    <linearGradient id="linear-gradient-30" x1="109.18" y1="15.37" x2="125.65" y2="15.37" gradientTransform="translate(6.2 -25.3) rotate(12.63)" xlink:href="#linear-gradient"/>
  </defs>
  <g id="bacteria">
    <polygon class="cls-2" points="138.31 14.15 138.71 32.15 143.84 31.65 143.63 13.62 138.31 14.15"/>
    <rect class="cls-1" x="129.22" y=".56" width="22.66" height="14.25" rx="4.19" ry="4.19" transform="translate(-.16 11.31) rotate(-4.61)"/>
    <polygon class="cls-2" points="164.23 18.63 161.05 35.08 165.85 35.65 169.21 19.21 164.23 18.63"/>
    <rect class="cls-60" x="159.43" y="9.35" width="15.84" height="9.96" rx="2.99" ry="2.99" transform="translate(4.72 -27.67) rotate(9.59)"/>
    <polygon class="cls-2" points="189.43 19.48 182.16 37.68 188.6 40.11 196.11 21.98 189.43 19.48"/>
    <rect class="cls-58" x="184.91" y="7.93" width="22.66" height="14.25" rx="4.27" ry="4.27" transform="translate(19.49 -71.52) rotate(21.71)"/>
    <polygon class="cls-2" points="215.04 33.31 206.52 47.94 210.51 49.57 219.18 34.99 215.04 33.31"/>
    <path class="cls-59" d="M218.07,37.92l-4.59-2.43c-2.14-1.13-2.93-3.75-1.76-5.82h0c1.17-2.07,3.87-2.84,6.01-1.71l4.59,2.43c2.14,1.13,2.93,3.75,1.76,5.82h0c-1.17,2.07-3.87,2.84-6.01,1.71Z"/>
    <polygon class="cls-2" points="237.38 46.64 227.06 59.81 232.38 64.16 242.89 51.14 237.38 46.64"/>
    <rect class="cls-63" x="232.47" y="37.67" width="22.66" height="14.25" rx="4.27" ry="4.27" transform="translate(95.89 -154.12) rotate(42.96)"/>
    <polygon class="cls-2" points="257.57 61.79 241.27 76.59 246.98 82.97 263.49 68.39 257.57 61.79"/>
    <rect class="cls-61" x="251.95" y="52.35" width="28.23" height="17.75" rx="5.32" ry="5.32" transform="translate(135.26 -178.42) rotate(48.41)"/>
    <polygon class="cls-2" points="267.35 90.31 257.73 96.63 260.25 101.25 269.97 95.1 267.35 90.31"/>
    <path class="cls-62" d="M269.32,96.65l-3.17-5.64c-1.47-2.62-.62-6.03,1.9-7.56h0c2.52-1.54,5.79-.65,7.26,1.98l3.17,5.64c1.47,2.62,.62,6.03-1.9,7.56h0c-2.52,1.54-5.79,.65-7.26-1.98Z"/>
    <polygon class="cls-2" points="281.19 115.84 266.33 119.3 267.58 126.05 282.5 122.82 281.19 115.84"/>
    <rect class="cls-56" x="275.85" y="111.78" width="22.66" height="14.25" rx="4.27" ry="4.27" transform="translate(347.84 -185.95) rotate(78.76)"/>
    <polygon class="cls-2" points="280.07 153.97 271.58 154.02 271.43 157.83 279.92 157.92 280.07 153.97"/>
    <rect class="cls-57" x="276.64" y="152.41" width="12.6" height="7.92" rx="2.38" ry="2.38" transform="translate(447.11 -122.12) rotate(91.59)"/>
    <polygon class="cls-2" points="284.14 179.02 269.16 176.09 267.54 182.75 282.46 185.93 284.14 179.02"/>
    <rect class="cls-77" x="277.02" y="177.15" width="22.66" height="14.25" rx="4.27" ry="4.27" transform="translate(532.61 -55.39) rotate(102.96)"/>
    <polygon class="cls-2" points="269.83 207.02 260.6 203.41 258.78 207.48 267.96 211.24 269.83 207.02"/>
    <rect class="cls-78" x="264.55" y="206.24" width="14.72" height="9.26" rx="2.78" ry="2.78" transform="translate(573.04 44.37) rotate(113.27)"/>
    <polygon class="cls-2" points="259.23 234.29 247.49 224.53 242.87 229.59 254.44 239.54 259.23 234.29"/>
    <rect class="cls-76" x="249.07" y="233.79" width="22.66" height="14.25" rx="4.27" ry="4.27" transform="translate(613.47 206.4) rotate(131.64)"/>
    <polygon class="cls-2" points="233.91 255.91 227.27 246.57 223.22 249.57 229.72 259.02 233.91 255.91"/>
    <path class="cls-75" d="M228.24,258.48l4.93-3.75c2.3-1.74,5.51-1.16,7.14,1.29h0c1.63,2.46,1.09,5.89-1.21,7.63l-4.93,3.75c-2.3,1.74-5.51,1.16-7.14-1.29h0c-1.63-2.46-1.09-5.89,1.21-7.63Z"/>
    <polygon class="cls-2" points="210.95 274.78 205.33 260.59 198.85 262.81 204.23 277.09 210.95 274.78"/>
    <rect class="cls-65" x="197.46" y="274.03" width="22.66" height="14.25" rx="4.27" ry="4.27" transform="translate(500.07 475.59) rotate(160.32)"/>
    <polygon class="cls-2" points="176.88 287.01 173.5 272.13 166.75 273.33 169.88 288.27 176.88 287.01"/>
    <rect class="cls-71" x="162.45" y="285.86" width="22.66" height="14.25" rx="4.27" ry="4.27" transform="translate(399.77 547.86) rotate(169.11)"/>
    <polygon class="cls-2" points="146.36 283.69 145.85 274.28 141.61 274.32 141.97 283.74 146.36 283.69"/>
    <rect class="cls-73" x="136.86" y="282.61" width="13.99" height="8.8" rx="2.64" ry="2.64" transform="translate(293.92 570.82) rotate(178.75)"/>
    <polygon class="cls-2" points="111.46 285.4 116.69 271.06 110.37 268.42 104.9 282.66 111.46 285.4"/>
    <rect class="cls-74" x="94.28" y="281.61" width="22.66" height="14.25" rx="6.14" ry="6.14" transform="translate(95.56 596.01) rotate(-158.03)"/>
    <polygon class="cls-2" points="83.33 270.32 89.84 260.25 85.45 257.12 78.78 267.09 83.33 270.32"/>
    <rect class="cls-66" x="69.37" y="266.26" width="17.8" height="11.19" rx="3.36" ry="3.36" transform="translate(-12.44 539.83) rotate(-145.24)"/>
    <polygon class="cls-2" points="54.83 254.55 64.95 243.12 60.03 238.35 49.72 249.61 54.83 254.55"/>
    <rect class="cls-72" x="36.84" y="248.39" width="22.66" height="14.25" rx="4.27" ry="4.27" transform="translate(-92.48 474.21) rotate(-136.58)"/>
    <polygon class="cls-2" points="40.14 229.59 48.42 223.19 45.97 219.01 37.59 225.25 40.14 229.59"/>
    <path class="cls-68" d="M38.1,223.77l3.08,5.1c1.43,2.37,.82,5.59-1.35,7.16h0c-2.17,1.56-5.13,.9-6.56-1.47l-3.08-5.1c-1.43-2.37-.82-5.59,1.35-7.16h0c2.17-1.56,5.13-.9,6.56,1.47Z"/>
    <polygon class="cls-2" points="20.58 212.41 42.45 202.77 38.94 195.29 16.93 204.66 20.58 212.41"/>
    <rect class="cls-69" x="-1.14" y="201.94" width="27.22" height="17.11" rx="7.46" ry="7.46" transform="translate(-174.81 307.37) rotate(-113.96)"/>
    <polygon class="cls-2" points="15.51 185.73 33.97 182.85 32.86 176.06 14.35 178.69 15.51 185.73"/>
    <rect class="cls-67" x="-1.84" y="175.27" width="22.66" height="14.25" rx="4.27" ry="4.27" transform="translate(-169.44 219.05) rotate(-98.6)"/>
    <polygon class="cls-2" points="15.75 157.41 33.84 157.15 33.33 150.25 15.21 150.26 15.75 157.41"/>
    <path class="cls-70" d="M16.49,148.94l.17,8.41c.08,3.92-2.23,7.21-5.13,7.31h0c-2.9,.1-5.33-3.01-5.41-6.93l-.17-8.41c-.08-3.92,2.23-7.21,5.13-7.31h0c2.9-.1,5.33,3.01,5.41,6.93Z"/>
    <polygon class="cls-2" points="13.06 128.38 32.94 132.53 34.16 125.75 14.31 121.35 13.06 128.38"/>
    <rect class="cls-80" x="-2.86" y="116.03" width="22.66" height="14.25" rx="4.27" ry="4.27" transform="translate(-113.9 106.94) rotate(-78.52)"/>
    <polygon class="cls-2" points="24.06 100.04 38.41 106.75 40.28 101.83 25.99 94.94 24.06 100.04"/>
    <path class="cls-82" d="M27.55,94.6l-2.5,5.9c-1.16,2.75-4.27,4-6.91,2.79h0c-2.64-1.21-3.84-4.45-2.68-7.2l2.5-5.9c1.16-2.75,4.27-4,6.91-2.79h0c2.64,1.21,3.84,4.45,2.68,7.2Z"/>
    <polygon class="cls-2" points="32.55 75.39 47.6 85.46 51.43 79.75 36.5 69.47 32.55 75.39"/>
    <rect class="cls-81" x="19.09" y="61.75" width="22.66" height="14.25" rx="4.27" ry="4.27" transform="translate(-43.62 55.23) rotate(-55.73)"/>
    <polygon class="cls-2" points="49.76 52.66 61.23 65.94 66.47 61.5 55.19 48.05 49.76 52.66"/>
    <rect class="cls-79" x="38.16" y="38.71" width="22.66" height="14.25" rx="4.27" ry="4.27" transform="translate(-17.89 42.62) rotate(-40.07)"/>
    <polygon class="cls-2" points="72.53 41.26 78.59 51.24 82.47 48.92 76.55 38.85 72.53 41.26"/>
    <rect class="cls-83" x="64.82" y="31.69" width="14.93" height="9.39" rx="2.81" ry="2.81" transform="translate(-8.46 41.87) rotate(-30.61)"/>
    <polygon class="cls-2" points="93.23 24.78 100.72 39.34 106.91 36.37 99.64 21.69 93.23 24.78"/>
    <rect class="cls-84" x="82.46" y="10.16" width="22.66" height="14.25" rx="4.27" ry="4.27" transform="translate(1.89 42.77) rotate(-25.94)"/>
    <polygon class="cls-2" points="116.13 20.34 119.05 33.1 123.72 31.99 120.97 19.18 116.13 20.34"/>
    <rect class="cls-85" x="109.49" y="10.39" width="15.84" height="9.96" rx="2.99" ry="2.99" transform="translate(-.52 26.04) rotate(-12.63)"/>
    <g>
      <ellipse class="cls-53" cx="150.04" cy="154.76" rx="122.5" ry="124.5"/>
      <ellipse class="cls-18" cx="149.94" cy="154.63" rx="122.38" ry="124.38"/>
      <ellipse class="cls-17" cx="149.83" cy="154.5" rx="122.26" ry="124.25"/>
      <ellipse class="cls-36" cx="149.73" cy="154.37" rx="122.14" ry="124.13"/>
      <ellipse class="cls-20" cx="149.62" cy="154.24" rx="122.02" ry="124.01"/>
      <ellipse class="cls-19" cx="149.51" cy="154.11" rx="121.9" ry="123.89"/>
      <ellipse class="cls-45" cx="149.41" cy="153.98" rx="121.78" ry="123.77"/>
      <ellipse class="cls-44" cx="149.3" cy="153.85" rx="121.66" ry="123.65"/>
      <ellipse class="cls-52" cx="149.19" cy="153.72" rx="121.55" ry="123.53"/>
      <ellipse class="cls-22" cx="149.09" cy="153.59" rx="121.43" ry="123.41"/>
      <ellipse class="cls-21" cx="148.98" cy="153.46" rx="121.31" ry="123.28"/>
      <ellipse class="cls-48" cx="148.87" cy="153.34" rx="121.19" ry="123.16"/>
      <ellipse class="cls-51" cx="148.77" cy="153.21" rx="121.07" ry="123.04"/>
      <ellipse class="cls-51" cx="148.66" cy="153.08" rx="120.95" ry="122.92"/>
      <ellipse class="cls-50" cx="148.56" cy="152.95" rx="120.83" ry="122.8"/>
      <ellipse class="cls-49" cx="148.45" cy="152.82" rx="120.71" ry="122.68"/>
      <ellipse class="cls-49" cx="148.34" cy="152.69" rx="120.59" ry="122.56"/>
      <ellipse class="cls-23" cx="148.24" cy="152.56" rx="120.47" ry="122.44"/>
      <ellipse class="cls-23" cx="148.13" cy="152.43" rx="120.35" ry="122.31"/>
      <ellipse class="cls-14" cx="148.02" cy="152.3" rx="120.23" ry="122.19"/>
      <ellipse class="cls-13" cx="147.92" cy="152.17" rx="120.11" ry="122.07"/>
      <ellipse class="cls-13" cx="147.81" cy="152.04" rx="119.99" ry="121.95"/>
      <ellipse class="cls-29" cx="147.7" cy="151.92" rx="119.87" ry="121.83"/>
      <ellipse class="cls-35" cx="147.6" cy="151.79" rx="119.76" ry="121.71"/>
      <ellipse class="cls-35" cx="147.49" cy="151.66" rx="119.64" ry="121.59"/>
      <ellipse class="cls-31" cx="147.39" cy="151.53" rx="119.52" ry="121.47"/>
      <ellipse class="cls-34" cx="147.28" cy="151.4" rx="119.4" ry="121.34"/>
      <ellipse class="cls-30" cx="147.17" cy="151.27" rx="119.28" ry="121.22"/>
      <ellipse class="cls-30" cx="147.07" cy="151.14" rx="119.16" ry="121.1"/>
      <ellipse class="cls-30" cx="146.96" cy="151.01" rx="119.04" ry="120.98"/>
      <ellipse class="cls-33" cx="146.85" cy="150.88" rx="118.92" ry="120.86"/>
      <ellipse class="cls-33" cx="146.75" cy="150.75" rx="118.8" ry="120.74"/>
      <ellipse class="cls-32" cx="146.64" cy="150.62" rx="118.68" ry="120.62"/>
      <ellipse class="cls-24" cx="146.53" cy="150.5" rx="118.56" ry="120.5"/>
      <ellipse class="cls-24" cx="146.43" cy="150.37" rx="118.44" ry="120.37"/>
      <ellipse class="cls-28" cx="146.32" cy="150.24" rx="118.32" ry="120.25"/>
      <ellipse class="cls-28" cx="146.22" cy="150.11" rx="118.2" ry="120.13"/>
      <ellipse class="cls-26" cx="146.11" cy="149.98" rx="118.08" ry="120.01"/>
      <ellipse class="cls-15" cx="146" cy="149.85" rx="117.97" ry="119.89"/>
      <ellipse class="cls-15" cx="145.9" cy="149.72" rx="117.85" ry="119.77"/>
      <ellipse class="cls-16" cx="145.79" cy="149.59" rx="117.73" ry="119.65"/>
      <ellipse class="cls-25" cx="145.68" cy="149.46" rx="117.61" ry="119.52"/>
      <ellipse class="cls-27" cx="145.58" cy="149.33" rx="117.49" ry="119.4"/>
      <ellipse class="cls-39" cx="145.47" cy="149.2" rx="117.37" ry="119.28"/>
      <ellipse class="cls-38" cx="145.36" cy="149.07" rx="117.25" ry="119.16"/>
      <ellipse class="cls-38" cx="145.26" cy="148.95" rx="117.13" ry="119.04"/>
      <ellipse class="cls-40" cx="145.15" cy="148.82" rx="117.01" ry="118.92"/>
      <ellipse class="cls-41" cx="145.05" cy="148.69" rx="116.89" ry="118.8"/>
      <ellipse class="cls-41" cx="144.94" cy="148.56" rx="116.77" ry="118.68"/>
      <ellipse class="cls-42" cx="144.83" cy="148.43" rx="116.65" ry="118.55"/>
      <ellipse class="cls-43" cx="144.73" cy="148.3" rx="116.53" ry="118.43"/>
      <ellipse class="cls-12" cx="144.62" cy="148.17" rx="116.41" ry="118.31"/>
      <ellipse class="cls-12" cx="144.51" cy="148.04" rx="116.29" ry="118.19"/>
      <ellipse class="cls-5" cx="144.41" cy="147.91" rx="116.18" ry="118.07"/>
      <ellipse class="cls-9" cx="144.3" cy="147.78" rx="116.06" ry="117.95"/>
      <ellipse class="cls-10" cx="144.19" cy="147.65" rx="115.94" ry="117.83"/>
      <ellipse class="cls-11" cx="144.09" cy="147.53" rx="115.82" ry="117.71"/>
      <ellipse class="cls-7" cx="143.98" cy="147.4" rx="115.7" ry="117.58"/>
      <ellipse class="cls-6" cx="143.87" cy="147.27" rx="115.58" ry="117.46"/>
      <ellipse class="cls-8" cx="143.77" cy="147.14" rx="115.46" ry="117.34"/>
      <ellipse class="cls-47" cx="143.66" cy="147.01" rx="115.34" ry="117.22"/>
      <ellipse class="cls-46" cx="143.56" cy="146.88" rx="115.22" ry="117.1"/>
    </g>
    <path class="cls-3" d="M124.15,313.49c.09-.2-.04,2.68,1.13,3.24,1.29,.61,3.82,1.38,3.82,.97s.9-4.01,.9-4.01l-5.85-.2Z"/>
    <path class="cls-3" d="M151.75,314.36c-.34-.38,0,2.51-.92,3.08-1.22,.74-3.33,1.42-3.33,1.01s-.77-4.09-.77-4.09h5.02Z"/>
  </g>
  <g id="Layer_2-2" data-name="Layer 2">
    <path class="cls-4" d="M128.16,139.53c5.03,9.36-10.88,19.24-24.31,19.24s-24.31-8.62-24.31-19.24c0-7.97,6.12-14.81,14.84-17.73,2.91-.97,27.76,10.39,30.11,12.78,2.03,2.08-1.55-4.73,3.66,4.95Z"/>
    <path class="cls-54" d="M118.35,142.03c3.72,1.73-6.3,6.74-13.81,6.51-7.51-.23-13.5-3.53-13.38-7.35,.09-2.87,3.59-5.23,8.5-6.13,1.64-.3,17.36,5.74,18.69,6.97,1.34,1.24-6.05-2.82,0,0Z"/>
    <g>
      <path d="M65.43,104.75s75.35,58.36,66.73,26.31"/>
      <path class="cls-37" d="M64.54,105.63c2.56,1.99,5.17,3.92,7.78,5.84,5.88,4.31,11.85,8.5,17.93,12.51,6.77,4.47,13.69,8.8,20.95,12.46,3.01,1.52,6.1,2.94,9.3,4.04,2.35,.8,4.9,1.51,7.41,1.44,1.97-.06,3.94-.7,5.1-2.38,1.32-1.91,1.19-4.44,.83-6.62-.12-.74-.29-1.47-.48-2.19-.41-1.55-2.82-.89-2.41,.66,.36,1.34,.6,2.51,.64,3.8,0,.26,0,.51,0,.77,0,.13-.02,.26-.03,.39-.03,.3,.02-.07-.02,.14-.04,.23-.08,.45-.15,.67-.04,.13-.25,.67-.12,.39-.08,.17-.17,.33-.26,.49-.05,.08-.1,.16-.16,.24-.12,.17,.16-.17-.03,.03-.12,.13-.24,.25-.37,.37,.1-.09-.07,.07-.3,.2-.49,.27-1.31,.49-1.84,.52-2.29,.14-4.28-.39-6.57-1.13-2.99-.97-5.86-2.27-8.67-3.67-6.96-3.46-13.59-7.56-20.09-11.8-6.06-3.96-12-8.1-17.86-12.35-3-2.18-5.98-4.39-8.92-6.65-.24-.19,.17,.13,.11,.09-1.26-.97-3.04,.78-1.77,1.77h0Z"/>
    </g>
    <path class="cls-55" d="M111.97,140.74c2,.93-3.39,3.62-7.43,3.5s-7.26-1.9-7.19-3.95c.05-1.54,1.93-2.81,4.57-3.29,.88-.16,9.33,3.09,10.05,3.75,.72,.67-3.25-1.52,0,0Z"/>
    <path class="cls-3" d="M97.39,137.66s1.95,1.85,2.8,1.98,4.14-1.31-.64-3.46c-4.78-2.15-2.16,1.49-2.16,1.49Z"/>
    <path class="cls-4" d="M167.13,137.61c-5.03,9.36,10.88,19.24,24.31,19.24,13.42,0,24.31-8.62,24.31-19.24,0-7.97-6.12-14.81-14.84-17.73-2.91-.97-27.76,10.39-30.11,12.78-2.03,2.08,1.55-4.73-3.66,4.95Z"/>
    <path class="cls-54" d="M176.94,140.11c-3.72,1.73,6.3,6.74,13.81,6.51,7.51-.23,13.5-3.53,13.38-7.35-.09-2.87-3.59-5.23-8.5-6.13-1.64-.3-17.36,5.74-18.69,6.97-1.34,1.24,6.05-2.82,0,0Z"/>
    <g>
      <path d="M230.41,103.37s-75.35,58.36-66.73,26.31"/>
      <path class="cls-37" d="M229.52,102.49c.46-.36-.1,.08-.29,.22-.49,.38-.98,.75-1.48,1.12-1.75,1.32-3.5,2.63-5.27,3.92-5.64,4.14-11.36,8.16-17.18,12.03-6.54,4.35-13.22,8.55-20.18,12.21-2.94,1.54-5.93,3.01-9.04,4.18-1.28,.48-2.57,.92-3.9,1.26-1.19,.31-2.18,.51-3.2,.58-.5,.03-.99,.03-1.48,0-.34-.02-.43-.02-1.01-.18-.67-.19-1-.38-1.5-.91-.19-.21,.09,.14-.03-.03-.05-.07-.1-.13-.14-.21-.1-.17-.2-.34-.28-.53,.13,.3-.08-.26-.12-.39-.06-.22-.11-.45-.15-.67-.04-.24,.02,.17,0-.08-.01-.13-.02-.26-.03-.38-.01-.27-.02-.55-.01-.82,.02-.65,.07-1.14,.17-1.68,.12-.71,.29-1.42,.47-2.12,.41-1.56-2-2.22-2.41-.66-1.08,4.08-1.43,9.96,3.85,11.02,2.32,.46,4.77-.02,7.02-.64,3.06-.85,6.01-2.12,8.88-3.48,7.23-3.42,14.08-7.62,20.79-11.96,6.35-4.11,12.57-8.43,18.69-12.88,3.09-2.24,6.27-4.43,9.22-6.87,.12-.1,.25-.19,.37-.28,1.27-.98-.51-2.74-1.77-1.77h0Z"/>
    </g>
    <path class="cls-55" d="M183.31,138.83c-2,.93,3.39,3.62,7.43,3.5,4.04-.13,7.26-1.9,7.19-3.95-.05-1.54-1.93-2.81-4.57-3.29-.88-.16-9.33,3.09-10.05,3.75-.72,.67,3.25-1.52,0,0Z"/>
    <path class="cls-3" d="M197.9,135.74s-1.95,1.85-2.8,1.98-4.14-1.31,.64-3.46c4.78-2.15,2.16,1.49,2.16,1.49Z"/>
    <g class="cls-64">
      <path class="cls-37" d="M134.05,125.83c1.01,.95,2.16,1.97,2.66,3.31,.4,1.09,.36,2.43-.54,3.26-.59,.54,.29,1.43,.88,.88,1.17-1.07,1.38-2.82,.93-4.27-.52-1.66-1.81-2.91-3.05-4.06-.59-.55-1.47,.33-.88,.88h0Z"/>
    </g>
    <g class="cls-64">
      <path class="cls-37" d="M159.84,124.66c-1.23,1.15-2.53,2.4-3.05,4.06-.46,1.45-.23,3.21,.93,4.27,.59,.54,1.48-.34,.88-.88-.9-.83-.95-2.17-.54-3.26,.5-1.34,1.64-2.36,2.66-3.31,.59-.55-.3-1.43-.88-.88h0Z"/>
    </g>
  </g>
  <g id="Layer_3" data-name="Layer 3">
    <path class="cls-37" d="M194.42,169.33c-15.28,6.59-32.06,9.28-48.68,10.35-14.98,.96-30.08-.02-44.79-2.99-1.18-.24-2.15,.9-1.72,2.02,3.09,8.05,14.12,25.63,24.33,30.44,11.2,5.28,21.07,4.64,32.07,3.68,11.62-1.01,21.51-8.66,24.81-11.1,20.75-15.34,26.77-37.93,13.99-32.41Z"/>
    <path class="cls-3" d="M116.86,179.28s3.47,12.8,6.12,15.61l2.66,2.81s-1.52-17.58,1.24-17.89c0,0-4.57-.24-4.74-.24s-3.75-.32-3.75-.32l-1.58-.18,.04,.21Z"/>
    <path class="cls-3" d="M177.75,175s-1.74,14.65-4.2,18.17l-2.47,3.52s-1.18-19.58-4.27-19.48c0,0,4.98-1,5.17-1.03s4.04-.78,4.04-.78l1.73-.4h0Z"/>
  </g>
</svg>