<?xml version="1.0" encoding="UTF-8"?>
<svg id="Layer_2" data-name="Layer 2" xmlns="http://www.w3.org/2000/svg" xmlns:xlink="http://www.w3.org/1999/xlink" viewBox="0 0 218.27 221.67">
  <defs>
    <style>
      .cls-1 {
        fill: url(#linear-gradient);
      }

      .cls-2 {
        fill: #e4d63e;
      }

      .cls-3, .cls-4 {
        fill: #fff;
      }

      .cls-5 {
        fill: #9787bc;
      }

      .cls-6 {
        fill: #9988bf;
      }

      .cls-7 {
        fill: #9988be;
      }

      .cls-8 {
        fill: #9989bf;
      }

      .cls-9 {
        fill: #9887bc;
      }

      .cls-10 {
        fill: #9887bd;
      }

      .cls-11 {
        fill: #9888bd;
      }

      .cls-12 {
        fill: #9786bb;
      }

      .cls-13 {
        fill: #8b7dae;
      }

      .cls-14 {
        fill: #8b7dad;
      }

      .cls-15 {
        fill: #9282b5;
      }

      .cls-16 {
        fill: #9283b6;
      }

      .cls-17 {
        fill: #8478a7;
      }

      .cls-18 {
        fill: #8478a6;
      }

      .cls-19 {
        fill: #8579a8;
      }

      .cls-20 {
        fill: #8578a8;
      }

      .cls-21 {
        fill: #877aaa;
      }

      .cls-22 {
        fill: #877aa9;
      }

      .cls-23 {
        fill: #8a7cad;
      }

      .cls-24 {
        fill: #9081b3;
      }

      .cls-25 {
        fill: #9383b6;
      }

      .cls-26 {
        fill: #9182b5;
      }

      .cls-27 {
        fill: #9383b7;
      }

      .cls-28 {
        fill: #9181b4;
      }

      .cls-29 {
        fill: #8c7daf;
      }

      .cls-30 {
        fill: #8e7fb1;
      }

      .cls-31 {
        fill: #8d7eb0;
      }

      .cls-32 {
        fill: #8f80b3;
      }

      .cls-33 {
        fill: #8f80b2;
      }

      .cls-34 {
        fill: #8d7fb0;
      }

      .cls-35 {
        fill: #8c7eaf;
      }

      .cls-36 {
        fill: #8578a7;
      }

      .cls-37 {
        fill: #231f20;
      }

      .cls-38 {
        fill: #413955;
      }

      .cls-39 {
        fill: #9484b8;
      }

      .cls-40 {
        fill: #9484b7;
      }

      .cls-41 {
        fill: #9584b8;
      }

      .cls-42 {
        fill: #9585b9;
      }

      .cls-43 {
        fill: #9685ba;
      }

      .cls-44 {
        fill: #9686ba;
      }

      .cls-45 {
        fill: #544c6b;
      }

      .cls-46 {
        fill: #8679a9;
      }

      .cls-47 {
        fill: #8679a8;
      }

      .cls-48 {
        fill: #9a89c1;
      }

      .cls-49 {
        fill: #9a89c0;
      }

      .cls-50 {
        fill: #887aaa;
      }

      .cls-51 {
        fill: #897cac;
      }

      .cls-52 {
        fill: #897bab;
      }

      .cls-53 {
        fill: #887bab;
      }

      .cls-54 {
        fill: #867aa9;
      }

      .cls-55 {
        fill: #8377a6;
      }

      .cls-4, .cls-56 {
        stroke: #413955;
        stroke-miterlimit: 10;
      }

      .cls-56 {
        fill: #73649e;
      }

      .cls-57 {
        fill: url(#linear-gradient-8);
      }

      .cls-58 {
        fill: url(#linear-gradient-9);
      }

      .cls-59 {
        fill: url(#linear-gradient-3);
      }

      .cls-60 {
        fill: url(#linear-gradient-4);
      }

      .cls-61 {
        fill: url(#linear-gradient-2);
      }

      .cls-62 {
        fill: url(#linear-gradient-6);
      }

      .cls-63 {
        fill: url(#linear-gradient-7);
      }

      .cls-64 {
        fill: url(#linear-gradient-5);
      }

      .cls-65 {
        fill: url(#linear-gradient-14);
      }

      .cls-66 {
        fill: url(#linear-gradient-18);
      }

      .cls-67 {
        fill: url(#linear-gradient-22);
      }

      .cls-68 {
        fill: url(#linear-gradient-20);
      }

      .cls-69 {
        fill: url(#linear-gradient-21);
      }

      .cls-70 {
        fill: url(#linear-gradient-23);
      }

      .cls-71 {
        fill: url(#linear-gradient-15);
      }

      .cls-72 {
        fill: url(#linear-gradient-19);
      }

      .cls-73 {
        fill: url(#linear-gradient-16);
      }

      .cls-74 {
        fill: url(#linear-gradient-17);
      }

      .cls-75 {
        fill: url(#linear-gradient-13);
      }

      .cls-76 {
        fill: url(#linear-gradient-12);
      }

      .cls-77 {
        fill: url(#linear-gradient-10);
      }

      .cls-78 {
        fill: url(#linear-gradient-11);
      }

      .cls-79 {
        fill: url(#linear-gradient-27);
      }

      .cls-80 {
        fill: url(#linear-gradient-24);
      }

      .cls-81 {
        fill: url(#linear-gradient-26);
      }

      .cls-82 {
        fill: url(#linear-gradient-25);
      }

      .cls-83 {
        fill: url(#linear-gradient-28);
      }

      .cls-84 {
        fill: url(#linear-gradient-29);
      }

      .cls-85 {
        fill: url(#linear-gradient-30);
      }

      .cls-86 {
        fill: url(#linear-gradient-32);
      }

      .cls-87 {
        fill: url(#linear-gradient-31);
      }
    </style>
    <linearGradient id="linear-gradient" x1="76.14" y1="25.77" x2="93.09" y2="25.77" gradientTransform="translate(26.37 -38.07) rotate(12.63)" gradientUnits="userSpaceOnUse">
      <stop offset="0" stop-color="#e4d63e"/>
      <stop offset=".99" stop-color="#a99b3d"/>
    </linearGradient>
    <linearGradient id="linear-gradient-2" x1="117.13" y1="10.47" x2="128.94" y2="10.47" gradientTransform="translate(-.03 20.64) rotate(-9.59)" xlink:href="#linear-gradient"/>
    <linearGradient id="linear-gradient-3" x1="135.89" y1="11" x2="152.72" y2="11" gradientTransform="translate(6.17 54.16) rotate(-21.71)" xlink:href="#linear-gradient"/>
    <linearGradient id="linear-gradient-4" x1="155.31" y1="24.17" x2="165.21" y2="24.17" gradientTransform="matrix(1, 0, 0, 1, 0, 0)" xlink:href="#linear-gradient"/>
    <linearGradient id="linear-gradient-5" x1="171.42" y1="32.9" x2="187.25" y2="32.9" gradientTransform="translate(25.66 131.03) rotate(-42.96)" xlink:href="#linear-gradient"/>
    <linearGradient id="linear-gradient-6" x1="186.14" y1="45" x2="205.32" y2="45" gradientTransform="translate(32.16 161.53) rotate(-48.41)" xlink:href="#linear-gradient"/>
    <linearGradient id="linear-gradient-7" x1="195.26" y1="66.95" x2="205.41" y2="66.95" gradientTransform="matrix(1, 0, 0, 1, 0, 0)" xlink:href="#linear-gradient"/>
    <linearGradient id="linear-gradient-8" x1="205.26" y1="87.47" x2="217.3" y2="87.47" gradientTransform="translate(84.31 277.66) rotate(-78.76)" xlink:href="#linear-gradient"/>
    <linearGradient id="linear-gradient-9" x1="205.18" y1="115.07" x2="211.14" y2="115.07" gradientTransform="translate(98.91 326.34) rotate(-91.59)" xlink:href="#linear-gradient"/>
    <linearGradient id="linear-gradient-10" x1="206.01" y1="135.61" x2="218.27" y2="135.61" gradientTransform="translate(127.57 372.77) rotate(-102.96)" xlink:href="#linear-gradient"/>
    <linearGradient id="linear-gradient-11" x1="195.63" y1="155.2" x2="204.44" y2="155.2" gradientTransform="translate(136.48 400.27) rotate(-113.27)" xlink:href="#linear-gradient"/>
    <linearGradient id="linear-gradient-12" x1="183.86" y1="177.33" x2="199.26" y2="177.33" gradientTransform="translate(186.33 438.31) rotate(-131.64)" xlink:href="#linear-gradient"/>
    <linearGradient id="linear-gradient-13" x1="166.29" y1="192.17" x2="177.45" y2="192.17" gradientTransform="matrix(1, 0, 0, 1, 0, 0)" xlink:href="#linear-gradient"/>
    <linearGradient id="linear-gradient-14" x1="145.12" y1="206.96" x2="161.99" y2="206.96" gradientTransform="translate(228.46 453.54) rotate(-160.32)" xlink:href="#linear-gradient"/>
    <linearGradient id="linear-gradient-15" x1="119.31" y1="215.67" x2="136.22" y2="215.67" gradientTransform="translate(212.5 451.59) rotate(-169.11)" xlink:href="#linear-gradient"/>
    <linearGradient id="linear-gradient-16" x1="100.57" y1="211.27" x2="110.9" y2="211.27" gradientTransform="translate(206.85 424.79) rotate(-178.75)" xlink:href="#linear-gradient"/>
    <linearGradient id="linear-gradient-17" x1="69.45" y1="212.54" x2="85.69" y2="212.54" gradientTransform="translate(229.01 380.64) rotate(158.03)" xlink:href="#linear-gradient"/>
    <linearGradient id="linear-gradient-18" x1="51.02" y1="200.11" x2="63.86" y2="200.11" gradientTransform="translate(218.73 331.76) rotate(145.24)" xlink:href="#linear-gradient"/>
    <linearGradient id="linear-gradient-19" x1="27.38" y1="188.08" x2="43.16" y2="188.08" gradientTransform="translate(190.16 300.44) rotate(136.58)" xlink:href="#linear-gradient"/>
    <linearGradient id="linear-gradient-20" x1="21.46" y1="168.67" x2="30.69" y2="168.67" gradientTransform="matrix(1, 0, 0, 1, 0, 0)" xlink:href="#linear-gradient"/>
    <linearGradient id="linear-gradient-21" x1="1.17" y1="154.92" x2="16.79" y2="154.92" gradientTransform="translate(154.21 209.62) rotate(113.96)" xlink:href="#linear-gradient"/>
    <linearGradient id="linear-gradient-22" x1=".94" y1="134.23" x2="12.63" y2="134.23" gradientTransform="translate(140.52 147.59) rotate(98.6)" xlink:href="#linear-gradient"/>
    <linearGradient id="linear-gradient-23" x1="4.17" y1="112.84" x2="12.06" y2="112.84" gradientTransform="matrix(1, 0, 0, 1, 0, 0)" xlink:href="#linear-gradient"/>
    <linearGradient id="linear-gradient-24" x1="0" y1="90.61" x2="12.07" y2="90.61" gradientTransform="translate(93.63 66.65) rotate(78.52)" xlink:href="#linear-gradient"/>
    <linearGradient id="linear-gradient-25" x1="10.86" y1="70.13" x2="20.42" y2="70.13" gradientTransform="matrix(1, 0, 0, 1, 0, 0)" xlink:href="#linear-gradient"/>
    <linearGradient id="linear-gradient-26" x1="14.83" y1="50.63" x2="29.57" y2="50.63" gradientTransform="translate(51.54 3.78) rotate(55.73)" xlink:href="#linear-gradient"/>
    <linearGradient id="linear-gradient-27" x1="28.23" y1="33.67" x2="44.25" y2="33.67" gradientTransform="translate(30.18 -15.43) rotate(40.07)" xlink:href="#linear-gradient"/>
    <linearGradient id="linear-gradient-28" x1="47.58" y1="26.71" x2="58.48" y2="26.71" gradientTransform="translate(20.99 -23.28) rotate(30.61)" xlink:href="#linear-gradient"/>
    <linearGradient id="linear-gradient-29" x1="60.51" y1="12.64" x2="77.22" y2="12.64" gradientTransform="translate(12.47 -28.85) rotate(25.94)" xlink:href="#linear-gradient"/>
    <linearGradient id="linear-gradient-30" x1="80.35" y1="11.23" x2="92.18" y2="11.23" gradientTransform="translate(4.54 -18.59) rotate(12.63)" xlink:href="#linear-gradient"/>
    <linearGradient id="linear-gradient-31" x1="39.29" y1="154.69" x2="52.53" y2="143.26" gradientTransform="translate(2.76 -.48) rotate(.09) skewX(.19)" gradientUnits="userSpaceOnUse">
      <stop offset=".39" stop-color="#9a89c1"/>
      <stop offset=".67" stop-color="#504b63"/>
    </linearGradient>
    <linearGradient id="linear-gradient-32" x1="52.92" y1="144.29" x2="58.16" y2="140.37" gradientUnits="userSpaceOnUse">
      <stop offset=".4" stop-color="#9a89c1"/>
      <stop offset=".68" stop-color="#454156"/>
    </linearGradient>
  </defs>
  <g id="Layer_3" data-name="Layer 3">
    <path class="cls-3" d="M69.8,97.83s2.05,.91,2.62,.6,1.82-3.61-2.06-3.33c-3.88,.28-.56,2.74-.56,2.74Z"/>
    <g>
      <polygon class="cls-2" points="101.65 10.34 101.95 23.59 105.73 23.22 105.57 9.95 101.65 10.34"/>
      <rect class="cls-1" x="94.96" y=".33" width="16.69" height="10.49" rx="4.19" ry="4.19" transform="translate(-.11 8.31) rotate(-4.61)"/>
      <polygon class="cls-2" points="120.74 13.63 118.4 25.75 121.93 26.17 124.4 14.06 120.74 13.63"/>
      <rect class="cls-61" x="117.2" y="6.8" width="11.67" height="7.33" rx="2.99" ry="2.99" transform="translate(3.46 -20.34) rotate(9.59)"/>
      <polygon class="cls-2" points="139.3 14.26 133.94 27.66 138.68 29.45 144.22 16.1 139.3 14.26"/>
      <rect class="cls-59" x="135.96" y="5.75" width="16.69" height="10.49" rx="4.27" ry="4.27" transform="translate(14.31 -52.6) rotate(21.71)"/>
      <polygon class="cls-2" points="158.16 24.44 151.88 35.22 154.82 36.42 161.2 25.68 158.16 24.44"/>
      <path class="cls-60" d="M160.39,27.84l-3.38-1.79c-1.57-.83-2.16-2.76-1.3-4.29h0c.86-1.52,2.85-2.09,4.43-1.26l3.38,1.79c1.57,.83,2.16,2.76,1.3,4.29h0c-.86,1.52-2.85,2.09-4.43,1.26Z"/>
      <polygon class="cls-2" points="174.61 34.26 167.01 43.96 170.92 47.16 178.67 37.58 174.61 34.26"/>
      <rect class="cls-64" x="170.99" y="27.65" width="16.69" height="10.49" rx="4.27" ry="4.27" transform="translate(70.5 -113.38) rotate(42.96)"/>
      <polygon class="cls-2" points="189.47 45.41 177.47 56.32 181.68 61.01 193.84 50.27 189.47 45.41"/>
      <rect class="cls-62" x="185.34" y="38.46" width="20.79" height="13.07" rx="5.32" ry="5.32" transform="translate(99.47 -131.27) rotate(48.41)"/>
      <polygon class="cls-2" points="196.68 66.42 189.59 71.07 191.45 74.48 198.61 69.95 196.68 66.42"/>
      <path class="cls-63" d="M198.13,71.09l-2.33-4.15c-1.09-1.93-.46-4.44,1.4-5.57h0c1.86-1.13,4.26-.48,5.35,1.46l2.33,4.15c1.09,1.93,.46,4.44-1.4,5.57h0c-1.86,1.13-4.26,.48-5.35-1.46Z"/>
      <polygon class="cls-2" points="206.87 85.22 195.92 87.77 196.84 92.74 207.83 90.36 206.87 85.22"/>
      <rect class="cls-57" x="202.94" y="82.23" width="16.69" height="10.49" rx="4.27" ry="4.27" transform="translate(255.91 -136.8) rotate(78.76)"/>
      <polygon class="cls-2" points="206.05 113.3 199.79 113.34 199.68 116.14 205.93 116.21 206.05 113.3"/>
      <rect class="cls-58" x="203.52" y="112.15" width="9.28" height="5.84" rx="2.38" ry="2.38" transform="translate(328.96 -89.82) rotate(91.59)"/>
      <polygon class="cls-2" points="209.04 131.75 198.01 129.59 196.81 134.49 207.81 136.83 209.04 131.75"/>
      <rect class="cls-77" x="203.8" y="130.37" width="16.69" height="10.49" rx="4.27" ry="4.27" transform="translate(391.89 -40.7) rotate(102.96)"/>
      <polygon class="cls-2" points="198.5 152.37 191.7 149.71 190.37 152.7 197.12 155.47 198.5 152.37"/>
      <rect class="cls-78" x="194.61" y="151.79" width="10.84" height="6.82" rx="2.78" ry="2.78" transform="translate(421.63 32.74) rotate(113.27)"/>
      <polygon class="cls-2" points="190.7 172.45 182.05 165.26 178.65 168.99 187.17 176.32 190.7 172.45"/>
      <rect class="cls-76" x="183.21" y="172.08" width="16.69" height="10.49" rx="4.27" ry="4.27" transform="translate(451.36 152) rotate(131.64)"/>
      <polygon class="cls-2" points="172.05 188.37 167.16 181.49 164.18 183.7 168.96 190.66 172.05 188.37"/>
      <path class="cls-75" d="M167.87,190.26l3.63-2.76c1.69-1.28,4.05-.86,5.26,.95h0c1.2,1.81,.8,4.34-.89,5.62l-3.63,2.76c-1.69,1.28-4.05,.86-5.26-.95h0c-1.2-1.81-.8-4.34,.89-5.62Z"/>
      <polygon class="cls-2" points="155.14 202.27 151.01 191.81 146.23 193.45 150.19 203.97 155.14 202.27"/>
      <rect class="cls-65" x="145.21" y="201.71" width="16.69" height="10.49" rx="4.27" ry="4.27" transform="translate(367.84 350.13) rotate(160.32)"/>
      <polygon class="cls-2" points="130.05 211.27 127.56 200.31 122.6 201.2 124.9 212.2 130.05 211.27"/>
      <rect class="cls-71" x="119.43" y="210.42" width="16.69" height="10.49" rx="4.27" ry="4.27" transform="translate(293.98 403.32) rotate(169.11)"/>
      <polygon class="cls-2" points="107.58 208.83 107.2 201.9 104.08 201.93 104.35 208.86 107.58 208.83"/>
      <rect class="cls-73" x="100.58" y="208.03" width="10.3" height="6.48" rx="2.64" ry="2.64" transform="translate(216.04 420.19) rotate(178.75)"/>
      <polygon class="cls-2" points="81.88 210.08 85.73 199.53 81.08 197.58 77.05 208.07 81.88 210.08"/>
      <rect class="cls-74" x="69.23" y="207.29" width="16.69" height="10.49" rx="5.25" ry="5.25" transform="translate(70.01 438.67) rotate(-158.03)"/>
      <polygon class="cls-2" points="61.16 198.98 65.96 191.57 62.73 189.26 57.81 196.6 61.16 198.98"/>
      <rect class="cls-66" x="50.88" y="195.99" width="13.11" height="8.24" rx="3.36" ry="3.36" transform="translate(-9.48 397.26) rotate(-145.24)"/>
      <polygon class="cls-2" points="40.17 187.37 47.62 178.95 44 175.44 36.41 183.73 40.17 187.37"/>
      <rect class="cls-72" x="26.92" y="182.83" width="16.69" height="10.49" rx="4.27" ry="4.27" transform="translate(-68.39 348.93) rotate(-136.58)"/>
      <polygon class="cls-2" points="29.36 168.98 35.46 164.28 33.65 161.19 27.48 165.79 29.36 168.98"/>
      <path class="cls-68" d="M27.86,164.7l2.27,3.75c1.05,1.75,.61,4.12-.99,5.27h0c-1.6,1.15-3.77,.66-4.83-1.09l-2.27-3.75c-1.05-1.75-.61-4.12,.99-5.27h0c1.6-1.15,3.77-.66,4.83,1.09Z"/>
      <polygon class="cls-2" points="14.95 156.34 31.06 149.24 28.47 143.73 12.27 150.63 14.95 156.34"/>
      <rect class="cls-69" x="-1.04" y="148.62" width="20.05" height="12.6" rx="6.3" ry="6.3" transform="translate(-128.94 226.04) rotate(-113.96)"/>
      <polygon class="cls-2" points="11.22 136.69 24.82 134.57 24 129.57 10.37 131.51 11.22 136.69"/>
      <rect class="cls-67" x="-1.56" y="128.99" width="16.69" height="10.49" rx="4.27" ry="4.27" transform="translate(-124.92 161.01) rotate(-98.6)"/>
      <polygon class="cls-2" points="11.39 115.84 24.72 115.64 24.34 110.56 11 110.57 11.39 115.84"/>
      <path class="cls-70" d="M11.94,109.6l.12,6.2c.06,2.88-1.64,5.31-3.78,5.38h0c-2.14,.08-3.93-2.22-3.99-5.1l-.12-6.2c-.06-2.88,1.64-5.31,3.78-5.38h0c2.14-.08,3.93,2.22,3.99,5.1Z"/>
      <polygon class="cls-2" points="9.42 94.45 24.06 97.51 24.95 92.52 10.34 89.27 9.42 94.45"/>
      <rect class="cls-80" x="-2.31" y="85.36" width="16.69" height="10.49" rx="4.27" ry="4.27" transform="translate(-83.96 78.48) rotate(-78.52)"/>
      <polygon class="cls-2" points="17.52 73.59 28.08 78.53 29.46 74.91 18.94 69.83 17.52 73.59"/>
      <path class="cls-82" d="M20.09,69.58l-1.84,4.35c-.86,2.02-3.15,2.95-5.09,2.06h0c-1.94-.89-2.83-3.28-1.97-5.3l1.84-4.35c.86-2.02,3.15-2.95,5.09-2.06h0c1.94,.89,2.83,3.28,1.97,5.3Z"/>
      <polygon class="cls-2" points="23.77 55.43 34.85 62.85 37.67 58.65 26.68 51.07 23.77 55.43"/>
      <rect class="cls-81" x="13.86" y="45.39" width="16.69" height="10.49" rx="4.27" ry="4.27" transform="translate(-32.14 40.47) rotate(-55.73)"/>
      <polygon class="cls-2" points="36.44 38.69 44.89 48.48 48.75 45.2 40.44 35.3 36.44 38.69"/>
      <rect class="cls-79" x="27.9" y="28.42" width="16.69" height="10.49" rx="4.27" ry="4.27" transform="translate(-13.16 31.23) rotate(-40.07)"/>
      <polygon class="cls-2" points="53.21 30.3 57.67 37.65 60.53 35.94 56.17 28.52 53.21 30.3"/>
      <rect class="cls-83" x="47.53" y="23.26" width="11" height="6.91" rx="2.81" ry="2.81" transform="translate(-6.21 30.72) rotate(-30.61)"/>
      <polygon class="cls-2" points="68.45 18.16 73.97 28.89 78.53 26.7 73.17 15.89 68.45 18.16"/>
      <rect class="cls-84" x="60.52" y="7.4" width="16.69" height="10.49" rx="4.27" ry="4.27" transform="translate(1.41 31.4) rotate(-25.94)"/>
      <polygon class="cls-2" points="85.32 14.89 87.46 24.29 90.91 23.47 88.89 14.04 85.32 14.89"/>
      <rect class="cls-85" x="80.43" y="7.57" width="11.67" height="7.33" rx="2.99" ry="2.99" transform="translate(-.37 19.13) rotate(-12.63)"/>
      <g>
        <ellipse class="cls-55" cx="110.29" cy="113.88" rx="90.21" ry="91.68"/>
        <ellipse class="cls-18" cx="110.22" cy="113.77" rx="90.12" ry="91.59"/>
        <ellipse class="cls-17" cx="110.14" cy="113.67" rx="90.03" ry="91.5"/>
        <ellipse class="cls-36" cx="110.07" cy="113.57" rx="89.95" ry="91.41"/>
        <ellipse class="cls-20" cx="109.99" cy="113.46" rx="89.86" ry="91.32"/>
        <ellipse class="cls-19" cx="109.91" cy="113.36" rx="89.77" ry="91.23"/>
        <ellipse class="cls-47" cx="109.84" cy="113.25" rx="89.68" ry="91.14"/>
        <ellipse class="cls-46" cx="109.76" cy="113.15" rx="89.59" ry="91.06"/>
        <ellipse class="cls-54" cx="109.69" cy="113.05" rx="89.51" ry="90.97"/>
        <ellipse class="cls-22" cx="109.61" cy="112.94" rx="89.42" ry="90.88"/>
        <ellipse class="cls-21" cx="109.54" cy="112.84" rx="89.33" ry="90.79"/>
        <ellipse class="cls-50" cx="109.46" cy="112.73" rx="89.24" ry="90.7"/>
        <ellipse class="cls-53" cx="109.38" cy="112.63" rx="89.16" ry="90.61"/>
        <ellipse class="cls-53" cx="109.31" cy="112.53" rx="89.07" ry="90.52"/>
        <ellipse class="cls-52" cx="109.23" cy="112.42" rx="88.98" ry="90.43"/>
        <ellipse class="cls-51" cx="109.16" cy="112.32" rx="88.89" ry="90.34"/>
        <ellipse class="cls-51" cx="109.08" cy="112.21" rx="88.8" ry="90.25"/>
        <ellipse class="cls-23" cx="109.01" cy="112.11" rx="88.72" ry="90.16"/>
        <ellipse class="cls-23" cx="108.93" cy="112.01" rx="88.63" ry="90.07"/>
        <ellipse class="cls-14" cx="108.86" cy="111.9" rx="88.54" ry="89.98"/>
        <ellipse class="cls-13" cx="108.78" cy="111.8" rx="88.45" ry="89.89"/>
        <ellipse class="cls-13" cx="108.7" cy="111.69" rx="88.36" ry="89.81"/>
        <ellipse class="cls-29" cx="108.63" cy="111.59" rx="88.28" ry="89.72"/>
        <ellipse class="cls-35" cx="108.55" cy="111.49" rx="88.19" ry="89.63"/>
        <ellipse class="cls-35" cx="108.48" cy="111.38" rx="88.1" ry="89.54"/>
        <ellipse class="cls-31" cx="108.4" cy="111.28" rx="88.01" ry="89.45"/>
        <ellipse class="cls-34" cx="108.33" cy="111.17" rx="87.93" ry="89.36"/>
        <ellipse class="cls-30" cx="108.25" cy="111.07" rx="87.84" ry="89.27"/>
        <ellipse class="cls-30" cx="108.17" cy="110.96" rx="87.75" ry="89.18"/>
        <ellipse class="cls-30" cx="108.1" cy="110.86" rx="87.66" ry="89.09"/>
        <ellipse class="cls-33" cx="108.02" cy="110.76" rx="87.57" ry="89"/>
        <ellipse class="cls-33" cx="107.95" cy="110.65" rx="87.49" ry="88.91"/>
        <ellipse class="cls-32" cx="107.87" cy="110.55" rx="87.4" ry="88.82"/>
        <ellipse class="cls-24" cx="107.8" cy="110.44" rx="87.31" ry="88.73"/>
        <ellipse class="cls-24" cx="107.72" cy="110.34" rx="87.22" ry="88.64"/>
        <ellipse class="cls-28" cx="107.64" cy="110.24" rx="87.13" ry="88.55"/>
        <ellipse class="cls-28" cx="107.57" cy="110.13" rx="87.05" ry="88.47"/>
        <ellipse class="cls-26" cx="107.49" cy="110.03" rx="86.96" ry="88.38"/>
        <ellipse class="cls-15" cx="107.42" cy="109.92" rx="86.87" ry="88.29"/>
        <ellipse class="cls-15" cx="107.34" cy="109.82" rx="86.78" ry="88.2"/>
        <ellipse class="cls-16" cx="107.27" cy="109.72" rx="86.69" ry="88.11"/>
        <ellipse class="cls-25" cx="107.19" cy="109.61" rx="86.61" ry="88.02"/>
        <ellipse class="cls-27" cx="107.12" cy="109.51" rx="86.52" ry="87.93"/>
        <ellipse class="cls-40" cx="107.04" cy="109.4" rx="86.43" ry="87.84"/>
        <ellipse class="cls-39" cx="106.96" cy="109.3" rx="86.34" ry="87.75"/>
        <ellipse class="cls-39" cx="106.89" cy="109.2" rx="86.26" ry="87.66"/>
        <ellipse class="cls-41" cx="106.81" cy="109.09" rx="86.17" ry="87.57"/>
        <ellipse class="cls-42" cx="106.74" cy="108.99" rx="86.08" ry="87.48"/>
        <ellipse class="cls-42" cx="106.66" cy="108.88" rx="85.99" ry="87.39"/>
        <ellipse class="cls-43" cx="106.59" cy="108.78" rx="85.9" ry="87.3"/>
        <ellipse class="cls-44" cx="106.51" cy="108.68" rx="85.82" ry="87.22"/>
        <ellipse class="cls-12" cx="106.43" cy="108.57" rx="85.73" ry="87.13"/>
        <ellipse class="cls-12" cx="106.36" cy="108.47" rx="85.64" ry="87.04"/>
        <ellipse class="cls-5" cx="106.28" cy="108.36" rx="85.55" ry="86.95"/>
        <ellipse class="cls-9" cx="106.21" cy="108.26" rx="85.46" ry="86.86"/>
        <ellipse class="cls-10" cx="106.13" cy="108.16" rx="85.38" ry="86.77"/>
        <ellipse class="cls-11" cx="106.06" cy="108.05" rx="85.29" ry="86.68"/>
        <ellipse class="cls-7" cx="105.98" cy="107.95" rx="85.2" ry="86.59"/>
        <ellipse class="cls-6" cx="105.9" cy="107.84" rx="85.11" ry="86.5"/>
        <ellipse class="cls-8" cx="105.83" cy="107.74" rx="85.03" ry="86.41"/>
        <ellipse class="cls-49" cx="105.75" cy="107.64" rx="84.94" ry="86.32"/>
        <ellipse class="cls-48" cx="105.68" cy="107.53" rx="84.85" ry="86.23"/>
      </g>
      <g>
        <path d="M41.05,80.51s69.77,7.64,52.02-9.16"/>
        <path class="cls-37" d="M41.05,80.83c2.32,.25,4.64,.46,6.96,.65,5.33,.44,10.68,.77,16.03,.95,5.93,.2,11.89,.25,17.81-.23,2.46-.2,4.92-.48,7.33-1.02,1.73-.39,3.54-.89,5.05-1.87,1.05-.68,1.95-1.66,2.04-2.96,.1-1.53-.88-2.95-1.83-4.05-.36-.41-.74-.81-1.14-1.18-.3-.28-.75,.17-.45,.45,1.16,1.1,2.54,2.52,2.77,4.18,.16,1.18-.5,2.14-1.42,2.81-1.36,.99-3.06,1.49-4.67,1.88-2.28,.55-4.62,.85-6.95,1.06-5.75,.52-11.54,.5-17.31,.33-5.33-.15-10.66-.47-15.97-.89-1.83-.14-3.66-.3-5.48-.48-.84-.08-1.79-.31-2.64-.26-.04,0-.08,0-.11-.01-.41-.04-.4,.59,0,.64h0Z"/>
      </g>
      <g>
        <path d="M171.51,81.35s-70.01,4.97-51.63-11.14"/>
        <path class="cls-37" d="M171.51,81.04c-2.22,.16-4.45,.27-6.68,.37-5.14,.23-10.28,.36-15.42,.36-5.83,0-11.68-.16-17.48-.77-2.48-.26-4.95-.61-7.38-1.17-1.79-.42-3.62-.93-5.22-1.86-.99-.58-2.05-1.43-2.19-2.65-.17-1.44,.89-2.78,1.81-3.76,.37-.39,.75-.75,1.15-1.1,.31-.27-.14-.72-.45-.45-2.1,1.85-4.62,4.98-2.01,7.51,1.17,1.13,2.79,1.77,4.31,2.26,2.2,.71,4.49,1.14,6.78,1.47,5.79,.83,11.66,1.07,17.49,1.15s11.1-.03,16.64-.25c1.91-.08,3.82-.17,5.73-.27,.91-.05,1.89-.02,2.79-.17,.04,0,.08,0,.12,0,.41-.03,.41-.66,0-.64h0Z"/>
      </g>
      <path class="cls-37" d="M85.48,155.19c10.81,2.67,10.56-.14,26.16-.84,11.97-.53,10.89,3.95,21.88,.71,.85-.25,10.03-3.39,10.71-5.77,1.74-6.11-6.07-16.26-13.26-20.42-7.89-4.57-15.17-4.71-23.3-4.69-8.59,.02-16.32,5.02-18.89,6.6-16.18,9.97-13.24,21.95-3.28,24.41Z"/>
      <path class="cls-3" d="M86.18,132.49s2.44,7.75,4.41,9.81l1.97,2.06s-1.64-15.92,.39-16.17c0,0-2.34,1.47-2.47,1.48s-2.4,1.46-2.4,1.46l-1.28,.93-.62,.44Z"/>
      <path class="cls-3" d="M135.39,132.47s-2.9,7.23-5.12,9.5l-2.21,2.26s1.9-16.79-.36-17.09c0,0,3.25,1.74,3.38,1.74s2.89,2.14,2.89,2.14l1.42,1.44h0Z"/>
    </g>
    <path class="cls-87" d="M38.68,140.76s15.05,1.87,17.74,10.31c2.69,8.44-1.48,6.86-1.48,6.86l-16.27-17.17Z"/>
    <path class="cls-48" d="M62.98,133.66c3.22,0,3.22-5,0-5s-3.22,5,0,5h0Z"/>
    <g>
      <path class="cls-86" d="M50.11,137.11c5.14,1.2,9.4,5.54,10.5,10.7"/>
      <path class="cls-48" d="M49.45,139.52c.62,.15,1.23,.34,1.83,.57s-.41-.2,.04,.02c.14,.07,.28,.13,.41,.2,.27,.14,.54,.28,.81,.43s.53,.32,.78,.49c.13,.09,.25,.17,.38,.26,.21,.15,.33,.39-.02-.02,.18,.22,.49,.4,.71,.59,.25,.22,.49,.45,.72,.69,.22,.22,.42,.44,.62,.68,.1,.12,.2,.23,.3,.35,.39,.48-.25-.36,.03,.04,.35,.5,.69,1.01,.99,1.55,.15,.27,.29,.54,.42,.82,.06,.13,.11,.3,.19,.42-.36-.52-.1-.24-.02-.03,.24,.62,.42,1.26,.56,1.91,.28,1.28,1.84,2.15,3.08,1.75,1.34-.44,2.05-1.7,1.75-3.08-1.31-5.99-6.29-11.02-12.25-12.45-1.27-.3-2.77,.4-3.08,1.75s.39,2.75,1.75,3.08h0Z"/>
    </g>
    <path class="cls-45" d="M46.94,139.18c5.39,3.09,11.79,7.02,12.41,13.87,.01,.16,.26,.16,.25,0-.63-6.96-7.05-10.95-12.53-14.09-.14-.08-.27,.14-.13,.22h0Z"/>
  </g>
  <g id="Layer_6" data-name="Layer 6">
    <g>
      <path class="cls-4" d="M89.29,92.57c1.91,2,2.89,4.48,2.66,7.27-.18,2.16-.99,4.23-2.06,6.12-2.82,4.97-7.49,8.85-12.88,10.71-3.25,1.12-6.81,1.52-10.16,.71s-6.44-2.91-8.06-5.94c-1.73-3.23-1.67-7.19-.52-10.67,3.31-10.07,13.99-14.56,23.93-12.44,2.36,.5,5.16,2.21,7.1,4.24Z"/>
      <path class="cls-56" d="M80.21,98c1.41,2.45,1.43,10.78-3.13,14.56-4.57,3.78-11.45,4.06-13.2-.09-1.32-3.12-2.85-7.24-2.89-10.22-.03-2.47,.39-6.22,13.03-8.24,4.21-.67,4.03,.23,6.2,3.99Z"/>
      <g>
        <path class="cls-38" d="M73.38,102.28c.57,.99,.58,4.35-1.26,5.87s-4.62,1.64-5.32-.03c-.53-1.26-1.15-2.92-1.17-4.12-.01-1,.16-2.51,5.25-3.32,1.7-.27,1.63,.09,2.5,1.61Z"/>
        <path class="cls-3" d="M64.72,102.68s2.05,.91,2.62,.6,1.82-3.61-2.06-3.33c-3.88,.28-.56,2.74-.56,2.74Z"/>
      </g>
    </g>
    <g>
      <path class="cls-4" d="M150.55,91.1c1.91,2,2.89,4.48,2.66,7.27-.18,2.16-.99,4.23-2.06,6.12-2.82,4.97-7.49,8.85-12.88,10.71-3.25,1.12-6.81,1.52-10.16,.71s-6.44-2.91-8.06-5.94c-1.73-3.23-1.67-7.19-.52-10.67,3.31-10.07,13.99-14.56,23.93-12.44,2.36,.5,5.16,2.21,7.1,4.24Z"/>
      <path class="cls-56" d="M141.11,96.14c1.41,2.45,1.43,10.78-3.13,14.56-4.57,3.78-11.45,4.06-13.2-.09-1.32-3.12-2.85-7.24-2.89-10.22-.03-2.47,.39-6.22,13.03-8.24,4.21-.67,4.03,.23,6.2,3.99Z"/>
      <g>
        <path class="cls-38" d="M133.64,101.23c.57,.99,.58,4.35-1.26,5.87s-4.62,1.64-5.32-.03c-.53-1.26-1.15-2.92-1.17-4.12-.01-1,.16-2.51,5.25-3.32,1.7-.27,1.63,.09,2.5,1.61Z"/>
        <path class="cls-3" d="M133.27,100.87s2.05,.91,2.62,.6,1.82-3.61-2.06-3.33c-3.88,.28-.56,2.74-.56,2.74Z"/>
      </g>
    </g>
  </g>
</svg>