<?xml version="1.0" encoding="UTF-8"?>
<svg id="Layer_2" data-name="Layer 2" xmlns="http://www.w3.org/2000/svg" viewBox="0 0 370.2 147.86">
  <defs>
    <style>
      .cls-1 {
        fill: #ec1c24;
      }

      .cls-2 {
        fill: #fff;
      }

      .cls-3, .cls-4 {
        fill: #f1f1f2;
      }

      .cls-5 {
        fill: #90cdc2;
      }

      .cls-6 {
        fill: #90ccc0;
      }

      .cls-7 {
        fill: #7fb1a7;
      }

      .cls-8 {
        fill: #80b2a8;
      }

      .cls-9 {
        fill: #7eb0a6;
      }

      .cls-10 {
        fill: #7eafa5;
      }

      .cls-11 {
        fill: #95d5c9;
      }

      .cls-12 {
        fill: #98dacd;
      }

      .cls-13 {
        fill: #7dada4;
      }

      .cls-14 {
        fill: #97d8cc;
      }

      .cls-15 {
        fill: #97d7cb;
      }

      .cls-16 {
        fill: #96d6ca;
      }

      .cls-17 {
        fill: #7caca3;
      }

      .cls-18 {
        fill: #7caba2;
      }

      .cls-19 {
        fill: #8ac3b8;
      }

      .cls-20 {
        fill: #91cec3;
      }

      .cls-21 {
        fill: #9ee4d7;
      }

      .cls-22 {
        fill: #9fe5d8;
      }

      .cls-23 {
        fill: #9fe6d9;
      }

      .cls-24 {
        fill: #a0e7da;
      }

      .cls-25 {
        fill: #9de3d5;
      }

      .cls-26 {
        fill: #83b8ae;
      }

      .cls-27 {
        fill: #84b9af;
      }

      .cls-28 {
        fill: #89c1b6;
      }

      .cls-29 {
        fill: #89c2b7;
      }

      .cls-30 {
        fill: #9ce0d3;
      }

      .cls-31 {
        fill: #9de1d4;
      }

      .cls-32 {
        fill: #9bdfd2;
      }

      .cls-33 {
        fill: #9bded1;
      }

      .cls-34 {
        fill: #8ecabe;
      }

      .cls-35 {
        fill: #8ec9bd;
      }

      .cls-36 {
        fill: #8fcbbf;
      }

      .cls-37 {
        fill: #8cc6bb;
      }

      .cls-38 {
        fill: #8cc5ba;
      }

      .cls-39 {
        fill: #8dc7bc;
      }

      .cls-40 {
        fill: #8bc4b9;
      }

      .cls-41 {
        fill: #92d0c5;
      }

      .cls-42 {
        fill: #92cfc4;
      }

      .cls-43 {
        fill: #a3ecde;
      }

      .cls-44 {
        fill: #a5efe1;
      }

      .cls-45 {
        fill: #a4eddf;
      }

      .cls-46 {
        fill: #a4eee0;
      }

      .cls-47 {
        fill: #a2eadd;
      }

      .cls-48 {
        fill: #a2e9dc;
      }

      .cls-49 {
        fill: #93d2c6;
      }

      .cls-50 {
        fill: #81b3a9;
      }

      .cls-51 {
        fill: #81b4aa;
      }

      .cls-52 {
        fill: #9addd0;
      }

      .cls-53 {
        fill: #94d3c7;
      }

      .cls-54 {
        fill: #a1e8db;
      }

      .cls-55 {
        fill: #94d4c8;
      }

      .cls-56 {
        fill: #86bcb2;
      }

      .cls-57 {
        fill: #99dccf;
      }

      .cls-58 {
        fill: #99dbce;
      }

      .cls-59 {
        fill: #88bfb5;
      }

      .cls-60 {
        fill: #87beb4;
      }

      .cls-61 {
        fill: #87bdb3;
      }

      .cls-62 {
        fill: #85bab0;
      }

      .cls-63 {
        fill: #85bbb1;
      }

      .cls-64 {
        fill: #83b6ad;
      }

      .cls-65 {
        fill: #82b5ab;
      }

      .cls-66 {
        fill: #7baaa1;
      }

      .cls-67, .cls-68, .cls-69, .cls-70 {
        fill: none;
        stroke: #ec1c24;
        stroke-miterlimit: 10;
      }

      .cls-68, .cls-71, .cls-4 {
        opacity: .49;
      }

      .cls-69 {
        opacity: .17;
      }

      .cls-70 {
        stroke-width: .5px;
      }
    </style>
  </defs>
  <g id="Layer_12" data-name="Layer 12">
    <path d="M158.29,77.91c12.84-2.53,26.01,3.51,32.61,14.76,1.3,2.22,4.76,.21,3.45-2.02-7.55-12.87-22.52-19.48-37.13-16.6-2.52,.5-1.46,4.35,1.06,3.86h0Z"/>
    <path d="M.28,69.1c3.25,5.64,10.14,5.63,15.86,5.67,6.82,.05,13.64,.1,20.46,.15,2.57,.02,2.58-3.98,0-4-6.16-.04-12.33-.09-18.49-.13-4.51-.03-11.68,.97-14.38-3.71-1.28-2.23-4.74-.22-3.45,2.02H.28Z"/>
    <g>
      <path d="M46.31,107.69c-8.78,3.65-16.65,9.22-22.83,16.48-.87,1.03-1.01,2.53,0,3.54,.9,.9,2.66,1.03,3.54,0,5.59-6.56,12.65-11.88,20.62-15.19,1.25-.52,2.14-1.66,1.75-3.08-.32-1.18-1.82-2.27-3.08-1.75h0Z"/>
      <path d="M21.1,128.73l1.53,2.2c.16,.29,.37,.53,.64,.7,.24,.22,.52,.37,.85,.45,.33,.1,.66,.12,1,.04,.33-.02,.64-.11,.93-.3l.51-.39c.31-.31,.52-.68,.64-1.1l.09-.66c0-.45-.12-.87-.34-1.26l-1.53-2.2c-.16-.29-.37-.53-.64-.7-.24-.22-.52-.37-.85-.45-.33-.1-.66-.12-1-.04-.33,.02-.64,.11-.93,.3l-.51,.39c-.31,.31-.52,.68-.64,1.1l-.09,.66c0,.45,.12,.87,.34,1.26h0Z"/>
    </g>
    <path d="M55,123.48c-4.47,3.9-8.93,7.79-13.4,11.69-1.93,1.68-4.27,3.42-4.93,6.03-.7,2.77,.61,5.5,3.27,6.52,1.26,.49,2.74-.54,3.08-1.75,.39-1.41-.48-2.59-1.75-3.08,.15,.06,.23,.16,.34,.23,.19,.12-.14-.24-.05-.05,.1,.24-.09-.33-.1-.4,.05,.29,0,.06,.03-.08,.17-.75-.13,.22,.04-.19s-.3,.49,.17-.37c.18-.32,.39-.56,.67-.85,1.58-1.64,3.44-3.07,5.15-4.57,3.67-3.2,7.35-6.41,11.02-9.61,1.02-.89,.91-2.63,0-3.54-1.01-1.01-2.52-.89-3.54,0h0Z"/>
    <g>
      <circle class="cls-66" cx="98.79" cy="77.12" r="62.31"/>
      <circle class="cls-18" cx="98.75" cy="77.07" r="62.24"/>
      <ellipse class="cls-17" cx="98.72" cy="77.02" rx="62.16" ry="62.17"/>
      <ellipse class="cls-13" cx="98.68" cy="76.97" rx="62.09" ry="62.1"/>
      <ellipse class="cls-10" cx="98.65" cy="76.92" rx="62.02" ry="62.04"/>
      <ellipse class="cls-9" cx="98.61" cy="76.87" rx="61.95" ry="61.97"/>
      <ellipse class="cls-7" cx="98.58" cy="76.82" rx="61.88" ry="61.9"/>
      <ellipse class="cls-8" cx="98.54" cy="76.77" rx="61.81" ry="61.83"/>
      <ellipse class="cls-50" cx="98.51" cy="76.72" rx="61.74" ry="61.77"/>
      <ellipse class="cls-51" cx="98.47" cy="76.67" rx="61.67" ry="61.7"/>
      <ellipse class="cls-65" cx="98.44" cy="76.62" rx="61.6" ry="61.63"/>
      <ellipse class="cls-64" cx="98.4" cy="76.57" rx="61.53" ry="61.56"/>
      <ellipse class="cls-26" cx="98.37" cy="76.52" rx="61.46" ry="61.49"/>
      <ellipse class="cls-27" cx="98.33" cy="76.47" rx="61.39" ry="61.43"/>
      <ellipse class="cls-62" cx="98.29" cy="76.42" rx="61.32" ry="61.36"/>
      <ellipse class="cls-63" cx="98.26" cy="76.37" rx="61.25" ry="61.29"/>
      <ellipse class="cls-56" cx="98.22" cy="76.32" rx="61.18" ry="61.22"/>
      <ellipse class="cls-61" cx="98.19" cy="76.27" rx="61.11" ry="61.16"/>
      <ellipse class="cls-60" cx="98.15" cy="76.22" rx="61.03" ry="61.09"/>
      <ellipse class="cls-59" cx="98.12" cy="76.17" rx="60.96" ry="61.02"/>
      <ellipse class="cls-28" cx="98.08" cy="76.12" rx="60.89" ry="60.95"/>
      <ellipse class="cls-29" cx="98.05" cy="76.07" rx="60.82" ry="60.89"/>
      <ellipse class="cls-19" cx="98.01" cy="76.02" rx="60.75" ry="60.82"/>
      <ellipse class="cls-40" cx="97.98" cy="75.97" rx="60.68" ry="60.75"/>
      <ellipse class="cls-38" cx="97.94" cy="75.92" rx="60.61" ry="60.68"/>
      <ellipse class="cls-37" cx="97.91" cy="75.87" rx="60.54" ry="60.62"/>
      <ellipse class="cls-39" cx="97.87" cy="75.82" rx="60.47" ry="60.55"/>
      <ellipse class="cls-35" cx="97.84" cy="75.77" rx="60.4" ry="60.48"/>
      <ellipse class="cls-34" cx="97.8" cy="75.72" rx="60.33" ry="60.41"/>
      <ellipse class="cls-36" cx="97.77" cy="75.67" rx="60.26" ry="60.35"/>
      <ellipse class="cls-6" cx="97.73" cy="75.62" rx="60.19" ry="60.28"/>
      <ellipse class="cls-5" cx="97.69" cy="75.57" rx="60.12" ry="60.21"/>
      <ellipse class="cls-20" cx="97.66" cy="75.52" rx="60.05" ry="60.14"/>
      <ellipse class="cls-42" cx="97.62" cy="75.47" rx="59.98" ry="60.08"/>
      <ellipse class="cls-41" cx="97.59" cy="75.42" rx="59.9" ry="60.01"/>
      <ellipse class="cls-49" cx="97.55" cy="75.37" rx="59.83" ry="59.94"/>
      <ellipse class="cls-53" cx="97.52" cy="75.32" rx="59.76" ry="59.87"/>
      <ellipse class="cls-55" cx="97.48" cy="75.27" rx="59.69" ry="59.8"/>
      <ellipse class="cls-11" cx="97.45" cy="75.22" rx="59.62" ry="59.74"/>
      <ellipse class="cls-16" cx="97.41" cy="75.17" rx="59.55" ry="59.67"/>
      <ellipse class="cls-15" cx="97.38" cy="75.12" rx="59.48" ry="59.6"/>
      <ellipse class="cls-14" cx="97.34" cy="75.07" rx="59.41" ry="59.53"/>
      <ellipse class="cls-12" cx="97.31" cy="75.02" rx="59.34" ry="59.47"/>
      <ellipse class="cls-58" cx="97.27" cy="74.97" rx="59.27" ry="59.4"/>
      <ellipse class="cls-57" cx="97.24" cy="74.92" rx="59.2" ry="59.33"/>
      <ellipse class="cls-52" cx="97.2" cy="74.87" rx="59.13" ry="59.26"/>
      <ellipse class="cls-33" cx="97.17" cy="74.82" rx="59.06" ry="59.2"/>
      <ellipse class="cls-32" cx="97.13" cy="74.77" rx="58.99" ry="59.13"/>
      <ellipse class="cls-30" cx="97.09" cy="74.72" rx="58.92" ry="59.06"/>
      <ellipse class="cls-31" cx="97.06" cy="74.67" rx="58.85" ry="58.99"/>
      <ellipse class="cls-25" cx="97.02" cy="74.62" rx="58.77" ry="58.93"/>
      <ellipse class="cls-21" cx="96.99" cy="74.57" rx="58.7" ry="58.86"/>
      <ellipse class="cls-22" cx="96.95" cy="74.52" rx="58.63" ry="58.79"/>
      <ellipse class="cls-23" cx="96.92" cy="74.47" rx="58.56" ry="58.72"/>
      <ellipse class="cls-24" cx="96.88" cy="74.42" rx="58.49" ry="58.66"/>
      <ellipse class="cls-54" cx="96.85" cy="74.37" rx="58.42" ry="58.59"/>
      <ellipse class="cls-48" cx="96.81" cy="74.32" rx="58.35" ry="58.52"/>
      <ellipse class="cls-47" cx="96.78" cy="74.27" rx="58.28" ry="58.45"/>
      <ellipse class="cls-43" cx="96.74" cy="74.22" rx="58.21" ry="58.38"/>
      <ellipse class="cls-45" cx="96.71" cy="74.17" rx="58.14" ry="58.32"/>
      <ellipse class="cls-46" cx="96.67" cy="74.12" rx="58.07" ry="58.25"/>
      <ellipse class="cls-44" cx="96.64" cy="74.07" rx="58" ry="58.18"/>
    </g>
    <g>
      <path d="M77.95,81.78c-3.27,0-5.93-4.82-5.93-10.75s2.66-10.75,5.93-10.75,5.93,4.82,5.93,10.75-2.66,10.75-5.93,10.75Z"/>
      <path d="M77.95,60.79c2.94,0,5.43,4.69,5.43,10.25s-2.49,10.25-5.43,10.25-5.43-4.69-5.43-10.25,2.49-10.25,5.43-10.25m0-1c-3.55,0-6.43,5.04-6.43,11.25s2.88,11.25,6.43,11.25,6.43-5.04,6.43-11.25-2.88-11.25-6.43-11.25h0Z"/>
    </g>
    <g>
      <ellipse cx="122.88" cy="71.17" rx="6.51" ry="11.76"/>
      <path d="M122.88,59.91c3.26,0,6.01,5.16,6.01,11.26s-2.75,11.26-6.01,11.26-6.01-5.16-6.01-11.26,2.75-11.26,6.01-11.26m0-1c-3.87,0-7.01,5.49-7.01,12.26s3.14,12.26,7.01,12.26,7.01-5.49,7.01-12.26-3.14-12.26-7.01-12.26h0Z"/>
    </g>
    <path class="cls-2" d="M79.06,66.53c1.06,.8,1.91,1.84,2.5,3.03,0-.07,.01-.14,0-.22,0-.17,0-.34,0-.52,0-.59,0-1.18,0-1.77s0-1.18,0-1.77v-.39c0-.11,0-.23-.02-.34-.59-1.19-1.45-2.23-2.5-3.03,.02,.02-.02,.82-.02,.73,0,.59,0,1.18,0,1.77s0,1.18,0,1.77v.39c0,.11,0,.23,.02,.34h0Z"/>
    <path class="cls-2" d="M124.48,65.29c1.2,1.04,2.15,2.34,2.78,3.79,0-.07,.01-.14,0-.22,0-.17,0-.34,0-.52,0-.59,0-1.18,0-1.77s0-1.18,0-1.77v-.39c0-.11,0-.23-.02-.34-.63-1.45-1.59-2.75-2.78-3.79,.03,.02-.02,.81-.02,.73,0,.59,0,1.18,0,1.77s0,1.18,0,1.77v.39c0,.11,0,.23,.02,.34h0Z"/>
    <path class="cls-2" d="M73.43,77.33c.62,.99,1.49,1.81,2.5,2.39,0,0,0-.17,0-.15,0-.12,0-.24,0-.35s0-.24,0-.35c0-.02,0-.14,0-.15-1.02-.58-1.88-1.4-2.5-2.39,0,.01,0,.15,0,.15,0,.12,0,.24,0,.35s0,.24,0,.35c0,.03-.01,.12,0,.15h0Z"/>
    <path class="cls-2" d="M119.1,78.5c1.11,1.47,2.64,2.59,4.37,3.2-.02,0,0-.46,0-.5,0-.05,.03-.49,0-.5-1.74-.61-3.26-1.73-4.37-3.2,0,.01,0,.15,0,.15,0,.12,0,.24,0,.35s0,.24,0,.35c0,.03-.01,.12,0,.15h0Z"/>
    <path d="M85.25,99.33c8.4,6.07,19.73,5.68,27.86-.61,1.27-.98-.51-2.74-1.77-1.77-7.29,5.64-17.43,5.58-24.83,.22-1.31-.94-2.55,1.22-1.26,2.16h0Z"/>
    <path d="M80.31,47.14c1.45,.63,2.86,1.36,4.2,2.21s2.5,1.7,3.67,2.72c.51,.44,1.27,.5,1.77,0,.45-.45,.51-1.32,0-1.77-2.51-2.19-5.32-4-8.38-5.32-.62-.27-1.34-.18-1.71,.45-.31,.53-.17,1.44,.45,1.71h0Z"/>
    <path d="M120.43,45.13c-3.06,1.32-5.87,3.13-8.38,5.32-.51,.44-.45,1.31,0,1.77,.51,.51,1.26,.44,1.77,0,2.29-2,4.99-3.68,7.87-4.93,.62-.27,.76-1.18,.45-1.71-.37-.64-1.09-.72-1.71-.45h0Z"/>
    <g>
      <g>
        <path class="cls-1" d="M296.03,49.49c-1.55-2.31-2.9-4.74-4.05-7.27-.13-.29-.56-.04-.43,.25,1.15,2.53,2.5,4.96,4.05,7.27,.18,.27,.61,.02,.43-.25h0Z"/>
        <path class="cls-1" d="M286.52,54.98c-1.55-2.31-2.9-4.74-4.05-7.27-.13-.29-.56-.04-.43,.25,1.15,2.53,2.5,4.96,4.05,7.27,.18,.27,.61,.02,.43-.25h0Z"/>
        <path class="cls-1" d="M277.26,60.32c-1.55-2.31-2.9-4.74-4.05-7.27-.13-.29-.56-.04-.43,.25,1.15,2.53,2.5,4.96,4.05,7.27,.18,.27,.61,.02,.43-.25h0Z"/>
        <path class="cls-1" d="M267.78,65.12c-1.55-2.31-2.9-4.74-4.05-7.27-.13-.29-.56-.04-.43,.25,1.15,2.53,2.5,4.96,4.05,7.27,.18,.27,.61,.02,.43-.25h0Z"/>
        <path class="cls-1" d="M258.52,70.46c-1.55-2.31-2.9-4.74-4.05-7.27-.13-.29-.56-.04-.43,.25,1.15,2.53,2.5,4.96,4.05,7.27,.18,.27,.61,.02,.43-.25h0Z"/>
        <path class="cls-1" d="M249.53,75.75c-1.55-2.31-2.9-4.74-4.05-7.27-.13-.29-.56-.04-.43,.25,1.15,2.53,2.5,4.96,4.05,7.27,.18,.27,.61,.02,.43-.25h0Z"/>
        <path class="cls-1" d="M240.36,80.77c-1.55-2.31-2.9-4.74-4.05-7.27-.13-.29-.56-.04-.43,.25,1.15,2.53,2.5,4.96,4.05,7.27,.18,.27,.61,.02,.43-.25h0Z"/>
        <path class="cls-1" d="M293.45,49.37c-.82-1.1-1.54-2.26-2.16-3.48-.15-.29-.58-.03-.43,.25,.62,1.22,1.34,2.38,2.16,3.48,.08,.11,.22,.16,.34,.09,.11-.06,.17-.23,.09-.34h0Z"/>
        <path class="cls-1" d="M291.6,50.54c-.82-1.1-1.54-2.26-2.16-3.48-.15-.29-.58-.03-.43,.25,.62,1.22,1.34,2.38,2.16,3.48,.08,.11,.22,.16,.34,.09,.11-.06,.17-.23,.09-.34h0Z"/>
        <path class="cls-1" d="M289.77,51.66c-.82-1.1-1.54-2.26-2.16-3.48-.15-.29-.58-.03-.43,.25,.62,1.22,1.34,2.38,2.16,3.48,.08,.11,.22,.16,.34,.09,.11-.06,.17-.23,.09-.34h0Z"/>
        <path class="cls-1" d="M287.68,52.76c-.82-1.1-1.54-2.26-2.16-3.48-.15-.29-.58-.03-.43,.25,.62,1.22,1.34,2.38,2.16,3.48,.08,.11,.22,.16,.34,.09,.11-.06,.17-.23,.09-.34h0Z"/>
        <path class="cls-1" d="M283.88,54.87c-.82-1.1-1.54-2.26-2.16-3.48-.15-.29-.58-.03-.43,.25,.62,1.22,1.34,2.38,2.16,3.48,.08,.11,.22,.16,.34,.09,.11-.06,.17-.23,.09-.34h0Z"/>
        <path class="cls-1" d="M282.03,56.05c-.82-1.1-1.54-2.26-2.16-3.48-.15-.29-.58-.03-.43,.25,.62,1.22,1.34,2.38,2.16,3.48,.08,.11,.22,.16,.34,.09,.11-.06,.17-.23,.09-.34h0Z"/>
        <path class="cls-1" d="M280.2,57.17c-.82-1.1-1.54-2.26-2.16-3.48-.15-.29-.58-.03-.43,.25,.62,1.22,1.34,2.38,2.16,3.48,.08,.11,.22,.16,.34,.09,.11-.06,.17-.23,.09-.34h0Z"/>
        <path class="cls-1" d="M278.11,58.27c-.82-1.1-1.54-2.26-2.16-3.48-.15-.29-.58-.03-.43,.25,.62,1.22,1.34,2.38,2.16,3.48,.08,.11,.22,.16,.34,.09,.11-.06,.17-.23,.09-.34h0Z"/>
        <path class="cls-1" d="M274.5,60.07c-.82-1.1-1.54-2.26-2.16-3.48-.15-.29-.58-.03-.43,.25,.62,1.22,1.34,2.38,2.16,3.48,.08,.11,.22,.16,.34,.09,.11-.06,.17-.23,.09-.34h0Z"/>
        <path class="cls-1" d="M272.65,61.25c-.82-1.1-1.54-2.26-2.16-3.48-.15-.29-.58-.03-.43,.25,.62,1.22,1.34,2.38,2.16,3.48,.08,.11,.22,.16,.34,.09,.11-.06,.17-.23,.09-.34h0Z"/>
        <path class="cls-1" d="M270.82,62.37c-.82-1.1-1.54-2.26-2.16-3.48-.15-.29-.58-.03-.43,.25,.62,1.22,1.34,2.38,2.16,3.48,.08,.11,.22,.16,.34,.09,.11-.06,.17-.23,.09-.34h0Z"/>
        <path class="cls-1" d="M268.73,63.47c-.82-1.1-1.54-2.26-2.16-3.48-.15-.29-.58-.03-.43,.25,.62,1.22,1.34,2.38,2.16,3.48,.08,.11,.22,.16,.34,.09,.11-.06,.17-.23,.09-.34h0Z"/>
        <path class="cls-1" d="M265.13,65.08c-.82-1.1-1.54-2.26-2.16-3.48-.15-.29-.58-.03-.43,.25,.62,1.22,1.34,2.38,2.16,3.48,.08,.11,.22,.16,.34,.09,.11-.06,.17-.23,.09-.34h0Z"/>
        <path class="cls-1" d="M263.29,66.25c-.82-1.1-1.54-2.26-2.16-3.48-.15-.29-.58-.03-.43,.25,.62,1.22,1.34,2.38,2.16,3.48,.08,.11,.22,.16,.34,.09,.11-.06,.17-.23,.09-.34h0Z"/>
        <path class="cls-1" d="M261.46,67.37c-.82-1.1-1.54-2.26-2.16-3.48-.15-.29-.58-.03-.43,.25,.62,1.22,1.34,2.38,2.16,3.48,.08,.11,.22,.16,.34,.09,.11-.06,.17-.23,.09-.34h0Z"/>
        <path class="cls-1" d="M259.37,68.48c-.82-1.1-1.54-2.26-2.16-3.48-.15-.29-.58-.03-.43,.25,.62,1.22,1.34,2.38,2.16,3.48,.08,.11,.22,.16,.34,.09,.11-.06,.17-.23,.09-.34h0Z"/>
        <path class="cls-1" d="M256.02,70.17c-.82-1.1-1.54-2.26-2.16-3.48-.15-.29-.58-.03-.43,.25,.62,1.22,1.34,2.38,2.16,3.48,.08,.11,.22,.16,.34,.09,.11-.06,.17-.23,.09-.34h0Z"/>
        <path class="cls-1" d="M254.18,71.34c-.82-1.1-1.54-2.26-2.16-3.48-.15-.29-.58-.03-.43,.25,.62,1.22,1.34,2.38,2.16,3.48,.08,.11,.22,.16,.34,.09,.11-.06,.17-.23,.09-.34h0Z"/>
        <path class="cls-1" d="M252.35,72.46c-.82-1.1-1.54-2.26-2.16-3.48-.15-.29-.58-.03-.43,.25,.62,1.22,1.34,2.38,2.16,3.48,.08,.11,.22,.16,.34,.09,.11-.06,.17-.23,.09-.34h0Z"/>
        <path class="cls-1" d="M250.26,73.56c-.82-1.1-1.54-2.26-2.16-3.48-.15-.29-.58-.03-.43,.25,.62,1.22,1.34,2.38,2.16,3.48,.08,.11,.22,.16,.34,.09,.11-.06,.17-.23,.09-.34h0Z"/>
        <path class="cls-1" d="M246.8,74.99c-.82-1.1-1.54-2.26-2.16-3.48-.15-.29-.58-.03-.43,.25,.62,1.22,1.34,2.38,2.16,3.48,.08,.11,.22,.16,.34,.09,.11-.06,.17-.23,.09-.34h0Z"/>
        <path class="cls-1" d="M244.95,76.16c-.82-1.1-1.54-2.26-2.16-3.48-.15-.29-.58-.03-.43,.25,.62,1.22,1.34,2.38,2.16,3.48,.08,.11,.22,.16,.34,.09,.11-.06,.17-.23,.09-.34h0Z"/>
        <path class="cls-1" d="M243.12,77.28c-.82-1.1-1.54-2.26-2.16-3.48-.15-.29-.58-.03-.43,.25,.62,1.22,1.34,2.38,2.16,3.48,.08,.11,.22,.16,.34,.09,.11-.06,.17-.23,.09-.34h0Z"/>
        <path class="cls-1" d="M241.03,78.38c-.82-1.1-1.54-2.26-2.16-3.48-.15-.29-.58-.03-.43,.25,.62,1.22,1.34,2.38,2.16,3.48,.08,.11,.22,.16,.34,.09,.11-.06,.17-.23,.09-.34h0Z"/>
        <g>
          <line class="cls-67" x1="323.33" y1="26.48" x2="369.96" y2="1.17"/>
          <path class="cls-1" d="M324.48,27.84l-2.16-3.62c-.14-.23-.7,.01-.85,.11-1.65,.98-3.29,1.97-4.94,2.95-.14,.08-.32,.16-.44,.26-.41,.35,.2-.61,.5-.09-.06-.1-1.06-.04-1.17-.04-.93-.03-1.9-.17-2.83-.1-.45,.03-.78,.22-1.18,.42l-2.89,1.46c-1.6,.8-3.19,1.61-4.79,2.41l.74-.09-1.62-1.38c-.16-.13-.59,.02-.74,.09-2.79,1.52-5.59,3.04-8.38,4.57l.74-.09c-.67-.33-1.04-.57-1.72-.25-.37,.17-.71,.4-1.07,.6l-4.96,2.79c-5.95,3.34-11.91,6.69-17.86,10.03-7.43,4.17-14.86,8.34-22.29,12.52-6.56,3.68-13.12,7.36-19.67,11.04l-6.56,3.68c-.93,.52-2.3,1-3.09,1.74-.04,.03-.1,.05-.14,.08l.74-.09c-1.22-1.37-2.51-2.68-3.86-3.91-1.21-1.1-3.43-3.47-5.3-2.7-.88,.36-.88,1.24-.78,2.07,.29,2.34,1.34,4.66,2.26,6.81,.36,.85,.74,1.69,1.12,2.53,.18,.4,.56,.68,.45,.93-.13,.29-1.01,.67-1.26,.84l-4.99,3.31c-3.22,2.14-6.45,4.28-9.67,6.41l.83-.15c-1.46-1.34-3.08-2.63-4.84-3.57s-4.55-1.27-4.56,1.5c-.02,3.23,1.71,6.66,2.97,9.54,.11,.24,1.05-.07,.97-.26-1.14-2.6-2.33-5.31-2.83-8.12-.12-.67-.42-2.7,.36-3.01s2.14,.64,2.73,.99c.98,.58,1.91,1.27,2.8,1.99,.51,.41,1.01,.83,1.49,1.27,.17,.16,.67-.04,.83-.15,5.35-3.55,10.7-7.09,16.05-10.64,.03-.02,.14-.1,.11-.15-1.38-2.97-2.85-6.03-3.63-9.23-.16-.66-.37-1.47-.23-2.16,.04-.17,.12-.31,.17-.47,.02-.08-.18-.14,.09,0,1.05,.59,2.02,1.08,2.97,1.87,1.11,.93,2.14,1.93,3.15,2.97,.58,.59,1.15,1.2,1.7,1.82,.13,.14,.62-.03,.74-.09,2.52-1.41,5.03-2.83,7.55-4.24,6.01-3.37,12.02-6.75,18.03-10.12,7.31-4.1,14.61-8.2,21.92-12.3,6.32-3.55,12.64-7.1,18.96-10.64l6.25-3.51c.89-.5,2.21-.96,2.96-1.66,.03-.03,.09-.05,.13-.07l-.74,.09c.69,.34,1.01,.58,1.73,.25,.91-.42,1.78-.97,2.66-1.45,1.86-1.01,3.72-2.03,5.58-3.04l-.74,.09,1.62,1.38c.16,.14,.59-.02,.74-.09,1.6-.8,3.19-1.61,4.79-2.41l2.89-1.46s.56-.23,.56-.28c-.02,.42-.92,.02-.31,.14,.19,.04,.41,.01,.6,.02,1.52,.06,3.04,.41,4.38-.39,1.67-1,3.33-1.99,5-2.99l-.85,.11,2.16,3.62c.15,.25,1.05-.11,.97-.26h0Z"/>
          <path class="cls-1" d="M321.89,25.24c.66,1.24,1.32,2.48,1.99,3.72l.24-.47-5.07,2.71c-1.34,.72-1.82,2.27-2.54,3.57-.08,.14-.15,.32-.25,.45-.12,.17,.21-.19,.04-.05s-.4,.25-.59,.37l-2.62,1.65c-1.51,.95-3.02,1.9-4.54,2.86-.11,.07-.19,.19-.17,.33l.2,1.17c.03,.17,0,.59,.12,.72,.19,.21,.13-.08,.14-.08-.58,.34-1.16,.68-1.73,1.02l-5.59,3.28c-.34,.2-.83,.37-1.02,.74-.16,.31-.25,1.07,.2,.64-.02,.02-.06,.03-.08,.04-.37,.22-.75,.43-1.12,.64-5,2.85-10,5.7-15,8.55-8.09,4.61-16.18,9.22-24.27,13.83s-15.39,8.77-23.09,13.15c-3.91,2.23-8.02,4.27-11.79,6.72-.05,.04-.11,.07-.17,.1-.13,.07-.33,.21-.28,.39,.61,1.96,1.13,3.97,1.49,6,.21,1.19,.49,2.54,.25,3.75s-.98,.43-1.69-.2c-2.61-2.29-4.58-5.45-6.5-8.29-.13-.19-.49-.13-.65-.05-5.8,2.76-11.59,5.51-17.39,8.27-.15,.07-.31,.21-.28,.39,.33,1.59,.54,3.24,.57,4.87,.02,.97,.05,2.2-.43,3.09-.52,.95-1.46,.27-2.13-.22-2.47-1.81-4.33-4.6-6.07-7.06-.23-.33-1.16,.03-.89,.41,1.76,2.48,3.62,5.19,6.06,7.07,.89,.68,2.12,1.36,3.21,.7,1.87-1.13,1.25-4.8,1.04-6.57-.1-.85-.23-1.71-.4-2.55l-.28,.39c5.8-2.76,11.59-5.51,17.39-8.27l-.65-.05c1.94,2.87,3.93,6.03,6.56,8.35,.76,.67,2.05,1.6,3.01,.7,.78-.74,.57-2.23,.48-3.17-.16-1.63-.52-3.24-.92-4.82-.25-1-.52-2-.83-2.98l-.28,.39c3.13-1.78,6.25-3.56,9.38-5.35,7.23-4.12,14.46-8.24,21.68-12.35,8.1-4.61,16.2-9.23,24.3-13.84,5.74-3.27,11.48-6.54,17.22-9.81,.92-.52,2.11-.98,2.92-1.67,.07-.06,.16-.08,.21-.15,.09-.12,.06-.19,.1-.33,.03-.09,.09-.85-.02-.63-.09,.18,.13-.05,.29-.13,.34-.18,.66-.39,.99-.58l5.58-3.27,1.29-.76c.11-.07,.19-.2,.17-.33l-.15-.93c-.04-.25-.05-.55-.13-.79-.14-.42,.09-.26-.22-.06,.4-.26,.81-.51,1.21-.76l5.05-3.18c.97-.61,1.57-.91,2.12-1.9,.44-.8,1.02-1.62,1.36-2.47,.04-.09,.1-.18,.15-.26,.03-.06-.36,.26-.13,.13,.25-.14,.5-.27,.75-.4l4.84-2.59c.18-.1,.35-.25,.24-.47-.66-1.24-1.32-2.48-1.99-3.72-.19-.35-1.11-.01-.89,.41h0Z"/>
          <path class="cls-67" d="M218.18,92.7s-2.96-4.27-3.5-5.42-2.35-4.88-2.35-4.88"/>
          <path class="cls-68" d="M216.91,76.82s4.13,5.87,4.91,7.48,3.37,6.79,3.37,6.79"/>
          <path class="cls-70" d="M308.64,40.23s-.6-4.24-4.63-8.55"/>
        </g>
      </g>
      <g class="cls-71">
        <line class="cls-3" x1="322.97" y1="26.57" x2="369.71" y2="1.47"/>
        <path class="cls-3" d="M323.62,28.06l-2.15-3.63-5.55,3.29-4.04-.17-8.27,4.13-1.61-1.39-8.4,4.53-.85-.42-75.98,42.22s-16.2-18.37-5.19,5.48l-16.1,10.57s-13.54-11.76-4.56,8.87"/>
        <path class="cls-3" d="M321.98,25.12l1.97,3.73-5.7,3.02-1.97,3.53-7.84,4.89,.34,2.1-8.25,4.8-.08,.94-75.71,42.71s7.19,23.42-7.38,1.56l-17.43,8.2s3.91,19.4-8.99,.97"/>
        <path class="cls-3" d="M217.53,92.34s-2.95-4.28-3.48-5.44-2.33-4.89-2.33-4.89"/>
        <path class="cls-4" d="M216.32,76.45s4.1,5.89,4.88,7.5,3.34,6.8,3.34,6.8"/>
        <path class="cls-3" d="M308.21,40.25s-.58-4.24-4.6-8.57"/>
      </g>
      <g>
        <path class="cls-1" d="M296.2,49.74c-1.53-2.32-2.85-4.77-3.99-7.31-.13-.29-.56-.04-.43,.25,1.13,2.54,2.46,4.98,3.99,7.31,.18,.27,.61,.02,.43-.25h0Z"/>
        <path class="cls-1" d="M286.65,55.15c-1.53-2.32-2.85-4.77-3.99-7.31-.13-.29-.56-.04-.43,.25,1.13,2.54,2.46,4.98,3.99,7.31,.18,.27,.61,.02,.43-.25h0Z"/>
        <path class="cls-1" d="M277.34,60.4c-1.53-2.32-2.85-4.77-3.99-7.31-.13-.29-.56-.04-.43,.25,1.13,2.54,2.46,4.98,3.99,7.31,.18,.27,.61,.02,.43-.25h0Z"/>
        <path class="cls-1" d="M267.82,65.12c-1.53-2.32-2.85-4.77-3.99-7.31-.13-.29-.56-.04-.43,.25,1.13,2.54,2.46,4.98,3.99,7.31,.18,.27,.61,.02,.43-.25h0Z"/>
        <path class="cls-1" d="M258.51,70.38c-1.53-2.32-2.85-4.77-3.99-7.31-.13-.29-.56-.04-.43,.25,1.13,2.54,2.46,4.98,3.99,7.31,.18,.27,.61,.02,.43-.25h0Z"/>
        <path class="cls-1" d="M249.47,75.59c-1.53-2.32-2.85-4.77-3.99-7.31-.13-.29-.56-.04-.43,.25,1.13,2.54,2.46,4.98,3.99,7.31,.18,.27,.61,.02,.43-.25h0Z"/>
        <path class="cls-1" d="M240.26,80.53c-1.53-2.32-2.85-4.77-3.99-7.31-.13-.29-.56-.04-.43,.25,1.13,2.54,2.46,4.98,3.99,7.31,.18,.27,.61,.02,.43-.25h0Z"/>
        <path class="cls-1" d="M293.62,49.59c-.81-1.11-1.52-2.28-2.13-3.5-.14-.29-.58-.03-.43,.25,.61,1.22,1.32,2.4,2.13,3.5,.19,.26,.62,0,.43-.25h0Z"/>
        <path class="cls-1" d="M291.77,50.75c-.81-1.11-1.52-2.28-2.13-3.5-.14-.29-.58-.03-.43,.25,.61,1.22,1.32,2.4,2.13,3.5,.19,.26,.62,0,.43-.25h0Z"/>
        <path class="cls-1" d="M289.93,51.85c-.81-1.11-1.52-2.28-2.13-3.5-.14-.29-.58-.03-.43,.25,.61,1.22,1.32,2.4,2.13,3.5,.19,.26,.62,0,.43-.25h0Z"/>
        <path class="cls-1" d="M287.83,52.94c-.81-1.11-1.52-2.28-2.13-3.5-.14-.29-.58-.03-.43,.25,.61,1.22,1.32,2.4,2.13,3.5,.19,.26,.62,0,.43-.25h0Z"/>
        <path class="cls-1" d="M284.01,55.02c-.81-1.11-1.52-2.28-2.13-3.5-.14-.29-.58-.03-.43,.25,.61,1.22,1.32,2.4,2.13,3.5,.19,.26,.62,0,.43-.25h0Z"/>
        <path class="cls-1" d="M282.15,56.17c-.81-1.11-1.52-2.28-2.13-3.5-.14-.29-.58-.03-.43,.25,.61,1.22,1.32,2.4,2.13,3.5,.19,.26,.62,0,.43-.25h0Z"/>
        <path class="cls-1" d="M280.31,57.28c-.81-1.11-1.52-2.28-2.13-3.5-.14-.29-.58-.03-.43,.25,.61,1.22,1.32,2.4,2.13,3.5,.19,.26,.62,0,.43-.25h0Z"/>
        <path class="cls-1" d="M278.21,58.36c-.81-1.11-1.52-2.28-2.13-3.5-.14-.29-.58-.03-.43,.25,.61,1.22,1.32,2.4,2.13,3.5,.19,.26,.62,0,.43-.25h0Z"/>
        <path class="cls-1" d="M274.58,60.13c-.81-1.11-1.52-2.28-2.13-3.5-.14-.29-.58-.03-.43,.25,.61,1.22,1.32,2.4,2.13,3.5,.19,.26,.62,0,.43-.25h0Z"/>
        <path class="cls-1" d="M272.72,61.29c-.81-1.11-1.52-2.28-2.13-3.5-.14-.29-.58-.03-.43,.25,.61,1.22,1.32,2.4,2.13,3.5,.19,.26,.62,0,.43-.25h0Z"/>
        <path class="cls-1" d="M270.89,62.39c-.81-1.11-1.52-2.28-2.13-3.5-.14-.29-.58-.03-.43,.25,.61,1.22,1.32,2.4,2.13,3.5,.19,.26,.62,0,.43-.25h0Z"/>
        <path class="cls-1" d="M268.79,63.48c-.81-1.11-1.52-2.28-2.13-3.5-.14-.29-.58-.03-.43,.25,.61,1.22,1.32,2.4,2.13,3.5,.19,.26,.62,0,.43-.25h0Z"/>
        <path class="cls-1" d="M265.17,65.06c-.81-1.11-1.52-2.28-2.13-3.5-.14-.29-.58-.03-.43,.25,.61,1.22,1.32,2.4,2.13,3.5,.19,.26,.62,0,.43-.25h0Z"/>
        <path class="cls-1" d="M263.32,66.21c-.81-1.11-1.52-2.28-2.13-3.5-.14-.29-.58-.03-.43,.25,.61,1.22,1.32,2.4,2.13,3.5,.19,.26,.62,0,.43-.25h0Z"/>
        <path class="cls-1" d="M261.48,67.32c-.81-1.11-1.52-2.28-2.13-3.5-.14-.29-.58-.03-.43,.25,.61,1.22,1.32,2.4,2.13,3.5,.19,.26,.62,0,.43-.25h0Z"/>
        <path class="cls-1" d="M259.38,68.4c-.81-1.11-1.52-2.28-2.13-3.5-.14-.29-.58-.03-.43,.25,.61,1.22,1.32,2.4,2.13,3.5,.19,.26,.62,0,.43-.25h0Z"/>
        <path class="cls-1" d="M256.02,70.06c-.81-1.11-1.52-2.28-2.13-3.5-.14-.29-.58-.03-.43,.25,.61,1.22,1.32,2.4,2.13,3.5,.19,.26,.62,0,.43-.25h0Z"/>
        <path class="cls-1" d="M254.16,71.22c-.81-1.11-1.52-2.28-2.13-3.5-.14-.29-.58-.03-.43,.25,.61,1.22,1.32,2.4,2.13,3.5,.19,.26,.62,0,.43-.25h0Z"/>
        <path class="cls-1" d="M252.32,72.32c-.81-1.11-1.52-2.28-2.13-3.5-.14-.29-.58-.03-.43,.25,.61,1.22,1.32,2.4,2.13,3.5,.19,.26,.62,0,.43-.25h0Z"/>
        <path class="cls-1" d="M250.22,73.41c-.81-1.11-1.52-2.28-2.13-3.5-.14-.29-.58-.03-.43,.25,.61,1.22,1.32,2.4,2.13,3.5,.19,.26,.62,0,.43-.25h0Z"/>
        <path class="cls-1" d="M246.75,74.8c-.81-1.11-1.52-2.28-2.13-3.5-.14-.29-.58-.03-.43,.25,.61,1.22,1.32,2.4,2.13,3.5,.19,.26,.62,0,.43-.25h0Z"/>
        <path class="cls-1" d="M244.89,75.96c-.81-1.11-1.52-2.28-2.13-3.5-.14-.29-.58-.03-.43,.25,.61,1.22,1.32,2.4,2.13,3.5,.19,.26,.62,0,.43-.25h0Z"/>
        <path class="cls-1" d="M243.06,77.06c-.81-1.11-1.52-2.28-2.13-3.5-.14-.29-.58-.03-.43,.25,.61,1.22,1.32,2.4,2.13,3.5,.19,.26,.62,0,.43-.25h0Z"/>
        <path class="cls-1" d="M240.96,78.15c-.81-1.11-1.52-2.28-2.13-3.5-.14-.29-.58-.03-.43,.25,.61,1.22,1.32,2.4,2.13,3.5,.19,.26,.62,0,.43-.25h0Z"/>
      </g>
      <g>
        <path class="cls-1" d="M295.57,49.1c-1.56-2.3-2.92-4.73-4.09-7.25-.13-.29-.57-.04-.43,.25,1.17,2.52,2.53,4.95,4.09,7.25,.18,.27,.61,.02,.43-.25h0Z"/>
        <path class="cls-1" d="M286.09,54.64c-1.56-2.3-2.92-4.73-4.09-7.25-.13-.29-.57-.04-.43,.25,1.17,2.52,2.53,4.95,4.09,7.25,.18,.27,.61,.02,.43-.25h0Z"/>
        <path class="cls-1" d="M276.85,60.02c-1.56-2.3-2.92-4.73-4.09-7.25-.13-.29-.57-.04-.43,.25,1.17,2.52,2.53,4.95,4.09,7.25,.18,.27,.61,.02,.43-.25h0Z"/>
        <path class="cls-1" d="M267.39,64.87c-1.56-2.3-2.92-4.73-4.09-7.25-.13-.29-.57-.04-.43,.25,1.17,2.52,2.53,4.95,4.09,7.25,.18,.27,.61,.02,.43-.25h0Z"/>
        <path class="cls-1" d="M258.16,70.25c-1.56-2.3-2.92-4.73-4.09-7.25-.13-.29-.57-.04-.43,.25,1.17,2.52,2.53,4.95,4.09,7.25,.18,.27,.61,.02,.43-.25h0Z"/>
        <path class="cls-1" d="M249.19,75.58c-1.56-2.3-2.92-4.73-4.09-7.25-.13-.29-.57-.04-.43,.25,1.17,2.52,2.53,4.95,4.09,7.25,.18,.27,.61,.02,.43-.25h0Z"/>
        <path class="cls-1" d="M240.05,80.64c-1.56-2.3-2.92-4.73-4.09-7.25-.13-.29-.57-.04-.43,.25,1.17,2.52,2.53,4.95,4.09,7.25,.18,.27,.61,.02,.43-.25h0Z"/>
        <path class="cls-1" d="M292.99,48.99c-.82-1.09-1.55-2.26-2.18-3.47-.15-.29-.58-.03-.43,.25,.63,1.22,1.35,2.38,2.18,3.47,.08,.11,.22,.16,.34,.09,.11-.06,.17-.23,.09-.34h0Z"/>
        <path class="cls-1" d="M291.15,50.17c-.82-1.09-1.55-2.26-2.18-3.47-.15-.29-.58-.03-.43,.25,.63,1.22,1.35,2.38,2.18,3.47,.08,.11,.22,.16,.34,.09,.11-.06,.17-.23,.09-.34h0Z"/>
        <path class="cls-1" d="M289.32,51.3c-.82-1.09-1.55-2.26-2.18-3.47-.15-.29-.58-.03-.43,.25,.63,1.22,1.35,2.38,2.18,3.47,.08,.11,.22,.16,.34,.09,.11-.06,.17-.23,.09-.34h0Z"/>
        <path class="cls-1" d="M287.24,52.41c-.82-1.09-1.55-2.26-2.18-3.47-.15-.29-.58-.03-.43,.25,.63,1.22,1.35,2.38,2.18,3.47,.08,.11,.22,.16,.34,.09,.11-.06,.17-.23,.09-.34h0Z"/>
        <path class="cls-1" d="M283.45,54.54c-.82-1.09-1.55-2.26-2.18-3.47-.15-.29-.58-.03-.43,.25,.63,1.22,1.35,2.38,2.18,3.47,.08,.11,.22,.16,.34,.09,.11-.06,.17-.23,.09-.34h0Z"/>
        <path class="cls-1" d="M281.6,55.72c-.82-1.09-1.55-2.26-2.18-3.47-.15-.29-.58-.03-.43,.25,.63,1.22,1.35,2.38,2.18,3.47,.08,.11,.22,.16,.34,.09,.11-.06,.17-.23,.09-.34h0Z"/>
        <path class="cls-1" d="M279.78,56.85c-.82-1.09-1.55-2.26-2.18-3.47-.15-.29-.58-.03-.43,.25,.63,1.22,1.35,2.38,2.18,3.47,.08,.11,.22,.16,.34,.09,.11-.06,.17-.23,.09-.34h0Z"/>
        <path class="cls-1" d="M277.7,57.97c-.82-1.09-1.55-2.26-2.18-3.47-.15-.29-.58-.03-.43,.25,.63,1.22,1.35,2.38,2.18,3.47,.08,.11,.22,.16,.34,.09,.11-.06,.17-.23,.09-.34h0Z"/>
        <path class="cls-1" d="M274.09,59.78c-.82-1.09-1.55-2.26-2.18-3.47-.15-.29-.58-.03-.43,.25,.63,1.22,1.35,2.38,2.18,3.47,.08,.11,.22,.16,.34,.09,.11-.06,.17-.23,.09-.34h0Z"/>
        <path class="cls-1" d="M272.25,60.97c-.82-1.09-1.55-2.26-2.18-3.47-.15-.29-.58-.03-.43,.25,.63,1.22,1.35,2.38,2.18,3.47,.08,.11,.22,.16,.34,.09,.11-.06,.17-.23,.09-.34h0Z"/>
        <path class="cls-1" d="M270.43,62.09c-.82-1.09-1.55-2.26-2.18-3.47-.15-.29-.58-.03-.43,.25,.63,1.22,1.35,2.38,2.18,3.47,.08,.11,.22,.16,.34,.09,.11-.06,.17-.23,.09-.34h0Z"/>
        <path class="cls-1" d="M268.34,63.21c-.82-1.09-1.55-2.26-2.18-3.47-.15-.29-.58-.03-.43,.25,.63,1.22,1.35,2.38,2.18,3.47,.08,.11,.22,.16,.34,.09,.11-.06,.17-.23,.09-.34h0Z"/>
        <path class="cls-1" d="M264.75,64.83c-.82-1.09-1.55-2.26-2.18-3.47-.15-.29-.58-.03-.43,.25,.63,1.22,1.35,2.38,2.18,3.47,.08,.11,.22,.16,.34,.09,.11-.06,.17-.23,.09-.34h0Z"/>
        <path class="cls-1" d="M262.91,66.01c-.82-1.09-1.55-2.26-2.18-3.47-.15-.29-.58-.03-.43,.25,.63,1.22,1.35,2.38,2.18,3.47,.08,.11,.22,.16,.34,.09,.11-.06,.17-.23,.09-.34h0Z"/>
        <path class="cls-1" d="M261.08,67.14c-.82-1.09-1.55-2.26-2.18-3.47-.15-.29-.58-.03-.43,.25,.63,1.22,1.35,2.38,2.18,3.47,.08,.11,.22,.16,.34,.09,.11-.06,.17-.23,.09-.34h0Z"/>
        <path class="cls-1" d="M259,68.26c-.82-1.09-1.55-2.26-2.18-3.47-.15-.29-.58-.03-.43,.25,.63,1.22,1.35,2.38,2.18,3.47,.08,.11,.22,.16,.34,.09,.11-.06,.17-.23,.09-.34h0Z"/>
        <path class="cls-1" d="M255.67,69.96c-.82-1.09-1.55-2.26-2.18-3.47-.15-.29-.58-.03-.43,.25,.63,1.22,1.35,2.38,2.18,3.47,.08,.11,.22,.16,.34,.09,.11-.06,.17-.23,.09-.34h0Z"/>
        <path class="cls-1" d="M253.82,71.14c-.82-1.09-1.55-2.26-2.18-3.47-.15-.29-.58-.03-.43,.25,.63,1.22,1.35,2.38,2.18,3.47,.08,.11,.22,.16,.34,.09,.11-.06,.17-.23,.09-.34h0Z"/>
        <path class="cls-1" d="M252,72.27c-.82-1.09-1.55-2.26-2.18-3.47-.15-.29-.58-.03-.43,.25,.63,1.22,1.35,2.38,2.18,3.47,.08,.11,.22,.16,.34,.09,.11-.06,.17-.23,.09-.34h0Z"/>
        <path class="cls-1" d="M249.91,73.39c-.82-1.09-1.55-2.26-2.18-3.47-.15-.29-.58-.03-.43,.25,.63,1.22,1.35,2.38,2.18,3.47,.08,.11,.22,.16,.34,.09,.11-.06,.17-.23,.09-.34h0Z"/>
        <path class="cls-1" d="M246.46,74.83c-.82-1.09-1.55-2.26-2.18-3.47-.15-.29-.58-.03-.43,.25,.63,1.22,1.35,2.38,2.18,3.47,.08,.11,.22,.16,.34,.09,.11-.06,.17-.23,.09-.34h0Z"/>
        <path class="cls-1" d="M244.62,76.01c-.82-1.09-1.55-2.26-2.18-3.47-.15-.29-.58-.03-.43,.25,.63,1.22,1.35,2.38,2.18,3.47,.08,.11,.22,.16,.34,.09,.11-.06,.17-.23,.09-.34h0Z"/>
        <path class="cls-1" d="M242.8,77.14c-.82-1.09-1.55-2.26-2.18-3.47-.15-.29-.58-.03-.43,.25,.63,1.22,1.35,2.38,2.18,3.47,.08,.11,.22,.16,.34,.09,.11-.06,.17-.23,.09-.34h0Z"/>
        <path class="cls-1" d="M240.71,78.25c-.82-1.09-1.55-2.26-2.18-3.47-.15-.29-.58-.03-.43,.25,.63,1.22,1.35,2.38,2.18,3.47,.08,.11,.22,.16,.34,.09,.11-.06,.17-.23,.09-.34h0Z"/>
        <g>
          <line class="cls-67" x1="322.77" y1="25.96" x2="369.28" y2=".44"/>
          <path class="cls-1" d="M323.92,27.32c-.73-1.2-1.45-2.4-2.18-3.61-.14-.23-.7,.01-.85,.11-1.64,.99-3.28,1.98-4.92,2.97-.14,.08-.32,.16-.44,.27-.4,.35,.19-.61,.5-.09-.06-.1-1.06-.03-1.17-.04-.93-.03-1.9-.16-2.83-.09-.46,.03-.78,.22-1.18,.42l-2.89,1.47c-1.59,.81-3.18,1.62-4.77,2.44l.74-.09-1.62-1.37c-.16-.13-.59,.02-.74,.09-2.79,1.54-5.58,3.07-8.36,4.61l.74-.09c-.72-.35-1.07-.57-1.79-.2-.36,.18-.71,.4-1.06,.6l-4.86,2.76-17.74,10.07-22.44,12.74-19.62,11.14-6.49,3.69c-.98,.56-2.27,1.04-3.13,1.78-.04,.03-.09,.05-.14,.08l.83-.15c-1.22-1.36-2.52-2.67-3.88-3.89-1.21-1.09-3.44-3.45-5.31-2.68-.88,.36-.87,1.24-.77,2.07,.3,2.34,1.36,4.65,2.29,6.8,.37,.85,.74,1.69,1.13,2.53,.18,.4,.57,.67,.45,.93-.13,.29-1,.67-1.26,.84l-4.97,3.33c-3.21,2.15-6.43,4.31-9.64,6.46l.83-.15c-1.47-1.34-3.09-2.62-4.85-3.54s-4.56-1.25-4.56,1.52c0,3.23,1.75,6.65,3.02,9.53,.11,.24,1.05-.07,.97-.26-1.15-2.59-2.35-5.3-2.86-8.1-.12-.68-.5-2.64,.4-3.02,.65-.28,2.1,.65,2.68,.98,.99,.58,1.91,1.26,2.81,1.97,.51,.41,1.02,.82,1.5,1.26,.18,.16,.67-.04,.83-.15,5.33-3.57,10.67-7.14,16-10.72,.03-.02,.14-.1,.11-.15-1.4-2.96-2.88-6.02-3.67-9.22-.16-.66-.38-1.47-.24-2.16,.04-.17,.12-.31,.17-.47,.02-.08-.18-.14,.09,0,1.06,.58,2.02,1.07,2.97,1.86,1.11,.92,2.15,1.92,3.16,2.95,.58,.59,1.16,1.19,1.71,1.81,.16,.18,.68-.06,.83-.15,2.51-1.42,5.02-2.85,7.53-4.27,5.99-3.4,11.99-6.8,17.98-10.2,7.29-4.14,14.57-8.27,21.86-12.41,6.3-3.58,12.61-7.15,18.91-10.73l6.23-3.54c.92-.52,2.15-.98,2.96-1.68,.03-.03,.09-.05,.13-.07l-.83,.15c.69,.34,1.02,.57,1.73,.24,.91-.42,1.78-.98,2.65-1.46,1.85-1.02,3.71-2.04,5.56-3.06l-.74,.09,1.62,1.37c.16,.13,.59-.02,.74-.09,1.59-.81,3.18-1.62,4.77-2.44l2.89-1.47s.56-.23,.56-.29c-.02,.41-.92,.02-.31,.14,.19,.03,.4,.01,.6,.02,1.52,.05,3.05,.4,4.38-.4,1.66-1,3.32-2.01,4.99-3.01l-.85,.11c.73,1.2,1.45,2.4,2.18,3.61,.15,.25,1.05-.11,.97-.26h0Z"/>
          <path class="cls-1" d="M321.32,24.72c.67,1.24,1.33,2.47,2,3.71l.24-.47c-1.69,.91-3.37,1.82-5.06,2.73-1.34,.72-1.81,2.27-2.52,3.58-.08,.14-.15,.32-.25,.45-.12,.17,.21-.19,.04-.05s-.4,.26-.59,.38l-2.62,1.67-4.52,2.88c-.11,.07-.19,.19-.17,.33l.2,1.17c.03,.17,.01,.59,.12,.72,.19,.21,.13-.08,.14-.08-.58,.34-1.15,.68-1.73,1.03l-5.58,3.31c-.34,.2-.83,.38-1.01,.74-.16,.31-.25,1.08,.2,.64-.02,.02-.06,.03-.08,.05-.37,.22-.74,.43-1.12,.64-4.99,2.87-9.97,5.75-14.96,8.62-8.07,4.65-16.14,9.29-24.2,13.94s-15.35,8.84-23.02,13.26c-3.9,2.24-8,4.31-11.76,6.77-.05,.04-.11,.07-.17,.1-.13,.07-.33,.21-.28,.39,.62,1.96,1.14,3.97,1.52,5.99,.22,1.19,.5,2.54,.27,3.75s-.92,.48-1.63-.14c-2.65-2.26-4.65-5.47-6.59-8.31-.13-.19-.48-.13-.65-.05-5.78,2.78-11.57,5.57-17.35,8.35-.14,.07-.31,.21-.28,.39,.34,1.6,.56,3.25,.6,4.89,.02,.97,.06,2.18-.42,3.07-.5,.94-1.41,.31-2.09-.17-2.5-1.79-4.38-4.61-6.15-7.06-.24-.33-1.16,.03-.89,.41,1.77,2.46,3.63,5.15,6.06,7.02,.88,.67,2.09,1.35,3.18,.75,1.95-1.08,1.29-4.87,1.07-6.64-.1-.84-.23-1.68-.41-2.52l-.28,.39c5.78-2.78,11.57-5.57,17.35-8.35l-.65-.05c1.95,2.86,3.95,5.99,6.57,8.29,.77,.68,2.07,1.62,3.04,.71,.78-.74,.57-2.23,.47-3.17-.17-1.63-.54-3.23-.94-4.81-.26-1-.53-2-.84-2.98l-.28,.39c3.12-1.8,6.24-3.59,9.36-5.39,7.21-4.15,14.42-8.3,21.63-12.46,8.08-4.65,16.15-9.3,24.23-13.96,5.72-3.3,11.45-6.59,17.17-9.89,.92-.53,2.1-.99,2.91-1.68,.07-.06,.16-.08,.21-.15,.09-.13,.06-.19,.1-.33,.03-.09,.08-.85-.03-.63-.08,.18,.13-.05,.29-.14,.33-.18,.66-.39,.99-.58l5.56-3.3,1.28-.76c.11-.07,.19-.2,.17-.33l-.16-.93c-.04-.25-.05-.55-.14-.79-.14-.42,.08-.27-.23-.05,.4-.27,.81-.51,1.21-.77l5.03-3.2c.97-.62,1.57-.91,2.11-1.91,.44-.8,1.01-1.62,1.35-2.47,.04-.09,.1-.18,.14-.27,.03-.06-.36,.26-.13,.13,.25-.14,.5-.27,.75-.41l4.83-2.61c.18-.1,.35-.25,.24-.47-.67-1.24-1.33-2.47-2-3.71-.19-.35-1.12-.01-.89,.41h0Z"/>
          <path class="cls-67" d="M217.93,92.67s-2.98-4.25-3.53-5.41-2.37-4.87-2.37-4.87"/>
          <path class="cls-69" d="M216.58,76.79s4.16,5.85,4.94,7.46,3.4,6.77,3.4,6.77"/>
          <path class="cls-70" d="M308.14,39.78s-.62-4.23-4.67-8.53"/>
          <path class="cls-69" d="M195.72,92.81s2.33,3.4,2.77,4.33,1.91,3.93,1.91,3.93"/>
        </g>
      </g>
    </g>
  </g>
</svg>