<?xml version="1.0" encoding="UTF-8"?>
<svg id="Layer_2" data-name="Layer 2" xmlns="http://www.w3.org/2000/svg" viewBox="0 0 121.04 84">
  <defs>
    <style>
      .cls-1 {
        fill: #fff;
      }

      .cls-2, .cls-3 {
        fill: #231f20;
      }

      .cls-3 {
        font-family: Arial-ItalicMT, Arial;
        font-size: 12px;
        stroke: #231f20;
        stroke-miterlimit: 10;
        stroke-width: .5px;
      }
    </style>
  </defs>
  <g id="Layer_3" data-name="Layer 3">
    <g>
      <path class="cls-2" d="M15.43,2H104.57C105.86,2,105.86,0,104.57,0H15.43C14.15,0,14.14,2,15.43,2h0Z"/>
      <g>
        <path class="cls-1" d="M118.07,15.63c0,14.32,0,28.64,0,42.95"/>
        <path class="cls-2" d="M117.07,15.63c0,14.32,0,28.64,0,42.95,0,1.29,2,1.29,2,0,0-14.32,0-28.64,0-42.95,0-1.29-2-1.29-2,0h0Z"/>
      </g>
      <g>
        <path class="cls-1" d="M104.38,1c3.77,.03,7.96,2.12,10.3,5.09,2.39,3.03,3.33,5.89,3.38,9.55"/>
        <path class="cls-2" d="M104.38,2c3.37,.06,6.75,1.67,9.03,4.14,2.42,2.62,3.58,5.97,3.65,9.5,.03,1.29,2.03,1.29,2,0-.08-4.07-1.45-7.9-4.24-10.91C112.2,1.88,108.26,.07,104.38,0c-1.29-.02-1.29,1.98,0,2h0Z"/>
      </g>
      <g>
        <path class="cls-1" d="M102.11,70.73c-30.53,0-61.06,0-91.59,0"/>
        <path class="cls-2" d="M102.11,69.73c-23.81,0-47.62,0-71.43,0-6.72,0-13.44,0-20.16,0-1.29,0-1.29,2,0,2,23.81,0,47.62,0,71.43,0,6.72,0,13.44,0,20.16,0,1.29,0,1.29-2,0-2h0Z"/>
      </g>
      <g>
        <path class="cls-1" d="M1.03,57.64V14.68"/>
        <path class="cls-2" d="M2.03,57.64c0-14.32,0-28.64,0-42.95,0-1.29-2-1.29-2,0,0,14.32,0,28.64,0,42.95,0,1.29,2,1.29,2,0h0Z"/>
      </g>
      <g>
        <path class="cls-1" d="M1.03,14.68c.03-3.77,2.12-7.96,5.09-10.3C9.15,1.99,12.01,1.06,15.66,1"/>
        <path class="cls-2" d="M2.03,14.68c.06-3.37,1.67-6.75,4.14-9.03,2.62-2.42,5.97-3.58,9.5-3.65C16.95,1.97,16.95-.03,15.66,0,11.59,.08,7.76,1.45,4.75,4.24,1.9,6.87,.09,10.81,.03,14.68c-.02,1.29,1.98,1.29,2,0h0Z"/>
      </g>
      <g>
        <path class="cls-1" d="M118.07,57.84c-.03,3.77-1.54,7.01-4.77,9.35-3.31,2.39-7.2,3.48-11.18,3.54"/>
        <path class="cls-2" d="M117.07,57.84c-.05,3.36-1.46,6.38-4.18,8.41-3.11,2.33-6.93,3.4-10.78,3.48-1.29,.03-1.29,2.03,0,2,4.37-.09,8.72-1.35,12.19-4.06,3.09-2.41,4.7-5.95,4.76-9.83,.02-1.29-1.98-1.29-2,0h0Z"/>
      </g>
      <g>
        <path class="cls-1" d="M1,57.56v25.14"/>
        <path class="cls-2" d="M0,57.56v25.14c0,1.29,2,1.29,2,0v-25.14C2,56.27,0,56.27,0,57.56H0Z"/>
      </g>
      <g>
        <path class="cls-1" d="M12.01,71c-3.65,3.99-7.3,7.98-10.96,11.97"/>
        <path class="cls-2" d="M11.3,70.3L.34,82.27c-.87,.95,.54,2.37,1.41,1.41l10.96-11.97c.87-.95-.54-2.37-1.41-1.41h0Z"/>
      </g>
    </g>
    <text class="cls-3" transform="translate(4.65 41.93)"><tspan x="0" y="0">Catch me if you can!</tspan></text>
  </g>
</svg>