<?xml version="1.0" encoding="UTF-8"?>
<svg id="Layer_2" data-name="Layer 2" xmlns="http://www.w3.org/2000/svg" xmlns:xlink="http://www.w3.org/1999/xlink" viewBox="0 0 1309.7 77.72">
  <defs>
    <style>
      .cls-1 {
        fill: #ffe2c0;
        stroke: #8b5e3c;
        stroke-miterlimit: 10;
        stroke-width: 4px;
      }

      .cls-2 {
        filter: url(#outer-glow-1);
      }
    </style>
    <filter id="outer-glow-1" filterUnits="userSpaceOnUse">
      <feOffset dx="0" dy="0"/>
      <feGaussianBlur result="blur" stdDeviation="9"/>
      <feFlood flood-color="#231f20" flood-opacity=".83"/>
      <feComposite in2="blur" operator="in"/>
      <feComposite in="SourceGraphic"/>
    </filter>
  </defs>
  <g id="Layer_4" data-name="Layer 4">
    <g class="cls-2">
      <path class="cls-1" d="M38.54,52.9c-1.03,0-1.99-.2-2.88-.6-.89-.4-1.67-1.01-2.34-1.81-.68-.8-1.21-1.81-1.59-3.02-.39-1.21-.58-2.6-.58-4.18,0-1.22,.11-2.34,.34-3.36,.22-1.01,.5-1.92,.82-2.71,.32-.79,.68-1.46,1.06-2.01,.39-.55,.73-.98,1.02-1.31h28.67c1,1.45,1.71,3.04,2.13,4.76,.42,1.72,.63,3.42,.63,5.1,0,1.93-.23,3.7-.7,5.29-.47,1.59-1.02,2.89-1.67,3.89h-1.98v14.5c-1.26,1.1-2.69,2.14-4.3,3.14-1.61,1-3.44,1.88-5.49,2.63-2.05,.76-4.34,1.36-6.89,1.81-2.55,.45-5.37,.68-8.46,.68s-5.93-.27-8.8-.82c-2.87-.55-5.58-1.39-8.12-2.54-2.55-1.14-4.88-2.59-7.01-4.35-2.13-1.76-3.96-3.84-5.51-6.26-1.55-2.42-2.75-5.18-3.6-8.29-.85-3.11-1.28-6.6-1.28-10.47,0-5.41,.83-10.16,2.49-14.24,1.66-4.08,3.98-7.48,6.96-10.22,2.98-2.74,6.54-4.8,10.68-6.19,4.14-1.39,8.71-2.08,13.7-2.08,2.61,0,5.16,.22,7.64,.65,2.48,.44,4.8,1.02,6.96,1.74,2.16,.73,4.12,1.56,5.9,2.51,1.77,.95,3.27,1.96,4.5,3.02,0,1.06-.06,2.22-.19,3.48s-.3,2.51-.51,3.75c-.21,1.24-.47,2.42-.77,3.53-.31,1.11-.64,2.04-.99,2.78h-25.47c-.39,.42-.83,.98-1.33,1.69-.5,.71-.97,1.55-1.4,2.54-.44,.98-.81,2.11-1.11,3.38-.31,1.27-.46,2.68-.46,4.23,0,1.97,.25,3.67,.75,5.1,.5,1.43,1.16,2.63,1.98,3.58,.82,.95,1.77,1.66,2.85,2.13,1.08,.47,2.2,.7,3.36,.7,.58,0,.98-.1,1.21-.31,.22-.21,.34-.46,.34-.75v-1.11h-.53Z"/>
      <path class="cls-1" d="M101.6,75.67c-4.42,0-8.41-.64-11.99-1.91-3.58-1.27-6.63-3.11-9.16-5.51-2.53-2.4-4.48-5.32-5.85-8.77-1.37-3.45-2.05-7.33-2.05-11.65,0-4.54,.73-8.56,2.2-12.04,1.47-3.48,3.45-6.4,5.95-8.75,2.5-2.35,5.41-4.12,8.73-5.32,3.32-1.19,6.82-1.79,10.49-1.79,3.9,0,7.41,.57,10.54,1.72,3.12,1.14,5.79,2.72,8,4.71,2.21,2,3.91,4.33,5.1,7.01,1.19,2.68,1.79,5.53,1.79,8.56,0,2.87-.51,5.33-1.52,7.4-1.02,2.06-2.43,3.76-4.23,5.1-1.81,1.34-3.95,2.33-6.43,2.97-2.48,.64-5.17,.97-8.07,.97-2.19,0-4.31-.26-6.36-.77-2.05-.52-3.79-1.21-5.24-2.08-.16,.13-.27,.3-.31,.51-.05,.21-.07,.39-.07,.56,0,.48,.35,.96,1.06,1.43,.71,.47,1.63,.89,2.76,1.26,1.13,.37,2.42,.68,3.87,.92,1.45,.24,2.9,.36,4.35,.36,2,0,3.82-.14,5.46-.41,1.64-.27,3.12-.61,4.42-1.01,1.3-.4,2.44-.85,3.41-1.33,.97-.48,1.77-.95,2.42-1.4,.42,.36,.78,.88,1.09,1.57,.31,.69,.57,1.46,.8,2.3,.22,.84,.39,1.7,.51,2.59,.11,.89,.17,1.7,.17,2.44s-.04,1.44-.12,2.1c-.08,.66-.19,1.23-.31,1.72-1.03,.87-2.16,1.7-3.38,2.49-1.23,.79-2.68,1.48-4.35,2.08s-3.62,1.08-5.82,1.45c-2.21,.37-4.81,.56-7.81,.56Zm-.63-32.73c.8,0,1.41-.17,1.81-.51,.4-.34,.6-.78,.6-1.33,0-.64-.23-1.09-.7-1.35-.47-.26-1.02-.39-1.67-.39-.9,0-1.62,.25-2.15,.75-.53,.5-.86,1.17-.99,2.01,.32,.19,.74,.38,1.26,.56,.51,.18,1.13,.27,1.84,.27Z"/>
      <path class="cls-1" d="M141.46,21.34c2,0,3.67,.32,5,.97,1.34,.65,2.39,1.55,3.17,2.71-.42,.45-.81,1-1.18,1.64-.37,.64-.69,1.28-.97,1.91-.27,.63-.49,1.22-.65,1.79-.16,.56-.24,1.01-.24,1.33,0,.39,.14,.73,.43,1.04,.29,.31,.74,.46,1.35,.46,.61-2.38,1.47-4.38,2.59-5.99,1.11-1.61,2.38-2.9,3.82-3.87,1.43-.97,2.98-1.65,4.64-2.05,1.66-.4,3.34-.6,5.05-.6,1.39,0,2.66,.09,3.82,.27,1.16,.18,2.21,.41,3.14,.7,.93,.29,1.76,.62,2.47,.99,.71,.37,1.31,.73,1.79,1.09,.52,1.35,.89,2.79,1.11,4.3,.22,1.51,.34,3,.34,4.45,0,2.61-.23,4.79-.7,6.53-.47,1.74-.98,3.17-1.52,4.3-.52,.26-1.16,.52-1.93,.77s-1.62,.48-2.54,.68c-.92,.19-1.89,.35-2.92,.46-1.03,.11-2.05,.17-3.05,.17-1.06,0-2.01-.03-2.83-.1-.82-.06-1.57-.15-2.25-.27-.68-.11-1.3-.24-1.86-.39-.56-.15-1.14-.28-1.72-.41-.26,.26-.39,.63-.39,1.11,0,.45,.3,.81,.89,1.06,.6,.26,1.67,.53,3.21,.82v24.27c-1.1,.71-2.21,1.28-3.34,1.72-1.13,.44-2.23,.77-3.31,1.02-1.08,.24-2.11,.4-3.09,.48-.98,.08-1.89,.12-2.73,.12-1.8,0-3.5-.17-5.08-.51-1.58-.34-2.96-.85-4.13-1.55-1.18-.69-2.1-1.57-2.78-2.63-.68-1.06-1.01-2.34-1.01-3.82v-24.9c-.97-1.35-1.68-2.88-2.15-4.59-.47-1.71-.7-3.5-.7-5.37,0-1.55,.23-3.25,.7-5.12,.47-1.87,1.18-3.53,2.15-4.98h7.4Z"/>
      <path class="cls-1" d="M198.57,21.34c1.35,0,2.49,.24,3.41,.73,.92,.48,1.73,1.1,2.44,1.84-1.42,1.32-2.13,2.42-2.13,3.29,0,.39,.13,.73,.39,1.04,.26,.31,.69,.46,1.3,.46,.64-1.13,1.45-2.19,2.42-3.19s2.11-1.88,3.43-2.63c1.32-.76,2.83-1.36,4.52-1.81,1.69-.45,3.58-.68,5.68-.68,1.61,0,3.1,.19,4.47,.58,1.37,.39,2.6,.89,3.7,1.5,1.09,.61,2.03,1.28,2.8,2.01,.77,.73,1.38,1.44,1.84,2.15,.77-1.03,1.67-1.94,2.71-2.73,1.03-.79,2.13-1.44,3.31-1.96,1.18-.51,2.41-.9,3.7-1.16,1.29-.26,2.56-.39,3.82-.39,2.96,0,5.58,.47,7.86,1.4,2.27,.94,4.18,2.28,5.73,4.04,1.55,1.76,2.72,3.88,3.53,6.38,.8,2.5,1.21,5.31,1.21,8.44,0,1.45-.03,3.03-.1,4.74-.07,1.71-.1,3.34-.1,4.88,0,2.22,.24,4.1,.73,5.63,.48,1.53,1.4,2.72,2.75,3.55,.03,.26,.05,.53,.05,.82v.72c0,2.29-.36,4.31-1.09,6.07-.72,1.76-1.7,3.23-2.92,4.42-1.23,1.19-2.66,2.09-4.3,2.68s-3.38,.89-5.22,.89c-1.93,0-3.78-.26-5.54-.77-1.76-.51-3.3-1.37-4.64-2.56-1.34-1.19-2.4-2.76-3.19-4.69-.79-1.93-1.18-4.32-1.18-7.15v-15.28c0-2.16-.71-3.24-2.13-3.24-.23,0-.47,.04-.72,.12-.26,.08-.45,.17-.58,.27l.87,7.2v10.92c0,2.1,.16,3.97,.48,5.63,.32,1.66,.89,3.1,1.69,4.33-1.58,1.68-3.52,2.97-5.82,3.87-2.3,.9-4.63,1.35-6.99,1.35-1.71,0-3.33-.21-4.88-.63-1.55-.42-2.92-1.14-4.11-2.18-1.19-1.03-2.14-2.42-2.83-4.16-.69-1.74-1.04-3.92-1.04-6.53v-16.97c0-2.16-.71-3.24-2.13-3.24-.23,0-.47,.04-.72,.12-.26,.08-.45,.17-.58,.27l.87,7.2v12.81c0,1.74,.09,3.26,.27,4.57,.18,1.31,.57,2.57,1.18,3.79-1.42,1.48-3.26,2.67-5.54,3.55-2.27,.89-4.86,1.33-7.76,1.33-1.52,0-3.02-.21-4.52-.63-1.5-.42-2.84-1.06-4.04-1.93-1.19-.87-2.16-1.96-2.9-3.26-.74-1.31-1.11-2.86-1.11-4.67v-23.11c-.97-1.35-1.68-2.88-2.15-4.59-.47-1.71-.7-3.5-.7-5.37,0-1.55,.23-3.25,.7-5.12,.47-1.87,1.18-3.53,2.15-4.98h11.65Z"/>
      <path class="cls-1" d="M338.55,52.9c-1.03,0-1.99-.2-2.88-.6-.89-.4-1.67-1.01-2.34-1.81-.68-.8-1.21-1.81-1.59-3.02-.39-1.21-.58-2.6-.58-4.18,0-1.22,.11-2.34,.34-3.36,.22-1.01,.5-1.92,.82-2.71,.32-.79,.68-1.46,1.06-2.01,.39-.55,.73-.98,1.02-1.31h28.67c1,1.45,1.71,3.04,2.13,4.76,.42,1.72,.63,3.42,.63,5.1,0,1.93-.23,3.7-.7,5.29-.47,1.59-1.02,2.89-1.67,3.89h-1.98v14.5c-1.26,1.1-2.69,2.14-4.3,3.14-1.61,1-3.44,1.88-5.49,2.63-2.05,.76-4.34,1.36-6.89,1.81-2.55,.45-5.37,.68-8.46,.68s-5.93-.27-8.8-.82c-2.87-.55-5.58-1.39-8.12-2.54-2.55-1.14-4.88-2.59-7.01-4.35-2.13-1.76-3.96-3.84-5.51-6.26-1.55-2.42-2.75-5.18-3.6-8.29-.85-3.11-1.28-6.6-1.28-10.47,0-5.41,.83-10.16,2.49-14.24,1.66-4.08,3.98-7.48,6.96-10.22,2.98-2.74,6.54-4.8,10.68-6.19,4.14-1.39,8.71-2.08,13.7-2.08,2.61,0,5.16,.22,7.64,.65,2.48,.44,4.8,1.02,6.96,1.74,2.16,.73,4.12,1.56,5.9,2.51,1.77,.95,3.27,1.96,4.5,3.02,0,1.06-.06,2.22-.19,3.48s-.3,2.51-.51,3.75c-.21,1.24-.47,2.42-.77,3.53-.31,1.11-.64,2.04-.99,2.78h-25.47c-.39,.42-.83,.98-1.33,1.69-.5,.71-.97,1.55-1.4,2.54-.44,.98-.81,2.11-1.11,3.38-.31,1.27-.46,2.68-.46,4.23,0,1.97,.25,3.67,.75,5.1,.5,1.43,1.16,2.63,1.98,3.58,.82,.95,1.77,1.66,2.85,2.13,1.08,.47,2.2,.7,3.36,.7,.58,0,.98-.1,1.21-.31,.22-.21,.34-.46,.34-.75v-1.11h-.53Z"/>
      <path class="cls-1" d="M402.77,72.24c-.39,.32-.85,.65-1.38,.99-.53,.34-1.17,.64-1.91,.89-.74,.26-1.61,.48-2.61,.65-1,.18-2.16,.27-3.48,.27-1.45,0-2.95-.13-4.5-.39-1.55-.26-3.05-.7-4.52-1.33-1.47-.63-2.86-1.47-4.18-2.54-1.32-1.06-2.47-2.39-3.46-3.99-.98-1.59-1.76-3.48-2.34-5.66-.58-2.18-.87-4.71-.87-7.61v-12.13c-.68-1.19-1.26-2.57-1.74-4.13-.48-1.56-.73-3.34-.73-5.34,0-.87,.06-1.77,.17-2.71,.11-.93,.28-1.86,.51-2.78,.22-.92,.51-1.81,.87-2.68,.35-.87,.79-1.68,1.31-2.42h10.63c1.87,0,3.59,.22,5.17,.65,1.58,.43,2.93,1.12,4.06,2.05,1.13,.94,2.01,2.12,2.63,3.55,.63,1.43,.94,3.15,.94,5.15v15.66c0,1.81,.17,3.04,.51,3.7,.34,.66,.77,.99,1.28,.99,.32,0,.57-.05,.75-.14,.18-.1,.35-.21,.51-.34-.16-.55-.28-1.21-.36-1.98-.08-.77-.12-1.77-.12-3V23.75c.61-.35,1.3-.72,2.05-1.09,.76-.37,1.63-.7,2.63-.99,1-.29,2.12-.53,3.36-.73,1.24-.19,2.67-.29,4.28-.29,2.8,0,5.22,.38,7.25,1.14,2.03,.76,3.56,1.7,4.59,2.83v25.19c0,2.22,.24,4.13,.72,5.73,.48,1.59,1.4,2.81,2.76,3.65,.03,.26,.05,.57,.05,.94v.85c0,2.45-.33,4.56-.99,6.33-.66,1.77-1.57,3.23-2.73,4.38-1.16,1.14-2.54,1.99-4.13,2.54-1.6,.55-3.33,.82-5.2,.82-2.38,0-4.6-.55-6.65-1.64-2.05-1.09-3.58-2.76-4.62-4.98-1.1,0-1.64,.53-1.64,1.59,0,.36,.1,.73,.29,1.11s.47,.76,.82,1.11Z"/>
      <path class="cls-1" d="M483.66,50.24c0,2.22,.24,4.06,.73,5.51,.48,1.45,1.4,2.59,2.75,3.43,.03,.26,.05,.57,.05,.94v.85c0,2.45-.39,4.56-1.16,6.33-.77,1.77-1.78,3.23-3.02,4.38-1.24,1.14-2.65,1.99-4.23,2.54-1.58,.55-3.19,.82-4.83,.82-1.16,0-2.3-.14-3.41-.41-1.11-.27-2.16-.68-3.14-1.23-.98-.55-1.87-1.25-2.66-2.1-.79-.85-1.41-1.86-1.86-3.02-.55,0-.96,.15-1.23,.43-.27,.29-.41,.68-.41,1.16,0,.45,.15,.94,.44,1.45s.71,1.05,1.26,1.59c-1.03,.71-2.42,1.24-4.16,1.59-1.74,.35-3.51,.53-5.32,.53-2.93,0-5.6-.4-8-1.21-2.4-.81-4.46-2-6.19-3.58-1.72-1.58-3.06-3.5-4.01-5.78-.95-2.27-1.43-4.89-1.43-7.85s.51-5.71,1.52-7.95c1.02-2.24,2.39-4.09,4.13-5.56,1.74-1.47,3.76-2.55,6.07-3.26,2.3-.71,4.74-1.06,7.32-1.06,1.16,0,2.19,.04,3.09,.12,.9,.08,1.67,.17,2.32,.27,.74,.13,1.37,.26,1.89,.39,.1-.32,.14-.6,.14-.82,0-.42-.22-.77-.65-1.06-.44-.29-1.01-.51-1.72-.65-.71-.14-1.53-.25-2.46-.31-.94-.06-1.88-.1-2.85-.1-2.19,0-4.38,.24-6.57,.73-2.19,.48-4.16,1.23-5.9,2.22-.71-1.19-1.28-2.71-1.72-4.54-.43-1.84-.65-3.71-.65-5.61,0-.9,.06-1.81,.17-2.73,.11-.92,.35-1.73,.7-2.44,.84-.39,1.91-.81,3.21-1.28,1.3-.47,2.82-.9,4.54-1.31,1.72-.4,3.62-.75,5.7-1.04,2.08-.29,4.31-.44,6.7-.44,4.16,0,7.79,.47,10.9,1.4,3.11,.94,5.7,2.28,7.76,4.04,2.06,1.76,3.61,3.92,4.64,6.48,1.03,2.56,1.55,5.46,1.55,8.68v9.47Zm-25.09,2.37c-.74,0-1.27,.19-1.57,.56-.31,.37-.46,.8-.46,1.28,0,.65,.23,1.1,.7,1.35,.47,.26,1.02,.39,1.67,.39,1.03,0,1.82-.26,2.37-.77,.55-.51,.82-1.45,.82-2.8h-3.53Z"/>
      <path class="cls-1" d="M502.3,21.34c2,0,3.67,.32,5,.97,1.34,.65,2.39,1.55,3.17,2.71-.42,.45-.81,1-1.18,1.64-.37,.64-.69,1.28-.97,1.91-.27,.63-.49,1.22-.65,1.79-.16,.56-.24,1.01-.24,1.33,0,.39,.14,.73,.43,1.04,.29,.31,.74,.46,1.35,.46,.61-2.38,1.47-4.38,2.59-5.99,1.11-1.61,2.38-2.9,3.82-3.87,1.43-.97,2.98-1.65,4.64-2.05,1.66-.4,3.34-.6,5.05-.6,1.39,0,2.66,.09,3.82,.27,1.16,.18,2.21,.41,3.14,.7,.93,.29,1.76,.62,2.47,.99,.71,.37,1.31,.73,1.79,1.09,.52,1.35,.89,2.79,1.11,4.3,.22,1.51,.34,3,.34,4.45,0,2.61-.23,4.79-.7,6.53-.47,1.74-.98,3.17-1.52,4.3-.52,.26-1.16,.52-1.93,.77s-1.62,.48-2.54,.68c-.92,.19-1.89,.35-2.92,.46-1.03,.11-2.05,.17-3.05,.17-1.06,0-2.01-.03-2.83-.1-.82-.06-1.57-.15-2.25-.27-.68-.11-1.3-.24-1.86-.39-.56-.15-1.14-.28-1.72-.41-.26,.26-.39,.63-.39,1.11,0,.45,.3,.81,.89,1.06,.6,.26,1.67,.53,3.21,.82v24.27c-1.1,.71-2.21,1.28-3.34,1.72-1.13,.44-2.23,.77-3.31,1.02-1.08,.24-2.11,.4-3.09,.48-.98,.08-1.89,.12-2.73,.12-1.8,0-3.5-.17-5.08-.51-1.58-.34-2.96-.85-4.13-1.55-1.18-.69-2.1-1.57-2.78-2.63-.68-1.06-1.01-2.34-1.01-3.82v-24.9c-.97-1.35-1.68-2.88-2.15-4.59-.47-1.71-.7-3.5-.7-5.37,0-1.55,.23-3.25,.7-5.12,.47-1.87,1.18-3.53,2.15-4.98h7.4Z"/>
      <path class="cls-1" d="M595.18,49.81c0,2.22,.24,4.13,.73,5.73,.48,1.59,1.4,2.81,2.75,3.65,.03,.26,.05,.57,.05,.94v.85c0,2.45-.39,4.56-1.16,6.33-.77,1.77-1.78,3.23-3.02,4.38-1.24,1.14-2.65,1.99-4.23,2.54-1.58,.55-3.19,.82-4.83,.82-1.16,0-2.3-.13-3.41-.39-1.11-.26-2.16-.66-3.14-1.21-.98-.55-1.87-1.24-2.66-2.08-.79-.84-1.41-1.82-1.86-2.95-1.1,0-1.64,.53-1.64,1.59,0,.45,.18,.99,.56,1.62,.37,.63,.88,1.2,1.52,1.72-.94,.55-2.08,.97-3.43,1.26-1.35,.29-2.68,.43-3.96,.43-1.9,0-3.8-.21-5.7-.63-1.9-.42-3.72-1.09-5.46-2.01-1.74-.92-3.37-2.09-4.88-3.53-1.52-1.43-2.83-3.16-3.94-5.17-1.11-2.01-1.99-4.33-2.63-6.94-.65-2.61-.97-5.58-.97-8.89,0-4.22,.63-7.98,1.88-11.26,1.26-3.29,2.99-6.06,5.2-8.31,2.21-2.25,4.82-3.97,7.83-5.15,3.01-1.18,6.26-1.76,9.74-1.76,2.45,0,4.59,.24,6.43,.72,1.84,.48,3.4,1.05,4.69,1.69,.16-.16,.29-.35,.39-.56,.1-.21,.14-.39,.14-.56,0-.51-.33-.98-.99-1.4-.66-.42-1.5-.78-2.51-1.09-1.02-.31-2.14-.55-3.36-.72-1.23-.18-2.39-.27-3.48-.27,0-.61-.02-1.28-.07-2.01-.05-.72-.13-1.43-.24-2.13-.11-.69-.25-1.37-.41-2.03-.16-.66-.36-1.23-.58-1.72,.74-.87,1.55-1.67,2.42-2.42,.87-.74,1.84-1.38,2.92-1.91,1.08-.53,2.29-.95,3.62-1.26,1.34-.31,2.86-.46,4.57-.46,1.87,0,3.61,.27,5.22,.82,1.61,.55,3,1.36,4.18,2.44,1.18,1.08,2.09,2.4,2.75,3.96,.66,1.56,.99,3.36,.99,5.39v31.9Zm-23.64-2.22c0-1.06,.02-1.97,.05-2.73,.03-.76,.06-1.42,.1-1.98,.03-.56,.07-1.07,.12-1.52,.05-.45,.1-.93,.17-1.45-.13-.13-.28-.24-.46-.34-.18-.1-.41-.14-.7-.14-.32,0-.6,.1-.85,.29-.24,.19-.44,.61-.6,1.26-.16,.64-.27,1.47-.31,2.46-.05,1-.07,2.22-.07,3.67v4.93c0,.84,.1,1.44,.31,1.81,.21,.37,.62,.56,1.23,.56,.45,0,.79-.11,1.02-.34v-6.48Z"/>
      <path class="cls-1" d="M606.13,27.67c.64-.42,1.29-.76,1.93-1.01,.64-.26,1.34-.58,2.08-.97-.61-.32-1.24-.77-1.88-1.35-.65-.58-1.23-1.28-1.76-2.1-.53-.82-.97-1.76-1.31-2.83-.34-1.06-.51-2.25-.51-3.58,0-2.06,.36-3.94,1.09-5.63,.73-1.69,1.72-3.14,2.97-4.35,1.26-1.21,2.72-2.15,4.4-2.83,1.67-.68,3.48-1.02,5.41-1.02s3.78,.36,5.44,1.06c1.66,.71,3.1,1.68,4.33,2.9,1.22,1.22,2.18,2.68,2.88,4.37,.69,1.69,1.04,3.52,1.04,5.49,0,1.68-.28,3.23-.85,4.66-.56,1.43-1.31,2.72-2.25,3.84-.94,1.13-2.03,2.07-3.29,2.83-1.26,.76-2.56,1.28-3.92,1.57,0,.48,.1,.91,.31,1.28,.21,.37,.57,.56,1.09,.56,1.61,0,3.29-.64,5.03-1.93,.1,.07,.26,.18,.48,.34s.47,.35,.73,.58c.26,.23,.5,.44,.73,.65,.22,.21,.37,.36,.43,.46v19.14c0,2.22,.24,4.13,.73,5.73,.48,1.59,1.4,2.81,2.75,3.65,.03,.26,.05,.57,.05,.94v.85c0,2.45-.34,4.56-1.01,6.33-.68,1.77-1.63,3.23-2.85,4.38-1.22,1.14-2.68,1.99-4.37,2.54-1.69,.55-3.54,.82-5.54,.82-1.55,0-3.17-.26-4.86-.77-1.69-.51-3.24-1.38-4.64-2.61-1.4-1.22-2.56-2.86-3.48-4.91-.92-2.05-1.38-4.6-1.38-7.66V27.67Z"/>
      <path class="cls-1" d="M690.31,50.24c0,2.22,.24,4.06,.73,5.51,.48,1.45,1.4,2.59,2.75,3.43,.03,.26,.05,.57,.05,.94v.85c0,2.45-.39,4.56-1.16,6.33-.77,1.77-1.78,3.23-3.02,4.38-1.24,1.14-2.65,1.99-4.23,2.54-1.58,.55-3.19,.82-4.83,.82-1.16,0-2.3-.14-3.41-.41-1.11-.27-2.16-.68-3.14-1.23-.98-.55-1.87-1.25-2.66-2.1-.79-.85-1.41-1.86-1.86-3.02-.55,0-.96,.15-1.23,.43-.27,.29-.41,.68-.41,1.16,0,.45,.15,.94,.44,1.45s.71,1.05,1.26,1.59c-1.03,.71-2.42,1.24-4.16,1.59-1.74,.35-3.51,.53-5.32,.53-2.93,0-5.6-.4-8-1.21-2.4-.81-4.46-2-6.19-3.58-1.72-1.58-3.06-3.5-4.01-5.78-.95-2.27-1.43-4.89-1.43-7.85s.51-5.71,1.52-7.95c1.02-2.24,2.39-4.09,4.13-5.56,1.74-1.47,3.76-2.55,6.07-3.26,2.3-.71,4.74-1.06,7.32-1.06,1.16,0,2.19,.04,3.09,.12,.9,.08,1.67,.17,2.32,.27,.74,.13,1.37,.26,1.89,.39,.1-.32,.14-.6,.14-.82,0-.42-.22-.77-.65-1.06-.44-.29-1.01-.51-1.72-.65-.71-.14-1.53-.25-2.46-.31-.94-.06-1.88-.1-2.85-.1-2.19,0-4.38,.24-6.57,.73-2.19,.48-4.16,1.23-5.9,2.22-.71-1.19-1.28-2.71-1.72-4.54-.43-1.84-.65-3.71-.65-5.61,0-.9,.06-1.81,.17-2.73,.11-.92,.35-1.73,.7-2.44,.84-.39,1.91-.81,3.21-1.28,1.3-.47,2.82-.9,4.54-1.31,1.72-.4,3.62-.75,5.7-1.04,2.08-.29,4.31-.44,6.7-.44,4.16,0,7.79,.47,10.9,1.4,3.11,.94,5.7,2.28,7.76,4.04,2.06,1.76,3.61,3.92,4.64,6.48,1.03,2.56,1.55,5.46,1.55,8.68v9.47Zm-25.09,2.37c-.74,0-1.27,.19-1.57,.56-.31,.37-.46,.8-.46,1.28,0,.65,.23,1.1,.7,1.35,.47,.26,1.02,.39,1.67,.39,1.03,0,1.82-.26,2.37-.77,.55-.51,.82-1.45,.82-2.8h-3.53Z"/>
      <path class="cls-1" d="M710.15,21.34c1.35,0,2.49,.24,3.41,.73,.92,.48,1.73,1.1,2.44,1.84-1.42,1.32-2.13,2.42-2.13,3.29,0,.39,.13,.73,.39,1.04,.26,.31,.69,.46,1.3,.46,.64-1.13,1.49-2.21,2.54-3.24,1.05-1.03,2.27-1.93,3.67-2.71,1.4-.77,2.96-1.39,4.69-1.86,1.72-.47,3.57-.7,5.54-.7,2.32,0,4.68,.31,7.08,.92,2.4,.61,4.57,1.68,6.5,3.19,1.93,1.52,3.51,3.58,4.74,6.19s1.84,5.9,1.84,9.86c0,1.45-.02,3.08-.07,4.88-.05,1.8-.07,3.48-.07,5.03,0,2.22,.24,4.06,.73,5.51,.48,1.45,1.4,2.59,2.75,3.43,.03,.26,.05,.57,.05,.94v.85c0,2.29-.35,4.31-1.06,6.07-.71,1.76-1.68,3.23-2.9,4.42-1.23,1.19-2.65,2.09-4.28,2.68-1.63,.6-3.36,.89-5.2,.89-1.93,0-3.78-.27-5.54-.8-1.76-.53-3.3-1.4-4.64-2.61-1.34-1.21-2.4-2.79-3.19-4.74-.79-1.95-1.18-4.34-1.18-7.18,0-1.51,.06-2.95,.17-4.3,.11-1.35,.24-2.62,.39-3.79,.15-1.18,.28-2.26,.41-3.26,.13-1,.19-1.92,.19-2.75,0-1.55-.17-2.6-.51-3.17-.34-.56-.88-.85-1.62-.85-.48,0-.94,.13-1.35,.39l.63,7.88c-.16,.97-.3,1.94-.41,2.92-.11,.98-.2,1.91-.27,2.78-.06,.87-.11,1.66-.14,2.37-.03,.71-.05,1.29-.05,1.74,0,2.51,.25,4.59,.75,6.24,.5,1.64,1.07,3.06,1.72,4.25-1.42,1.48-3.26,2.67-5.54,3.55-2.27,.89-4.86,1.33-7.76,1.33-1.45,0-2.92-.21-4.42-.63-1.5-.42-2.85-1.06-4.06-1.91-1.21-.85-2.2-1.92-2.97-3.19-.77-1.27-1.16-2.78-1.16-4.52v-23.4c-.97-1.35-1.68-2.88-2.15-4.59-.47-1.71-.7-3.5-.7-5.37,0-1.55,.23-3.25,.7-5.12,.47-1.87,1.18-3.53,2.15-4.98h8.6Z"/>
      <path class="cls-1" d="M799.67,16.16c1.26-.8,2.67-1.54,4.25-2.2,1.58-.66,3.25-1.22,5-1.67,1.76-.45,3.58-.8,5.46-1.04,1.88-.24,3.78-.36,5.68-.36,2.51,0,5,.23,7.47,.68,2.46,.45,4.71,1.16,6.74,2.13s3.77,2.22,5.22,3.75c1.45,1.53,2.43,3.36,2.95,5.49l11.02,45.58c-1.48,1.9-3.56,3.46-6.24,4.69-2.68,1.22-6.06,1.84-10.15,1.84-1.81,0-3.5-.16-5.08-.48-1.58-.32-2.97-.8-4.18-1.43-1.21-.63-2.21-1.42-3-2.37-.79-.95-1.3-2.07-1.52-3.36l-1.06-5.9c1-.03,1.99-.15,2.97-.36,.98-.21,1.87-.47,2.66-.77,.79-.31,1.43-.65,1.93-1.04,.5-.39,.75-.77,.75-1.16,0-.52-.21-.93-.63-1.26-.58,.42-1.26,.8-2.03,1.14-.77,.34-1.59,.62-2.44,.85-.85,.23-1.71,.4-2.56,.51-.85,.11-1.65,.17-2.39,.17-1.39,0-2.62-.09-3.7-.27-1.08-.18-2.02-.39-2.83-.65-.81-.26-1.5-.54-2.08-.85-.58-.31-1.06-.6-1.45-.89-.13,.16-.24,.35-.34,.56-.1,.21-.14,.44-.14,.7,0,.48,.25,.93,.75,1.33,.5,.4,1.17,.76,2.01,1.06,.84,.31,1.8,.56,2.88,.75,1.08,.19,2.22,.32,3.41,.39,.19,2.26,.41,4.05,.65,5.39,.24,1.34,.48,2.18,.7,2.54-.29,.55-.86,1.14-1.72,1.76-.85,.63-1.92,1.22-3.19,1.76-1.27,.55-2.72,1-4.35,1.35-1.63,.35-3.36,.53-5.2,.53-2.29,0-4.45-.26-6.48-.77-2.03-.51-3.8-1.23-5.32-2.15-1.52-.92-2.72-2.03-3.63-3.33-.9-1.31-1.35-2.76-1.35-4.38,0-.35,.02-.72,.05-1.09,.03-.37,.1-.75,.19-1.14l10.3-46.02Zm22.72,24.89c-.36-1.93-.64-3.48-.85-4.64-.21-1.16-.42-2.04-.63-2.63-.21-.6-.43-.98-.68-1.16-.24-.18-.54-.27-.89-.27-.23,0-.43,.03-.63,.1s-.37,.13-.53,.19l1.84,9.76c.13,.13,.31,.23,.56,.29,.24,.06,.46,.1,.65,.1,.29,0,.56-.04,.82-.12,.26-.08,.45-.15,.58-.22l-.24-1.4Z"/>
      <path class="cls-1" d="M909.08,49.81c0,2.22,.24,4.13,.73,5.73,.48,1.59,1.4,2.81,2.75,3.65,.03,.26,.05,.57,.05,.94v.85c0,2.45-.39,4.56-1.16,6.33-.77,1.77-1.78,3.23-3.02,4.38-1.24,1.14-2.65,1.99-4.23,2.54-1.58,.55-3.19,.82-4.83,.82-1.16,0-2.3-.13-3.41-.39-1.11-.26-2.16-.66-3.14-1.21-.98-.55-1.87-1.24-2.66-2.08-.79-.84-1.41-1.82-1.86-2.95-1.1,0-1.64,.53-1.64,1.59,0,.45,.18,.99,.56,1.62,.37,.63,.88,1.2,1.52,1.72-.94,.55-2.08,.97-3.43,1.26-1.35,.29-2.68,.43-3.96,.43-1.9,0-3.8-.21-5.7-.63-1.9-.42-3.72-1.09-5.46-2.01-1.74-.92-3.37-2.09-4.88-3.53-1.52-1.43-2.83-3.16-3.94-5.17-1.11-2.01-1.99-4.33-2.63-6.94-.65-2.61-.97-5.58-.97-8.89,0-4.22,.63-7.98,1.88-11.26,1.26-3.29,2.99-6.06,5.2-8.31,2.21-2.25,4.82-3.97,7.83-5.15,3.01-1.18,6.26-1.76,9.74-1.76,2.45,0,4.59,.24,6.43,.72,1.84,.48,3.4,1.05,4.69,1.69,.16-.16,.29-.35,.39-.56,.1-.21,.14-.39,.14-.56,0-.51-.33-.98-.99-1.4-.66-.42-1.5-.78-2.51-1.09-1.02-.31-2.14-.55-3.36-.72-1.23-.18-2.39-.27-3.48-.27,0-.61-.02-1.28-.07-2.01-.05-.72-.13-1.43-.24-2.13-.11-.69-.25-1.37-.41-2.03-.16-.66-.36-1.23-.58-1.72,.74-.87,1.55-1.67,2.42-2.42,.87-.74,1.84-1.38,2.92-1.91,1.08-.53,2.29-.95,3.62-1.26,1.34-.31,2.86-.46,4.57-.46,1.87,0,3.61,.27,5.22,.82,1.61,.55,3,1.36,4.18,2.44,1.18,1.08,2.09,2.4,2.75,3.96,.66,1.56,.99,3.36,.99,5.39v31.9Zm-23.64-2.22c0-1.06,.02-1.97,.05-2.73,.03-.76,.06-1.42,.1-1.98,.03-.56,.07-1.07,.12-1.52,.05-.45,.1-.93,.17-1.45-.13-.13-.28-.24-.46-.34-.18-.1-.41-.14-.7-.14-.32,0-.6,.1-.85,.29-.24,.19-.44,.61-.6,1.26-.16,.64-.27,1.47-.31,2.46-.05,1-.07,2.22-.07,3.67v4.93c0,.84,.1,1.44,.31,1.81,.21,.37,.62,.56,1.23,.56,.45,0,.79-.11,1.02-.34v-6.48Z"/>
      <path class="cls-1" d="M961.36,66.29c-.9,1.97-1.97,3.53-3.21,4.69-1.24,1.16-2.61,2.04-4.11,2.63-1.5,.6-3.1,.98-4.81,1.16-1.71,.18-3.5,.27-5.37,.27-1.13,0-2.27-.05-3.43-.15-1.16-.1-2.29-.23-3.38-.41-1.1-.18-2.11-.38-3.05-.6-.94-.22-1.74-.48-2.42-.77-2.19-4.48-4.25-9.27-6.16-14.38-1.92-5.11-3.71-10.87-5.39-17.28-.48-.48-.94-1.07-1.38-1.76-.44-.69-.82-1.47-1.16-2.32-.34-.85-.6-1.76-.8-2.73s-.29-1.96-.29-3c0-1.77,.23-3.54,.68-5.32,.45-1.77,1.19-3.43,2.22-4.98h12.04c2.32,0,4.24,.33,5.75,.99,1.51,.66,2.73,1.53,3.65,2.61,.92,1.08,1.6,2.3,2.05,3.67,.45,1.37,.77,2.76,.97,4.18-.1,.87-.2,1.99-.31,3.36-.11,1.37-.22,2.86-.31,4.47-.1,1.61-.18,3.27-.24,4.98-.07,1.71-.1,3.35-.1,4.93v1.18c0,.4,.02,.78,.05,1.14,.35,.16,.72,.24,1.11,.24,.93,0,1.4-.63,1.4-1.88,0-.93,.03-2.13,.1-3.6,.06-1.47,.15-3.06,.27-4.79,.11-1.72,.24-3.5,.39-5.34,.14-1.84,.29-3.61,.43-5.32,.15-1.71,.28-3.28,.41-4.71,.13-1.43,.24-2.6,.34-3.5,1.19-.81,2.7-1.51,4.52-2.13,1.82-.61,3.81-.92,5.97-.92,2.38,0,4.42,.31,6.12,.92,1.69,.61,3.07,1.44,4.13,2.49,1.06,1.05,1.84,2.26,2.34,3.62,.5,1.37,.75,2.83,.75,4.38,0,.84-.08,1.92-.24,3.24-.16,1.32-.39,2.55-.68,3.67-.58,2.22-1.23,4.58-1.96,7.08-.73,2.5-1.47,4.96-2.25,7.4-.77,2.43-1.56,4.75-2.37,6.94-.81,2.19-1.56,4.08-2.27,5.66Z"/>
      <path class="cls-1" d="M1005.56,75.67c-4.42,0-8.41-.64-11.99-1.91-3.58-1.27-6.63-3.11-9.16-5.51-2.53-2.4-4.48-5.32-5.85-8.77-1.37-3.45-2.05-7.33-2.05-11.65,0-4.54,.73-8.56,2.2-12.04,1.47-3.48,3.45-6.4,5.95-8.75,2.5-2.35,5.41-4.12,8.73-5.32,3.32-1.19,6.82-1.79,10.49-1.79,3.9,0,7.41,.57,10.54,1.72,3.12,1.14,5.79,2.72,8,4.71,2.21,2,3.91,4.33,5.1,7.01,1.19,2.68,1.79,5.53,1.79,8.56,0,2.87-.51,5.33-1.52,7.4-1.02,2.06-2.43,3.76-4.23,5.1-1.81,1.34-3.95,2.33-6.43,2.97-2.48,.64-5.17,.97-8.07,.97-2.19,0-4.31-.26-6.36-.77-2.05-.52-3.79-1.21-5.24-2.08-.16,.13-.27,.3-.31,.51-.05,.21-.07,.39-.07,.56,0,.48,.35,.96,1.06,1.43,.71,.47,1.63,.89,2.76,1.26,1.13,.37,2.42,.68,3.87,.92,1.45,.24,2.9,.36,4.35,.36,2,0,3.82-.14,5.46-.41,1.64-.27,3.12-.61,4.42-1.01,1.3-.4,2.44-.85,3.41-1.33,.97-.48,1.77-.95,2.42-1.4,.42,.36,.78,.88,1.09,1.57,.31,.69,.57,1.46,.8,2.3,.22,.84,.39,1.7,.51,2.59,.11,.89,.17,1.7,.17,2.44s-.04,1.44-.12,2.1c-.08,.66-.19,1.23-.31,1.72-1.03,.87-2.16,1.7-3.38,2.49-1.23,.79-2.68,1.48-4.35,2.08s-3.62,1.08-5.82,1.45c-2.21,.37-4.81,.56-7.81,.56Zm-.63-32.73c.8,0,1.41-.17,1.81-.51,.4-.34,.6-.78,.6-1.33,0-.64-.23-1.09-.7-1.35-.47-.26-1.02-.39-1.67-.39-.9,0-1.62,.25-2.15,.75-.53,.5-.86,1.17-.99,2.01,.32,.19,.74,.38,1.26,.56,.51,.18,1.13,.27,1.84,.27Z"/>
      <path class="cls-1" d="M1046.63,21.34c1.35,0,2.49,.24,3.41,.73,.92,.48,1.73,1.1,2.44,1.84-1.42,1.32-2.13,2.42-2.13,3.29,0,.39,.13,.73,.39,1.04,.26,.31,.69,.46,1.3,.46,.64-1.13,1.49-2.21,2.54-3.24,1.05-1.03,2.27-1.93,3.67-2.71,1.4-.77,2.96-1.39,4.69-1.86,1.72-.47,3.57-.7,5.54-.7,2.32,0,4.68,.31,7.08,.92,2.4,.61,4.57,1.68,6.5,3.19,1.93,1.52,3.51,3.58,4.74,6.19s1.84,5.9,1.84,9.86c0,1.45-.02,3.08-.07,4.88-.05,1.8-.07,3.48-.07,5.03,0,2.22,.24,4.06,.73,5.51,.48,1.45,1.4,2.59,2.75,3.43,.03,.26,.05,.57,.05,.94v.85c0,2.29-.35,4.31-1.06,6.07-.71,1.76-1.68,3.23-2.9,4.42-1.23,1.19-2.65,2.09-4.28,2.68-1.63,.6-3.36,.89-5.2,.89-1.93,0-3.78-.27-5.54-.8-1.76-.53-3.3-1.4-4.64-2.61-1.34-1.21-2.4-2.79-3.19-4.74-.79-1.95-1.18-4.34-1.18-7.18,0-1.51,.06-2.95,.17-4.3,.11-1.35,.24-2.62,.39-3.79,.15-1.18,.28-2.26,.41-3.26,.13-1,.19-1.92,.19-2.75,0-1.55-.17-2.6-.51-3.17-.34-.56-.88-.85-1.62-.85-.48,0-.94,.13-1.35,.39l.63,7.88c-.16,.97-.3,1.94-.41,2.92-.11,.98-.2,1.91-.27,2.78-.06,.87-.11,1.66-.14,2.37-.03,.71-.05,1.29-.05,1.74,0,2.51,.25,4.59,.75,6.24,.5,1.64,1.07,3.06,1.72,4.25-1.42,1.48-3.26,2.67-5.54,3.55-2.27,.89-4.86,1.33-7.76,1.33-1.45,0-2.92-.21-4.42-.63-1.5-.42-2.85-1.06-4.06-1.91-1.21-.85-2.2-1.92-2.97-3.19-.77-1.27-1.16-2.78-1.16-4.52v-23.4c-.97-1.35-1.68-2.88-2.15-4.59-.47-1.71-.7-3.5-.7-5.37,0-1.55,.23-3.25,.7-5.12,.47-1.87,1.18-3.53,2.15-4.98h8.6Z"/>
      <path class="cls-1" d="M1101.9,43.62h3c.84,0,1.45-.14,1.84-.44,.39-.29,.58-.68,.58-1.16,0-.19-.03-.39-.1-.58h-10.83c-.36-1.16-.62-2.44-.8-3.84-.18-1.4-.27-2.83-.27-4.28,0-.93,.06-2.01,.17-3.21,.11-1.21,.27-2.22,.46-3.02,1.35-.84,2.7-1.74,4.04-2.71,1.34-.97,2.52-1.84,3.55-2.61,.29-.68,.63-1.56,1.01-2.66s.77-2.24,1.16-3.43c.39-1.19,.76-2.34,1.11-3.46,.35-1.11,.66-2.04,.92-2.78,1.03-.26,2.4-.48,4.11-.68,1.71-.19,3.45-.29,5.22-.29,1.38,0,2.78,.08,4.18,.24,1.4,.16,2.94,.42,4.62,.77v11.84h14.5c.93,1.42,1.63,3.01,2.1,4.76,.47,1.76,.7,3.5,.7,5.25,0,1.64-.23,3.39-.7,5.25-.47,1.85-1.17,3.46-2.1,4.81h-13.05v7.3c0,2.22,.45,3.81,1.35,4.76,.9,.95,2.17,1.43,3.82,1.43h2.08c.26,.97,.49,2,.7,3.09,.21,1.1,.31,2.19,.31,3.29,0,4.48-1.4,7.9-4.21,10.25s-6.8,3.53-11.99,3.53c-2.61,0-4.99-.36-7.13-1.06-2.14-.71-3.99-1.79-5.54-3.24-1.55-1.45-2.74-3.26-3.58-5.44-.84-2.18-1.26-4.75-1.26-7.71v-13.97Z"/>
      <path class="cls-1" d="M1173.27,72.24c-.39,.32-.85,.65-1.38,.99-.53,.34-1.17,.64-1.91,.89-.74,.26-1.61,.48-2.61,.65-1,.18-2.16,.27-3.48,.27-1.45,0-2.95-.13-4.5-.39-1.55-.26-3.05-.7-4.52-1.33-1.47-.63-2.86-1.47-4.18-2.54-1.32-1.06-2.47-2.39-3.46-3.99-.98-1.59-1.76-3.48-2.34-5.66-.58-2.18-.87-4.71-.87-7.61v-12.13c-.68-1.19-1.26-2.57-1.74-4.13-.48-1.56-.73-3.34-.73-5.34,0-.87,.06-1.77,.17-2.71,.11-.93,.28-1.86,.51-2.78,.22-.92,.51-1.81,.87-2.68,.35-.87,.79-1.68,1.31-2.42h10.63c1.87,0,3.59,.22,5.17,.65,1.58,.43,2.93,1.12,4.06,2.05,1.13,.94,2.01,2.12,2.63,3.55,.63,1.43,.94,3.15,.94,5.15v15.66c0,1.81,.17,3.04,.51,3.7,.34,.66,.77,.99,1.28,.99,.32,0,.57-.05,.75-.14,.18-.1,.35-.21,.51-.34-.16-.55-.28-1.21-.36-1.98-.08-.77-.12-1.77-.12-3V23.75c.61-.35,1.3-.72,2.05-1.09,.76-.37,1.63-.7,2.63-.99,1-.29,2.12-.53,3.36-.73,1.24-.19,2.67-.29,4.28-.29,2.8,0,5.22,.38,7.25,1.14,2.03,.76,3.56,1.7,4.59,2.83v25.19c0,2.22,.24,4.13,.72,5.73,.48,1.59,1.4,2.81,2.76,3.65,.03,.26,.05,.57,.05,.94v.85c0,2.45-.33,4.56-.99,6.33-.66,1.77-1.57,3.23-2.73,4.38-1.16,1.14-2.54,1.99-4.13,2.54-1.6,.55-3.33,.82-5.2,.82-2.38,0-4.6-.55-6.65-1.64-2.05-1.09-3.58-2.76-4.62-4.98-1.1,0-1.64,.53-1.64,1.59,0,.36,.1,.73,.29,1.11s.47,.76,.82,1.11Z"/>
      <path class="cls-1" d="M1213.37,21.34c2,0,3.67,.32,5,.97,1.34,.65,2.39,1.55,3.17,2.71-.42,.45-.81,1-1.18,1.64-.37,.64-.69,1.28-.97,1.91-.27,.63-.49,1.22-.65,1.79-.16,.56-.24,1.01-.24,1.33,0,.39,.14,.73,.43,1.04,.29,.31,.74,.46,1.35,.46,.61-2.38,1.47-4.38,2.59-5.99,1.11-1.61,2.38-2.9,3.82-3.87,1.43-.97,2.98-1.65,4.64-2.05,1.66-.4,3.34-.6,5.05-.6,1.39,0,2.66,.09,3.82,.27,1.16,.18,2.21,.41,3.14,.7,.93,.29,1.76,.62,2.47,.99,.71,.37,1.31,.73,1.79,1.09,.52,1.35,.89,2.79,1.11,4.3,.22,1.51,.34,3,.34,4.45,0,2.61-.23,4.79-.7,6.53-.47,1.74-.98,3.17-1.52,4.3-.52,.26-1.16,.52-1.93,.77s-1.62,.48-2.54,.68c-.92,.19-1.89,.35-2.92,.46-1.03,.11-2.05,.17-3.05,.17-1.06,0-2.01-.03-2.83-.1-.82-.06-1.57-.15-2.25-.27-.68-.11-1.3-.24-1.86-.39-.56-.15-1.14-.28-1.72-.41-.26,.26-.39,.63-.39,1.11,0,.45,.3,.81,.89,1.06,.6,.26,1.67,.53,3.21,.82v24.27c-1.1,.71-2.21,1.28-3.34,1.72-1.13,.44-2.23,.77-3.31,1.02-1.08,.24-2.11,.4-3.09,.48-.98,.08-1.89,.12-2.73,.12-1.8,0-3.5-.17-5.08-.51-1.58-.34-2.96-.85-4.13-1.55-1.18-.69-2.1-1.57-2.78-2.63-.68-1.06-1.01-2.34-1.01-3.82v-24.9c-.97-1.35-1.68-2.88-2.15-4.59-.47-1.71-.7-3.5-.7-5.37,0-1.55,.23-3.25,.7-5.12,.47-1.87,1.18-3.53,2.15-4.98h7.4Z"/>
      <path class="cls-1" d="M1283.97,75.67c-4.42,0-8.41-.64-11.99-1.91-3.58-1.27-6.63-3.11-9.16-5.51-2.53-2.4-4.48-5.32-5.85-8.77-1.37-3.45-2.05-7.33-2.05-11.65,0-4.54,.73-8.56,2.2-12.04,1.47-3.48,3.45-6.4,5.95-8.75,2.5-2.35,5.41-4.12,8.73-5.32,3.32-1.19,6.82-1.79,10.49-1.79,3.9,0,7.41,.57,10.54,1.72,3.12,1.14,5.79,2.72,8,4.71,2.21,2,3.91,4.33,5.1,7.01,1.19,2.68,1.79,5.53,1.79,8.56,0,2.87-.51,5.33-1.52,7.4-1.02,2.06-2.43,3.76-4.23,5.1-1.81,1.34-3.95,2.33-6.43,2.97-2.48,.64-5.17,.97-8.07,.97-2.19,0-4.31-.26-6.36-.77-2.05-.52-3.79-1.21-5.24-2.08-.16,.13-.27,.3-.31,.51-.05,.21-.07,.39-.07,.56,0,.48,.35,.96,1.06,1.43,.71,.47,1.63,.89,2.76,1.26,1.13,.37,2.42,.68,3.87,.92,1.45,.24,2.9,.36,4.35,.36,2,0,3.82-.14,5.46-.41,1.64-.27,3.12-.61,4.42-1.01,1.3-.4,2.44-.85,3.41-1.33,.97-.48,1.77-.95,2.42-1.4,.42,.36,.78,.88,1.09,1.57,.31,.69,.57,1.46,.8,2.3,.22,.84,.39,1.7,.51,2.59,.11,.89,.17,1.7,.17,2.44s-.04,1.44-.12,2.1c-.08,.66-.19,1.23-.31,1.72-1.03,.87-2.16,1.7-3.38,2.49-1.23,.79-2.68,1.48-4.35,2.08s-3.62,1.08-5.82,1.45c-2.21,.37-4.81,.56-7.81,.56Zm-.63-32.73c.8,0,1.41-.17,1.81-.51,.4-.34,.6-.78,.6-1.33,0-.64-.23-1.09-.7-1.35-.47-.26-1.02-.39-1.67-.39-.9,0-1.62,.25-2.15,.75-.53,.5-.86,1.17-.99,2.01,.32,.19,.74,.38,1.26,.56,.51,.18,1.13,.27,1.84,.27Z"/>
    </g>
  </g>
</svg>