<?xml version="1.0" encoding="UTF-8"?>
<svg id="Layer_2" data-name="Layer 2" xmlns="http://www.w3.org/2000/svg" viewBox="0 0 41 40.87">
  <defs>
    <style>
      .cls-1 {
        stroke-width: 3px;
      }

      .cls-1, .cls-2 {
        fill: none;
        stroke: #bf757c;
        stroke-miterlimit: 10;
      }

      .cls-2 {
        stroke-width: 2px;
      }
    </style>
  </defs>
  <g id="Layer_3" data-name="Layer 3">
    <polygon class="cls-1" points="18.25 1.5 17.44 5.99 12.53 8.04 8.85 5.59 5.59 8.45 8.04 12.12 6.4 17.44 1.5 18.25 1.5 22.61 5.99 23.56 8.45 28.88 5.99 32.55 8.45 35.41 12.12 32.96 18.25 35.03 18.25 39.37 22.96 39.37 22.96 34.93 28.47 32.55 32.15 35.01 35.41 32.15 32.96 28.47 35.01 22.75 39.5 22.75 39.5 18.27 35.01 17.44 32.96 12.12 35.41 8.45 32.55 5.59 28.88 8.04 25.01 6.61 22.96 5.86 22.96 1.5 18.25 1.5"/>
    <circle class="cls-2" cx="20.5" cy="20.5" r="7.15"/>
  </g>
</svg>