<?xml version="1.0" encoding="UTF-8"?>
<svg id="Layer_2" data-name="Layer 2" xmlns="http://www.w3.org/2000/svg" viewBox="0 0 45 33.22">
  <defs>
    <style>
      .cls-1 {
        fill: #bf757c;
      }
    </style>
  </defs>
  <g id="Layer_17" data-name="Layer 17">
    <path class="cls-1" d="M1.29,10.38H10.37L20.2,1.9s.9-.48,1.5,0,.74,.55,.74,1.91V31.79s-.27,.95-.61,1.15-.54,.27-.88,.27-.54-.07-.81-.27-9.89-8.54-9.89-8.54H1.22s-.61-.14-.81-.41-.41-.51-.41-.83V11.55s.14-.43,.41-.77,.88-.41,.88-.41Z"/>
    <path class="cls-1" d="M29.28,26.63c4.18-5.42,4.71-14.04-1.01-18.64-.63-.51-1.5-.62-2.12,0-.53,.53-.63,1.61,0,2.12,4.76,3.83,3.97,10.57,.55,15.01-.5,.64-.1,1.68,.54,2.05,.77,.45,1.56,.11,2.05-.54h0Z"/>
    <path class="cls-1" d="M34.85,28.26c5.34-6.92,6.07-17.88-1.25-23.76-1.49-1.2-3.63,.91-2.12,2.12,6.36,5.11,5.37,14.18,.78,20.13-.5,.65-.09,1.67,.54,2.05,.77,.46,1.56,.1,2.05-.54h0Z"/>
    <path class="cls-1" d="M39.08,32.74c3.84-4.96,6.19-11.06,5.9-17.4-.27-5.78-2.74-11.34-7.3-14.99-1.49-1.2-3.63,.91-2.12,2.12,8.75,7.01,7.8,19.88,1.4,28.14-.5,.65-.62,1.49,0,2.12,.51,.52,1.63,.64,2.12,0h0Z"/>
  </g>
</svg>