<?xml version="1.0" encoding="UTF-8"?>
<svg id="Layer_2" data-name="Layer 2" xmlns="http://www.w3.org/2000/svg" viewBox="0 0 183.26 110.33">
  <defs>
    <style>
      .cls-1 {
        fill: #ec1c24;
      }

      .cls-2, .cls-3 {
        fill: #f1f1f2;
      }

      .cls-4, .cls-5, .cls-6, .cls-7 {
        fill: none;
        stroke: #ec1c24;
        stroke-miterlimit: 10;
      }

      .cls-5, .cls-8, .cls-3 {
        opacity: .49;
      }

      .cls-6 {
        opacity: .17;
      }

      .cls-7 {
        stroke-width: .5px;
      }
    </style>
  </defs>
  <g id="Layer_12" data-name="Layer 12">
    <g>
      <g>
        <path class="cls-1" d="M109.09,49.49c-1.55-2.31-2.9-4.74-4.05-7.27-.13-.29-.56-.04-.43,.25,1.15,2.53,2.5,4.96,4.05,7.27,.18,.27,.61,.02,.43-.25h0Z"/>
        <path class="cls-1" d="M99.58,54.98c-1.55-2.31-2.9-4.74-4.05-7.27-.13-.29-.56-.04-.43,.25,1.15,2.53,2.5,4.96,4.05,7.27,.18,.27,.61,.02,.43-.25h0Z"/>
        <path class="cls-1" d="M90.32,60.32c-1.55-2.31-2.9-4.74-4.05-7.27-.13-.29-.56-.04-.43,.25,1.15,2.53,2.5,4.96,4.05,7.27,.18,.27,.61,.02,.43-.25h0Z"/>
        <path class="cls-1" d="M80.84,65.12c-1.55-2.31-2.9-4.74-4.05-7.27-.13-.29-.56-.04-.43,.25,1.15,2.53,2.5,4.96,4.05,7.27,.18,.27,.61,.02,.43-.25h0Z"/>
        <path class="cls-1" d="M71.58,70.46c-1.55-2.31-2.9-4.74-4.05-7.27-.13-.29-.56-.04-.43,.25,1.15,2.53,2.5,4.96,4.05,7.27,.18,.27,.61,.02,.43-.25h0Z"/>
        <path class="cls-1" d="M62.59,75.75c-1.55-2.31-2.9-4.74-4.05-7.27-.13-.29-.56-.04-.43,.25,1.15,2.53,2.5,4.96,4.05,7.27,.18,.27,.61,.02,.43-.25h0Z"/>
        <path class="cls-1" d="M53.42,80.77c-1.55-2.31-2.9-4.74-4.05-7.27-.13-.29-.56-.04-.43,.25,1.15,2.53,2.5,4.96,4.05,7.27,.18,.27,.61,.02,.43-.25h0Z"/>
        <path class="cls-1" d="M106.51,49.37c-.82-1.1-1.54-2.26-2.16-3.48-.15-.29-.58-.03-.43,.25,.62,1.22,1.34,2.38,2.16,3.48,.08,.11,.22,.16,.34,.09,.11-.06,.17-.23,.09-.34h0Z"/>
        <path class="cls-1" d="M104.66,50.54c-.82-1.1-1.54-2.26-2.16-3.48-.15-.29-.58-.03-.43,.25,.62,1.22,1.34,2.38,2.16,3.48,.08,.11,.22,.16,.34,.09,.11-.06,.17-.23,.09-.34h0Z"/>
        <path class="cls-1" d="M102.83,51.66c-.82-1.1-1.54-2.26-2.16-3.48-.15-.29-.58-.03-.43,.25,.62,1.22,1.34,2.38,2.16,3.48,.08,.11,.22,.16,.34,.09,.11-.06,.17-.23,.09-.34h0Z"/>
        <path class="cls-1" d="M100.74,52.76c-.82-1.1-1.54-2.26-2.16-3.48-.15-.29-.58-.03-.43,.25,.62,1.22,1.34,2.38,2.16,3.48,.08,.11,.22,.16,.34,.09,.11-.06,.17-.23,.09-.34h0Z"/>
        <path class="cls-1" d="M96.94,54.87c-.82-1.1-1.54-2.26-2.16-3.48-.15-.29-.58-.03-.43,.25,.62,1.22,1.34,2.38,2.16,3.48,.08,.11,.22,.16,.34,.09,.11-.06,.17-.23,.09-.34h0Z"/>
        <path class="cls-1" d="M95.09,56.05c-.82-1.1-1.54-2.26-2.16-3.48-.15-.29-.58-.03-.43,.25,.62,1.22,1.34,2.38,2.16,3.48,.08,.11,.22,.16,.34,.09,.11-.06,.17-.23,.09-.34h0Z"/>
        <path class="cls-1" d="M93.26,57.17c-.82-1.1-1.54-2.26-2.16-3.48-.15-.29-.58-.03-.43,.25,.62,1.22,1.34,2.38,2.16,3.48,.08,.11,.22,.16,.34,.09,.11-.06,.17-.23,.09-.34h0Z"/>
        <path class="cls-1" d="M91.17,58.27c-.82-1.1-1.54-2.26-2.16-3.48-.15-.29-.58-.03-.43,.25,.62,1.22,1.34,2.38,2.16,3.48,.08,.11,.22,.16,.34,.09,.11-.06,.17-.23,.09-.34h0Z"/>
        <path class="cls-1" d="M87.56,60.07c-.82-1.1-1.54-2.26-2.16-3.48-.15-.29-.58-.03-.43,.25,.62,1.22,1.34,2.38,2.16,3.48,.08,.11,.22,.16,.34,.09,.11-.06,.17-.23,.09-.34h0Z"/>
        <path class="cls-1" d="M85.71,61.25c-.82-1.1-1.54-2.26-2.16-3.48-.15-.29-.58-.03-.43,.25,.62,1.22,1.34,2.38,2.16,3.48,.08,.11,.22,.16,.34,.09,.11-.06,.17-.23,.09-.34h0Z"/>
        <path class="cls-1" d="M83.88,62.37c-.82-1.1-1.54-2.26-2.16-3.48-.15-.29-.58-.03-.43,.25,.62,1.22,1.34,2.38,2.16,3.48,.08,.11,.22,.16,.34,.09,.11-.06,.17-.23,.09-.34h0Z"/>
        <path class="cls-1" d="M81.79,63.47c-.82-1.1-1.54-2.26-2.16-3.48-.15-.29-.58-.03-.43,.25,.62,1.22,1.34,2.38,2.16,3.48,.08,.11,.22,.16,.34,.09,.11-.06,.17-.23,.09-.34h0Z"/>
        <path class="cls-1" d="M78.19,65.08c-.82-1.1-1.54-2.26-2.16-3.48-.15-.29-.58-.03-.43,.25,.62,1.22,1.34,2.38,2.16,3.48,.08,.11,.22,.16,.34,.09,.11-.06,.17-.23,.09-.34h0Z"/>
        <path class="cls-1" d="M76.35,66.25c-.82-1.1-1.54-2.26-2.16-3.48-.15-.29-.58-.03-.43,.25,.62,1.22,1.34,2.38,2.16,3.48,.08,.11,.22,.16,.34,.09,.11-.06,.17-.23,.09-.34h0Z"/>
        <path class="cls-1" d="M74.52,67.37c-.82-1.1-1.54-2.26-2.16-3.48-.15-.29-.58-.03-.43,.25,.62,1.22,1.34,2.38,2.16,3.48,.08,.11,.22,.16,.34,.09,.11-.06,.17-.23,.09-.34h0Z"/>
        <path class="cls-1" d="M72.43,68.48c-.82-1.1-1.54-2.26-2.16-3.48-.15-.29-.58-.03-.43,.25,.62,1.22,1.34,2.38,2.16,3.48,.08,.11,.22,.16,.34,.09,.11-.06,.17-.23,.09-.34h0Z"/>
        <path class="cls-1" d="M69.08,70.17c-.82-1.1-1.54-2.26-2.16-3.48-.15-.29-.58-.03-.43,.25,.62,1.22,1.34,2.38,2.16,3.48,.08,.11,.22,.16,.34,.09,.11-.06,.17-.23,.09-.34h0Z"/>
        <path class="cls-1" d="M67.23,71.34c-.82-1.1-1.54-2.26-2.16-3.48-.15-.29-.58-.03-.43,.25,.62,1.22,1.34,2.38,2.16,3.48,.08,.11,.22,.16,.34,.09,.11-.06,.17-.23,.09-.34h0Z"/>
        <path class="cls-1" d="M65.41,72.46c-.82-1.1-1.54-2.26-2.16-3.48-.15-.29-.58-.03-.43,.25,.62,1.22,1.34,2.38,2.16,3.48,.08,.11,.22,.16,.34,.09,.11-.06,.17-.23,.09-.34h0Z"/>
        <path class="cls-1" d="M63.32,73.56c-.82-1.1-1.54-2.26-2.16-3.48-.15-.29-.58-.03-.43,.25,.62,1.22,1.34,2.38,2.16,3.48,.08,.11,.22,.16,.34,.09,.11-.06,.17-.23,.09-.34h0Z"/>
        <path class="cls-1" d="M59.86,74.99c-.82-1.1-1.54-2.26-2.16-3.48-.15-.29-.58-.03-.43,.25,.62,1.22,1.34,2.38,2.16,3.48,.08,.11,.22,.16,.34,.09,.11-.06,.17-.23,.09-.34h0Z"/>
        <path class="cls-1" d="M58.01,76.16c-.82-1.1-1.54-2.26-2.16-3.48-.15-.29-.58-.03-.43,.25,.62,1.22,1.34,2.38,2.16,3.48,.08,.11,.22,.16,.34,.09,.11-.06,.17-.23,.09-.34h0Z"/>
        <path class="cls-1" d="M56.18,77.28c-.82-1.1-1.54-2.26-2.16-3.48-.15-.29-.58-.03-.43,.25,.62,1.22,1.34,2.38,2.16,3.48,.08,.11,.22,.16,.34,.09,.11-.06,.17-.23,.09-.34h0Z"/>
        <path class="cls-1" d="M54.09,78.38c-.82-1.1-1.54-2.26-2.16-3.48-.15-.29-.58-.03-.43,.25,.62,1.22,1.34,2.38,2.16,3.48,.08,.11,.22,.16,.34,.09,.11-.06,.17-.23,.09-.34h0Z"/>
        <g>
          <line class="cls-4" x1="136.39" y1="26.48" x2="183.02" y2="1.17"/>
          <path class="cls-1" d="M137.54,27.84l-2.16-3.62c-.14-.23-.7,.01-.85,.11-1.65,.98-3.29,1.97-4.94,2.95-.14,.08-.32,.16-.44,.26-.41,.35,.2-.61,.5-.09-.06-.1-1.06-.04-1.17-.04-.93-.03-1.9-.17-2.83-.1-.45,.03-.78,.22-1.18,.42l-2.89,1.46c-1.6,.8-3.19,1.61-4.79,2.41l.74-.09-1.62-1.38c-.16-.13-.59,.02-.74,.09-2.79,1.52-5.59,3.04-8.38,4.57l.74-.09c-.67-.33-1.04-.57-1.72-.25-.37,.17-.71,.4-1.07,.6l-4.96,2.79c-5.95,3.34-11.91,6.69-17.86,10.03-7.43,4.17-14.86,8.34-22.29,12.52-6.56,3.68-13.12,7.36-19.67,11.04l-6.56,3.68c-.93,.52-2.3,1-3.09,1.74-.04,.03-.1,.05-.14,.08l.74-.09c-1.22-1.37-2.51-2.68-3.86-3.91-1.21-1.1-3.43-3.47-5.3-2.7-.88,.36-.88,1.24-.78,2.07,.29,2.34,1.34,4.66,2.26,6.81,.36,.85,.74,1.69,1.12,2.53,.18,.4,.56,.68,.45,.93-.13,.29-1.01,.67-1.26,.84l-4.99,3.31c-3.22,2.14-6.45,4.28-9.67,6.41l.83-.15c-1.46-1.34-3.08-2.63-4.84-3.57s-4.55-1.27-4.56,1.5c-.02,3.23,1.71,6.66,2.97,9.54,.11,.24,1.05-.07,.97-.26-1.14-2.6-2.33-5.31-2.83-8.12-.12-.67-.42-2.7,.36-3.01s2.14,.64,2.73,.99c.98,.58,1.91,1.27,2.8,1.99,.51,.41,1.01,.83,1.49,1.27,.17,.16,.67-.04,.83-.15,5.35-3.55,10.7-7.09,16.05-10.64,.03-.02,.14-.1,.11-.15-1.38-2.97-2.85-6.03-3.63-9.23-.16-.66-.37-1.47-.23-2.16,.04-.17,.12-.31,.17-.47,.02-.08-.18-.14,.09,0,1.05,.59,2.02,1.08,2.97,1.87,1.11,.93,2.14,1.93,3.15,2.97,.58,.59,1.15,1.2,1.7,1.82,.13,.14,.62-.03,.74-.09,2.52-1.41,5.03-2.83,7.55-4.24,6.01-3.37,12.02-6.75,18.03-10.12,7.31-4.1,14.61-8.2,21.92-12.3,6.32-3.55,12.64-7.1,18.96-10.64l6.25-3.51c.89-.5,2.21-.96,2.96-1.66,.03-.03,.09-.05,.13-.07l-.74,.09c.69,.34,1.01,.58,1.73,.25,.91-.42,1.78-.97,2.66-1.45,1.86-1.01,3.72-2.03,5.58-3.04l-.74,.09,1.62,1.38c.16,.14,.59-.02,.74-.09,1.6-.8,3.19-1.61,4.79-2.41l2.89-1.46s.56-.23,.56-.28c-.02,.42-.92,.02-.31,.14,.19,.04,.41,.01,.6,.02,1.52,.06,3.04,.41,4.38-.39,1.67-1,3.33-1.99,5-2.99l-.85,.11,2.16,3.62c.15,.25,1.05-.11,.97-.26h0Z"/>
          <path class="cls-1" d="M134.95,25.24c.66,1.24,1.32,2.48,1.99,3.72l.24-.47-5.07,2.71c-1.34,.72-1.82,2.27-2.54,3.57-.08,.14-.15,.32-.25,.45-.12,.17,.21-.19,.04-.05s-.4,.25-.59,.37l-2.62,1.65c-1.51,.95-3.02,1.9-4.54,2.86-.11,.07-.19,.19-.17,.33l.2,1.17c.03,.17,0,.59,.12,.72,.19,.21,.13-.08,.14-.08-.58,.34-1.16,.68-1.73,1.02l-5.59,3.28c-.34,.2-.83,.37-1.02,.74-.16,.31-.25,1.07,.2,.64-.02,.02-.06,.03-.08,.04-.37,.22-.75,.43-1.12,.64-5,2.85-10,5.7-15,8.55-8.09,4.61-16.18,9.22-24.27,13.83s-15.39,8.77-23.09,13.15c-3.91,2.23-8.02,4.27-11.79,6.72-.05,.04-.11,.07-.17,.1-.13,.07-.33,.21-.28,.39,.61,1.96,1.13,3.97,1.49,6,.21,1.19,.49,2.54,.25,3.75s-.98,.43-1.69-.2c-2.61-2.29-4.58-5.45-6.5-8.29-.13-.19-.49-.13-.65-.05-5.8,2.76-11.59,5.51-17.39,8.27-.15,.07-.31,.21-.28,.39,.33,1.59,.54,3.24,.57,4.87,.02,.97,.05,2.2-.43,3.09-.52,.95-1.46,.27-2.13-.22-2.47-1.81-4.33-4.6-6.07-7.06-.23-.33-1.16,.03-.89,.41,1.76,2.48,3.62,5.19,6.06,7.07,.89,.68,2.12,1.36,3.21,.7,1.87-1.13,1.25-4.8,1.04-6.57-.1-.85-.23-1.71-.4-2.55l-.28,.39c5.8-2.76,11.59-5.51,17.39-8.27l-.65-.05c1.94,2.87,3.93,6.03,6.56,8.35,.76,.67,2.05,1.6,3.01,.7,.78-.74,.57-2.23,.48-3.17-.16-1.63-.52-3.24-.92-4.82-.25-1-.52-2-.83-2.98l-.28,.39c3.13-1.78,6.25-3.56,9.38-5.35,7.23-4.12,14.46-8.24,21.68-12.35,8.1-4.61,16.2-9.23,24.3-13.84,5.74-3.27,11.48-6.54,17.22-9.81,.92-.52,2.11-.98,2.92-1.67,.07-.06,.16-.08,.21-.15,.09-.12,.06-.19,.1-.33,.03-.09,.09-.85-.02-.63-.09,.18,.13-.05,.29-.13,.34-.18,.66-.39,.99-.58l5.58-3.27,1.29-.76c.11-.07,.19-.2,.17-.33l-.15-.93c-.04-.25-.05-.55-.13-.79-.14-.42,.09-.26-.22-.06,.4-.26,.81-.51,1.21-.76l5.05-3.18c.97-.61,1.57-.91,2.12-1.9,.44-.8,1.02-1.62,1.36-2.47,.04-.09,.1-.18,.15-.26,.03-.06-.36,.26-.13,.13,.25-.14,.5-.27,.75-.4l4.84-2.59c.18-.1,.35-.25,.24-.47-.66-1.24-1.32-2.48-1.99-3.72-.19-.35-1.11-.01-.89,.41h0Z"/>
          <path class="cls-4" d="M31.24,92.7s-2.96-4.27-3.5-5.42-2.35-4.88-2.35-4.88"/>
          <path class="cls-5" d="M29.97,76.82s4.13,5.87,4.91,7.48,3.37,6.79,3.37,6.79"/>
          <path class="cls-7" d="M121.7,40.23s-.6-4.24-4.63-8.55"/>
        </g>
      </g>
      <g class="cls-8">
        <line class="cls-2" x1="136.03" y1="26.57" x2="182.76" y2="1.47"/>
        <path class="cls-2" d="M136.68,28.06l-2.15-3.63-5.55,3.29-4.04-.17-8.27,4.13-1.61-1.39-8.4,4.53-.85-.42L29.84,76.63s-16.2-18.37-5.19,5.48l-16.1,10.57s-13.54-11.76-4.56,8.87"/>
        <path class="cls-2" d="M135.04,25.12l1.97,3.73-5.7,3.02-1.97,3.53-7.84,4.89,.34,2.1-8.25,4.8-.08,.94L37.79,90.82s7.19,23.42-7.38,1.56l-17.43,8.2s3.91,19.4-8.99,.97"/>
        <path class="cls-2" d="M30.59,92.34s-2.95-4.28-3.48-5.44-2.33-4.89-2.33-4.89"/>
        <path class="cls-3" d="M29.38,76.45s4.1,5.89,4.88,7.5,3.34,6.8,3.34,6.8"/>
        <path class="cls-2" d="M121.27,40.25s-.58-4.24-4.6-8.57"/>
      </g>
      <g>
        <path class="cls-1" d="M109.26,49.74c-1.53-2.32-2.85-4.77-3.99-7.31-.13-.29-.56-.04-.43,.25,1.13,2.54,2.46,4.98,3.99,7.31,.18,.27,.61,.02,.43-.25h0Z"/>
        <path class="cls-1" d="M99.7,55.15c-1.53-2.32-2.85-4.77-3.99-7.31-.13-.29-.56-.04-.43,.25,1.13,2.54,2.46,4.98,3.99,7.31,.18,.27,.61,.02,.43-.25h0Z"/>
        <path class="cls-1" d="M90.4,60.4c-1.53-2.32-2.85-4.77-3.99-7.31-.13-.29-.56-.04-.43,.25,1.13,2.54,2.46,4.98,3.99,7.31,.18,.27,.61,.02,.43-.25h0Z"/>
        <path class="cls-1" d="M80.88,65.12c-1.53-2.32-2.85-4.77-3.99-7.31-.13-.29-.56-.04-.43,.25,1.13,2.54,2.46,4.98,3.99,7.31,.18,.27,.61,.02,.43-.25h0Z"/>
        <path class="cls-1" d="M71.57,70.38c-1.53-2.32-2.85-4.77-3.99-7.31-.13-.29-.56-.04-.43,.25,1.13,2.54,2.46,4.98,3.99,7.31,.18,.27,.61,.02,.43-.25h0Z"/>
        <path class="cls-1" d="M62.53,75.59c-1.53-2.32-2.85-4.77-3.99-7.31-.13-.29-.56-.04-.43,.25,1.13,2.54,2.46,4.98,3.99,7.31,.18,.27,.61,.02,.43-.25h0Z"/>
        <path class="cls-1" d="M53.32,80.53c-1.53-2.32-2.85-4.77-3.99-7.31-.13-.29-.56-.04-.43,.25,1.13,2.54,2.46,4.98,3.99,7.31,.18,.27,.61,.02,.43-.25h0Z"/>
        <path class="cls-1" d="M106.68,49.59c-.81-1.11-1.52-2.28-2.13-3.5-.14-.29-.58-.03-.43,.25,.61,1.22,1.32,2.4,2.13,3.5,.19,.26,.62,0,.43-.25h0Z"/>
        <path class="cls-1" d="M104.82,50.75c-.81-1.11-1.52-2.28-2.13-3.5-.14-.29-.58-.03-.43,.25,.61,1.22,1.32,2.4,2.13,3.5,.19,.26,.62,0,.43-.25h0Z"/>
        <path class="cls-1" d="M102.99,51.85c-.81-1.11-1.52-2.28-2.13-3.5-.14-.29-.58-.03-.43,.25,.61,1.22,1.32,2.4,2.13,3.5,.19,.26,.62,0,.43-.25h0Z"/>
        <path class="cls-1" d="M100.89,52.94c-.81-1.11-1.52-2.28-2.13-3.5-.14-.29-.58-.03-.43,.25,.61,1.22,1.32,2.4,2.13,3.5,.19,.26,.62,0,.43-.25h0Z"/>
        <path class="cls-1" d="M97.07,55.02c-.81-1.11-1.52-2.28-2.13-3.5-.14-.29-.58-.03-.43,.25,.61,1.22,1.32,2.4,2.13,3.5,.19,.26,.62,0,.43-.25h0Z"/>
        <path class="cls-1" d="M95.21,56.17c-.81-1.11-1.52-2.28-2.13-3.5-.14-.29-.58-.03-.43,.25,.61,1.22,1.32,2.4,2.13,3.5,.19,.26,.62,0,.43-.25h0Z"/>
        <path class="cls-1" d="M93.37,57.28c-.81-1.11-1.52-2.28-2.13-3.5-.14-.29-.58-.03-.43,.25,.61,1.22,1.32,2.4,2.13,3.5,.19,.26,.62,0,.43-.25h0Z"/>
        <path class="cls-1" d="M91.27,58.36c-.81-1.11-1.52-2.28-2.13-3.5-.14-.29-.58-.03-.43,.25,.61,1.22,1.32,2.4,2.13,3.5,.19,.26,.62,0,.43-.25h0Z"/>
        <path class="cls-1" d="M87.64,60.13c-.81-1.11-1.52-2.28-2.13-3.5-.14-.29-.58-.03-.43,.25,.61,1.22,1.32,2.4,2.13,3.5,.19,.26,.62,0,.43-.25h0Z"/>
        <path class="cls-1" d="M85.78,61.29c-.81-1.11-1.52-2.28-2.13-3.5-.14-.29-.58-.03-.43,.25,.61,1.22,1.32,2.4,2.13,3.5,.19,.26,.62,0,.43-.25h0Z"/>
        <path class="cls-1" d="M83.95,62.39c-.81-1.11-1.52-2.28-2.13-3.5-.14-.29-.58-.03-.43,.25,.61,1.22,1.32,2.4,2.13,3.5,.19,.26,.62,0,.43-.25h0Z"/>
        <path class="cls-1" d="M81.85,63.48c-.81-1.11-1.52-2.28-2.13-3.5-.14-.29-.58-.03-.43,.25,.61,1.22,1.32,2.4,2.13,3.5,.19,.26,.62,0,.43-.25h0Z"/>
        <path class="cls-1" d="M78.23,65.06c-.81-1.11-1.52-2.28-2.13-3.5-.14-.29-.58-.03-.43,.25,.61,1.22,1.32,2.4,2.13,3.5,.19,.26,.62,0,.43-.25h0Z"/>
        <path class="cls-1" d="M76.38,66.21c-.81-1.11-1.52-2.28-2.13-3.5-.14-.29-.58-.03-.43,.25,.61,1.22,1.32,2.4,2.13,3.5,.19,.26,.62,0,.43-.25h0Z"/>
        <path class="cls-1" d="M74.54,67.32c-.81-1.11-1.52-2.28-2.13-3.5-.14-.29-.58-.03-.43,.25,.61,1.22,1.32,2.4,2.13,3.5,.19,.26,.62,0,.43-.25h0Z"/>
        <path class="cls-1" d="M72.44,68.4c-.81-1.11-1.52-2.28-2.13-3.5-.14-.29-.58-.03-.43,.25,.61,1.22,1.32,2.4,2.13,3.5,.19,.26,.62,0,.43-.25h0Z"/>
        <path class="cls-1" d="M69.08,70.06c-.81-1.11-1.52-2.28-2.13-3.5-.14-.29-.58-.03-.43,.25,.61,1.22,1.32,2.4,2.13,3.5,.19,.26,.62,0,.43-.25h0Z"/>
        <path class="cls-1" d="M67.22,71.22c-.81-1.11-1.52-2.28-2.13-3.5-.14-.29-.58-.03-.43,.25,.61,1.22,1.32,2.4,2.13,3.5,.19,.26,.62,0,.43-.25h0Z"/>
        <path class="cls-1" d="M65.38,72.32c-.81-1.11-1.52-2.28-2.13-3.5-.14-.29-.58-.03-.43,.25,.61,1.22,1.32,2.4,2.13,3.5,.19,.26,.62,0,.43-.25h0Z"/>
        <path class="cls-1" d="M63.28,73.41c-.81-1.11-1.52-2.28-2.13-3.5-.14-.29-.58-.03-.43,.25,.61,1.22,1.32,2.4,2.13,3.5,.19,.26,.62,0,.43-.25h0Z"/>
        <path class="cls-1" d="M59.81,74.8c-.81-1.11-1.52-2.28-2.13-3.5-.14-.29-.58-.03-.43,.25,.61,1.22,1.32,2.4,2.13,3.5,.19,.26,.62,0,.43-.25h0Z"/>
        <path class="cls-1" d="M57.95,75.96c-.81-1.11-1.52-2.28-2.13-3.5-.14-.29-.58-.03-.43,.25,.61,1.22,1.32,2.4,2.13,3.5,.19,.26,.62,0,.43-.25h0Z"/>
        <path class="cls-1" d="M56.12,77.06c-.81-1.11-1.52-2.28-2.13-3.5-.14-.29-.58-.03-.43,.25,.61,1.22,1.32,2.4,2.13,3.5,.19,.26,.62,0,.43-.25h0Z"/>
        <path class="cls-1" d="M54.02,78.15c-.81-1.11-1.52-2.28-2.13-3.5-.14-.29-.58-.03-.43,.25,.61,1.22,1.32,2.4,2.13,3.5,.19,.26,.62,0,.43-.25h0Z"/>
      </g>
      <g>
        <path class="cls-1" d="M108.63,49.1c-1.56-2.3-2.92-4.73-4.09-7.25-.13-.29-.57-.04-.43,.25,1.17,2.52,2.53,4.95,4.09,7.25,.18,.27,.61,.02,.43-.25h0Z"/>
        <path class="cls-1" d="M99.15,54.64c-1.56-2.3-2.92-4.73-4.09-7.25-.13-.29-.57-.04-.43,.25,1.17,2.52,2.53,4.95,4.09,7.25,.18,.27,.61,.02,.43-.25h0Z"/>
        <path class="cls-1" d="M89.91,60.02c-1.56-2.3-2.92-4.73-4.09-7.25-.13-.29-.57-.04-.43,.25,1.17,2.52,2.53,4.95,4.09,7.25,.18,.27,.61,.02,.43-.25h0Z"/>
        <path class="cls-1" d="M80.45,64.87c-1.56-2.3-2.92-4.73-4.09-7.25-.13-.29-.57-.04-.43,.25,1.17,2.52,2.53,4.95,4.09,7.25,.18,.27,.61,.02,.43-.25h0Z"/>
        <path class="cls-1" d="M71.22,70.25c-1.56-2.3-2.92-4.73-4.09-7.25-.13-.29-.57-.04-.43,.25,1.17,2.52,2.53,4.95,4.09,7.25,.18,.27,.61,.02,.43-.25h0Z"/>
        <path class="cls-1" d="M62.25,75.58c-1.56-2.3-2.92-4.73-4.09-7.25-.13-.29-.57-.04-.43,.25,1.17,2.52,2.53,4.95,4.09,7.25,.18,.27,.61,.02,.43-.25h0Z"/>
        <path class="cls-1" d="M53.11,80.64c-1.56-2.3-2.92-4.73-4.09-7.25-.13-.29-.57-.04-.43,.25,1.17,2.52,2.53,4.95,4.09,7.25,.18,.27,.61,.02,.43-.25h0Z"/>
        <path class="cls-1" d="M106.05,48.99c-.82-1.09-1.55-2.26-2.18-3.47-.15-.29-.58-.03-.43,.25,.63,1.22,1.35,2.38,2.18,3.47,.08,.11,.22,.16,.34,.09,.11-.06,.17-.23,.09-.34h0Z"/>
        <path class="cls-1" d="M104.21,50.17c-.82-1.09-1.55-2.26-2.18-3.47-.15-.29-.58-.03-.43,.25,.63,1.22,1.35,2.38,2.18,3.47,.08,.11,.22,.16,.34,.09,.11-.06,.17-.23,.09-.34h0Z"/>
        <path class="cls-1" d="M102.38,51.3c-.82-1.09-1.55-2.26-2.18-3.47-.15-.29-.58-.03-.43,.25,.63,1.22,1.35,2.38,2.18,3.47,.08,.11,.22,.16,.34,.09,.11-.06,.17-.23,.09-.34h0Z"/>
        <path class="cls-1" d="M100.3,52.41c-.82-1.09-1.55-2.26-2.18-3.47-.15-.29-.58-.03-.43,.25,.63,1.22,1.35,2.38,2.18,3.47,.08,.11,.22,.16,.34,.09,.11-.06,.17-.23,.09-.34h0Z"/>
        <path class="cls-1" d="M96.51,54.54c-.82-1.09-1.55-2.26-2.18-3.47-.15-.29-.58-.03-.43,.25,.63,1.22,1.35,2.38,2.18,3.47,.08,.11,.22,.16,.34,.09,.11-.06,.17-.23,.09-.34h0Z"/>
        <path class="cls-1" d="M94.66,55.72c-.82-1.09-1.55-2.26-2.18-3.47-.15-.29-.58-.03-.43,.25,.63,1.22,1.35,2.38,2.18,3.47,.08,.11,.22,.16,.34,.09,.11-.06,.17-.23,.09-.34h0Z"/>
        <path class="cls-1" d="M92.84,56.85c-.82-1.09-1.55-2.26-2.18-3.47-.15-.29-.58-.03-.43,.25,.63,1.22,1.35,2.38,2.18,3.47,.08,.11,.22,.16,.34,.09,.11-.06,.17-.23,.09-.34h0Z"/>
        <path class="cls-1" d="M90.76,57.97c-.82-1.09-1.55-2.26-2.18-3.47-.15-.29-.58-.03-.43,.25,.63,1.22,1.35,2.38,2.18,3.47,.08,.11,.22,.16,.34,.09,.11-.06,.17-.23,.09-.34h0Z"/>
        <path class="cls-1" d="M87.15,59.78c-.82-1.09-1.55-2.26-2.18-3.47-.15-.29-.58-.03-.43,.25,.63,1.22,1.35,2.38,2.18,3.47,.08,.11,.22,.16,.34,.09,.11-.06,.17-.23,.09-.34h0Z"/>
        <path class="cls-1" d="M85.31,60.97c-.82-1.09-1.55-2.26-2.18-3.47-.15-.29-.58-.03-.43,.25,.63,1.22,1.35,2.38,2.18,3.47,.08,.11,.22,.16,.34,.09,.11-.06,.17-.23,.09-.34h0Z"/>
        <path class="cls-1" d="M83.49,62.09c-.82-1.09-1.55-2.26-2.18-3.47-.15-.29-.58-.03-.43,.25,.63,1.22,1.35,2.38,2.18,3.47,.08,.11,.22,.16,.34,.09,.11-.06,.17-.23,.09-.34h0Z"/>
        <path class="cls-1" d="M81.4,63.21c-.82-1.09-1.55-2.26-2.18-3.47-.15-.29-.58-.03-.43,.25,.63,1.22,1.35,2.38,2.18,3.47,.08,.11,.22,.16,.34,.09,.11-.06,.17-.23,.09-.34h0Z"/>
        <path class="cls-1" d="M77.81,64.83c-.82-1.09-1.55-2.26-2.18-3.47-.15-.29-.58-.03-.43,.25,.63,1.22,1.35,2.38,2.18,3.47,.08,.11,.22,.16,.34,.09,.11-.06,.17-.23,.09-.34h0Z"/>
        <path class="cls-1" d="M75.97,66.01c-.82-1.09-1.55-2.26-2.18-3.47-.15-.29-.58-.03-.43,.25,.63,1.22,1.35,2.38,2.18,3.47,.08,.11,.22,.16,.34,.09,.11-.06,.17-.23,.09-.34h0Z"/>
        <path class="cls-1" d="M74.14,67.14c-.82-1.09-1.55-2.26-2.18-3.47-.15-.29-.58-.03-.43,.25,.63,1.22,1.35,2.38,2.18,3.47,.08,.11,.22,.16,.34,.09,.11-.06,.17-.23,.09-.34h0Z"/>
        <path class="cls-1" d="M72.06,68.26c-.82-1.09-1.55-2.26-2.18-3.47-.15-.29-.58-.03-.43,.25,.63,1.22,1.35,2.38,2.18,3.47,.08,.11,.22,.16,.34,.09,.11-.06,.17-.23,.09-.34h0Z"/>
        <path class="cls-1" d="M68.72,69.96c-.82-1.09-1.55-2.26-2.18-3.47-.15-.29-.58-.03-.43,.25,.63,1.22,1.35,2.38,2.18,3.47,.08,.11,.22,.16,.34,.09,.11-.06,.17-.23,.09-.34h0Z"/>
        <path class="cls-1" d="M66.88,71.14c-.82-1.09-1.55-2.26-2.18-3.47-.15-.29-.58-.03-.43,.25,.63,1.22,1.35,2.38,2.18,3.47,.08,.11,.22,.16,.34,.09,.11-.06,.17-.23,.09-.34h0Z"/>
        <path class="cls-1" d="M65.06,72.27c-.82-1.09-1.55-2.26-2.18-3.47-.15-.29-.58-.03-.43,.25,.63,1.22,1.35,2.38,2.18,3.47,.08,.11,.22,.16,.34,.09,.11-.06,.17-.23,.09-.34h0Z"/>
        <path class="cls-1" d="M62.97,73.39c-.82-1.09-1.55-2.26-2.18-3.47-.15-.29-.58-.03-.43,.25,.63,1.22,1.35,2.38,2.18,3.47,.08,.11,.22,.16,.34,.09,.11-.06,.17-.23,.09-.34h0Z"/>
        <path class="cls-1" d="M59.52,74.83c-.82-1.09-1.55-2.26-2.18-3.47-.15-.29-.58-.03-.43,.25,.63,1.22,1.35,2.38,2.18,3.47,.08,.11,.22,.16,.34,.09,.11-.06,.17-.23,.09-.34h0Z"/>
        <path class="cls-1" d="M57.68,76.01c-.82-1.09-1.55-2.26-2.18-3.47-.15-.29-.58-.03-.43,.25,.63,1.22,1.35,2.38,2.18,3.47,.08,.11,.22,.16,.34,.09,.11-.06,.17-.23,.09-.34h0Z"/>
        <path class="cls-1" d="M55.86,77.14c-.82-1.09-1.55-2.26-2.18-3.47-.15-.29-.58-.03-.43,.25,.63,1.22,1.35,2.38,2.18,3.47,.08,.11,.22,.16,.34,.09,.11-.06,.17-.23,.09-.34h0Z"/>
        <path class="cls-1" d="M53.77,78.25c-.82-1.09-1.55-2.26-2.18-3.47-.15-.29-.58-.03-.43,.25,.63,1.22,1.35,2.38,2.18,3.47,.08,.11,.22,.16,.34,.09,.11-.06,.17-.23,.09-.34h0Z"/>
        <g>
          <line class="cls-4" x1="135.83" y1="25.96" x2="182.34" y2=".44"/>
          <path class="cls-1" d="M136.98,27.32c-.73-1.2-1.45-2.4-2.18-3.61-.14-.23-.7,.01-.85,.11-1.64,.99-3.28,1.98-4.92,2.97-.14,.08-.32,.16-.44,.27-.4,.35,.19-.61,.5-.09-.06-.1-1.06-.03-1.17-.04-.93-.03-1.9-.16-2.83-.09-.46,.03-.78,.22-1.18,.42l-2.89,1.47c-1.59,.81-3.18,1.62-4.77,2.44l.74-.09-1.62-1.37c-.16-.13-.59,.02-.74,.09-2.79,1.54-5.58,3.07-8.36,4.61l.74-.09c-.72-.35-1.07-.57-1.79-.2-.36,.18-.71,.4-1.06,.6l-4.86,2.76-17.74,10.07-22.44,12.74-19.62,11.14-6.49,3.69c-.98,.56-2.27,1.04-3.13,1.78-.04,.03-.09,.05-.14,.08l.83-.15c-1.22-1.36-2.52-2.67-3.88-3.89-1.21-1.09-3.44-3.45-5.31-2.68-.88,.36-.87,1.24-.77,2.07,.3,2.34,1.36,4.65,2.29,6.8,.37,.85,.74,1.69,1.13,2.53,.18,.4,.57,.67,.45,.93-.13,.29-1,.67-1.26,.84l-4.97,3.33c-3.21,2.15-6.43,4.31-9.64,6.46l.83-.15c-1.47-1.34-3.09-2.62-4.85-3.54S0,88.25,0,91.02c0,3.23,1.75,6.65,3.02,9.53,.11,.24,1.05-.07,.97-.26-1.15-2.59-2.35-5.3-2.86-8.1-.12-.68-.5-2.64,.4-3.02,.65-.28,2.1,.65,2.68,.98,.99,.58,1.91,1.26,2.81,1.97,.51,.41,1.02,.82,1.5,1.26,.18,.16,.67-.04,.83-.15,5.33-3.57,10.67-7.14,16-10.72,.03-.02,.14-.1,.11-.15-1.4-2.96-2.88-6.02-3.67-9.22-.16-.66-.38-1.47-.24-2.16,.04-.17,.12-.31,.17-.47,.02-.08-.18-.14,.09,0,1.06,.58,2.02,1.07,2.97,1.86,1.11,.92,2.15,1.92,3.16,2.95,.58,.59,1.16,1.19,1.71,1.81,.16,.18,.68-.06,.83-.15,2.51-1.42,5.02-2.85,7.53-4.27,5.99-3.4,11.99-6.8,17.98-10.2,7.29-4.14,14.57-8.27,21.86-12.41,6.3-3.58,12.61-7.15,18.91-10.73l6.23-3.54c.92-.52,2.15-.98,2.96-1.68,.03-.03,.09-.05,.13-.07l-.83,.15c.69,.34,1.02,.57,1.73,.24,.91-.42,1.78-.98,2.65-1.46,1.85-1.02,3.71-2.04,5.56-3.06l-.74,.09,1.62,1.37c.16,.13,.59-.02,.74-.09,1.59-.81,3.18-1.62,4.77-2.44l2.89-1.47s.56-.23,.56-.29c-.02,.41-.92,.02-.31,.14,.19,.03,.4,.01,.6,.02,1.52,.05,3.05,.4,4.38-.4,1.66-1,3.32-2.01,4.99-3.01l-.85,.11c.73,1.2,1.45,2.4,2.18,3.61,.15,.25,1.05-.11,.97-.26h0Z"/>
          <path class="cls-1" d="M134.38,24.72c.67,1.24,1.33,2.47,2,3.71l.24-.47c-1.69,.91-3.37,1.82-5.06,2.73-1.34,.72-1.81,2.27-2.52,3.58-.08,.14-.15,.32-.25,.45-.12,.17,.21-.19,.04-.05s-.4,.26-.59,.38l-2.62,1.67-4.52,2.88c-.11,.07-.19,.19-.17,.33l.2,1.17c.03,.17,.01,.59,.12,.72,.19,.21,.13-.08,.14-.08-.58,.34-1.15,.68-1.73,1.03l-5.58,3.31c-.34,.2-.83,.38-1.01,.74-.16,.31-.25,1.08,.2,.64-.02,.02-.06,.03-.08,.05-.37,.22-.74,.43-1.12,.64-4.99,2.87-9.97,5.75-14.96,8.62-8.07,4.65-16.14,9.29-24.2,13.94s-15.35,8.84-23.02,13.26c-3.9,2.24-8,4.31-11.76,6.77-.05,.04-.11,.07-.17,.1-.13,.07-.33,.21-.28,.39,.62,1.96,1.14,3.97,1.52,5.99,.22,1.19,.5,2.54,.27,3.75s-.92,.48-1.63-.14c-2.65-2.26-4.65-5.47-6.59-8.31-.13-.19-.48-.13-.65-.05-5.78,2.78-11.57,5.57-17.35,8.35-.14,.07-.31,.21-.28,.39,.34,1.6,.56,3.25,.6,4.89,.02,.97,.06,2.18-.42,3.07-.5,.94-1.41,.31-2.09-.17-2.5-1.79-4.38-4.61-6.15-7.06-.24-.33-1.16,.03-.89,.41,1.77,2.46,3.63,5.15,6.06,7.02,.88,.67,2.09,1.35,3.18,.75,1.95-1.08,1.29-4.87,1.07-6.64-.1-.84-.23-1.68-.41-2.52l-.28,.39c5.78-2.78,11.57-5.57,17.35-8.35l-.65-.05c1.95,2.86,3.95,5.99,6.57,8.29,.77,.68,2.07,1.62,3.04,.71,.78-.74,.57-2.23,.47-3.17-.17-1.63-.54-3.23-.94-4.81-.26-1-.53-2-.84-2.98l-.28,.39c3.12-1.8,6.24-3.59,9.36-5.39,7.21-4.15,14.42-8.3,21.63-12.46,8.08-4.65,16.15-9.3,24.23-13.96,5.72-3.3,11.45-6.59,17.17-9.89,.92-.53,2.1-.99,2.91-1.68,.07-.06,.16-.08,.21-.15,.09-.13,.06-.19,.1-.33,.03-.09,.08-.85-.03-.63-.08,.18,.13-.05,.29-.14,.33-.18,.66-.39,.99-.58l5.56-3.3,1.28-.76c.11-.07,.19-.2,.17-.33l-.16-.93c-.04-.25-.05-.55-.14-.79-.14-.42,.08-.27-.23-.05,.4-.27,.81-.51,1.21-.77l5.03-3.2c.97-.62,1.57-.91,2.11-1.91,.44-.8,1.01-1.62,1.35-2.47,.04-.09,.1-.18,.14-.27,.03-.06-.36,.26-.13,.13,.25-.14,.5-.27,.75-.41l4.83-2.61c.18-.1,.35-.25,.24-.47-.67-1.24-1.33-2.47-2-3.71-.19-.35-1.12-.01-.89,.41h0Z"/>
          <path class="cls-4" d="M30.99,92.67s-2.98-4.25-3.53-5.41-2.37-4.87-2.37-4.87"/>
          <path class="cls-6" d="M29.64,76.79s4.16,5.85,4.94,7.46,3.4,6.77,3.4,6.77"/>
          <path class="cls-7" d="M121.2,39.78s-.62-4.23-4.67-8.53"/>
          <path class="cls-6" d="M8.78,92.81s2.33,3.4,2.77,4.33,1.91,3.93,1.91,3.93"/>
        </g>
      </g>
    </g>
  </g>
</svg>